<?xml version="1.0" encoding="utf-8"?>
<!-- Generator: Adobe Illustrator 23.0.1, SVG Export Plug-In . SVG Version: 6.00 Build 0)  -->
<svg version="1.1" id="Ebene_1" xmlns="http://www.w3.org/2000/svg" xmlns:xlink="http://www.w3.org/1999/xlink" x="0px" y="0px"
	 viewBox="0 0 1892.1 831.1" style="enable-background:new 0 0 1892.1 831.1;" xml:space="preserve">
<style type="text/css">
	.st0{fill:#FFCA00;}
	.st1{clip-path:url(#SVGID_2_);fill:none;stroke:#565650;stroke-width:4;stroke-linecap:round;stroke-linejoin:round;}
	
		.st2{clip-path:url(#SVGID_2_);fill:none;stroke:#565650;stroke-width:3;stroke-linecap:round;stroke-linejoin:round;stroke-dasharray:0,8.988;}
	.st3{clip-path:url(#SVGID_2_);fill:none;stroke:#565650;stroke-width:3;stroke-linecap:round;stroke-linejoin:round;}
	.st4{clip-path:url(#SVGID_2_);}
	.st5{fill:#231F20;}
	.st6{clip-path:url(#SVGID_2_);fill:#231F20;}
	.st7{opacity:0.48;clip-path:url(#SVGID_4_);}
	.st8{clip-path:url(#SVGID_6_);fill:#FFC907;}
	.st9{clip-path:url(#SVGID_2_);fill:none;stroke:#231F20;stroke-width:3;}
	.st10{clip-path:url(#SVGID_2_);fill:none;stroke:#231F20;stroke-width:4;}
</style>
<g>
	<defs>
		<rect id="SVGID_1_" x="2.3" y="-73.4" width="1917.7" height="917.8"/>
	</defs>
	<clipPath id="SVGID_2_">
		<use xlink:href="#SVGID_1_"  style="overflow:visible;"/>
	</clipPath>
	<line class="st1" x1="310.1" y1="343.6" x2="628.1" y2="73.4"/>
	<line class="st1" x1="946.1" y1="343.2" x2="628.1" y2="73"/>
	<line class="st1" x1="944.8" y1="343.6" x2="1262.8" y2="73.4"/>
	<line class="st1" x1="1580.8" y1="343.2" x2="1262.8" y2="73"/>
	<line class="st1" x1="310.3" y1="342" x2="628.3" y2="612.2"/>
	<line class="st1" x1="946.3" y1="342.4" x2="628.3" y2="612.6"/>
	<line class="st1" x1="944.9" y1="342.8" x2="1263" y2="613"/>
	<line class="st1" x1="1581" y1="343.3" x2="1263" y2="613.4"/>
	<line class="st2" x1="627.9" y1="77.2" x2="627.9" y2="609.5"/>
	<path class="st3" d="M627.9,612.1L627.9,612.1 M627.9,72L627.9,72"/>
	<line class="st2" x1="1260.6" y1="78" x2="1260.6" y2="610.2"/>
	<path class="st3" d="M1260.6,612.8L1260.6,612.8 M1260.6,72.8L1260.6,72.8"/>
	<g class="st4">
		<path class="st5" d="M436.7,309.9c-0.5,0-0.8-0.2-0.9-0.7l-0.3-1.4c-0.3,0.3-0.6,0.7-1,0.9s-0.7,0.5-1.1,0.7
			c-0.4,0.2-0.8,0.4-1.3,0.5s-0.9,0.2-1.5,0.2c-0.8,0-1.6-0.2-2.2-0.5s-1.3-0.8-1.7-1.5c-0.5-0.6-0.9-1.4-1.1-2.4
			c-0.3-0.9-0.4-2-0.4-3.2c0-1.1,0.1-2.1,0.4-3.1s0.7-1.8,1.3-2.5c0.6-0.7,1.2-1.2,2-1.6s1.7-0.6,2.6-0.6c0.8,0,1.5,0.1,2.1,0.4
			c0.6,0.3,1.1,0.6,1.6,1.1v-7.8h3.6v21.5H436.7z M431.9,307.3c0.7,0,1.4-0.2,1.9-0.5c0.5-0.3,1-0.7,1.5-1.3v-6.6
			c-0.4-0.5-0.8-0.8-1.3-1s-1-0.3-1.5-0.3c-0.5,0-1,0.1-1.5,0.3c-0.4,0.2-0.8,0.5-1.1,0.9s-0.5,0.9-0.7,1.6
			c-0.2,0.6-0.2,1.4-0.2,2.2c0,0.9,0.1,1.6,0.2,2.2c0.1,0.6,0.3,1.1,0.6,1.5c0.3,0.4,0.6,0.7,1,0.8
			C431.1,307.2,431.5,307.3,431.9,307.3z"/>
		<path class="st5" d="M447.1,290.7c0,0.3-0.1,0.6-0.2,0.9c-0.1,0.3-0.3,0.5-0.5,0.7s-0.5,0.4-0.7,0.5c-0.3,0.1-0.6,0.2-0.9,0.2
			c-0.3,0-0.6-0.1-0.9-0.2c-0.3-0.1-0.5-0.3-0.7-0.5s-0.4-0.4-0.5-0.7c-0.1-0.3-0.2-0.6-0.2-0.9c0-0.3,0.1-0.6,0.2-0.9
			c0.1-0.3,0.3-0.5,0.5-0.7s0.4-0.4,0.7-0.5c0.3-0.1,0.6-0.2,0.9-0.2c0.3,0,0.6,0.1,0.9,0.2c0.3,0.1,0.5,0.3,0.7,0.5
			s0.4,0.4,0.5,0.7C447,290.1,447.1,290.4,447.1,290.7z M446.5,295.1v14.8H443v-14.8H446.5z"/>
		<path class="st5" d="M459.4,297.9c-0.1,0.2-0.2,0.3-0.3,0.3c-0.1,0.1-0.2,0.1-0.4,0.1c-0.2,0-0.4,0-0.6-0.1
			c-0.2-0.1-0.4-0.2-0.7-0.3c-0.3-0.1-0.6-0.2-0.9-0.3c-0.3-0.1-0.7-0.1-1.2-0.1c-0.7,0-1.3,0.1-1.7,0.4c-0.4,0.3-0.6,0.7-0.6,1.2
			c0,0.3,0.1,0.6,0.3,0.8s0.5,0.4,0.8,0.6s0.7,0.3,1.2,0.4s0.9,0.3,1.3,0.4c0.5,0.2,0.9,0.3,1.3,0.5c0.4,0.2,0.8,0.4,1.2,0.8
			c0.3,0.3,0.6,0.7,0.8,1.1c0.2,0.4,0.3,0.9,0.3,1.5c0,0.7-0.1,1.4-0.4,2c-0.3,0.6-0.6,1.1-1.1,1.6c-0.5,0.4-1.1,0.8-1.9,1
			c-0.7,0.2-1.6,0.4-2.5,0.4c-0.5,0-1,0-1.5-0.1c-0.5-0.1-1-0.2-1.4-0.4c-0.4-0.2-0.9-0.4-1.2-0.6s-0.7-0.5-1-0.7l0.8-1.4
			c0.1-0.2,0.2-0.3,0.4-0.4c0.1-0.1,0.3-0.1,0.5-0.1s0.4,0.1,0.6,0.2s0.4,0.3,0.7,0.4s0.6,0.3,0.9,0.4s0.8,0.2,1.3,0.2
			c0.4,0,0.8-0.1,1.1-0.2c0.3-0.1,0.6-0.2,0.8-0.4c0.2-0.2,0.3-0.4,0.4-0.6c0.1-0.2,0.1-0.4,0.1-0.7c0-0.3-0.1-0.6-0.3-0.9
			s-0.5-0.4-0.8-0.6c-0.3-0.2-0.7-0.3-1.2-0.4s-0.9-0.3-1.3-0.4s-0.9-0.3-1.3-0.5c-0.4-0.2-0.8-0.5-1.2-0.8
			c-0.3-0.3-0.6-0.7-0.8-1.2c-0.2-0.5-0.3-1-0.3-1.7c0-0.6,0.1-1.2,0.4-1.7s0.6-1,1.1-1.4c0.5-0.4,1-0.7,1.7-1
			c0.7-0.2,1.5-0.4,2.4-0.4c1,0,1.9,0.2,2.8,0.5c0.8,0.3,1.5,0.8,2.1,1.3L459.4,297.9z"/>
		<path class="st5" d="M473.6,298.2c-0.1,0.1-0.2,0.2-0.3,0.3s-0.2,0.1-0.4,0.1c-0.2,0-0.4-0.1-0.5-0.2s-0.4-0.2-0.6-0.4
			c-0.2-0.1-0.5-0.3-0.9-0.4c-0.3-0.1-0.7-0.2-1.2-0.2c-0.6,0-1.2,0.1-1.6,0.3c-0.5,0.2-0.9,0.6-1.2,1c-0.3,0.4-0.5,0.9-0.7,1.5
			c-0.2,0.6-0.2,1.3-0.2,2c0,0.8,0.1,1.5,0.3,2.1c0.2,0.6,0.4,1.1,0.7,1.6c0.3,0.4,0.7,0.7,1.2,1c0.5,0.2,1,0.3,1.5,0.3
			c0.6,0,1-0.1,1.4-0.2c0.4-0.1,0.6-0.3,0.9-0.5c0.2-0.2,0.4-0.3,0.6-0.5c0.2-0.1,0.4-0.2,0.6-0.2c0.3,0,0.5,0.1,0.6,0.3l1,1.3
			c-0.4,0.5-0.8,0.8-1.3,1.2c-0.5,0.3-0.9,0.6-1.4,0.8c-0.5,0.2-1,0.3-1.5,0.4c-0.5,0.1-1.1,0.1-1.6,0.1c-0.9,0-1.8-0.2-2.6-0.5
			c-0.8-0.3-1.5-0.8-2.1-1.5c-0.6-0.7-1.1-1.5-1.4-2.4s-0.5-2-0.5-3.2c0-1.1,0.2-2.1,0.5-3c0.3-0.9,0.8-1.7,1.4-2.4
			c0.6-0.7,1.4-1.2,2.3-1.6c0.9-0.4,1.9-0.6,3.1-0.6c1.1,0,2.1,0.2,2.9,0.5c0.8,0.4,1.6,0.9,2.2,1.5L473.6,298.2z"/>
		<path class="st5" d="M483.3,294.8c1.1,0,2.1,0.2,3,0.5s1.7,0.9,2.3,1.5c0.6,0.7,1.1,1.5,1.5,2.4c0.3,0.9,0.5,2,0.5,3.2
			c0,1.2-0.2,2.2-0.5,3.2c-0.3,0.9-0.8,1.7-1.5,2.4c-0.6,0.7-1.4,1.2-2.3,1.5c-0.9,0.4-1.9,0.5-3,0.5c-1.1,0-2.1-0.2-3-0.5
			c-0.9-0.4-1.7-0.9-2.3-1.5c-0.6-0.7-1.1-1.5-1.5-2.4c-0.4-0.9-0.5-2-0.5-3.2c0-1.2,0.2-2.2,0.5-3.2c0.4-0.9,0.8-1.7,1.5-2.4
			c0.6-0.7,1.4-1.2,2.3-1.5C481.2,295,482.2,294.8,483.3,294.8z M483.3,307.3c1.2,0,2.1-0.4,2.7-1.2s0.9-2,0.9-3.6
			c0-1.6-0.3-2.8-0.9-3.7c-0.6-0.8-1.5-1.3-2.7-1.3c-1.3,0-2.2,0.4-2.8,1.3c-0.6,0.8-0.9,2.1-0.9,3.6s0.3,2.8,0.9,3.6
			C481.1,306.9,482,307.3,483.3,307.3z"/>
		<path class="st5" d="M500.3,309.9h-3.2l-5.9-14.8h3c0.3,0,0.5,0.1,0.7,0.2c0.2,0.1,0.3,0.3,0.4,0.5l2.9,7.9
			c0.2,0.5,0.3,0.9,0.4,1.4c0.1,0.4,0.2,0.9,0.3,1.3c0.1-0.4,0.2-0.9,0.3-1.3c0.1-0.4,0.3-0.9,0.4-1.4l2.9-7.9
			c0.1-0.2,0.2-0.4,0.4-0.5c0.2-0.1,0.4-0.2,0.6-0.2h2.8L500.3,309.9z"/>
		<path class="st5" d="M514,294.8c0.9,0,1.8,0.1,2.6,0.4c0.8,0.3,1.5,0.7,2,1.3c0.6,0.6,1,1.3,1.3,2.1c0.3,0.8,0.5,1.8,0.5,2.9
			c0,0.3,0,0.5,0,0.7c0,0.2-0.1,0.3-0.1,0.4c-0.1,0.1-0.1,0.2-0.3,0.2s-0.2,0.1-0.4,0.1h-9.2c0.1,1.5,0.5,2.6,1.2,3.4
			c0.7,0.7,1.7,1.1,2.8,1.1c0.6,0,1.1-0.1,1.5-0.2s0.8-0.3,1.1-0.4c0.3-0.2,0.6-0.3,0.8-0.4c0.2-0.1,0.5-0.2,0.7-0.2
			c0.1,0,0.3,0,0.4,0.1s0.2,0.1,0.3,0.2l1,1.3c-0.4,0.5-0.8,0.8-1.3,1.2c-0.5,0.3-1,0.6-1.5,0.8c-0.5,0.2-1.1,0.3-1.6,0.4
			c-0.6,0.1-1.1,0.1-1.6,0.1c-1,0-2-0.2-2.9-0.5c-0.9-0.3-1.7-0.8-2.3-1.5s-1.2-1.5-1.5-2.5c-0.4-1-0.6-2.1-0.6-3.4
			c0-1,0.2-2,0.5-2.9s0.8-1.7,1.4-2.3c0.6-0.7,1.4-1.2,2.2-1.6C511.9,295,512.9,294.8,514,294.8z M514.1,297.4c-1,0-1.9,0.3-2.4,0.9
			c-0.6,0.6-1,1.4-1.1,2.5h6.7c0-0.5-0.1-0.9-0.2-1.3c-0.1-0.4-0.3-0.8-0.6-1.1c-0.3-0.3-0.6-0.6-1-0.7
			C515.1,297.5,514.6,297.4,514.1,297.4z"/>
		<path class="st5" d="M523.3,309.9v-14.8h2.1c0.4,0,0.6,0.1,0.8,0.2s0.2,0.4,0.3,0.7l0.2,1.8c0.5-0.9,1.2-1.6,1.9-2.2
			c0.7-0.5,1.5-0.8,2.4-0.8c0.7,0,1.3,0.2,1.8,0.5l-0.5,2.7c0,0.2-0.1,0.3-0.2,0.4s-0.2,0.1-0.4,0.1c-0.1,0-0.3,0-0.6-0.1
			c-0.3-0.1-0.6-0.1-1-0.1c-0.7,0-1.4,0.2-1.9,0.6c-0.5,0.4-1,1-1.3,1.8v9.2H523.3z"/>
	</g>
	<path class="st6" d="M709.3,309.9c-0.5,0-0.8-0.2-0.9-0.6l-0.3-1.4c-0.3,0.3-0.6,0.7-1,0.9c-0.3,0.3-0.7,0.5-1.1,0.7
		c-0.4,0.2-0.8,0.4-1.3,0.5s-0.9,0.2-1.5,0.2c-0.8,0-1.6-0.2-2.2-0.5c-0.7-0.3-1.3-0.8-1.7-1.5c-0.5-0.6-0.9-1.4-1.1-2.4
		c-0.3-0.9-0.4-2-0.4-3.2c0-1.1,0.1-2.1,0.4-3.1c0.3-0.9,0.7-1.8,1.3-2.5c0.6-0.7,1.2-1.2,2-1.6c0.8-0.4,1.7-0.6,2.6-0.6
		c0.8,0,1.5,0.1,2.1,0.4c0.6,0.3,1.1,0.6,1.6,1.1v-7.8h3.6v21.5H709.3z M704.6,307.3c0.7,0,1.4-0.2,1.9-0.5c0.5-0.3,1-0.7,1.5-1.3
		v-6.6c-0.4-0.5-0.8-0.8-1.3-1c-0.5-0.2-1-0.3-1.5-0.3c-0.5,0-1,0.1-1.5,0.3c-0.4,0.2-0.8,0.5-1.1,0.9c-0.3,0.4-0.5,0.9-0.7,1.6
		c-0.2,0.6-0.2,1.4-0.2,2.2c0,0.9,0.1,1.6,0.2,2.2c0.1,0.6,0.3,1.1,0.6,1.5c0.3,0.4,0.6,0.7,1,0.8
		C703.7,307.2,704.1,307.3,704.6,307.3z M721.5,294.8c0.9,0,1.8,0.1,2.6,0.4c0.8,0.3,1.5,0.7,2,1.3c0.6,0.6,1,1.3,1.3,2.1
		c0.3,0.8,0.5,1.8,0.5,2.9c0,0.3,0,0.5,0,0.7c0,0.2-0.1,0.3-0.1,0.4c-0.1,0.1-0.1,0.2-0.3,0.2c-0.1,0-0.2,0.1-0.4,0.1h-9.2
		c0.1,1.5,0.5,2.6,1.2,3.4c0.7,0.7,1.7,1.1,2.8,1.1c0.6,0,1.1-0.1,1.5-0.2c0.4-0.1,0.8-0.3,1.1-0.4c0.3-0.2,0.6-0.3,0.8-0.4
		c0.2-0.1,0.5-0.2,0.7-0.2c0.1,0,0.3,0,0.4,0.1c0.1,0.1,0.2,0.1,0.3,0.2l1,1.3c-0.4,0.5-0.8,0.8-1.3,1.2c-0.5,0.3-1,0.6-1.5,0.8
		s-1.1,0.3-1.6,0.4c-0.6,0.1-1.1,0.1-1.6,0.1c-1,0-2-0.2-2.9-0.5c-0.9-0.3-1.7-0.8-2.3-1.5c-0.7-0.7-1.2-1.5-1.5-2.5
		c-0.4-1-0.6-2.1-0.6-3.4c0-1,0.2-2,0.5-2.9c0.3-0.9,0.8-1.7,1.4-2.3c0.6-0.7,1.4-1.2,2.2-1.6C719.4,295,720.4,294.8,721.5,294.8z
		 M721.5,297.4c-1,0-1.9,0.3-2.4,0.9c-0.6,0.6-1,1.4-1.1,2.5h6.7c0-0.5-0.1-0.9-0.2-1.3c-0.1-0.4-0.3-0.8-0.6-1.1
		c-0.3-0.3-0.6-0.6-1-0.7C722.5,297.5,722.1,297.4,721.5,297.4z M731.4,309.9v-12.1l-1.3-0.2c-0.3,0-0.5-0.1-0.7-0.3
		c-0.2-0.1-0.3-0.3-0.3-0.6v-1.5h2.2v-0.5c0-0.9,0.1-1.7,0.4-2.5c0.3-0.8,0.8-1.4,1.4-2c0.6-0.6,1.4-1,2.3-1.3
		c0.9-0.3,2-0.5,3.3-0.5c0.4,0,0.8,0,1.2,0.1c0.4,0,0.8,0.1,1.1,0.2l-0.1,1.8c0,0.2-0.1,0.4-0.4,0.4c-0.2,0-0.5,0.1-0.8,0.1
		c-0.9,0-1.7,0.1-2.3,0.2c-0.6,0.2-1.1,0.4-1.5,0.7c-0.4,0.3-0.7,0.7-0.8,1.2c-0.2,0.5-0.3,1.1-0.3,1.7v0.4h9.2v14.7h-3.6v-12.1H735
		v12.1H731.4z M748.1,309.9v-14.8h2.2c0.5,0,0.8,0.2,0.9,0.6l0.2,1.2c0.3-0.3,0.6-0.6,0.9-0.8c0.3-0.3,0.7-0.5,1.1-0.6
		c0.4-0.2,0.8-0.3,1.2-0.4c0.4-0.1,0.9-0.1,1.4-0.1c0.8,0,1.5,0.1,2.2,0.4c0.6,0.3,1.1,0.7,1.6,1.2c0.4,0.5,0.7,1.1,1,1.8
		c0.2,0.7,0.3,1.4,0.3,2.3v9.4h-3.6v-9.4c0-0.9-0.2-1.6-0.6-2.1c-0.4-0.5-1-0.7-1.9-0.7c-0.6,0-1.2,0.1-1.7,0.4
		c-0.5,0.3-1,0.7-1.5,1.1v10.7H748.1z M770.7,294.8c0.9,0,1.8,0.1,2.6,0.4c0.8,0.3,1.5,0.7,2,1.3c0.6,0.6,1,1.3,1.3,2.1
		c0.3,0.8,0.5,1.8,0.5,2.9c0,0.3,0,0.5,0,0.7c0,0.2-0.1,0.3-0.1,0.4c-0.1,0.1-0.1,0.2-0.3,0.2c-0.1,0-0.2,0.1-0.4,0.1h-9.2
		c0.1,1.5,0.5,2.6,1.2,3.4c0.7,0.7,1.7,1.1,2.8,1.1c0.6,0,1.1-0.1,1.5-0.2c0.4-0.1,0.8-0.3,1.1-0.4c0.3-0.2,0.6-0.3,0.8-0.4
		c0.2-0.1,0.5-0.2,0.7-0.2c0.1,0,0.3,0,0.4,0.1c0.1,0.1,0.2,0.1,0.3,0.2l1,1.3c-0.4,0.5-0.8,0.8-1.3,1.2c-0.5,0.3-1,0.6-1.5,0.8
		c-0.5,0.2-1.1,0.3-1.6,0.4c-0.6,0.1-1.1,0.1-1.6,0.1c-1,0-2-0.2-2.9-0.5c-0.9-0.3-1.7-0.8-2.3-1.5c-0.7-0.7-1.2-1.5-1.5-2.5
		c-0.4-1-0.6-2.1-0.6-3.4c0-1,0.2-2,0.5-2.9c0.3-0.9,0.8-1.7,1.4-2.3c0.6-0.7,1.4-1.2,2.2-1.6C768.6,295,769.6,294.8,770.7,294.8z
		 M770.7,297.4c-1,0-1.9,0.3-2.4,0.9c-0.6,0.6-1,1.4-1.1,2.5h6.7c0-0.5-0.1-0.9-0.2-1.3c-0.1-0.4-0.3-0.8-0.6-1.1
		c-0.3-0.3-0.6-0.6-1-0.7C771.7,297.5,771.3,297.4,770.7,297.4z"/>
	<g class="st4">
		<path class="st5" d="M1077.9,309.9c-0.5,0-0.8-0.2-0.9-0.7l-0.3-1.4c-0.3,0.3-0.6,0.7-1,0.9c-0.3,0.3-0.7,0.5-1.1,0.7
			s-0.8,0.4-1.3,0.5c-0.4,0.1-0.9,0.2-1.5,0.2c-0.8,0-1.5-0.2-2.2-0.5c-0.7-0.3-1.3-0.8-1.7-1.5c-0.5-0.6-0.9-1.4-1.1-2.4
			c-0.3-0.9-0.4-2-0.4-3.2c0-1.1,0.1-2.1,0.4-3.1c0.3-0.9,0.7-1.8,1.3-2.5s1.2-1.2,2-1.6c0.8-0.4,1.7-0.6,2.6-0.6
			c0.8,0,1.5,0.1,2.1,0.4c0.6,0.3,1.1,0.6,1.6,1.1v-7.8h3.6v21.5H1077.9z M1073.1,307.3c0.7,0,1.4-0.2,1.9-0.5
			c0.5-0.3,1-0.7,1.5-1.3v-6.6c-0.4-0.5-0.8-0.8-1.3-1s-1-0.3-1.5-0.3c-0.5,0-1,0.1-1.5,0.3c-0.4,0.2-0.8,0.5-1.1,0.9
			c-0.3,0.4-0.5,0.9-0.7,1.6c-0.2,0.6-0.2,1.4-0.2,2.2c0,0.9,0.1,1.6,0.2,2.2s0.3,1.1,0.6,1.5c0.3,0.4,0.6,0.7,1,0.8
			C1072.3,307.2,1072.7,307.3,1073.1,307.3z"/>
		<path class="st5" d="M1090.1,294.8c0.9,0,1.8,0.1,2.6,0.4c0.8,0.3,1.5,0.7,2,1.3c0.6,0.6,1,1.3,1.3,2.1c0.3,0.8,0.5,1.8,0.5,2.9
			c0,0.3,0,0.5,0,0.7c0,0.2-0.1,0.3-0.1,0.4c-0.1,0.1-0.1,0.2-0.3,0.2c-0.1,0-0.2,0.1-0.4,0.1h-9.2c0.1,1.5,0.5,2.6,1.2,3.4
			c0.7,0.7,1.7,1.1,2.8,1.1c0.6,0,1.1-0.1,1.5-0.2c0.4-0.1,0.8-0.3,1.1-0.4c0.3-0.2,0.6-0.3,0.8-0.4c0.2-0.1,0.5-0.2,0.7-0.2
			c0.1,0,0.3,0,0.4,0.1c0.1,0.1,0.2,0.1,0.3,0.2l1,1.3c-0.4,0.5-0.8,0.8-1.3,1.2c-0.5,0.3-1,0.6-1.5,0.8c-0.5,0.2-1.1,0.3-1.6,0.4
			c-0.6,0.1-1.1,0.1-1.6,0.1c-1,0-2-0.2-2.9-0.5s-1.7-0.8-2.3-1.5c-0.7-0.7-1.2-1.5-1.5-2.5c-0.4-1-0.6-2.1-0.6-3.4
			c0-1,0.2-2,0.5-2.9c0.3-0.9,0.8-1.7,1.4-2.3c0.6-0.7,1.4-1.2,2.2-1.6C1088,295,1088.9,294.8,1090.1,294.8z M1090.1,297.4
			c-1,0-1.9,0.3-2.4,0.9c-0.6,0.6-1,1.4-1.1,2.5h6.7c0-0.5-0.1-0.9-0.2-1.3c-0.1-0.4-0.3-0.8-0.6-1.1c-0.3-0.3-0.6-0.6-1-0.7
			C1091.1,297.5,1090.7,297.4,1090.1,297.4z"/>
		<path class="st5" d="M1106.3,309.9h-3.2l-5.9-14.8h3c0.3,0,0.5,0.1,0.7,0.2c0.2,0.1,0.3,0.3,0.4,0.5l2.9,7.9
			c0.2,0.5,0.3,0.9,0.4,1.4c0.1,0.4,0.2,0.9,0.3,1.3c0.1-0.4,0.2-0.9,0.3-1.3c0.1-0.4,0.3-0.9,0.4-1.4l2.9-7.9
			c0.1-0.2,0.2-0.4,0.4-0.5c0.2-0.1,0.4-0.2,0.6-0.2h2.8L1106.3,309.9z"/>
		<path class="st5" d="M1120,294.8c0.9,0,1.8,0.1,2.6,0.4c0.8,0.3,1.5,0.7,2,1.3c0.6,0.6,1,1.3,1.3,2.1c0.3,0.8,0.5,1.8,0.5,2.9
			c0,0.3,0,0.5,0,0.7c0,0.2-0.1,0.3-0.1,0.4c-0.1,0.1-0.1,0.2-0.3,0.2c-0.1,0-0.2,0.1-0.4,0.1h-9.2c0.1,1.5,0.5,2.6,1.2,3.4
			c0.7,0.7,1.7,1.1,2.8,1.1c0.6,0,1.1-0.1,1.5-0.2c0.4-0.1,0.8-0.3,1.1-0.4c0.3-0.2,0.6-0.3,0.8-0.4c0.2-0.1,0.5-0.2,0.7-0.2
			c0.1,0,0.3,0,0.4,0.1c0.1,0.1,0.2,0.1,0.3,0.2l1,1.3c-0.4,0.5-0.8,0.8-1.3,1.2c-0.5,0.3-1,0.6-1.5,0.8c-0.5,0.2-1.1,0.3-1.6,0.4
			c-0.6,0.1-1.1,0.1-1.6,0.1c-1,0-2-0.2-2.9-0.5s-1.7-0.8-2.3-1.5c-0.7-0.7-1.2-1.5-1.5-2.5c-0.4-1-0.6-2.1-0.6-3.4
			c0-1,0.2-2,0.5-2.9c0.3-0.9,0.8-1.7,1.4-2.3c0.6-0.7,1.4-1.2,2.2-1.6C1117.9,295,1118.9,294.8,1120,294.8z M1120.1,297.4
			c-1,0-1.9,0.3-2.4,0.9c-0.6,0.6-1,1.4-1.1,2.5h6.7c0-0.5-0.1-0.9-0.2-1.3c-0.1-0.4-0.3-0.8-0.6-1.1c-0.3-0.3-0.6-0.6-1-0.7
			C1121,297.5,1120.6,297.4,1120.1,297.4z"/>
		<path class="st5" d="M1133.1,288.4v21.5h-3.6v-21.5H1133.1z"/>
		<path class="st5" d="M1143.4,294.8c1.1,0,2.1,0.2,3,0.5c0.9,0.4,1.7,0.9,2.3,1.5c0.6,0.7,1.1,1.5,1.5,2.4c0.3,0.9,0.5,2,0.5,3.2
			c0,1.2-0.2,2.2-0.5,3.2c-0.3,0.9-0.8,1.7-1.5,2.4c-0.6,0.7-1.4,1.2-2.3,1.5c-0.9,0.4-1.9,0.5-3,0.5s-2.1-0.2-3-0.5
			c-0.9-0.4-1.7-0.9-2.3-1.5s-1.1-1.5-1.5-2.4c-0.4-0.9-0.5-2-0.5-3.2c0-1.2,0.2-2.2,0.5-3.2c0.4-0.9,0.8-1.7,1.5-2.4
			c0.6-0.7,1.4-1.2,2.3-1.5S1142.3,294.8,1143.4,294.8z M1143.4,307.3c1.2,0,2.1-0.4,2.7-1.2c0.6-0.8,0.9-2,0.9-3.6
			c0-1.6-0.3-2.8-0.9-3.7c-0.6-0.8-1.5-1.3-2.7-1.3c-1.3,0-2.2,0.4-2.8,1.3c-0.6,0.8-0.9,2.1-0.9,3.6s0.3,2.8,0.9,3.6
			C1141.3,306.9,1142.2,307.3,1143.4,307.3z"/>
		<path class="st5" d="M1153.5,314.7v-19.7h2.2c0.2,0,0.4,0.1,0.6,0.2c0.2,0.1,0.3,0.3,0.3,0.5l0.3,1.4c0.6-0.7,1.3-1.2,2.1-1.7
			c0.8-0.4,1.7-0.6,2.7-0.6c0.8,0,1.5,0.2,2.2,0.5c0.7,0.3,1.2,0.8,1.7,1.5s0.9,1.4,1.1,2.4c0.3,0.9,0.4,2,0.4,3.2
			c0,1.1-0.1,2.1-0.4,3.1c-0.3,0.9-0.7,1.8-1.3,2.5s-1.2,1.2-2,1.6c-0.8,0.4-1.7,0.6-2.6,0.6c-0.8,0-1.5-0.1-2.1-0.4
			c-0.6-0.3-1.1-0.6-1.6-1.1v6.1H1153.5z M1160.5,297.6c-0.7,0-1.4,0.2-1.9,0.5c-0.5,0.3-1,0.8-1.5,1.3v6.6c0.4,0.5,0.8,0.8,1.3,1
			s1,0.3,1.5,0.3c0.5,0,1-0.1,1.5-0.3c0.4-0.2,0.8-0.5,1.1-0.9c0.3-0.4,0.5-0.9,0.7-1.6c0.2-0.6,0.2-1.4,0.2-2.2
			c0-0.9-0.1-1.6-0.2-2.2c-0.1-0.6-0.3-1.1-0.6-1.5c-0.3-0.4-0.6-0.6-0.9-0.8C1161.4,297.7,1160.9,297.6,1160.5,297.6z"/>
	</g>
	<g class="st4">
		<path class="st5" d="M1335.1,309.9c-0.5,0-0.8-0.2-0.9-0.7l-0.3-1.4c-0.3,0.3-0.6,0.7-1,0.9c-0.3,0.3-0.7,0.5-1.1,0.7
			s-0.8,0.4-1.3,0.5c-0.4,0.1-0.9,0.2-1.5,0.2c-0.8,0-1.5-0.2-2.2-0.5c-0.7-0.3-1.3-0.8-1.7-1.5c-0.5-0.6-0.9-1.4-1.1-2.4
			c-0.3-0.9-0.4-2-0.4-3.2c0-1.1,0.1-2.1,0.4-3.1c0.3-0.9,0.7-1.8,1.3-2.5s1.2-1.2,2-1.6c0.8-0.4,1.7-0.6,2.6-0.6
			c0.8,0,1.5,0.1,2.1,0.4c0.6,0.3,1.1,0.6,1.6,1.1v-7.8h3.6v21.5H1335.1z M1330.3,307.3c0.7,0,1.4-0.2,1.9-0.5
			c0.5-0.3,1-0.7,1.5-1.3v-6.6c-0.4-0.5-0.8-0.8-1.3-1s-1-0.3-1.5-0.3c-0.5,0-1,0.1-1.5,0.3c-0.4,0.2-0.8,0.5-1.1,0.9
			c-0.3,0.4-0.5,0.9-0.7,1.6c-0.2,0.6-0.2,1.4-0.2,2.2c0,0.9,0.1,1.6,0.2,2.2s0.3,1.1,0.6,1.5c0.3,0.4,0.6,0.7,1,0.8
			C1329.5,307.2,1329.9,307.3,1330.3,307.3z"/>
		<path class="st5" d="M1347.3,294.8c0.9,0,1.8,0.1,2.6,0.4c0.8,0.3,1.5,0.7,2,1.3c0.6,0.6,1,1.3,1.3,2.1c0.3,0.8,0.5,1.8,0.5,2.9
			c0,0.3,0,0.5,0,0.7c0,0.2-0.1,0.3-0.1,0.4c-0.1,0.1-0.1,0.2-0.3,0.2c-0.1,0-0.2,0.1-0.4,0.1h-9.2c0.1,1.5,0.5,2.6,1.2,3.4
			c0.7,0.7,1.7,1.1,2.8,1.1c0.6,0,1.1-0.1,1.5-0.2c0.4-0.1,0.8-0.3,1.1-0.4c0.3-0.2,0.6-0.3,0.8-0.4c0.2-0.1,0.5-0.2,0.7-0.2
			c0.1,0,0.3,0,0.4,0.1c0.1,0.1,0.2,0.1,0.3,0.2l1,1.3c-0.4,0.5-0.8,0.8-1.3,1.2c-0.5,0.3-1,0.6-1.5,0.8c-0.5,0.2-1.1,0.3-1.6,0.4
			c-0.6,0.1-1.1,0.1-1.6,0.1c-1,0-2-0.2-2.9-0.5s-1.7-0.8-2.3-1.5c-0.7-0.7-1.2-1.5-1.5-2.5c-0.4-1-0.6-2.1-0.6-3.4
			c0-1,0.2-2,0.5-2.9c0.3-0.9,0.8-1.7,1.4-2.3c0.6-0.7,1.4-1.2,2.2-1.6C1345.2,295,1346.1,294.8,1347.3,294.8z M1347.3,297.4
			c-1,0-1.9,0.3-2.4,0.9c-0.6,0.6-1,1.4-1.1,2.5h6.7c0-0.5-0.1-0.9-0.2-1.3c-0.1-0.4-0.3-0.8-0.6-1.1c-0.3-0.3-0.6-0.6-1-0.7
			C1348.3,297.5,1347.9,297.4,1347.3,297.4z"/>
		<path class="st5" d="M1360.4,288.4v21.5h-3.6v-21.5H1360.4z"/>
		<path class="st5" d="M1368.7,290.7c0,0.3-0.1,0.6-0.2,0.9c-0.1,0.3-0.3,0.5-0.5,0.7c-0.2,0.2-0.5,0.4-0.7,0.5
			c-0.3,0.1-0.6,0.2-0.9,0.2c-0.3,0-0.6-0.1-0.9-0.2c-0.3-0.1-0.5-0.3-0.7-0.5s-0.4-0.4-0.5-0.7c-0.1-0.3-0.2-0.6-0.2-0.9
			c0-0.3,0.1-0.6,0.2-0.9c0.1-0.3,0.3-0.5,0.5-0.7s0.4-0.4,0.7-0.5c0.3-0.1,0.6-0.2,0.9-0.2c0.3,0,0.6,0.1,0.9,0.2
			c0.3,0.1,0.5,0.3,0.7,0.5c0.2,0.2,0.4,0.4,0.5,0.7C1368.7,290.1,1368.7,290.4,1368.7,290.7z M1368.2,295.1v14.8h-3.6v-14.8H1368.2
			z"/>
		<path class="st5" d="M1379.6,309.9h-3.2l-5.9-14.8h3c0.3,0,0.5,0.1,0.7,0.2c0.2,0.1,0.3,0.3,0.4,0.5l2.9,7.9
			c0.2,0.5,0.3,0.9,0.4,1.4c0.1,0.4,0.2,0.9,0.3,1.3c0.1-0.4,0.2-0.9,0.3-1.3c0.1-0.4,0.3-0.9,0.4-1.4l2.9-7.9
			c0.1-0.2,0.2-0.4,0.4-0.5c0.2-0.1,0.4-0.2,0.6-0.2h2.8L1379.6,309.9z"/>
		<path class="st5" d="M1393.3,294.8c0.9,0,1.8,0.1,2.6,0.4c0.8,0.3,1.5,0.7,2,1.3c0.6,0.6,1,1.3,1.3,2.1c0.3,0.8,0.5,1.8,0.5,2.9
			c0,0.3,0,0.5,0,0.7c0,0.2-0.1,0.3-0.1,0.4c-0.1,0.1-0.1,0.2-0.3,0.2c-0.1,0-0.2,0.1-0.4,0.1h-9.2c0.1,1.5,0.5,2.6,1.2,3.4
			c0.7,0.7,1.7,1.1,2.8,1.1c0.6,0,1.1-0.1,1.5-0.2c0.4-0.1,0.8-0.3,1.1-0.4c0.3-0.2,0.6-0.3,0.8-0.4c0.2-0.1,0.5-0.2,0.7-0.2
			c0.1,0,0.3,0,0.4,0.1c0.1,0.1,0.2,0.1,0.3,0.2l1,1.3c-0.4,0.5-0.8,0.8-1.3,1.2c-0.5,0.3-1,0.6-1.5,0.8c-0.5,0.2-1.1,0.3-1.6,0.4
			c-0.6,0.1-1.1,0.1-1.6,0.1c-1,0-2-0.2-2.9-0.5s-1.7-0.8-2.3-1.5c-0.7-0.7-1.2-1.5-1.5-2.5c-0.4-1-0.6-2.1-0.6-3.4
			c0-1,0.2-2,0.5-2.9c0.3-0.9,0.8-1.7,1.4-2.3c0.6-0.7,1.4-1.2,2.2-1.6C1391.2,295,1392.2,294.8,1393.3,294.8z M1393.4,297.4
			c-1,0-1.9,0.3-2.4,0.9c-0.6,0.6-1,1.4-1.1,2.5h6.7c0-0.5-0.1-0.9-0.2-1.3c-0.1-0.4-0.3-0.8-0.6-1.1c-0.3-0.3-0.6-0.6-1-0.7
			C1394.4,297.5,1393.9,297.4,1393.4,297.4z"/>
		<path class="st5" d="M1402.6,309.9v-14.8h2.1c0.4,0,0.6,0.1,0.8,0.2c0.1,0.1,0.2,0.4,0.3,0.7l0.2,1.8c0.5-0.9,1.2-1.6,1.9-2.2
			c0.7-0.5,1.5-0.8,2.4-0.8c0.7,0,1.3,0.2,1.8,0.5l-0.5,2.7c0,0.2-0.1,0.3-0.2,0.4c-0.1,0.1-0.2,0.1-0.4,0.1c-0.1,0-0.3,0-0.6-0.1
			c-0.3-0.1-0.6-0.1-1-0.1c-0.7,0-1.4,0.2-1.9,0.6c-0.5,0.4-1,1-1.3,1.8v9.2H1402.6z"/>
	</g>
	<g class="st4">
		<path class="st5" d="M35.7,527.1c0.6,0,1.2,0.1,1.8,0.2c0.6,0.1,1.1,0.3,1.5,0.6h4v1c0,0.3-0.2,0.5-0.6,0.6l-1.7,0.2
			c0.3,0.6,0.5,1.3,0.5,2.1c0,0.7-0.1,1.4-0.4,1.9c-0.3,0.6-0.7,1.1-1.1,1.5s-1.1,0.7-1.7,1c-0.7,0.2-1.4,0.3-2.2,0.3
			c-0.7,0-1.3-0.1-1.9-0.2c-0.3,0.2-0.5,0.4-0.7,0.6c-0.2,0.2-0.2,0.5-0.2,0.7c0,0.4,0.1,0.6,0.4,0.8c0.3,0.2,0.7,0.3,1.1,0.4
			c0.5,0.1,1,0.1,1.6,0.1s1.2,0,1.8,0c0.6,0,1.2,0.1,1.8,0.2s1.1,0.3,1.6,0.5c0.5,0.2,0.8,0.6,1.1,1s0.4,1,0.4,1.7
			c0,0.6-0.2,1.2-0.5,1.8s-0.8,1.1-1.4,1.6c-0.6,0.5-1.3,0.8-2.2,1.1c-0.8,0.3-1.8,0.4-2.9,0.4s-2-0.1-2.8-0.3
			c-0.8-0.2-1.5-0.5-2-0.9c-0.5-0.4-0.9-0.8-1.2-1.2s-0.4-1-0.4-1.5c0-0.7,0.2-1.3,0.7-1.8c0.5-0.5,1.1-0.9,1.9-1.2
			c-0.4-0.2-0.7-0.4-1-0.8s-0.4-0.8-0.4-1.3c0-0.2,0-0.4,0.1-0.7c0.1-0.2,0.2-0.4,0.4-0.7c0.2-0.2,0.4-0.4,0.6-0.6s0.5-0.4,0.8-0.5
			c-0.7-0.4-1.3-0.9-1.7-1.6c-0.4-0.7-0.6-1.5-0.6-2.3c0-0.7,0.1-1.4,0.4-1.9c0.3-0.6,0.7-1.1,1.1-1.5s1.1-0.7,1.8-0.9
			S34.9,527.1,35.7,527.1z M40.3,542.7c0-0.4-0.1-0.7-0.3-0.9c-0.2-0.2-0.5-0.4-0.8-0.5c-0.3-0.1-0.7-0.2-1.2-0.3
			c-0.5-0.1-0.9-0.1-1.4-0.1s-1,0-1.5,0s-1-0.1-1.5-0.2c-0.5,0.3-1,0.6-1.3,1s-0.5,0.8-0.5,1.3c0,0.3,0.1,0.6,0.3,0.9
			s0.4,0.5,0.8,0.7c0.3,0.2,0.8,0.4,1.3,0.5c0.5,0.1,1.1,0.2,1.9,0.2c0.7,0,1.3-0.1,1.9-0.2c0.5-0.1,1-0.3,1.4-0.5s0.7-0.5,0.9-0.8
			C40.2,543.4,40.3,543.1,40.3,542.7z M35.7,534.8c0.5,0,1-0.1,1.4-0.2c0.4-0.1,0.7-0.3,1-0.6s0.5-0.6,0.6-0.9
			c0.1-0.4,0.2-0.8,0.2-1.2c0-0.9-0.3-1.6-0.8-2.1c-0.5-0.5-1.3-0.8-2.4-0.8c-1,0-1.8,0.3-2.4,0.8c-0.5,0.5-0.8,1.2-0.8,2.1
			c0,0.4,0.1,0.8,0.2,1.2c0.1,0.4,0.3,0.7,0.6,0.9c0.3,0.3,0.6,0.5,1,0.6C34.7,534.7,35.2,534.8,35.7,534.8z"/>
		<path class="st5" d="M51.3,527.1c0.9,0,1.7,0.1,2.4,0.4c0.7,0.3,1.4,0.7,1.9,1.3c0.5,0.6,1,1.2,1.3,2.1c0.3,0.8,0.5,1.7,0.5,2.8
			c0,0.4,0,0.7-0.1,0.8c-0.1,0.1-0.3,0.2-0.5,0.2H47c0,0.9,0.1,1.7,0.4,2.4c0.2,0.7,0.5,1.3,1,1.7s0.9,0.8,1.4,1
			c0.6,0.2,1.2,0.3,1.9,0.3c0.6,0,1.2-0.1,1.7-0.2c0.5-0.1,0.9-0.3,1.2-0.5c0.3-0.2,0.6-0.3,0.8-0.5c0.2-0.1,0.4-0.2,0.6-0.2
			c0.2,0,0.4,0.1,0.5,0.2l0.7,0.9c-0.3,0.4-0.7,0.7-1.1,1s-0.9,0.5-1.4,0.7s-1,0.3-1.6,0.4c-0.5,0.1-1.1,0.1-1.6,0.1
			c-1,0-1.9-0.2-2.8-0.5s-1.6-0.8-2.2-1.5s-1.1-1.5-1.5-2.4s-0.5-2.1-0.5-3.4c0-1,0.2-2,0.5-2.9s0.8-1.7,1.4-2.3
			c0.6-0.7,1.3-1.2,2.2-1.5C49.3,527.3,50.3,527.1,51.3,527.1z M51.4,529c-1.2,0-2.2,0.4-2.9,1.1c-0.7,0.7-1.2,1.7-1.3,3h8
			c0-0.6-0.1-1.1-0.2-1.6c-0.2-0.5-0.4-0.9-0.7-1.3c-0.3-0.4-0.7-0.6-1.2-0.8C52.5,529.1,52,529,51.4,529z"/>
		<path class="st5" d="M60.7,541.9v-14.6h1.5c0.4,0,0.6,0.2,0.7,0.5l0.2,1.6c0.6-0.7,1.3-1.3,2.1-1.7c0.8-0.4,1.7-0.6,2.7-0.6
			c0.8,0,1.5,0.1,2.1,0.4c0.6,0.3,1.1,0.6,1.5,1.1c0.4,0.5,0.7,1.1,0.9,1.8c0.2,0.7,0.3,1.4,0.3,2.3v9.3h-2.6v-9.3
			c0-1.1-0.3-2-0.8-2.6c-0.5-0.6-1.3-0.9-2.3-0.9c-0.8,0-1.5,0.2-2.1,0.5s-1.3,0.9-1.8,1.5v10.8H60.7z"/>
		<path class="st5" d="M82.5,527.1c0.9,0,1.7,0.1,2.4,0.4c0.7,0.3,1.4,0.7,1.9,1.3c0.5,0.6,1,1.2,1.3,2.1c0.3,0.8,0.5,1.7,0.5,2.8
			c0,0.4,0,0.7-0.1,0.8c-0.1,0.1-0.3,0.2-0.5,0.2h-9.7c0,0.9,0.1,1.7,0.4,2.4c0.2,0.7,0.5,1.3,1,1.7s0.9,0.8,1.4,1
			c0.6,0.2,1.2,0.3,1.9,0.3c0.6,0,1.2-0.1,1.7-0.2c0.5-0.1,0.9-0.3,1.2-0.5c0.3-0.2,0.6-0.3,0.8-0.5c0.2-0.1,0.4-0.2,0.6-0.2
			c0.2,0,0.4,0.1,0.5,0.2l0.7,0.9c-0.3,0.4-0.7,0.7-1.1,1s-0.9,0.5-1.4,0.7s-1,0.3-1.6,0.4c-0.5,0.1-1.1,0.1-1.6,0.1
			c-1,0-1.9-0.2-2.8-0.5s-1.6-0.8-2.2-1.5s-1.1-1.5-1.5-2.4s-0.5-2.1-0.5-3.4c0-1,0.2-2,0.5-2.9s0.8-1.7,1.4-2.3
			c0.6-0.7,1.3-1.2,2.2-1.5C80.5,527.3,81.5,527.1,82.5,527.1z M82.6,529c-1.2,0-2.2,0.4-2.9,1.1c-0.7,0.7-1.2,1.7-1.3,3h8
			c0-0.6-0.1-1.1-0.2-1.6c-0.2-0.5-0.4-0.9-0.7-1.3c-0.3-0.4-0.7-0.6-1.2-0.8C83.7,529.1,83.2,529,82.6,529z"/>
		<path class="st5" d="M91.9,541.9v-14.6h1.5c0.3,0,0.5,0.1,0.6,0.2c0.1,0.1,0.2,0.3,0.2,0.5l0.2,2.3c0.5-1,1.1-1.8,1.9-2.4
			c0.7-0.6,1.6-0.9,2.6-0.9c0.4,0,0.8,0,1.1,0.1c0.3,0.1,0.6,0.2,0.9,0.4l-0.3,1.9c-0.1,0.2-0.2,0.4-0.4,0.4c-0.1,0-0.3,0-0.6-0.1
			s-0.7-0.1-1.2-0.1c-0.9,0-1.6,0.3-2.2,0.8c-0.6,0.5-1.1,1.3-1.5,2.3v9.3H91.9z"/>
		<path class="st5" d="M113.7,541.9h-1.1c-0.3,0-0.5,0-0.6-0.1c-0.2-0.1-0.3-0.2-0.3-0.5l-0.3-1.4c-0.4,0.3-0.8,0.7-1.1,0.9
			s-0.8,0.5-1.2,0.7c-0.4,0.2-0.8,0.3-1.3,0.4c-0.5,0.1-1,0.1-1.5,0.1c-0.6,0-1.1-0.1-1.6-0.2c-0.5-0.2-0.9-0.4-1.3-0.7
			c-0.4-0.3-0.7-0.7-0.9-1.2c-0.2-0.5-0.3-1.1-0.3-1.7c0-0.6,0.2-1.1,0.5-1.7c0.3-0.5,0.8-1,1.5-1.4c0.7-0.4,1.6-0.8,2.8-1
			c1.1-0.3,2.5-0.4,4.2-0.4v-1.1c0-1.1-0.2-2-0.7-2.6c-0.5-0.6-1.2-0.9-2.2-0.9c-0.6,0-1.2,0.1-1.6,0.2s-0.8,0.3-1.1,0.5
			c-0.3,0.2-0.6,0.4-0.8,0.5c-0.2,0.2-0.5,0.2-0.7,0.2c-0.2,0-0.3,0-0.5-0.1s-0.2-0.2-0.3-0.3l-0.5-0.8c0.8-0.8,1.7-1.4,2.6-1.7
			c0.9-0.4,2-0.6,3.1-0.6c0.8,0,1.5,0.1,2.2,0.4c0.6,0.3,1.2,0.6,1.6,1.1c0.4,0.5,0.8,1.1,1,1.7c0.2,0.7,0.3,1.4,0.3,2.3V541.9z
			 M107,540.4c0.5,0,0.9,0,1.2-0.1c0.4-0.1,0.7-0.2,1.1-0.4c0.3-0.2,0.6-0.4,1-0.6c0.3-0.2,0.6-0.5,0.9-0.8v-3c-1.2,0-2.2,0.1-3,0.2
			c-0.8,0.2-1.5,0.3-2,0.6s-0.9,0.5-1.1,0.9c-0.2,0.3-0.4,0.7-0.4,1.1c0,0.4,0.1,0.7,0.2,1c0.1,0.3,0.3,0.5,0.5,0.7
			c0.2,0.2,0.5,0.3,0.8,0.4C106.4,540.3,106.7,540.4,107,540.4z"/>
		<path class="st5" d="M120.5,520.7v21.3h-2.6v-21.3H120.5z"/>
		<path class="st5" d="M140.6,529.9c-0.1,0.1-0.2,0.2-0.2,0.2s-0.2,0.1-0.3,0.1s-0.3-0.1-0.5-0.2c-0.2-0.1-0.4-0.3-0.6-0.4
			c-0.3-0.1-0.6-0.3-0.9-0.4c-0.4-0.1-0.8-0.2-1.4-0.2c-0.7,0-1.3,0.1-1.9,0.4c-0.5,0.3-1,0.6-1.4,1.1s-0.6,1.1-0.8,1.7
			c-0.2,0.7-0.3,1.4-0.3,2.3c0,0.9,0.1,1.7,0.3,2.4s0.5,1.3,0.9,1.7c0.4,0.5,0.8,0.8,1.3,1.1s1.1,0.4,1.8,0.4c0.6,0,1.1-0.1,1.5-0.2
			c0.4-0.1,0.7-0.3,1-0.5c0.3-0.2,0.5-0.3,0.7-0.5c0.2-0.1,0.3-0.2,0.5-0.2c0.2,0,0.4,0.1,0.5,0.2l0.7,0.9c-0.6,0.8-1.4,1.4-2.4,1.7
			c-1,0.4-2,0.5-3,0.5c-0.9,0-1.8-0.2-2.5-0.5c-0.8-0.3-1.5-0.8-2-1.5c-0.6-0.6-1-1.4-1.4-2.4c-0.3-0.9-0.5-2-0.5-3.2
			c0-1.1,0.2-2.1,0.5-3c0.3-0.9,0.7-1.7,1.3-2.4c0.6-0.7,1.3-1.2,2.2-1.6c0.9-0.4,1.8-0.6,2.9-0.6c1,0,1.9,0.2,2.7,0.5
			c0.8,0.3,1.5,0.8,2.1,1.4L140.6,529.9z"/>
		<path class="st5" d="M144.1,541.9v-21.3h2.6v8.6c0.6-0.7,1.3-1.2,2.1-1.6c0.8-0.4,1.6-0.6,2.6-0.6c0.8,0,1.5,0.1,2.1,0.4
			c0.6,0.3,1.1,0.6,1.5,1.1c0.4,0.5,0.7,1.1,0.9,1.8c0.2,0.7,0.3,1.4,0.3,2.3v9.3h-2.6v-9.3c0-1.1-0.3-2-0.8-2.6
			c-0.5-0.6-1.3-0.9-2.3-0.9c-0.8,0-1.5,0.2-2.1,0.5s-1.3,0.9-1.8,1.5v10.8H144.1z"/>
		<path class="st5" d="M170.9,541.9h-1.1c-0.3,0-0.5,0-0.6-0.1c-0.2-0.1-0.3-0.2-0.3-0.5l-0.3-1.4c-0.4,0.3-0.8,0.7-1.1,0.9
			s-0.8,0.5-1.2,0.7c-0.4,0.2-0.8,0.3-1.3,0.4c-0.5,0.1-1,0.1-1.5,0.1c-0.6,0-1.1-0.1-1.6-0.2c-0.5-0.2-0.9-0.4-1.3-0.7
			c-0.4-0.3-0.7-0.7-0.9-1.2c-0.2-0.5-0.3-1.1-0.3-1.7c0-0.6,0.2-1.1,0.5-1.7c0.3-0.5,0.8-1,1.5-1.4c0.7-0.4,1.6-0.8,2.8-1
			c1.1-0.3,2.5-0.4,4.2-0.4v-1.1c0-1.1-0.2-2-0.7-2.6c-0.5-0.6-1.2-0.9-2.2-0.9c-0.6,0-1.2,0.1-1.6,0.2s-0.8,0.3-1.1,0.5
			c-0.3,0.2-0.6,0.4-0.8,0.5c-0.2,0.2-0.5,0.2-0.7,0.2c-0.2,0-0.3,0-0.5-0.1s-0.2-0.2-0.3-0.3l-0.5-0.8c0.8-0.8,1.7-1.4,2.6-1.7
			c0.9-0.4,2-0.6,3.1-0.6c0.8,0,1.5,0.1,2.2,0.4c0.6,0.3,1.2,0.6,1.6,1.1c0.4,0.5,0.8,1.1,1,1.7c0.2,0.7,0.3,1.4,0.3,2.3V541.9z
			 M164.2,540.4c0.5,0,0.9,0,1.2-0.1c0.4-0.1,0.7-0.2,1.1-0.4c0.3-0.2,0.6-0.4,1-0.6c0.3-0.2,0.6-0.5,0.9-0.8v-3
			c-1.2,0-2.2,0.1-3,0.2c-0.8,0.2-1.5,0.3-2,0.6s-0.9,0.5-1.1,0.9c-0.2,0.3-0.4,0.7-0.4,1.1c0,0.4,0.1,0.7,0.2,1
			c0.1,0.3,0.3,0.5,0.5,0.7c0.2,0.2,0.5,0.3,0.8,0.4C163.5,540.3,163.9,540.4,164.2,540.4z"/>
		<path class="st5" d="M177.6,520.7v21.3h-2.6v-21.3H177.6z"/>
		<path class="st5" d="M185,520.7v21.3h-2.6v-21.3H185z"/>
		<path class="st5" d="M195.4,527.1c0.9,0,1.7,0.1,2.4,0.4c0.7,0.3,1.4,0.7,1.9,1.3c0.5,0.6,1,1.2,1.3,2.1c0.3,0.8,0.5,1.7,0.5,2.8
			c0,0.4,0,0.7-0.1,0.8c-0.1,0.1-0.3,0.2-0.5,0.2h-9.7c0,0.9,0.1,1.7,0.4,2.4c0.2,0.7,0.5,1.3,1,1.7s0.9,0.8,1.4,1
			c0.6,0.2,1.2,0.3,1.9,0.3c0.6,0,1.2-0.1,1.7-0.2c0.5-0.1,0.9-0.3,1.2-0.5c0.3-0.2,0.6-0.3,0.8-0.5c0.2-0.1,0.4-0.2,0.6-0.2
			c0.2,0,0.4,0.1,0.5,0.2l0.7,0.9c-0.3,0.4-0.7,0.7-1.1,1s-0.9,0.5-1.4,0.7s-1,0.3-1.6,0.4c-0.5,0.1-1.1,0.1-1.6,0.1
			c-1,0-1.9-0.2-2.8-0.5s-1.6-0.8-2.2-1.5s-1.1-1.5-1.5-2.4s-0.5-2.1-0.5-3.4c0-1,0.2-2,0.5-2.9s0.8-1.7,1.4-2.3
			c0.6-0.7,1.3-1.2,2.2-1.5C193.3,527.3,194.3,527.1,195.4,527.1z M195.4,529c-1.2,0-2.2,0.4-2.9,1.1c-0.7,0.7-1.2,1.7-1.3,3h8
			c0-0.6-0.1-1.1-0.2-1.6c-0.2-0.5-0.4-0.9-0.7-1.3c-0.3-0.4-0.7-0.6-1.2-0.8C196.5,529.1,196,529,195.4,529z"/>
		<path class="st5" d="M204.7,541.9v-14.6h1.5c0.4,0,0.6,0.2,0.7,0.5l0.2,1.6c0.6-0.7,1.3-1.3,2.1-1.7c0.8-0.4,1.7-0.6,2.7-0.6
			c0.8,0,1.5,0.1,2.1,0.4c0.6,0.3,1.1,0.6,1.5,1.1c0.4,0.5,0.7,1.1,0.9,1.8c0.2,0.7,0.3,1.4,0.3,2.3v9.3h-2.6v-9.3
			c0-1.1-0.3-2-0.8-2.6c-0.5-0.6-1.3-0.9-2.3-0.9c-0.8,0-1.5,0.2-2.1,0.5s-1.3,0.9-1.8,1.5v10.8H204.7z"/>
		<path class="st5" d="M225.7,527.1c0.6,0,1.2,0.1,1.8,0.2c0.6,0.1,1.1,0.3,1.5,0.6h4v1c0,0.3-0.2,0.5-0.6,0.6l-1.7,0.2
			c0.3,0.6,0.5,1.3,0.5,2.1c0,0.7-0.1,1.4-0.4,1.9c-0.3,0.6-0.7,1.1-1.1,1.5s-1.1,0.7-1.7,1c-0.7,0.2-1.4,0.3-2.2,0.3
			c-0.7,0-1.3-0.1-1.9-0.2c-0.3,0.2-0.5,0.4-0.7,0.6c-0.2,0.2-0.2,0.5-0.2,0.7c0,0.4,0.1,0.6,0.4,0.8c0.3,0.2,0.7,0.3,1.1,0.4
			c0.5,0.1,1,0.1,1.6,0.1s1.2,0,1.8,0c0.6,0,1.2,0.1,1.8,0.2s1.1,0.3,1.6,0.5c0.5,0.2,0.8,0.6,1.1,1s0.4,1,0.4,1.7
			c0,0.6-0.2,1.2-0.5,1.8s-0.8,1.1-1.4,1.6c-0.6,0.5-1.3,0.8-2.2,1.1c-0.8,0.3-1.8,0.4-2.9,0.4s-2-0.1-2.8-0.3
			c-0.8-0.2-1.5-0.5-2-0.9c-0.5-0.4-0.9-0.8-1.2-1.2s-0.4-1-0.4-1.5c0-0.7,0.2-1.3,0.7-1.8c0.5-0.5,1.1-0.9,1.9-1.2
			c-0.4-0.2-0.7-0.4-1-0.8s-0.4-0.8-0.4-1.3c0-0.2,0-0.4,0.1-0.7c0.1-0.2,0.2-0.4,0.4-0.7c0.2-0.2,0.4-0.4,0.6-0.6s0.5-0.4,0.8-0.5
			c-0.7-0.4-1.3-0.9-1.7-1.6c-0.4-0.7-0.6-1.5-0.6-2.3c0-0.7,0.1-1.4,0.4-1.9c0.3-0.6,0.7-1.1,1.1-1.5s1.1-0.7,1.8-0.9
			S224.9,527.1,225.7,527.1z M230.2,542.7c0-0.4-0.1-0.7-0.3-0.9c-0.2-0.2-0.5-0.4-0.8-0.5c-0.3-0.1-0.7-0.2-1.2-0.3
			c-0.5-0.1-0.9-0.1-1.4-0.1s-1,0-1.5,0s-1-0.1-1.5-0.2c-0.5,0.3-1,0.6-1.3,1s-0.5,0.8-0.5,1.3c0,0.3,0.1,0.6,0.3,0.9
			s0.4,0.5,0.8,0.7c0.3,0.2,0.8,0.4,1.3,0.5c0.5,0.1,1.1,0.2,1.9,0.2c0.7,0,1.3-0.1,1.9-0.2c0.5-0.1,1-0.3,1.4-0.5s0.7-0.5,0.9-0.8
			C230.1,543.4,230.2,543.1,230.2,542.7z M225.7,534.8c0.5,0,1-0.1,1.4-0.2c0.4-0.1,0.7-0.3,1-0.6s0.5-0.6,0.6-0.9
			c0.1-0.4,0.2-0.8,0.2-1.2c0-0.9-0.3-1.6-0.8-2.1c-0.5-0.5-1.3-0.8-2.4-0.8c-1,0-1.8,0.3-2.4,0.8c-0.5,0.5-0.8,1.2-0.8,2.1
			c0,0.4,0.1,0.8,0.2,1.2c0.1,0.4,0.3,0.7,0.6,0.9c0.3,0.3,0.6,0.5,1,0.6C224.7,534.7,225.2,534.8,225.7,534.8z"/>
		<path class="st5" d="M241.3,527.1c0.9,0,1.7,0.1,2.4,0.4c0.7,0.3,1.4,0.7,1.9,1.3c0.5,0.6,1,1.2,1.3,2.1c0.3,0.8,0.5,1.7,0.5,2.8
			c0,0.4,0,0.7-0.1,0.8c-0.1,0.1-0.3,0.2-0.5,0.2H237c0,0.9,0.1,1.7,0.4,2.4c0.2,0.7,0.5,1.3,1,1.7s0.9,0.8,1.4,1
			c0.6,0.2,1.2,0.3,1.9,0.3c0.6,0,1.2-0.1,1.7-0.2c0.5-0.1,0.9-0.3,1.2-0.5c0.3-0.2,0.6-0.3,0.8-0.5c0.2-0.1,0.4-0.2,0.6-0.2
			c0.2,0,0.4,0.1,0.5,0.2l0.7,0.9c-0.3,0.4-0.7,0.7-1.1,1s-0.9,0.5-1.4,0.7s-1,0.3-1.6,0.4c-0.5,0.1-1.1,0.1-1.6,0.1
			c-1,0-1.9-0.2-2.8-0.5s-1.6-0.8-2.2-1.5s-1.1-1.5-1.5-2.4s-0.5-2.1-0.5-3.4c0-1,0.2-2,0.5-2.9s0.8-1.7,1.4-2.3
			c0.6-0.7,1.3-1.2,2.2-1.5C239.3,527.3,240.2,527.1,241.3,527.1z M241.4,529c-1.2,0-2.2,0.4-2.9,1.1c-0.7,0.7-1.2,1.7-1.3,3h8
			c0-0.6-0.1-1.1-0.2-1.6c-0.2-0.5-0.4-0.9-0.7-1.3c-0.3-0.4-0.7-0.6-1.2-0.8C242.5,529.1,242,529,241.4,529z"/>
	</g>
	<g class="st4">
		<path class="st5" d="M278.8,728v8.6H276v-20.7h5.8c1.3,0,2.4,0.1,3.4,0.4c1,0.3,1.7,0.6,2.4,1.1c0.6,0.5,1.1,1.1,1.4,1.8
			c0.3,0.7,0.4,1.5,0.4,2.4c0,0.7-0.1,1.4-0.3,2.1c-0.2,0.6-0.6,1.2-1,1.7c-0.4,0.5-1,0.9-1.6,1.3c-0.6,0.4-1.3,0.6-2.1,0.8
			c0.3,0.2,0.7,0.5,0.9,0.9l6,8.2h-2.5c-0.5,0-0.9-0.2-1.1-0.6l-5.4-7.4c-0.2-0.2-0.3-0.4-0.5-0.5c-0.2-0.1-0.5-0.2-0.9-0.2H278.8z
			 M278.8,725.9h2.9c0.8,0,1.5-0.1,2.2-0.3c0.6-0.2,1.1-0.5,1.6-0.8c0.4-0.4,0.7-0.8,0.9-1.3s0.3-1.1,0.3-1.7c0-1.2-0.4-2.2-1.2-2.8
			c-0.8-0.6-2-0.9-3.6-0.9h-3.1V725.9z"/>
		<path class="st5" d="M299.7,721.7c0.9,0,1.7,0.1,2.4,0.4c0.7,0.3,1.4,0.7,1.9,1.3c0.5,0.6,1,1.2,1.3,2.1c0.3,0.8,0.5,1.7,0.5,2.8
			c0,0.4,0,0.7-0.1,0.8c-0.1,0.1-0.3,0.2-0.5,0.2h-9.7c0,0.9,0.1,1.7,0.4,2.4c0.2,0.7,0.5,1.3,1,1.7s0.9,0.8,1.4,1
			c0.6,0.2,1.2,0.3,1.9,0.3c0.6,0,1.2-0.1,1.7-0.2c0.5-0.1,0.9-0.3,1.2-0.5c0.3-0.2,0.6-0.3,0.8-0.5c0.2-0.1,0.4-0.2,0.6-0.2
			c0.2,0,0.4,0.1,0.5,0.2l0.7,0.9c-0.3,0.4-0.7,0.7-1.1,1s-0.9,0.5-1.4,0.7s-1,0.3-1.6,0.4c-0.5,0.1-1.1,0.1-1.6,0.1
			c-1,0-1.9-0.2-2.8-0.5s-1.6-0.8-2.2-1.5s-1.1-1.5-1.5-2.4s-0.5-2.1-0.5-3.4c0-1,0.2-2,0.5-2.9s0.8-1.7,1.4-2.3
			c0.6-0.7,1.3-1.2,2.2-1.5C297.7,721.9,298.6,721.7,299.7,721.7z M299.8,723.6c-1.2,0-2.2,0.4-2.9,1.1c-0.7,0.7-1.2,1.7-1.3,3h8
			c0-0.6-0.1-1.1-0.2-1.6c-0.2-0.5-0.4-0.9-0.7-1.3c-0.3-0.4-0.7-0.6-1.2-0.8C300.9,723.7,300.3,723.6,299.8,723.6z"/>
		<path class="st5" d="M317.4,724.4c-0.1,0.2-0.3,0.3-0.5,0.3c-0.1,0-0.3-0.1-0.5-0.2c-0.2-0.1-0.4-0.2-0.7-0.4
			c-0.3-0.1-0.6-0.3-0.9-0.4s-0.8-0.2-1.3-0.2c-0.4,0-0.8,0.1-1.2,0.2s-0.6,0.3-0.9,0.5s-0.4,0.4-0.6,0.7c-0.1,0.3-0.2,0.5-0.2,0.8
			c0,0.4,0.1,0.7,0.3,0.9c0.2,0.3,0.5,0.5,0.9,0.7c0.4,0.2,0.8,0.3,1.2,0.5s0.9,0.3,1.4,0.4c0.5,0.2,0.9,0.3,1.4,0.5
			c0.5,0.2,0.9,0.4,1.2,0.7c0.4,0.3,0.6,0.6,0.9,1.1c0.2,0.4,0.3,0.9,0.3,1.5c0,0.7-0.1,1.3-0.4,1.9c-0.2,0.6-0.6,1.1-1.1,1.5
			c-0.5,0.4-1,0.7-1.7,1s-1.5,0.4-2.4,0.4c-1,0-1.9-0.2-2.8-0.5c-0.8-0.3-1.5-0.8-2.1-1.3l0.6-1c0.1-0.1,0.2-0.2,0.3-0.3
			s0.2-0.1,0.4-0.1s0.4,0.1,0.5,0.2c0.2,0.1,0.4,0.3,0.7,0.4c0.3,0.2,0.6,0.3,1,0.4c0.4,0.1,0.9,0.2,1.5,0.2c0.5,0,0.9-0.1,1.3-0.2
			s0.7-0.3,0.9-0.5s0.4-0.5,0.6-0.8c0.1-0.3,0.2-0.6,0.2-0.9c0-0.4-0.1-0.7-0.3-1s-0.5-0.5-0.9-0.7c-0.4-0.2-0.8-0.4-1.2-0.5
			c-0.5-0.1-0.9-0.3-1.4-0.4c-0.5-0.2-0.9-0.3-1.4-0.5c-0.5-0.2-0.9-0.4-1.2-0.7c-0.4-0.3-0.6-0.7-0.9-1.1s-0.3-1-0.3-1.6
			c0-0.6,0.1-1.1,0.3-1.6c0.2-0.5,0.6-1,1-1.4c0.4-0.4,1-0.7,1.6-0.9c0.6-0.2,1.4-0.3,2.2-0.3c1,0,1.8,0.2,2.6,0.5
			c0.8,0.3,1.4,0.7,2,1.2L317.4,724.4z"/>
		<path class="st5" d="M327.4,721.7c0.9,0,1.7,0.1,2.4,0.4c0.7,0.3,1.4,0.7,1.9,1.3c0.5,0.6,1,1.2,1.3,2.1c0.3,0.8,0.5,1.7,0.5,2.8
			c0,0.4,0,0.7-0.1,0.8c-0.1,0.1-0.3,0.2-0.5,0.2h-9.7c0,0.9,0.1,1.7,0.4,2.4c0.2,0.7,0.5,1.3,1,1.7s0.9,0.8,1.4,1
			c0.6,0.2,1.2,0.3,1.9,0.3c0.6,0,1.2-0.1,1.7-0.2c0.5-0.1,0.9-0.3,1.2-0.5c0.3-0.2,0.6-0.3,0.8-0.5c0.2-0.1,0.4-0.2,0.6-0.2
			c0.2,0,0.4,0.1,0.5,0.2l0.7,0.9c-0.3,0.4-0.7,0.7-1.1,1s-0.9,0.5-1.4,0.7s-1,0.3-1.6,0.4c-0.5,0.1-1.1,0.1-1.6,0.1
			c-1,0-1.9-0.2-2.8-0.5s-1.6-0.8-2.2-1.5s-1.1-1.5-1.5-2.4s-0.5-2.1-0.5-3.4c0-1,0.2-2,0.5-2.9s0.8-1.7,1.4-2.3
			c0.6-0.7,1.3-1.2,2.2-1.5C325.4,721.9,326.3,721.7,327.4,721.7z M327.4,723.6c-1.2,0-2.2,0.4-2.9,1.1c-0.7,0.7-1.2,1.7-1.3,3h8
			c0-0.6-0.1-1.1-0.2-1.6c-0.2-0.5-0.4-0.9-0.7-1.3c-0.3-0.4-0.7-0.6-1.2-0.8C328.5,723.7,328,723.6,327.4,723.6z"/>
		<path class="st5" d="M347.5,736.6h-1.1c-0.3,0-0.5,0-0.6-0.1c-0.2-0.1-0.3-0.2-0.3-0.5l-0.3-1.4c-0.4,0.3-0.8,0.7-1.1,0.9
			s-0.8,0.5-1.2,0.7c-0.4,0.2-0.8,0.3-1.3,0.4c-0.5,0.1-1,0.1-1.5,0.1c-0.6,0-1.1-0.1-1.6-0.2c-0.5-0.2-0.9-0.4-1.3-0.7
			c-0.4-0.3-0.7-0.7-0.9-1.2c-0.2-0.5-0.3-1.1-0.3-1.7c0-0.6,0.2-1.1,0.5-1.7c0.3-0.5,0.8-1,1.5-1.4c0.7-0.4,1.6-0.8,2.8-1
			c1.1-0.3,2.5-0.4,4.2-0.4v-1.1c0-1.1-0.2-2-0.7-2.6c-0.5-0.6-1.2-0.9-2.2-0.9c-0.6,0-1.2,0.1-1.6,0.2s-0.8,0.3-1.1,0.5
			c-0.3,0.2-0.6,0.4-0.8,0.5c-0.2,0.2-0.5,0.2-0.7,0.2c-0.2,0-0.3,0-0.5-0.1s-0.2-0.2-0.3-0.3l-0.5-0.8c0.8-0.8,1.7-1.4,2.6-1.7
			c0.9-0.4,2-0.6,3.1-0.6c0.8,0,1.5,0.1,2.2,0.4c0.6,0.3,1.2,0.6,1.6,1.1c0.4,0.5,0.8,1.1,1,1.7c0.2,0.7,0.3,1.4,0.3,2.3V736.6z
			 M340.8,735c0.5,0,0.9,0,1.2-0.1c0.4-0.1,0.7-0.2,1.1-0.4c0.3-0.2,0.6-0.4,1-0.6c0.3-0.2,0.6-0.5,0.9-0.8v-3c-1.2,0-2.2,0.1-3,0.2
			c-0.8,0.2-1.5,0.3-2,0.6s-0.9,0.5-1.1,0.9c-0.2,0.3-0.4,0.7-0.4,1.1c0,0.4,0.1,0.7,0.2,1c0.1,0.3,0.3,0.5,0.5,0.7
			c0.2,0.2,0.5,0.3,0.8,0.4C340.1,735,340.5,735,340.8,735z"/>
		<path class="st5" d="M351.4,736.6V722h1.5c0.3,0,0.5,0.1,0.6,0.2c0.1,0.1,0.2,0.3,0.2,0.5l0.2,2.3c0.5-1,1.1-1.8,1.9-2.4
			c0.7-0.6,1.6-0.9,2.6-0.9c0.4,0,0.8,0,1.1,0.1c0.3,0.1,0.6,0.2,0.9,0.4l-0.3,1.9c-0.1,0.2-0.2,0.4-0.4,0.4c-0.1,0-0.3,0-0.6-0.1
			s-0.7-0.1-1.2-0.1c-0.9,0-1.6,0.3-2.2,0.8c-0.6,0.5-1.1,1.3-1.5,2.3v9.3H351.4z"/>
		<path class="st5" d="M373,724.6c-0.1,0.1-0.2,0.2-0.2,0.2s-0.2,0.1-0.3,0.1s-0.3-0.1-0.5-0.2c-0.2-0.1-0.4-0.3-0.6-0.4
			c-0.3-0.1-0.6-0.3-0.9-0.4c-0.4-0.1-0.8-0.2-1.4-0.2c-0.7,0-1.3,0.1-1.9,0.4c-0.5,0.3-1,0.6-1.4,1.1s-0.6,1.1-0.8,1.7
			c-0.2,0.7-0.3,1.4-0.3,2.3c0,0.9,0.1,1.7,0.3,2.4s0.5,1.3,0.9,1.7c0.4,0.5,0.8,0.8,1.3,1.1s1.1,0.4,1.8,0.4c0.6,0,1.1-0.1,1.5-0.2
			c0.4-0.1,0.7-0.3,1-0.5c0.3-0.2,0.5-0.3,0.7-0.5c0.2-0.1,0.3-0.2,0.5-0.2c0.2,0,0.4,0.1,0.5,0.2l0.7,0.9c-0.6,0.8-1.4,1.4-2.4,1.7
			c-1,0.4-2,0.5-3,0.5c-0.9,0-1.8-0.2-2.5-0.5c-0.8-0.3-1.5-0.8-2-1.5c-0.6-0.6-1-1.4-1.4-2.4c-0.3-0.9-0.5-2-0.5-3.2
			c0-1.1,0.2-2.1,0.5-3c0.3-0.9,0.7-1.7,1.3-2.4c0.6-0.7,1.3-1.2,2.2-1.6c0.9-0.4,1.8-0.6,2.9-0.6c1,0,1.9,0.2,2.7,0.5
			c0.8,0.3,1.5,0.8,2.1,1.4L373,724.6z"/>
		<path class="st5" d="M376.5,736.6v-21.3h2.6v8.6c0.6-0.7,1.3-1.2,2.1-1.6c0.8-0.4,1.6-0.6,2.6-0.6c0.8,0,1.5,0.1,2.1,0.4
			c0.6,0.3,1.1,0.6,1.5,1.1c0.4,0.5,0.7,1.1,0.9,1.8c0.2,0.7,0.3,1.4,0.3,2.3v9.3h-2.6v-9.3c0-1.1-0.3-2-0.8-2.6
			c-0.5-0.6-1.3-0.9-2.3-0.9c-0.8,0-1.5,0.2-2.1,0.5s-1.3,0.9-1.8,1.5v10.8H376.5z"/>
	</g>
	<g class="st4">
		<path class="st5" d="M387.2,810.5c0.9,0,1.6-0.1,2.3-0.4s1.2-0.7,1.7-1.2c0.5-0.5,0.8-1.1,1.1-1.9c0.2-0.7,0.4-1.5,0.4-2.4V792
			h2.8v12.6c0,1.2-0.2,2.3-0.6,3.3c-0.4,1-0.9,1.9-1.6,2.7c-0.7,0.7-1.6,1.3-2.6,1.8c-1,0.4-2.2,0.6-3.4,0.6s-2.4-0.2-3.4-0.6
			c-1-0.4-1.9-1-2.6-1.8s-1.3-1.6-1.6-2.7s-0.6-2.1-0.6-3.3V792h2.8v12.6c0,0.9,0.1,1.7,0.4,2.4c0.2,0.7,0.6,1.3,1.1,1.9
			c0.5,0.5,1,0.9,1.7,1.2C385.6,810.3,386.4,810.5,387.2,810.5z"/>
		<path class="st5" d="M408.2,800.5c-0.1,0.2-0.3,0.3-0.5,0.3c-0.1,0-0.3-0.1-0.5-0.2c-0.2-0.1-0.4-0.2-0.7-0.4
			c-0.3-0.1-0.6-0.3-0.9-0.4s-0.8-0.2-1.3-0.2c-0.4,0-0.8,0.1-1.2,0.2s-0.6,0.3-0.9,0.5s-0.4,0.4-0.6,0.7c-0.1,0.3-0.2,0.5-0.2,0.8
			c0,0.4,0.1,0.7,0.3,0.9c0.2,0.3,0.5,0.5,0.9,0.7c0.4,0.2,0.8,0.3,1.2,0.5s0.9,0.3,1.4,0.4c0.5,0.2,0.9,0.3,1.4,0.5
			c0.5,0.2,0.9,0.4,1.2,0.7c0.4,0.3,0.6,0.6,0.9,1.1c0.2,0.4,0.3,0.9,0.3,1.5c0,0.7-0.1,1.3-0.4,1.9c-0.2,0.6-0.6,1.1-1.1,1.5
			c-0.5,0.4-1,0.7-1.7,1s-1.5,0.4-2.4,0.4c-1,0-1.9-0.2-2.8-0.5c-0.8-0.3-1.5-0.8-2.1-1.3l0.6-1c0.1-0.1,0.2-0.2,0.3-0.3
			s0.2-0.1,0.4-0.1s0.4,0.1,0.5,0.2c0.2,0.1,0.4,0.3,0.7,0.4c0.3,0.2,0.6,0.3,1,0.4c0.4,0.1,0.9,0.2,1.5,0.2c0.5,0,0.9-0.1,1.3-0.2
			s0.7-0.3,0.9-0.5s0.4-0.5,0.6-0.8c0.1-0.3,0.2-0.6,0.2-0.9c0-0.4-0.1-0.7-0.3-1s-0.5-0.5-0.9-0.7c-0.4-0.2-0.8-0.4-1.2-0.5
			c-0.5-0.1-0.9-0.3-1.4-0.4c-0.5-0.2-0.9-0.3-1.4-0.5c-0.5-0.2-0.9-0.4-1.2-0.7c-0.4-0.3-0.6-0.7-0.9-1.1s-0.3-1-0.3-1.6
			c0-0.6,0.1-1.1,0.3-1.6c0.2-0.5,0.6-1,1-1.4c0.4-0.4,1-0.7,1.6-0.9c0.6-0.2,1.4-0.3,2.2-0.3c1,0,1.8,0.2,2.6,0.5
			c0.8,0.3,1.4,0.7,2,1.2L408.2,800.5z"/>
		<path class="st5" d="M418.2,797.8c0.9,0,1.7,0.1,2.4,0.4c0.7,0.3,1.4,0.7,1.9,1.3c0.5,0.6,1,1.2,1.3,2.1c0.3,0.8,0.5,1.7,0.5,2.8
			c0,0.4,0,0.7-0.1,0.8c-0.1,0.1-0.3,0.2-0.5,0.2h-9.7c0,0.9,0.1,1.7,0.4,2.4c0.2,0.7,0.5,1.3,1,1.7s0.9,0.8,1.4,1
			c0.6,0.2,1.2,0.3,1.9,0.3c0.6,0,1.2-0.1,1.7-0.2c0.5-0.1,0.9-0.3,1.2-0.5c0.3-0.2,0.6-0.3,0.8-0.5c0.2-0.1,0.4-0.2,0.6-0.2
			c0.2,0,0.4,0.1,0.5,0.2l0.7,0.9c-0.3,0.4-0.7,0.7-1.1,1s-0.9,0.5-1.4,0.7s-1,0.3-1.6,0.4c-0.5,0.1-1.1,0.1-1.6,0.1
			c-1,0-1.9-0.2-2.8-0.5s-1.6-0.8-2.2-1.5s-1.1-1.5-1.5-2.4s-0.5-2.1-0.5-3.4c0-1,0.2-2,0.5-2.9s0.8-1.7,1.4-2.3
			c0.6-0.7,1.3-1.2,2.2-1.5C416.2,798,417.1,797.8,418.2,797.8z M418.3,799.7c-1.2,0-2.2,0.4-2.9,1.1c-0.7,0.7-1.2,1.7-1.3,3h8
			c0-0.6-0.1-1.1-0.2-1.6c-0.2-0.5-0.4-0.9-0.7-1.3c-0.3-0.4-0.7-0.6-1.2-0.8C419.4,799.8,418.8,799.7,418.3,799.7z"/>
		<path class="st5" d="M427.5,812.7v-14.6h1.5c0.3,0,0.5,0.1,0.6,0.2c0.1,0.1,0.2,0.3,0.2,0.5l0.2,2.3c0.5-1,1.1-1.8,1.9-2.4
			c0.7-0.6,1.6-0.9,2.6-0.9c0.4,0,0.8,0,1.1,0.1c0.3,0.1,0.6,0.2,0.9,0.4l-0.3,1.9c-0.1,0.2-0.2,0.4-0.4,0.4c-0.1,0-0.3,0-0.6-0.1
			s-0.7-0.1-1.2-0.1c-0.9,0-1.6,0.3-2.2,0.8c-0.6,0.5-1.1,1.3-1.5,2.3v9.3H427.5z"/>
		<path class="st5" d="M457.9,792v2.3H448v6.9h8v2.2h-8v7.1h9.9v2.3h-12.8V792H457.9z"/>
		<path class="st5" d="M461.5,812.7v-14.6h1.5c0.4,0,0.6,0.2,0.7,0.5l0.2,1.5c0.5-0.7,1.1-1.2,1.8-1.6c0.7-0.4,1.4-0.6,2.3-0.6
			c1,0,1.8,0.3,2.4,0.8s1.1,1.3,1.3,2.2c0.2-0.5,0.5-1,0.8-1.4c0.3-0.4,0.7-0.7,1.1-1c0.4-0.3,0.9-0.4,1.3-0.5
			c0.5-0.1,0.9-0.2,1.4-0.2c0.8,0,1.5,0.1,2.1,0.4c0.6,0.2,1.1,0.6,1.5,1.1s0.7,1.1,1,1.7c0.2,0.7,0.3,1.5,0.3,2.4v9.3h-2.6v-9.3
			c0-1.1-0.3-2-0.8-2.6c-0.5-0.6-1.2-0.9-2.2-0.9c-0.4,0-0.8,0.1-1.2,0.2s-0.7,0.4-1,0.7c-0.3,0.3-0.5,0.7-0.7,1.1
			c-0.2,0.4-0.3,0.9-0.3,1.5v9.3h-2.6v-9.3c0-1.2-0.2-2.1-0.7-2.6c-0.5-0.6-1.2-0.9-2.1-0.9c-0.6,0-1.2,0.2-1.8,0.5s-1,0.8-1.5,1.4
			v10.9H461.5z"/>
		<path class="st5" d="M485.2,817.6v-19.6h1.5c0.4,0,0.6,0.2,0.7,0.5l0.2,1.7c0.6-0.8,1.3-1.4,2.1-1.8c0.8-0.5,1.7-0.7,2.8-0.7
			c0.8,0,1.6,0.2,2.3,0.5c0.7,0.3,1.3,0.8,1.7,1.4s0.9,1.4,1.1,2.3c0.3,0.9,0.4,2,0.4,3.2c0,1.1-0.1,2.1-0.4,3
			c-0.3,0.9-0.7,1.7-1.2,2.4c-0.5,0.7-1.2,1.2-2,1.6s-1.7,0.6-2.7,0.6c-0.9,0-1.7-0.1-2.3-0.4c-0.6-0.3-1.2-0.7-1.7-1.3v6.5H485.2z
			 M491.8,799.9c-0.8,0-1.6,0.2-2.2,0.6c-0.6,0.4-1.2,0.9-1.7,1.6v7.1c0.5,0.6,1,1.1,1.6,1.3c0.6,0.3,1.2,0.4,1.9,0.4
			c1.4,0,2.4-0.5,3.1-1.5c0.7-1,1.1-2.4,1.1-4.2c0-1-0.1-1.8-0.3-2.5s-0.4-1.2-0.7-1.7c-0.3-0.4-0.7-0.8-1.2-1
			C492.9,800,492.4,799.9,491.8,799.9z"/>
		<path class="st5" d="M511.9,812.7h-1.1c-0.3,0-0.5,0-0.6-0.1c-0.2-0.1-0.3-0.2-0.3-0.5l-0.3-1.4c-0.4,0.3-0.8,0.7-1.1,0.9
			s-0.8,0.5-1.2,0.7c-0.4,0.2-0.8,0.3-1.3,0.4c-0.5,0.1-1,0.1-1.5,0.1c-0.6,0-1.1-0.1-1.6-0.2c-0.5-0.2-0.9-0.4-1.3-0.7
			c-0.4-0.3-0.7-0.7-0.9-1.2c-0.2-0.5-0.3-1.1-0.3-1.7c0-0.6,0.2-1.1,0.5-1.7c0.3-0.5,0.8-1,1.5-1.4c0.7-0.4,1.6-0.8,2.8-1
			c1.1-0.3,2.5-0.4,4.2-0.4v-1.1c0-1.1-0.2-2-0.7-2.6c-0.5-0.6-1.2-0.9-2.2-0.9c-0.6,0-1.2,0.1-1.6,0.2s-0.8,0.3-1.1,0.5
			c-0.3,0.2-0.6,0.4-0.8,0.5c-0.2,0.2-0.5,0.2-0.7,0.2c-0.2,0-0.3,0-0.5-0.1s-0.2-0.2-0.3-0.3l-0.5-0.8c0.8-0.8,1.7-1.4,2.6-1.7
			c0.9-0.4,2-0.6,3.1-0.6c0.8,0,1.5,0.1,2.2,0.4c0.6,0.3,1.2,0.6,1.6,1.1c0.4,0.5,0.8,1.1,1,1.7c0.2,0.7,0.3,1.4,0.3,2.3V812.7z
			 M505.3,811.1c0.5,0,0.9,0,1.2-0.1c0.4-0.1,0.7-0.2,1.1-0.4c0.3-0.2,0.6-0.4,1-0.6c0.3-0.2,0.6-0.5,0.9-0.8v-3
			c-1.2,0-2.2,0.1-3,0.2c-0.8,0.2-1.5,0.3-2,0.6s-0.9,0.5-1.1,0.9c-0.2,0.3-0.4,0.7-0.4,1.1c0,0.4,0.1,0.7,0.2,1
			c0.1,0.3,0.3,0.5,0.5,0.7c0.2,0.2,0.5,0.3,0.8,0.4C504.6,811.1,504.9,811.1,505.3,811.1z"/>
		<path class="st5" d="M520.3,812.9c-1.2,0-2-0.3-2.7-1c-0.6-0.6-0.9-1.6-0.9-2.8v-9h-1.8c-0.2,0-0.3,0-0.4-0.1
			c-0.1-0.1-0.2-0.2-0.2-0.4v-1l2.4-0.3l0.6-4.5c0-0.1,0.1-0.3,0.2-0.4c0.1-0.1,0.2-0.1,0.4-0.1h1.3v5h4.2v1.9h-4.2v8.8
			c0,0.6,0.1,1.1,0.4,1.4s0.7,0.4,1.2,0.4c0.3,0,0.5,0,0.7-0.1c0.2-0.1,0.4-0.2,0.5-0.2c0.1-0.1,0.3-0.2,0.4-0.2s0.2-0.1,0.3-0.1
			c0.1,0,0.3,0.1,0.4,0.2l0.8,1.2c-0.4,0.4-1,0.7-1.6,1C521.6,812.8,520.9,812.9,520.3,812.9z"/>
		<path class="st5" d="M526.6,812.7v-21.3h2.6v8.6c0.6-0.7,1.3-1.2,2.1-1.6c0.8-0.4,1.6-0.6,2.6-0.6c0.8,0,1.5,0.1,2.1,0.4
			c0.6,0.3,1.1,0.6,1.5,1.1c0.4,0.5,0.7,1.1,0.9,1.8c0.2,0.7,0.3,1.4,0.3,2.3v9.3h-2.6v-9.3c0-1.1-0.3-2-0.8-2.6
			c-0.5-0.6-1.3-0.9-2.3-0.9c-0.8,0-1.5,0.2-2.1,0.5s-1.3,0.9-1.8,1.5v10.8H526.6z"/>
		<path class="st5" d="M546.5,817c-0.1,0.2-0.2,0.3-0.3,0.5c-0.1,0.1-0.3,0.2-0.6,0.2h-1.9l2.7-5.8l-6-13.8h2.2
			c0.2,0,0.4,0.1,0.5,0.2c0.1,0.1,0.2,0.2,0.3,0.4l3.9,9.2c0.1,0.2,0.2,0.4,0.2,0.6s0.1,0.4,0.2,0.6c0.1-0.2,0.1-0.4,0.2-0.6
			c0.1-0.2,0.1-0.4,0.2-0.7l3.8-9.2c0.1-0.2,0.2-0.3,0.3-0.4c0.1-0.1,0.3-0.2,0.5-0.2h2.1L546.5,817z"/>
	</g>
	<path class="st6" d="M645.6,738.5c0.2-0.1,0.3-0.2,0.5-0.2c0.2,0,0.3,0.1,0.4,0.2l1.1,1.2c-0.8,1-1.9,1.7-3.1,2.3
		c-1.2,0.5-2.7,0.8-4.4,0.8c-1.5,0-2.8-0.3-4.1-0.8c-1.2-0.5-2.2-1.2-3.1-2.2c-0.9-0.9-1.5-2-2-3.3c-0.5-1.3-0.7-2.7-0.7-4.3
		c0-1.6,0.3-3,0.8-4.3c0.5-1.3,1.2-2.4,2.1-3.4c0.9-0.9,2-1.7,3.3-2.2c1.3-0.5,2.7-0.8,4.2-0.8c1.5,0,2.8,0.2,3.9,0.7
		c1.1,0.5,2.1,1.1,2.9,1.9l-0.9,1.3c-0.1,0.1-0.1,0.2-0.2,0.2c-0.1,0.1-0.2,0.1-0.4,0.1c-0.1,0-0.3,0-0.4-0.1
		c-0.1-0.1-0.3-0.2-0.5-0.3c-0.2-0.1-0.4-0.3-0.7-0.4c-0.3-0.2-0.6-0.3-0.9-0.4c-0.4-0.1-0.8-0.2-1.2-0.3c-0.5-0.1-1-0.1-1.6-0.1
		c-1.1,0-2.1,0.2-3,0.6c-0.9,0.4-1.7,0.9-2.4,1.6c-0.7,0.7-1.2,1.6-1.6,2.6c-0.4,1-0.6,2.1-0.6,3.4c0,1.3,0.2,2.4,0.6,3.5
		c0.4,1,0.9,1.9,1.5,2.6c0.6,0.7,1.4,1.2,2.3,1.6c0.9,0.4,1.8,0.5,2.8,0.5c0.6,0,1.2,0,1.7-0.1s0.9-0.2,1.4-0.3
		c0.4-0.2,0.8-0.3,1.2-0.6C644.8,739.1,645.2,738.8,645.6,738.5L645.6,738.5z M650.8,742.5v-21.3h2.6v8.6c0.6-0.7,1.3-1.2,2.1-1.6
		c0.8-0.4,1.6-0.6,2.6-0.6c0.8,0,1.5,0.1,2.1,0.4c0.6,0.3,1.1,0.6,1.5,1.1c0.4,0.5,0.7,1.1,0.9,1.8c0.2,0.7,0.3,1.4,0.3,2.3v9.3
		h-2.6v-9.3c0-1.1-0.3-2-0.8-2.6c-0.5-0.6-1.3-0.9-2.3-0.9c-0.8,0-1.5,0.2-2.1,0.5c-0.7,0.4-1.3,0.9-1.8,1.5v10.8H650.8z
		 M677.6,742.5h-1.1c-0.3,0-0.5,0-0.6-0.1c-0.2-0.1-0.3-0.2-0.3-0.5l-0.3-1.4c-0.4,0.3-0.8,0.7-1.1,0.9c-0.4,0.3-0.8,0.5-1.2,0.7
		s-0.8,0.3-1.3,0.4c-0.5,0.1-1,0.1-1.5,0.1c-0.6,0-1.1-0.1-1.6-0.2c-0.5-0.2-0.9-0.4-1.3-0.7c-0.4-0.3-0.7-0.7-0.9-1.2
		c-0.2-0.5-0.3-1.1-0.3-1.7c0-0.6,0.2-1.1,0.5-1.7c0.3-0.5,0.8-1,1.5-1.4c0.7-0.4,1.6-0.8,2.8-1c1.1-0.3,2.5-0.4,4.2-0.4v-1.1
		c0-1.1-0.2-2-0.7-2.6c-0.5-0.6-1.2-0.9-2.2-0.9c-0.6,0-1.2,0.1-1.6,0.2c-0.4,0.2-0.8,0.3-1.1,0.5c-0.3,0.2-0.6,0.4-0.8,0.5
		c-0.2,0.2-0.5,0.2-0.7,0.2c-0.2,0-0.3,0-0.5-0.1c-0.1-0.1-0.2-0.2-0.3-0.3l-0.5-0.8c0.8-0.8,1.7-1.4,2.6-1.7c0.9-0.4,2-0.6,3.1-0.6
		c0.8,0,1.5,0.1,2.2,0.4c0.6,0.3,1.2,0.6,1.6,1.1c0.4,0.5,0.8,1.1,1,1.7c0.2,0.7,0.3,1.4,0.3,2.3V742.5z M671,740.9
		c0.5,0,0.9,0,1.2-0.1c0.4-0.1,0.7-0.2,1.1-0.4c0.3-0.2,0.6-0.4,1-0.6c0.3-0.2,0.6-0.5,0.9-0.8v-3c-1.2,0-2.2,0.1-3,0.2
		c-0.8,0.2-1.5,0.3-2,0.6c-0.5,0.2-0.9,0.5-1.1,0.9c-0.2,0.3-0.4,0.7-0.4,1.1c0,0.4,0.1,0.7,0.2,1c0.1,0.3,0.3,0.5,0.5,0.7
		c0.2,0.2,0.5,0.3,0.8,0.4C670.3,740.9,670.6,740.9,671,740.9z M684.4,721.2v21.3h-2.6v-21.3H684.4z M691.8,721.2v21.3h-2.6v-21.3
		H691.8z M702.1,727.7c0.9,0,1.7,0.1,2.4,0.4c0.7,0.3,1.4,0.7,1.9,1.3c0.5,0.6,1,1.2,1.3,2.1c0.3,0.8,0.5,1.7,0.5,2.8
		c0,0.4,0,0.7-0.1,0.8c-0.1,0.1-0.3,0.2-0.5,0.2h-9.7c0,0.9,0.1,1.7,0.4,2.4c0.2,0.7,0.5,1.3,1,1.7c0.4,0.5,0.9,0.8,1.4,1
		c0.6,0.2,1.2,0.3,1.9,0.3c0.6,0,1.2-0.1,1.7-0.2c0.5-0.1,0.9-0.3,1.2-0.5c0.3-0.2,0.6-0.3,0.8-0.5c0.2-0.1,0.4-0.2,0.6-0.2
		c0.2,0,0.4,0.1,0.5,0.2l0.7,0.9c-0.3,0.4-0.7,0.7-1.1,1c-0.4,0.3-0.9,0.5-1.4,0.7c-0.5,0.2-1,0.3-1.6,0.4c-0.5,0.1-1.1,0.1-1.6,0.1
		c-1,0-1.9-0.2-2.8-0.5s-1.6-0.8-2.2-1.5c-0.6-0.7-1.1-1.5-1.5-2.4c-0.3-1-0.5-2.1-0.5-3.4c0-1,0.2-2,0.5-2.9
		c0.3-0.9,0.8-1.7,1.4-2.3c0.6-0.6,1.3-1.2,2.2-1.5C700.1,727.8,701,727.7,702.1,727.7z M702.2,729.6c-1.2,0-2.2,0.4-2.9,1.1
		c-0.7,0.7-1.2,1.7-1.3,3h8c0-0.6-0.1-1.1-0.2-1.6c-0.2-0.5-0.4-0.9-0.7-1.3c-0.3-0.4-0.7-0.6-1.2-0.8
		C703.3,729.7,702.8,729.6,702.2,729.6z M711.5,742.5v-14.6h1.5c0.4,0,0.6,0.2,0.7,0.5l0.2,1.6c0.6-0.7,1.3-1.3,2.1-1.7
		c0.8-0.4,1.7-0.6,2.7-0.6c0.8,0,1.5,0.1,2.1,0.4c0.6,0.3,1.1,0.6,1.5,1.1c0.4,0.5,0.7,1.1,0.9,1.8c0.2,0.7,0.3,1.4,0.3,2.3v9.3
		h-2.6v-9.3c0-1.1-0.3-2-0.8-2.6c-0.5-0.6-1.3-0.9-2.3-0.9c-0.8,0-1.5,0.2-2.1,0.5c-0.7,0.4-1.3,0.9-1.8,1.5v10.8H711.5z
		 M732.4,727.6c0.6,0,1.2,0.1,1.8,0.2c0.6,0.1,1.1,0.3,1.5,0.6h4v1c0,0.3-0.2,0.5-0.6,0.6l-1.7,0.2c0.3,0.6,0.5,1.3,0.5,2.1
		c0,0.7-0.1,1.4-0.4,1.9c-0.3,0.6-0.7,1.1-1.1,1.5c-0.5,0.4-1.1,0.7-1.7,1c-0.7,0.2-1.4,0.3-2.2,0.3c-0.7,0-1.3-0.1-1.9-0.2
		c-0.3,0.2-0.5,0.4-0.7,0.6c-0.2,0.2-0.2,0.5-0.2,0.7c0,0.4,0.1,0.6,0.4,0.8c0.3,0.2,0.6,0.3,1.1,0.4c0.5,0.1,1,0.1,1.6,0.1
		c0.6,0,1.2,0,1.8,0c0.6,0,1.2,0.1,1.8,0.2c0.6,0.1,1.1,0.3,1.6,0.5s0.8,0.6,1.1,1c0.3,0.4,0.4,1,0.4,1.7c0,0.6-0.2,1.2-0.5,1.8
		c-0.3,0.6-0.8,1.1-1.4,1.6c-0.6,0.5-1.3,0.8-2.2,1.1c-0.8,0.3-1.8,0.4-2.9,0.4s-2-0.1-2.8-0.3c-0.8-0.2-1.5-0.5-2-0.9
		c-0.5-0.4-0.9-0.8-1.2-1.2c-0.3-0.5-0.4-1-0.4-1.5c0-0.7,0.2-1.3,0.7-1.8c0.5-0.5,1.1-0.9,1.9-1.2c-0.4-0.2-0.7-0.4-1-0.8
		c-0.2-0.3-0.4-0.8-0.4-1.3c0-0.2,0-0.4,0.1-0.7c0.1-0.2,0.2-0.4,0.4-0.7c0.2-0.2,0.4-0.4,0.6-0.6c0.2-0.2,0.5-0.4,0.8-0.5
		c-0.7-0.4-1.3-0.9-1.7-1.6c-0.4-0.7-0.6-1.5-0.6-2.3c0-0.7,0.1-1.4,0.4-1.9c0.3-0.6,0.7-1.1,1.1-1.5c0.5-0.4,1.1-0.7,1.8-0.9
		C730.9,727.8,731.6,727.6,732.4,727.6z M737,743.3c0-0.4-0.1-0.7-0.3-0.9c-0.2-0.2-0.5-0.4-0.8-0.5c-0.3-0.1-0.7-0.2-1.2-0.3
		c-0.5-0.1-0.9-0.1-1.4-0.1c-0.5,0-1,0-1.5,0c-0.5,0-1-0.1-1.5-0.2c-0.5,0.3-1,0.6-1.3,1c-0.3,0.4-0.5,0.8-0.5,1.3
		c0,0.3,0.1,0.6,0.3,0.9c0.2,0.3,0.4,0.5,0.8,0.7c0.3,0.2,0.8,0.4,1.3,0.5c0.5,0.1,1.1,0.2,1.9,0.2c0.7,0,1.3-0.1,1.9-0.2
		c0.5-0.1,1-0.3,1.4-0.5c0.4-0.2,0.7-0.5,0.9-0.8C736.9,744,737,743.7,737,743.3z M732.4,735.4c0.5,0,1-0.1,1.4-0.2
		c0.4-0.1,0.7-0.3,1-0.6c0.3-0.3,0.5-0.6,0.6-0.9c0.1-0.4,0.2-0.8,0.2-1.2c0-0.9-0.3-1.6-0.8-2.1c-0.5-0.5-1.3-0.8-2.4-0.8
		c-1,0-1.8,0.3-2.4,0.8c-0.5,0.5-0.8,1.2-0.8,2.1c0,0.4,0.1,0.8,0.2,1.2c0.1,0.4,0.3,0.7,0.6,0.9c0.3,0.3,0.6,0.5,1,0.6
		C731.5,735.3,731.9,735.4,732.4,735.4z M748.1,727.7c0.9,0,1.7,0.1,2.4,0.4c0.7,0.3,1.4,0.7,1.9,1.3c0.5,0.6,1,1.2,1.3,2.1
		c0.3,0.8,0.5,1.7,0.5,2.8c0,0.4,0,0.7-0.1,0.8c-0.1,0.1-0.3,0.2-0.5,0.2h-9.7c0,0.9,0.1,1.7,0.4,2.4c0.2,0.7,0.5,1.3,1,1.7
		c0.4,0.5,0.9,0.8,1.4,1c0.6,0.2,1.2,0.3,1.9,0.3c0.6,0,1.2-0.1,1.7-0.2c0.5-0.1,0.9-0.3,1.2-0.5c0.3-0.2,0.6-0.3,0.8-0.5
		c0.2-0.1,0.4-0.2,0.6-0.2c0.2,0,0.4,0.1,0.5,0.2l0.7,0.9c-0.3,0.4-0.7,0.7-1.1,1c-0.4,0.3-0.9,0.5-1.4,0.7c-0.5,0.2-1,0.3-1.6,0.4
		c-0.5,0.1-1.1,0.1-1.6,0.1c-1,0-1.9-0.2-2.8-0.5s-1.6-0.8-2.2-1.5c-0.6-0.7-1.1-1.5-1.5-2.4c-0.3-1-0.5-2.1-0.5-3.4
		c0-1,0.2-2,0.5-2.9c0.3-0.9,0.8-1.7,1.4-2.3c0.6-0.6,1.3-1.2,2.2-1.5C746.1,727.8,747,727.7,748.1,727.7z M748.1,729.6
		c-1.2,0-2.2,0.4-2.9,1.1c-0.7,0.7-1.2,1.7-1.3,3h8c0-0.6-0.1-1.1-0.2-1.6c-0.2-0.5-0.4-0.9-0.7-1.3s-0.7-0.6-1.2-0.8
		C749.2,729.7,748.7,729.6,748.1,729.6z M781.3,732.2c0,1.6-0.2,3-0.7,4.2c-0.5,1.3-1.2,2.4-2.1,3.3c-0.9,0.9-2,1.6-3.2,2.1
		c-1.3,0.5-2.6,0.7-4.2,0.7h-7.7v-20.7h7.7c1.5,0,2.9,0.2,4.2,0.7c1.3,0.5,2.3,1.2,3.2,2.1c0.9,0.9,1.6,2,2.1,3.3
		C781.1,729.2,781.3,730.6,781.3,732.2z M778.5,732.2c0-1.3-0.2-2.4-0.5-3.4c-0.3-1-0.8-1.8-1.5-2.5c-0.6-0.7-1.4-1.2-2.3-1.6
		c-0.9-0.4-1.9-0.5-3-0.5h-4.9v16.2h4.9c1.1,0,2.1-0.2,3-0.5c0.9-0.4,1.7-0.9,2.3-1.6c0.6-0.7,1.1-1.5,1.5-2.5
		C778.3,734.6,778.5,733.5,778.5,732.2z M790.5,727.7c0.9,0,1.7,0.1,2.4,0.4c0.7,0.3,1.4,0.7,1.9,1.3c0.5,0.6,1,1.2,1.3,2.1
		c0.3,0.8,0.5,1.7,0.5,2.8c0,0.4,0,0.7-0.1,0.8c-0.1,0.1-0.3,0.2-0.5,0.2h-9.7c0,0.9,0.1,1.7,0.4,2.4c0.2,0.7,0.5,1.3,1,1.7
		c0.4,0.5,0.9,0.8,1.4,1c0.6,0.2,1.2,0.3,1.9,0.3c0.6,0,1.2-0.1,1.7-0.2c0.5-0.1,0.9-0.3,1.2-0.5c0.3-0.2,0.6-0.3,0.8-0.5
		c0.2-0.1,0.4-0.2,0.6-0.2c0.2,0,0.4,0.1,0.5,0.2l0.7,0.9c-0.3,0.4-0.7,0.7-1.1,1c-0.4,0.3-0.9,0.5-1.4,0.7c-0.5,0.2-1,0.3-1.6,0.4
		c-0.5,0.1-1.1,0.1-1.6,0.1c-1,0-1.9-0.2-2.8-0.5s-1.6-0.8-2.2-1.5c-0.6-0.7-1.1-1.5-1.5-2.4c-0.3-1-0.5-2.1-0.5-3.4
		c0-1,0.2-2,0.5-2.9c0.3-0.9,0.8-1.7,1.4-2.3c0.6-0.6,1.3-1.2,2.2-1.5C788.5,727.8,789.5,727.7,790.5,727.7z M790.6,729.6
		c-1.2,0-2.2,0.4-2.9,1.1c-0.7,0.7-1.2,1.7-1.3,3h8c0-0.6-0.1-1.1-0.2-1.6c-0.2-0.5-0.4-0.9-0.7-1.3c-0.3-0.4-0.7-0.6-1.2-0.8
		C791.7,729.7,791.2,729.6,790.6,729.6z M800.4,742.5v-12.4l-1.6-0.2c-0.2,0-0.4-0.1-0.5-0.2c-0.1-0.1-0.2-0.2-0.2-0.4v-1.1h2.3
		v-0.8c0-0.9,0.1-1.7,0.4-2.5c0.3-0.7,0.7-1.4,1.3-1.9c0.6-0.5,1.3-1,2.1-1.3c0.8-0.3,1.8-0.4,2.9-0.4c0.4,0,0.7,0,1.1,0.1
		c0.4,0,0.7,0.1,1,0.2l-0.1,1.3c0,0.1-0.1,0.2-0.2,0.2c-0.1,0-0.2,0-0.4,0c-0.1,0-0.2,0-0.3,0c-0.1,0-0.2,0-0.4,0
		c-1.7,0-2.9,0.4-3.7,1.1c-0.8,0.7-1.2,1.8-1.2,3.2v0.7h8.8v14.3h-2.6V730H803v12.5H800.4z M816.3,742.5v-14.6h1.5
		c0.4,0,0.6,0.2,0.7,0.5l0.2,1.6c0.6-0.7,1.3-1.3,2.1-1.7c0.8-0.4,1.7-0.6,2.7-0.6c0.8,0,1.5,0.1,2.1,0.4c0.6,0.3,1.1,0.6,1.5,1.1
		c0.4,0.5,0.7,1.1,0.9,1.8c0.2,0.7,0.3,1.4,0.3,2.3v9.3h-2.6v-9.3c0-1.1-0.3-2-0.8-2.6c-0.5-0.6-1.3-0.9-2.3-0.9
		c-0.8,0-1.5,0.2-2.1,0.5c-0.7,0.4-1.3,0.9-1.8,1.5v10.8H816.3z M835.8,723.3c0,0.3-0.1,0.5-0.2,0.7c-0.1,0.2-0.2,0.4-0.4,0.6
		c-0.2,0.2-0.4,0.3-0.6,0.4c-0.2,0.1-0.5,0.1-0.7,0.1c-0.3,0-0.5,0-0.7-0.1c-0.2-0.1-0.4-0.2-0.6-0.4c-0.2-0.2-0.3-0.4-0.4-0.6
		c-0.1-0.2-0.1-0.5-0.1-0.7c0-0.3,0-0.5,0.1-0.7c0.1-0.2,0.2-0.4,0.4-0.6c0.2-0.2,0.4-0.3,0.6-0.4c0.2-0.1,0.4-0.1,0.7-0.1
		c0.3,0,0.5,0,0.7,0.1c0.2,0.1,0.4,0.2,0.6,0.4c0.2,0.2,0.3,0.4,0.4,0.6C835.8,722.8,835.8,723.1,835.8,723.3z M835.3,727.9v14.6
		h-2.6v-14.6H835.3z M844.2,742.8c-1.2,0-2-0.3-2.7-1c-0.6-0.6-0.9-1.6-0.9-2.8v-9h-1.8c-0.2,0-0.3,0-0.4-0.1
		c-0.1-0.1-0.2-0.2-0.2-0.4v-1l2.4-0.3l0.6-4.5c0-0.1,0.1-0.3,0.2-0.4c0.1-0.1,0.2-0.1,0.4-0.1h1.3v5h4.2v1.9h-4.2v8.8
		c0,0.6,0.1,1.1,0.4,1.4c0.3,0.3,0.7,0.4,1.2,0.4c0.3,0,0.5,0,0.7-0.1c0.2-0.1,0.4-0.2,0.5-0.2c0.1-0.1,0.3-0.2,0.4-0.2
		s0.2-0.1,0.3-0.1c0.1,0,0.3,0.1,0.4,0.2l0.8,1.2c-0.4,0.4-1,0.7-1.6,1C845.5,742.6,844.9,742.8,844.2,742.8z M854,723.3
		c0,0.3-0.1,0.5-0.2,0.7c-0.1,0.2-0.2,0.4-0.4,0.6c-0.2,0.2-0.4,0.3-0.6,0.4c-0.2,0.1-0.5,0.1-0.7,0.1c-0.3,0-0.5,0-0.7-0.1
		c-0.2-0.1-0.4-0.2-0.6-0.4c-0.2-0.2-0.3-0.4-0.4-0.6c-0.1-0.2-0.1-0.5-0.1-0.7c0-0.3,0-0.5,0.1-0.7c0.1-0.2,0.2-0.4,0.4-0.6
		c0.2-0.2,0.4-0.3,0.6-0.4c0.2-0.1,0.5-0.1,0.7-0.1c0.3,0,0.5,0,0.7,0.1c0.2,0.1,0.4,0.2,0.6,0.4c0.2,0.2,0.3,0.4,0.4,0.6
		C854,722.8,854,723.1,854,723.3z M853.4,727.9v14.6h-2.6v-14.6H853.4z M863.9,727.7c1.1,0,2,0.2,2.9,0.5c0.9,0.4,1.6,0.9,2.2,1.5
		c0.6,0.7,1.1,1.4,1.4,2.4c0.3,0.9,0.5,2,0.5,3.1c0,1.2-0.2,2.2-0.5,3.1c-0.3,0.9-0.8,1.7-1.4,2.4c-0.6,0.7-1.3,1.2-2.2,1.5
		c-0.9,0.4-1.8,0.5-2.9,0.5c-1.1,0-2-0.2-2.9-0.5c-0.9-0.4-1.6-0.9-2.2-1.5c-0.6-0.7-1.1-1.4-1.4-2.4c-0.3-0.9-0.5-2-0.5-3.1
		c0-1.1,0.2-2.2,0.5-3.1c0.3-0.9,0.8-1.7,1.4-2.4c0.6-0.7,1.3-1.2,2.2-1.5C861.8,727.8,862.8,727.7,863.9,727.7z M863.9,740.7
		c1.4,0,2.5-0.5,3.2-1.5c0.7-1,1.1-2.3,1.1-4.1c0-1.7-0.4-3.1-1.1-4.1c-0.7-1-1.8-1.5-3.2-1.5c-0.7,0-1.4,0.1-1.9,0.4
		c-0.5,0.3-1,0.6-1.4,1.1c-0.4,0.5-0.6,1.1-0.8,1.7c-0.2,0.7-0.3,1.5-0.3,2.3s0.1,1.6,0.3,2.3c0.2,0.7,0.4,1.3,0.8,1.7
		c0.4,0.5,0.8,0.8,1.4,1.1C862.5,740.6,863.1,740.7,863.9,740.7z M874,742.5v-14.6h1.5c0.4,0,0.6,0.2,0.7,0.5l0.2,1.6
		c0.6-0.7,1.3-1.3,2.1-1.7c0.8-0.4,1.7-0.6,2.7-0.6c0.8,0,1.5,0.1,2.1,0.4c0.6,0.3,1.1,0.6,1.5,1.1c0.4,0.5,0.7,1.1,0.9,1.8
		c0.2,0.7,0.3,1.4,0.3,2.3v9.3h-2.6v-9.3c0-1.1-0.3-2-0.8-2.6c-0.5-0.6-1.3-0.9-2.3-0.9c-0.8,0-1.5,0.2-2.1,0.5
		c-0.7,0.4-1.3,0.9-1.8,1.5v10.8H874z"/>
	<g class="st4">
		<path class="st5" d="M958.3,738h-2.8v-20.7h2.8V738z"/>
		<path class="st5" d="M973.7,738c-0.4,0-0.6-0.2-0.7-0.5l-0.2-1.8c-0.6,0.8-1.3,1.4-2.1,1.8c-0.8,0.5-1.7,0.7-2.8,0.7
			c-0.8,0-1.6-0.2-2.3-0.5c-0.7-0.3-1.3-0.8-1.7-1.4s-0.9-1.4-1.1-2.3s-0.4-2-0.4-3.2c0-1.1,0.1-2.1,0.4-3c0.3-0.9,0.7-1.7,1.2-2.4
			s1.2-1.2,2-1.6c0.8-0.4,1.7-0.6,2.7-0.6c0.9,0,1.7,0.2,2.3,0.5s1.2,0.7,1.7,1.3v-8.1h2.6V738H973.7z M968.7,736.1
			c0.8,0,1.6-0.2,2.2-0.6s1.2-0.9,1.7-1.6v-7.1c-0.5-0.6-1-1.1-1.6-1.3c-0.6-0.3-1.2-0.4-1.9-0.4c-1.4,0-2.4,0.5-3.1,1.5
			s-1.1,2.4-1.1,4.2c0,1,0.1,1.8,0.2,2.4c0.2,0.7,0.4,1.2,0.7,1.7c0.3,0.4,0.7,0.8,1.2,1S968.1,736.1,968.7,736.1z"/>
		<path class="st5" d="M985.3,723.2c0.9,0,1.7,0.1,2.4,0.4c0.7,0.3,1.4,0.7,1.9,1.3s1,1.2,1.3,2.1c0.3,0.8,0.5,1.7,0.5,2.8
			c0,0.4,0,0.7-0.1,0.8s-0.3,0.2-0.5,0.2H981c0,0.9,0.1,1.7,0.4,2.4c0.2,0.7,0.5,1.3,1,1.7s0.9,0.8,1.4,1s1.2,0.3,1.9,0.3
			c0.6,0,1.2-0.1,1.7-0.2c0.5-0.1,0.9-0.3,1.2-0.5c0.3-0.2,0.6-0.3,0.8-0.5c0.2-0.1,0.4-0.2,0.6-0.2c0.2,0,0.4,0.1,0.5,0.2l0.7,0.9
			c-0.3,0.4-0.7,0.7-1.1,1c-0.4,0.3-0.9,0.5-1.4,0.7s-1,0.3-1.6,0.4c-0.5,0.1-1.1,0.1-1.6,0.1c-1,0-1.9-0.2-2.8-0.5
			s-1.6-0.8-2.2-1.5s-1.1-1.5-1.5-2.4s-0.5-2.1-0.5-3.4c0-1,0.2-2,0.5-2.9s0.8-1.7,1.4-2.3c0.6-0.7,1.3-1.2,2.2-1.5
			C983.3,723.3,984.3,723.2,985.3,723.2z M985.4,725c-1.2,0-2.2,0.4-2.9,1.1c-0.7,0.7-1.2,1.7-1.3,3h8c0-0.6-0.1-1.1-0.2-1.6
			c-0.2-0.5-0.4-0.9-0.7-1.3c-0.3-0.4-0.7-0.6-1.2-0.8C986.5,725.1,986,725,985.4,725z"/>
		<path class="st5" d="M1005.4,738h-1.1c-0.3,0-0.5,0-0.6-0.1s-0.3-0.2-0.3-0.5l-0.3-1.4c-0.4,0.3-0.8,0.7-1.1,0.9s-0.8,0.5-1.2,0.7
			c-0.4,0.2-0.8,0.3-1.3,0.4c-0.5,0.1-1,0.1-1.5,0.1c-0.6,0-1.1-0.1-1.6-0.2c-0.5-0.2-0.9-0.4-1.3-0.7c-0.4-0.3-0.7-0.7-0.9-1.2
			c-0.2-0.5-0.3-1.1-0.3-1.7c0-0.6,0.2-1.1,0.5-1.7c0.3-0.5,0.8-1,1.5-1.4c0.7-0.4,1.6-0.8,2.8-1c1.1-0.3,2.5-0.4,4.2-0.4v-1.1
			c0-1.1-0.2-2-0.7-2.6c-0.5-0.6-1.2-0.9-2.2-0.9c-0.6,0-1.2,0.1-1.6,0.2s-0.8,0.3-1.1,0.5c-0.3,0.2-0.6,0.4-0.8,0.5
			c-0.2,0.2-0.5,0.2-0.7,0.2c-0.2,0-0.3,0-0.5-0.1c-0.1-0.1-0.2-0.2-0.3-0.3l-0.5-0.8c0.8-0.8,1.7-1.4,2.6-1.7
			c0.9-0.4,2-0.6,3.1-0.6c0.8,0,1.5,0.1,2.2,0.4s1.2,0.6,1.6,1.1c0.4,0.5,0.8,1.1,1,1.7c0.2,0.7,0.3,1.4,0.3,2.3V738z M998.7,736.4
			c0.5,0,0.9,0,1.2-0.1c0.4-0.1,0.7-0.2,1.1-0.4c0.3-0.2,0.6-0.4,1-0.6c0.3-0.2,0.6-0.5,0.9-0.8v-3c-1.2,0-2.2,0.1-3,0.2
			c-0.8,0.2-1.5,0.3-2,0.6c-0.5,0.2-0.9,0.5-1.1,0.9c-0.2,0.3-0.4,0.7-0.4,1.1c0,0.4,0.1,0.7,0.2,1c0.1,0.3,0.3,0.5,0.5,0.7
			c0.2,0.2,0.5,0.3,0.8,0.4C998.1,736.4,998.4,736.4,998.7,736.4z"/>
		<path class="st5" d="M1024.5,736c0.6,0,1.1,0,1.5-0.1c0.5-0.1,0.9-0.1,1.3-0.2c0.4-0.1,0.8-0.2,1.2-0.4c0.4-0.1,0.7-0.3,1.1-0.5
			v-4.6h-3.2c-0.2,0-0.3-0.1-0.4-0.2c-0.1-0.1-0.2-0.2-0.2-0.4v-1.6h6.4v7.9c-0.5,0.4-1.1,0.7-1.6,1s-1.2,0.5-1.8,0.7
			c-0.6,0.2-1.3,0.3-2.1,0.4s-1.5,0.1-2.4,0.1c-1.5,0-2.9-0.3-4.1-0.8c-1.3-0.5-2.3-1.2-3.2-2.2c-0.9-0.9-1.6-2-2.1-3.3
			c-0.5-1.3-0.8-2.7-0.8-4.3c0-1.6,0.2-3,0.7-4.3c0.5-1.3,1.2-2.4,2.1-3.3c0.9-0.9,2-1.6,3.3-2.2c1.3-0.5,2.8-0.8,4.4-0.8
			c0.8,0,1.6,0.1,2.3,0.2c0.7,0.1,1.4,0.3,2,0.5c0.6,0.2,1.2,0.5,1.7,0.8c0.5,0.3,1,0.7,1.4,1.1l-0.8,1.3c-0.2,0.3-0.4,0.4-0.6,0.4
			c-0.2,0-0.3-0.1-0.5-0.2c-0.2-0.1-0.5-0.3-0.8-0.5c-0.3-0.2-0.7-0.4-1.1-0.6s-0.9-0.3-1.5-0.5c-0.6-0.1-1.3-0.2-2.1-0.2
			c-1.2,0-2.2,0.2-3.2,0.6c-0.9,0.4-1.7,0.9-2.4,1.6c-0.7,0.7-1.2,1.6-1.5,2.6c-0.4,1-0.5,2.1-0.5,3.4c0,1.3,0.2,2.5,0.6,3.5
			c0.4,1,0.9,1.9,1.6,2.6c0.7,0.7,1.5,1.3,2.4,1.6C1022.4,735.8,1023.4,736,1024.5,736z"/>
		<path class="st5" d="M1041.9,723.2c0.9,0,1.7,0.1,2.4,0.4c0.7,0.3,1.4,0.7,1.9,1.3s1,1.2,1.3,2.1c0.3,0.8,0.5,1.7,0.5,2.8
			c0,0.4,0,0.7-0.1,0.8s-0.3,0.2-0.5,0.2h-9.7c0,0.9,0.1,1.7,0.4,2.4c0.2,0.7,0.5,1.3,1,1.7s0.9,0.8,1.4,1s1.2,0.3,1.9,0.3
			c0.6,0,1.2-0.1,1.7-0.2c0.5-0.1,0.9-0.3,1.2-0.5c0.3-0.2,0.6-0.3,0.8-0.5c0.2-0.1,0.4-0.2,0.6-0.2c0.2,0,0.4,0.1,0.5,0.2l0.7,0.9
			c-0.3,0.4-0.7,0.7-1.1,1c-0.4,0.3-0.9,0.5-1.4,0.7s-1,0.3-1.6,0.4c-0.5,0.1-1.1,0.1-1.6,0.1c-1,0-1.9-0.2-2.8-0.5
			s-1.6-0.8-2.2-1.5s-1.1-1.5-1.5-2.4s-0.5-2.1-0.5-3.4c0-1,0.2-2,0.5-2.9s0.8-1.7,1.4-2.3c0.6-0.7,1.3-1.2,2.2-1.5
			C1039.9,723.3,1040.8,723.2,1041.9,723.2z M1041.9,725c-1.2,0-2.2,0.4-2.9,1.1c-0.7,0.7-1.2,1.7-1.3,3h8c0-0.6-0.1-1.1-0.2-1.6
			c-0.2-0.5-0.4-0.9-0.7-1.3c-0.3-0.4-0.7-0.6-1.2-0.8C1043.1,725.1,1042.5,725,1041.9,725z"/>
		<path class="st5" d="M1051.2,738v-14.6h1.5c0.4,0,0.6,0.2,0.7,0.5l0.2,1.6c0.6-0.7,1.3-1.3,2.1-1.7c0.8-0.4,1.7-0.6,2.7-0.6
			c0.8,0,1.5,0.1,2.1,0.4c0.6,0.3,1.1,0.6,1.5,1.1s0.7,1.1,0.9,1.8s0.3,1.4,0.3,2.3v9.3h-2.6v-9.3c0-1.1-0.3-2-0.8-2.6
			c-0.5-0.6-1.3-0.9-2.3-0.9c-0.8,0-1.5,0.2-2.1,0.5c-0.7,0.4-1.3,0.9-1.8,1.5V738H1051.2z"/>
		<path class="st5" d="M1073.1,723.2c0.9,0,1.7,0.1,2.4,0.4c0.7,0.3,1.4,0.7,1.9,1.3s1,1.2,1.3,2.1c0.3,0.8,0.5,1.7,0.5,2.8
			c0,0.4,0,0.7-0.1,0.8s-0.3,0.2-0.5,0.2h-9.7c0,0.9,0.1,1.7,0.4,2.4c0.2,0.7,0.5,1.3,1,1.7s0.9,0.8,1.4,1s1.2,0.3,1.9,0.3
			c0.6,0,1.2-0.1,1.7-0.2c0.5-0.1,0.9-0.3,1.2-0.5c0.3-0.2,0.6-0.3,0.8-0.5c0.2-0.1,0.4-0.2,0.6-0.2c0.2,0,0.4,0.1,0.5,0.2l0.7,0.9
			c-0.3,0.4-0.7,0.7-1.1,1c-0.4,0.3-0.9,0.5-1.4,0.7s-1,0.3-1.6,0.4c-0.5,0.1-1.1,0.1-1.6,0.1c-1,0-1.9-0.2-2.8-0.5
			s-1.6-0.8-2.2-1.5s-1.1-1.5-1.5-2.4s-0.5-2.1-0.5-3.4c0-1,0.2-2,0.5-2.9s0.8-1.7,1.4-2.3c0.6-0.7,1.3-1.2,2.2-1.5
			C1071.1,723.3,1072,723.2,1073.1,723.2z M1073.1,725c-1.2,0-2.2,0.4-2.9,1.1c-0.7,0.7-1.2,1.7-1.3,3h8c0-0.6-0.1-1.1-0.2-1.6
			c-0.2-0.5-0.4-0.9-0.7-1.3c-0.3-0.4-0.7-0.6-1.2-0.8C1074.2,725.1,1073.7,725,1073.1,725z"/>
		<path class="st5" d="M1082.4,738v-14.6h1.5c0.3,0,0.5,0.1,0.6,0.2c0.1,0.1,0.2,0.3,0.2,0.5l0.2,2.3c0.5-1,1.1-1.8,1.9-2.4
			c0.7-0.6,1.6-0.9,2.6-0.9c0.4,0,0.8,0,1.1,0.1c0.3,0.1,0.6,0.2,0.9,0.4l-0.3,1.9c-0.1,0.2-0.2,0.4-0.4,0.4c-0.1,0-0.3,0-0.6-0.1
			s-0.7-0.1-1.2-0.1c-0.9,0-1.6,0.3-2.2,0.8s-1.1,1.3-1.5,2.3v9.3H1082.4z"/>
		<path class="st5" d="M1104.3,738h-1.1c-0.3,0-0.5,0-0.6-0.1s-0.3-0.2-0.3-0.5l-0.3-1.4c-0.4,0.3-0.8,0.7-1.1,0.9s-0.8,0.5-1.2,0.7
			c-0.4,0.2-0.8,0.3-1.3,0.4c-0.5,0.1-1,0.1-1.5,0.1c-0.6,0-1.1-0.1-1.6-0.2c-0.5-0.2-0.9-0.4-1.3-0.7c-0.4-0.3-0.7-0.7-0.9-1.2
			c-0.2-0.5-0.3-1.1-0.3-1.7c0-0.6,0.2-1.1,0.5-1.7c0.3-0.5,0.8-1,1.5-1.4c0.7-0.4,1.6-0.8,2.8-1c1.1-0.3,2.5-0.4,4.2-0.4v-1.1
			c0-1.1-0.2-2-0.7-2.6c-0.5-0.6-1.2-0.9-2.2-0.9c-0.6,0-1.2,0.1-1.6,0.2s-0.8,0.3-1.1,0.5c-0.3,0.2-0.6,0.4-0.8,0.5
			c-0.2,0.2-0.5,0.2-0.7,0.2c-0.2,0-0.3,0-0.5-0.1c-0.1-0.1-0.2-0.2-0.3-0.3l-0.5-0.8c0.8-0.8,1.7-1.4,2.6-1.7
			c0.9-0.4,2-0.6,3.1-0.6c0.8,0,1.5,0.1,2.2,0.4s1.2,0.6,1.6,1.1c0.4,0.5,0.8,1.1,1,1.7c0.2,0.7,0.3,1.4,0.3,2.3V738z M1097.6,736.4
			c0.5,0,0.9,0,1.2-0.1c0.4-0.1,0.7-0.2,1.1-0.4c0.3-0.2,0.6-0.4,1-0.6c0.3-0.2,0.6-0.5,0.9-0.8v-3c-1.2,0-2.2,0.1-3,0.2
			c-0.8,0.2-1.5,0.3-2,0.6c-0.5,0.2-0.9,0.5-1.1,0.9c-0.2,0.3-0.4,0.7-0.4,1.1c0,0.4,0.1,0.7,0.2,1c0.1,0.3,0.3,0.5,0.5,0.7
			c0.2,0.2,0.5,0.3,0.8,0.4C1096.9,736.4,1097.3,736.4,1097.6,736.4z"/>
		<path class="st5" d="M1112.6,738.2c-1.2,0-2-0.3-2.7-1c-0.6-0.6-0.9-1.6-0.9-2.8v-9h-1.8c-0.2,0-0.3,0-0.4-0.1
			c-0.1-0.1-0.2-0.2-0.2-0.4v-1l2.4-0.3l0.6-4.5c0-0.1,0.1-0.3,0.2-0.4c0.1-0.1,0.2-0.1,0.4-0.1h1.3v5h4.2v1.9h-4.2v8.8
			c0,0.6,0.1,1.1,0.4,1.4s0.7,0.4,1.2,0.4c0.3,0,0.5,0,0.7-0.1c0.2-0.1,0.4-0.2,0.5-0.2c0.1-0.1,0.3-0.2,0.4-0.2
			c0.1-0.1,0.2-0.1,0.3-0.1c0.1,0,0.3,0.1,0.4,0.2l0.8,1.2c-0.4,0.4-1,0.7-1.6,1C1113.9,738.1,1113.3,738.2,1112.6,738.2z"/>
		<path class="st5" d="M1122.4,718.8c0,0.3-0.1,0.5-0.2,0.7c-0.1,0.2-0.2,0.4-0.4,0.6c-0.2,0.2-0.4,0.3-0.6,0.4
			c-0.2,0.1-0.5,0.1-0.7,0.1s-0.5,0-0.7-0.1s-0.4-0.2-0.6-0.4c-0.2-0.2-0.3-0.4-0.4-0.6c-0.1-0.2-0.1-0.5-0.1-0.7
			c0-0.3,0-0.5,0.1-0.7c0.1-0.2,0.2-0.4,0.4-0.6c0.2-0.2,0.4-0.3,0.6-0.4c0.2-0.1,0.5-0.1,0.7-0.1s0.5,0,0.7,0.1
			c0.2,0.1,0.4,0.2,0.6,0.4c0.2,0.2,0.3,0.4,0.4,0.6C1122.3,718.3,1122.4,718.5,1122.4,718.8z M1121.8,723.4V738h-2.6v-14.6H1121.8z
			"/>
		<path class="st5" d="M1132.3,723.2c1.1,0,2,0.2,2.9,0.5s1.6,0.9,2.2,1.5c0.6,0.7,1.1,1.4,1.4,2.4c0.3,0.9,0.5,2,0.5,3.1
			c0,1.2-0.2,2.2-0.5,3.1c-0.3,0.9-0.8,1.7-1.4,2.4c-0.6,0.7-1.3,1.2-2.2,1.5s-1.8,0.5-2.9,0.5c-1.1,0-2-0.2-2.9-0.5
			c-0.9-0.4-1.6-0.9-2.2-1.5c-0.6-0.7-1.1-1.4-1.4-2.4c-0.3-0.9-0.5-2-0.5-3.1c0-1.1,0.2-2.2,0.5-3.1c0.3-0.9,0.8-1.7,1.4-2.4
			c0.6-0.7,1.3-1.2,2.2-1.5C1130.2,723.3,1131.2,723.2,1132.3,723.2z M1132.3,736.2c1.4,0,2.5-0.5,3.2-1.5c0.7-1,1.1-2.3,1.1-4.1
			c0-1.7-0.4-3.1-1.1-4.1c-0.7-1-1.8-1.5-3.2-1.5c-0.7,0-1.4,0.1-1.9,0.4c-0.5,0.3-1,0.6-1.4,1.1s-0.6,1.1-0.8,1.7
			c-0.2,0.7-0.3,1.5-0.3,2.3c0,0.9,0.1,1.6,0.3,2.3c0.2,0.7,0.4,1.3,0.8,1.7s0.8,0.8,1.4,1.1
			C1130.9,736.1,1131.5,736.2,1132.3,736.2z"/>
		<path class="st5" d="M1142.4,738v-14.6h1.5c0.4,0,0.6,0.2,0.7,0.5l0.2,1.6c0.6-0.7,1.3-1.3,2.1-1.7c0.8-0.4,1.7-0.6,2.7-0.6
			c0.8,0,1.5,0.1,2.1,0.4c0.6,0.3,1.1,0.6,1.5,1.1s0.7,1.1,0.9,1.8s0.3,1.4,0.3,2.3v9.3h-2.6v-9.3c0-1.1-0.3-2-0.8-2.6
			c-0.5-0.6-1.3-0.9-2.3-0.9c-0.8,0-1.5,0.2-2.1,0.5c-0.7,0.4-1.3,0.9-1.8,1.5V738H1142.4z"/>
	</g>
	<g class="st4">
		<path class="st5" d="M1277,721.4v2.4h-6.7v18.3h-2.8v-18.3h-6.7v-2.4H1277z"/>
		<path class="st5" d="M1282.4,727.3c0.9,0,1.7,0.1,2.4,0.4c0.7,0.3,1.4,0.7,1.9,1.3s1,1.2,1.3,2.1c0.3,0.8,0.5,1.7,0.5,2.8
			c0,0.4,0,0.7-0.1,0.8s-0.3,0.2-0.5,0.2h-9.7c0,0.9,0.1,1.7,0.4,2.4c0.2,0.7,0.5,1.3,1,1.7s0.9,0.8,1.4,1s1.2,0.3,1.9,0.3
			c0.6,0,1.2-0.1,1.7-0.2c0.5-0.1,0.9-0.3,1.2-0.5c0.3-0.2,0.6-0.3,0.8-0.5c0.2-0.1,0.4-0.2,0.6-0.2c0.2,0,0.4,0.1,0.5,0.2l0.7,0.9
			c-0.3,0.4-0.7,0.7-1.1,1c-0.4,0.3-0.9,0.5-1.4,0.7s-1,0.3-1.6,0.4c-0.5,0.1-1.1,0.1-1.6,0.1c-1,0-1.9-0.2-2.8-0.5
			s-1.6-0.8-2.2-1.5s-1.1-1.5-1.5-2.4s-0.5-2.1-0.5-3.4c0-1,0.2-2,0.5-2.9s0.8-1.7,1.4-2.3c0.6-0.7,1.3-1.2,2.2-1.5
			C1280.3,727.4,1281.3,727.3,1282.4,727.3z M1282.4,729.1c-1.2,0-2.2,0.4-2.9,1.1c-0.7,0.7-1.2,1.7-1.3,3h8c0-0.6-0.1-1.1-0.2-1.6
			c-0.2-0.5-0.4-0.9-0.7-1.3c-0.3-0.4-0.7-0.6-1.2-0.8C1283.5,729.2,1283,729.1,1282.4,729.1z"/>
		<path class="st5" d="M1300.1,729.9c-0.1,0.2-0.3,0.3-0.5,0.3c-0.1,0-0.3-0.1-0.5-0.2c-0.2-0.1-0.4-0.2-0.7-0.4
			c-0.3-0.1-0.6-0.3-0.9-0.4c-0.4-0.1-0.8-0.2-1.3-0.2c-0.4,0-0.8,0.1-1.2,0.2s-0.6,0.3-0.9,0.5c-0.2,0.2-0.4,0.4-0.6,0.7
			c-0.1,0.3-0.2,0.5-0.2,0.8c0,0.4,0.1,0.7,0.3,0.9c0.2,0.3,0.5,0.5,0.9,0.7c0.4,0.2,0.8,0.3,1.2,0.5c0.5,0.1,0.9,0.3,1.4,0.4
			c0.5,0.2,0.9,0.3,1.4,0.5c0.5,0.2,0.9,0.4,1.2,0.7s0.6,0.6,0.9,1.1s0.3,0.9,0.3,1.5c0,0.7-0.1,1.3-0.4,1.9
			c-0.2,0.6-0.6,1.1-1.1,1.5s-1,0.7-1.7,1s-1.5,0.4-2.4,0.4c-1,0-1.9-0.2-2.8-0.5c-0.8-0.3-1.5-0.8-2.1-1.3l0.6-1
			c0.1-0.1,0.2-0.2,0.3-0.3c0.1-0.1,0.2-0.1,0.4-0.1s0.4,0.1,0.5,0.2s0.4,0.3,0.7,0.4c0.3,0.2,0.6,0.3,1,0.4
			c0.4,0.1,0.9,0.2,1.5,0.2c0.5,0,0.9-0.1,1.3-0.2c0.4-0.1,0.7-0.3,0.9-0.5c0.3-0.2,0.4-0.5,0.6-0.8c0.1-0.3,0.2-0.6,0.2-0.9
			c0-0.4-0.1-0.7-0.3-1c-0.2-0.3-0.5-0.5-0.9-0.7c-0.4-0.2-0.8-0.4-1.2-0.5c-0.5-0.1-0.9-0.3-1.4-0.4s-0.9-0.3-1.4-0.5
			c-0.5-0.2-0.9-0.4-1.2-0.7c-0.4-0.3-0.6-0.7-0.9-1.1s-0.3-1-0.3-1.6c0-0.6,0.1-1.1,0.3-1.6c0.2-0.5,0.6-1,1-1.4
			c0.4-0.4,1-0.7,1.6-0.9c0.6-0.2,1.4-0.3,2.2-0.3c1,0,1.8,0.2,2.6,0.5c0.8,0.3,1.4,0.7,2,1.2L1300.1,729.9z"/>
		<path class="st5" d="M1308.7,742.4c-1.2,0-2-0.3-2.7-1c-0.6-0.6-0.9-1.6-0.9-2.8v-9h-1.8c-0.2,0-0.3,0-0.4-0.1
			c-0.1-0.1-0.2-0.2-0.2-0.4v-1l2.4-0.3l0.6-4.5c0-0.1,0.1-0.3,0.2-0.4c0.1-0.1,0.2-0.1,0.4-0.1h1.3v5h4.2v1.9h-4.2v8.8
			c0,0.6,0.1,1.1,0.4,1.4s0.7,0.4,1.2,0.4c0.3,0,0.5,0,0.7-0.1c0.2-0.1,0.4-0.2,0.5-0.2c0.1-0.1,0.3-0.2,0.4-0.2
			c0.1-0.1,0.2-0.1,0.3-0.1c0.1,0,0.3,0.1,0.4,0.2l0.8,1.2c-0.4,0.4-1,0.7-1.6,1C1310,742.2,1309.3,742.4,1308.7,742.4z"/>
		<path class="st5" d="M1318.5,722.9c0,0.3-0.1,0.5-0.2,0.7c-0.1,0.2-0.2,0.4-0.4,0.6c-0.2,0.2-0.4,0.3-0.6,0.4
			c-0.2,0.1-0.5,0.1-0.7,0.1s-0.5,0-0.7-0.1s-0.4-0.2-0.6-0.4c-0.2-0.2-0.3-0.4-0.4-0.6c-0.1-0.2-0.1-0.5-0.1-0.7
			c0-0.3,0-0.5,0.1-0.7c0.1-0.2,0.2-0.4,0.4-0.6c0.2-0.2,0.4-0.3,0.6-0.4c0.2-0.1,0.5-0.1,0.7-0.1s0.5,0,0.7,0.1
			c0.2,0.1,0.4,0.2,0.6,0.4c0.2,0.2,0.3,0.4,0.4,0.6C1318.4,722.4,1318.5,722.6,1318.5,722.9z M1317.9,727.5v14.6h-2.6v-14.6H1317.9
			z"/>
		<path class="st5" d="M1322.4,742.1v-14.6h1.5c0.4,0,0.6,0.2,0.7,0.5l0.2,1.6c0.6-0.7,1.3-1.3,2.1-1.7c0.8-0.4,1.7-0.6,2.7-0.6
			c0.8,0,1.5,0.1,2.1,0.4c0.6,0.3,1.1,0.6,1.5,1.1s0.7,1.1,0.9,1.8s0.3,1.4,0.3,2.3v9.3h-2.6v-9.3c0-1.1-0.3-2-0.8-2.6
			c-0.5-0.6-1.3-0.9-2.3-0.9c-0.8,0-1.5,0.2-2.1,0.5c-0.7,0.4-1.3,0.9-1.8,1.5v10.8H1322.4z"/>
		<path class="st5" d="M1343.4,727.2c0.6,0,1.2,0.1,1.8,0.2c0.6,0.1,1.1,0.3,1.5,0.6h4v1c0,0.3-0.2,0.5-0.6,0.6l-1.7,0.2
			c0.3,0.6,0.5,1.3,0.5,2.1c0,0.7-0.1,1.4-0.4,1.9c-0.3,0.6-0.7,1.1-1.1,1.5c-0.5,0.4-1.1,0.7-1.7,1c-0.7,0.2-1.4,0.3-2.2,0.3
			c-0.7,0-1.3-0.1-1.9-0.2c-0.3,0.2-0.5,0.4-0.7,0.6c-0.2,0.2-0.2,0.5-0.2,0.7c0,0.4,0.1,0.6,0.4,0.8c0.3,0.2,0.7,0.3,1.1,0.4
			c0.5,0.1,1,0.1,1.6,0.1s1.2,0,1.8,0s1.2,0.1,1.8,0.2c0.6,0.1,1.1,0.3,1.6,0.5c0.5,0.2,0.8,0.6,1.1,1s0.4,1,0.4,1.7
			c0,0.6-0.2,1.2-0.5,1.8c-0.3,0.6-0.8,1.1-1.4,1.6c-0.6,0.5-1.3,0.8-2.2,1.1c-0.8,0.3-1.8,0.4-2.9,0.4c-1.1,0-2-0.1-2.8-0.3
			c-0.8-0.2-1.5-0.5-2-0.9s-0.9-0.8-1.2-1.2s-0.4-1-0.4-1.5c0-0.7,0.2-1.3,0.7-1.8s1.1-0.9,1.9-1.2c-0.4-0.2-0.7-0.4-1-0.8
			c-0.2-0.3-0.4-0.8-0.4-1.3c0-0.2,0-0.4,0.1-0.7c0.1-0.2,0.2-0.4,0.4-0.7c0.2-0.2,0.4-0.4,0.6-0.6c0.2-0.2,0.5-0.4,0.8-0.5
			c-0.7-0.4-1.3-0.9-1.7-1.6c-0.4-0.7-0.6-1.5-0.6-2.3c0-0.7,0.1-1.4,0.4-1.9c0.3-0.6,0.7-1.1,1.1-1.5c0.5-0.4,1.1-0.7,1.8-0.9
			C1341.8,727.4,1342.6,727.2,1343.4,727.2z M1348,742.9c0-0.4-0.1-0.7-0.3-0.9s-0.5-0.4-0.8-0.5c-0.3-0.1-0.7-0.2-1.2-0.3
			c-0.5-0.1-0.9-0.1-1.4-0.1c-0.5,0-1,0-1.5,0s-1-0.1-1.5-0.2c-0.5,0.3-1,0.6-1.3,1c-0.3,0.4-0.5,0.8-0.5,1.3c0,0.3,0.1,0.6,0.3,0.9
			c0.2,0.3,0.4,0.5,0.8,0.7c0.3,0.2,0.8,0.4,1.3,0.5c0.5,0.1,1.1,0.2,1.9,0.2c0.7,0,1.3-0.1,1.9-0.2c0.5-0.1,1-0.3,1.4-0.5
			c0.4-0.2,0.7-0.5,0.9-0.8C1347.9,743.6,1348,743.3,1348,742.9z M1343.4,735c0.5,0,1-0.1,1.4-0.2c0.4-0.1,0.7-0.3,1-0.6
			s0.5-0.6,0.6-0.9c0.1-0.4,0.2-0.8,0.2-1.2c0-0.9-0.3-1.6-0.8-2.1c-0.5-0.5-1.3-0.8-2.4-0.8c-1,0-1.8,0.3-2.4,0.8
			c-0.5,0.5-0.8,1.2-0.8,2.1c0,0.4,0.1,0.8,0.2,1.2c0.1,0.4,0.3,0.7,0.6,0.9s0.6,0.5,1,0.6C1342.4,734.9,1342.9,735,1343.4,735z"/>
	</g>
	<g class="st4">
		<path class="st5" d="M1498.7,745.2h-2.8v-20.7h2.8V745.2z"/>
		<path class="st5" d="M1503.9,745.2v-14.6h1.5c0.4,0,0.6,0.2,0.7,0.5l0.2,1.5c0.5-0.7,1.1-1.2,1.8-1.6c0.7-0.4,1.4-0.6,2.3-0.6
			c1,0,1.8,0.3,2.4,0.8s1.1,1.3,1.3,2.2c0.2-0.5,0.5-1,0.8-1.4c0.3-0.4,0.7-0.7,1.1-1c0.4-0.3,0.9-0.4,1.3-0.5
			c0.5-0.1,0.9-0.2,1.4-0.2c0.8,0,1.5,0.1,2.1,0.4c0.6,0.2,1.1,0.6,1.5,1.1c0.4,0.5,0.7,1.1,1,1.7s0.3,1.5,0.3,2.4v9.3h-2.6v-9.3
			c0-1.1-0.3-2-0.8-2.6c-0.5-0.6-1.2-0.9-2.2-0.9c-0.4,0-0.8,0.1-1.2,0.2c-0.4,0.1-0.7,0.4-1,0.7c-0.3,0.3-0.5,0.7-0.7,1.1
			c-0.2,0.4-0.3,0.9-0.3,1.5v9.3h-2.6v-9.3c0-1.2-0.2-2.1-0.7-2.6c-0.5-0.6-1.2-0.9-2.1-0.9c-0.6,0-1.2,0.2-1.8,0.5s-1,0.8-1.5,1.4
			v10.9H1503.9z"/>
		<path class="st5" d="M1527.6,750.2v-19.6h1.5c0.4,0,0.6,0.2,0.7,0.5l0.2,1.7c0.6-0.8,1.3-1.4,2.1-1.8s1.7-0.7,2.8-0.7
			c0.8,0,1.6,0.2,2.3,0.5c0.7,0.3,1.3,0.8,1.7,1.4s0.9,1.4,1.1,2.3s0.4,2,0.4,3.2c0,1.1-0.1,2.1-0.4,3c-0.3,0.9-0.7,1.7-1.2,2.4
			c-0.5,0.7-1.2,1.2-2,1.6s-1.7,0.6-2.7,0.6c-0.9,0-1.7-0.1-2.3-0.4c-0.6-0.3-1.2-0.7-1.7-1.3v6.5H1527.6z M1534.1,732.4
			c-0.8,0-1.6,0.2-2.2,0.6c-0.6,0.4-1.2,0.9-1.7,1.6v7.1c0.5,0.6,1,1.1,1.6,1.3c0.6,0.3,1.2,0.4,1.9,0.4c1.4,0,2.4-0.5,3.1-1.5
			c0.7-1,1.1-2.4,1.1-4.2c0-1-0.1-1.8-0.3-2.5c-0.2-0.7-0.4-1.2-0.7-1.7c-0.3-0.4-0.7-0.8-1.2-1
			C1535.2,732.5,1534.7,732.4,1534.1,732.4z"/>
		<path class="st5" d="M1546.4,724v21.3h-2.6V724H1546.4z"/>
		<path class="st5" d="M1556.7,730.4c0.9,0,1.7,0.1,2.4,0.4c0.7,0.3,1.4,0.7,1.9,1.3s1,1.2,1.3,2.1c0.3,0.8,0.5,1.7,0.5,2.8
			c0,0.4,0,0.7-0.1,0.8s-0.3,0.2-0.5,0.2h-9.7c0,0.9,0.1,1.7,0.4,2.4c0.2,0.7,0.5,1.3,1,1.7s0.9,0.8,1.4,1s1.2,0.3,1.9,0.3
			c0.6,0,1.2-0.1,1.7-0.2c0.5-0.1,0.9-0.3,1.2-0.5c0.3-0.2,0.6-0.3,0.8-0.5c0.2-0.1,0.4-0.2,0.6-0.2c0.2,0,0.4,0.1,0.5,0.2l0.7,0.9
			c-0.3,0.4-0.7,0.7-1.1,1c-0.4,0.3-0.9,0.5-1.4,0.7s-1,0.3-1.6,0.4c-0.5,0.1-1.1,0.1-1.6,0.1c-1,0-1.9-0.2-2.8-0.5
			s-1.6-0.8-2.2-1.5s-1.1-1.5-1.5-2.4s-0.5-2.1-0.5-3.4c0-1,0.2-2,0.5-2.9s0.8-1.7,1.4-2.3c0.6-0.7,1.3-1.2,2.2-1.5
			C1554.7,730.6,1555.7,730.4,1556.7,730.4z M1556.8,732.3c-1.2,0-2.2,0.4-2.9,1.1c-0.7,0.7-1.2,1.7-1.3,3h8c0-0.6-0.1-1.1-0.2-1.6
			c-0.2-0.5-0.4-0.9-0.7-1.3c-0.3-0.4-0.7-0.6-1.2-0.8C1557.9,732.4,1557.4,732.3,1556.8,732.3z"/>
		<path class="st5" d="M1566.1,745.2v-14.6h1.5c0.4,0,0.6,0.2,0.7,0.5l0.2,1.5c0.5-0.7,1.1-1.2,1.8-1.6c0.7-0.4,1.4-0.6,2.3-0.6
			c1,0,1.8,0.3,2.4,0.8s1.1,1.3,1.3,2.2c0.2-0.5,0.5-1,0.8-1.4c0.3-0.4,0.7-0.7,1.1-1c0.4-0.3,0.9-0.4,1.3-0.5
			c0.5-0.1,0.9-0.2,1.4-0.2c0.8,0,1.5,0.1,2.1,0.4c0.6,0.2,1.1,0.6,1.5,1.1c0.4,0.5,0.7,1.1,1,1.7s0.3,1.5,0.3,2.4v9.3h-2.6v-9.3
			c0-1.1-0.3-2-0.8-2.6c-0.5-0.6-1.2-0.9-2.2-0.9c-0.4,0-0.8,0.1-1.2,0.2c-0.4,0.1-0.7,0.4-1,0.7c-0.3,0.3-0.5,0.7-0.7,1.1
			c-0.2,0.4-0.3,0.9-0.3,1.5v9.3h-2.6v-9.3c0-1.2-0.2-2.1-0.7-2.6c-0.5-0.6-1.2-0.9-2.1-0.9c-0.6,0-1.2,0.2-1.8,0.5s-1,0.8-1.5,1.4
			v10.9H1566.1z"/>
		<path class="st5" d="M1595.6,730.4c0.9,0,1.7,0.1,2.4,0.4c0.7,0.3,1.4,0.7,1.9,1.3s1,1.2,1.3,2.1c0.3,0.8,0.5,1.7,0.5,2.8
			c0,0.4,0,0.7-0.1,0.8s-0.3,0.2-0.5,0.2h-9.7c0,0.9,0.1,1.7,0.4,2.4c0.2,0.7,0.5,1.3,1,1.7s0.9,0.8,1.4,1s1.2,0.3,1.9,0.3
			c0.6,0,1.2-0.1,1.7-0.2c0.5-0.1,0.9-0.3,1.2-0.5c0.3-0.2,0.6-0.3,0.8-0.5c0.2-0.1,0.4-0.2,0.6-0.2c0.2,0,0.4,0.1,0.5,0.2l0.7,0.9
			c-0.3,0.4-0.7,0.7-1.1,1c-0.4,0.3-0.9,0.5-1.4,0.7s-1,0.3-1.6,0.4c-0.5,0.1-1.1,0.1-1.6,0.1c-1,0-1.9-0.2-2.8-0.5
			s-1.6-0.8-2.2-1.5s-1.1-1.5-1.5-2.4s-0.5-2.1-0.5-3.4c0-1,0.2-2,0.5-2.9s0.8-1.7,1.4-2.3c0.6-0.7,1.3-1.2,2.2-1.5
			C1593.6,730.6,1594.5,730.4,1595.6,730.4z M1595.6,732.3c-1.2,0-2.2,0.4-2.9,1.1c-0.7,0.7-1.2,1.7-1.3,3h8c0-0.6-0.1-1.1-0.2-1.6
			c-0.2-0.5-0.4-0.9-0.7-1.3c-0.3-0.4-0.7-0.6-1.2-0.8C1596.7,732.4,1596.2,732.3,1595.6,732.3z"/>
		<path class="st5" d="M1604.9,745.2v-14.6h1.5c0.4,0,0.6,0.2,0.7,0.5l0.2,1.6c0.6-0.7,1.3-1.3,2.1-1.7c0.8-0.4,1.7-0.6,2.7-0.6
			c0.8,0,1.5,0.1,2.1,0.4c0.6,0.3,1.1,0.6,1.5,1.1s0.7,1.1,0.9,1.8s0.3,1.4,0.3,2.3v9.3h-2.6v-9.3c0-1.1-0.3-2-0.8-2.6
			c-0.5-0.6-1.3-0.9-2.3-0.9c-0.8,0-1.5,0.2-2.1,0.5c-0.7,0.4-1.3,0.9-1.8,1.5v10.8H1604.9z"/>
		<path class="st5" d="M1625.4,745.5c-1.2,0-2-0.3-2.7-1c-0.6-0.6-0.9-1.6-0.9-2.8v-9h-1.8c-0.2,0-0.3,0-0.4-0.1
			c-0.1-0.1-0.2-0.2-0.2-0.4v-1l2.4-0.3l0.6-4.5c0-0.1,0.1-0.3,0.2-0.4c0.1-0.1,0.2-0.1,0.4-0.1h1.3v5h4.2v1.9h-4.2v8.8
			c0,0.6,0.1,1.1,0.4,1.4s0.7,0.4,1.2,0.4c0.3,0,0.5,0,0.7-0.1c0.2-0.1,0.4-0.2,0.5-0.2c0.1-0.1,0.3-0.2,0.4-0.2
			c0.1-0.1,0.2-0.1,0.3-0.1c0.1,0,0.3,0.1,0.4,0.2l0.8,1.2c-0.4,0.4-1,0.7-1.6,1C1626.7,745.4,1626.1,745.5,1625.4,745.5z"/>
	</g>
	<g class="st4">
		<path class="st5" d="M1164.4,809v7.7h-2.8v-20.7h6.1c1.3,0,2.4,0.2,3.4,0.5c1,0.3,1.8,0.7,2.4,1.3c0.6,0.6,1.1,1.2,1.4,2
			c0.3,0.8,0.5,1.7,0.5,2.6c0,1-0.2,1.8-0.5,2.6c-0.3,0.8-0.8,1.5-1.5,2.1c-0.6,0.6-1.5,1-2.4,1.3c-1,0.3-2.1,0.5-3.3,0.5H1164.4z
			 M1164.4,806.8h3.3c0.8,0,1.5-0.1,2.1-0.3c0.6-0.2,1.1-0.5,1.5-0.9c0.4-0.4,0.7-0.8,0.9-1.4s0.3-1.1,0.3-1.7
			c0-1.3-0.4-2.3-1.2-3.1c-0.8-0.7-2-1.1-3.7-1.1h-3.3V806.8z"/>
		<path class="st5" d="M1178.5,816.8v-14.6h1.5c0.3,0,0.5,0.1,0.6,0.2c0.1,0.1,0.2,0.3,0.2,0.5l0.2,2.3c0.5-1,1.1-1.8,1.9-2.4
			c0.7-0.6,1.6-0.9,2.6-0.9c0.4,0,0.8,0,1.1,0.1c0.3,0.1,0.6,0.2,0.9,0.4l-0.3,1.9c-0.1,0.2-0.2,0.4-0.4,0.4c-0.1,0-0.3,0-0.6-0.1
			s-0.7-0.1-1.2-0.1c-0.9,0-1.6,0.3-2.2,0.8s-1.1,1.3-1.5,2.3v9.3H1178.5z"/>
		<path class="st5" d="M1196.1,801.9c1.1,0,2,0.2,2.9,0.5s1.6,0.9,2.2,1.5c0.6,0.7,1.1,1.4,1.4,2.4c0.3,0.9,0.5,2,0.5,3.1
			c0,1.2-0.2,2.2-0.5,3.1c-0.3,0.9-0.8,1.7-1.4,2.4c-0.6,0.7-1.3,1.2-2.2,1.5s-1.8,0.5-2.9,0.5c-1.1,0-2-0.2-2.9-0.5
			c-0.9-0.4-1.6-0.9-2.2-1.5c-0.6-0.7-1.1-1.4-1.4-2.4c-0.3-0.9-0.5-2-0.5-3.1c0-1.1,0.2-2.2,0.5-3.1c0.3-0.9,0.8-1.7,1.4-2.4
			c0.6-0.7,1.3-1.2,2.2-1.5C1194.1,802.1,1195,801.9,1196.1,801.9z M1196.1,815c1.4,0,2.5-0.5,3.2-1.5c0.7-1,1.1-2.3,1.1-4.1
			c0-1.7-0.4-3.1-1.1-4.1c-0.7-1-1.8-1.5-3.2-1.5c-0.7,0-1.4,0.1-1.9,0.4c-0.5,0.3-1,0.6-1.4,1.1s-0.6,1.1-0.8,1.7
			c-0.2,0.7-0.3,1.5-0.3,2.3c0,0.9,0.1,1.6,0.3,2.3c0.2,0.7,0.4,1.3,0.8,1.7s0.8,0.8,1.4,1.1C1194.7,814.9,1195.4,815,1196.1,815z"
			/>
		<path class="st5" d="M1210.7,817c-1.2,0-2-0.3-2.7-1c-0.6-0.6-0.9-1.6-0.9-2.8v-9h-1.8c-0.2,0-0.3,0-0.4-0.1
			c-0.1-0.1-0.2-0.2-0.2-0.4v-1l2.4-0.3l0.6-4.5c0-0.1,0.1-0.3,0.2-0.4c0.1-0.1,0.2-0.1,0.4-0.1h1.3v5h4.2v1.9h-4.2v8.8
			c0,0.6,0.1,1.1,0.4,1.4s0.7,0.4,1.2,0.4c0.3,0,0.5,0,0.7-0.1c0.2-0.1,0.4-0.2,0.5-0.2c0.1-0.1,0.3-0.2,0.4-0.2
			c0.1-0.1,0.2-0.1,0.3-0.1c0.1,0,0.3,0.1,0.4,0.2l0.8,1.2c-0.4,0.4-1,0.7-1.6,1C1212,816.9,1211.3,817,1210.7,817z"/>
		<path class="st5" d="M1222.9,801.9c1.1,0,2,0.2,2.9,0.5s1.6,0.9,2.2,1.5c0.6,0.7,1.1,1.4,1.4,2.4c0.3,0.9,0.5,2,0.5,3.1
			c0,1.2-0.2,2.2-0.5,3.1c-0.3,0.9-0.8,1.7-1.4,2.4c-0.6,0.7-1.3,1.2-2.2,1.5s-1.8,0.5-2.9,0.5c-1.1,0-2-0.2-2.9-0.5
			c-0.9-0.4-1.6-0.9-2.2-1.5c-0.6-0.7-1.1-1.4-1.4-2.4c-0.3-0.9-0.5-2-0.5-3.1c0-1.1,0.2-2.2,0.5-3.1c0.3-0.9,0.8-1.7,1.4-2.4
			c0.6-0.7,1.3-1.2,2.2-1.5C1220.9,802.1,1221.9,801.9,1222.9,801.9z M1222.9,815c1.4,0,2.5-0.5,3.2-1.5c0.7-1,1.1-2.3,1.1-4.1
			c0-1.7-0.4-3.1-1.1-4.1c-0.7-1-1.8-1.5-3.2-1.5c-0.7,0-1.4,0.1-1.9,0.4c-0.5,0.3-1,0.6-1.4,1.1s-0.6,1.1-0.8,1.7
			c-0.2,0.7-0.3,1.5-0.3,2.3c0,0.9,0.1,1.6,0.3,2.3c0.2,0.7,0.4,1.3,0.8,1.7s0.8,0.8,1.4,1.1C1221.6,814.9,1222.2,815,1222.9,815z"
			/>
		<path class="st5" d="M1237.5,817c-1.2,0-2-0.3-2.7-1c-0.6-0.6-0.9-1.6-0.9-2.8v-9h-1.8c-0.2,0-0.3,0-0.4-0.1
			c-0.1-0.1-0.2-0.2-0.2-0.4v-1l2.4-0.3l0.6-4.5c0-0.1,0.1-0.3,0.2-0.4c0.1-0.1,0.2-0.1,0.4-0.1h1.3v5h4.2v1.9h-4.2v8.8
			c0,0.6,0.1,1.1,0.4,1.4s0.7,0.4,1.2,0.4c0.3,0,0.5,0,0.7-0.1c0.2-0.1,0.4-0.2,0.5-0.2c0.1-0.1,0.3-0.2,0.4-0.2
			c0.1-0.1,0.2-0.1,0.3-0.1c0.1,0,0.3,0.1,0.4,0.2l0.8,1.2c-0.4,0.4-1,0.7-1.6,1C1238.8,816.9,1238.2,817,1237.5,817z"/>
		<path class="st5" d="M1248.1,821.1c-0.1,0.2-0.2,0.3-0.3,0.5c-0.1,0.1-0.3,0.2-0.6,0.2h-1.9l2.7-5.8l-6-13.8h2.2
			c0.2,0,0.4,0.1,0.5,0.2c0.1,0.1,0.2,0.2,0.3,0.4l3.9,9.2c0.1,0.2,0.2,0.4,0.2,0.6s0.1,0.4,0.2,0.6c0.1-0.2,0.1-0.4,0.2-0.6
			s0.1-0.4,0.2-0.7l3.8-9.2c0.1-0.2,0.2-0.3,0.3-0.4c0.1-0.1,0.3-0.2,0.5-0.2h2.1L1248.1,821.1z"/>
		<path class="st5" d="M1258.6,821.7v-19.6h1.5c0.4,0,0.6,0.2,0.7,0.5l0.2,1.7c0.6-0.8,1.3-1.4,2.1-1.8s1.7-0.7,2.8-0.7
			c0.8,0,1.6,0.2,2.3,0.5c0.7,0.3,1.3,0.8,1.7,1.4s0.9,1.4,1.1,2.3s0.4,2,0.4,3.2c0,1.1-0.1,2.1-0.4,3c-0.3,0.9-0.7,1.7-1.2,2.4
			c-0.5,0.7-1.2,1.2-2,1.6s-1.7,0.6-2.7,0.6c-0.9,0-1.7-0.1-2.3-0.4c-0.6-0.3-1.2-0.7-1.7-1.3v6.5H1258.6z M1265.1,804
			c-0.8,0-1.6,0.2-2.2,0.6c-0.6,0.4-1.2,0.9-1.7,1.6v7.1c0.5,0.6,1,1.1,1.6,1.3c0.6,0.3,1.2,0.4,1.9,0.4c1.4,0,2.4-0.5,3.1-1.5
			c0.7-1,1.1-2.4,1.1-4.2c0-1-0.1-1.8-0.3-2.5c-0.2-0.7-0.4-1.2-0.7-1.7c-0.3-0.4-0.7-0.8-1.2-1C1266.3,804.1,1265.7,804,1265.1,804
			z"/>
		<path class="st5" d="M1278,797.6c0,0.3-0.1,0.5-0.2,0.7c-0.1,0.2-0.2,0.4-0.4,0.6c-0.2,0.2-0.4,0.3-0.6,0.4
			c-0.2,0.1-0.5,0.1-0.7,0.1s-0.5,0-0.7-0.1s-0.4-0.2-0.6-0.4c-0.2-0.2-0.3-0.4-0.4-0.6c-0.1-0.2-0.1-0.5-0.1-0.7
			c0-0.3,0-0.5,0.1-0.7c0.1-0.2,0.2-0.4,0.4-0.6c0.2-0.2,0.4-0.3,0.6-0.4c0.2-0.1,0.5-0.1,0.7-0.1s0.5,0,0.7,0.1
			c0.2,0.1,0.4,0.2,0.6,0.4c0.2,0.2,0.3,0.4,0.4,0.6C1278,797.1,1278,797.3,1278,797.6z M1277.4,802.2v14.6h-2.6v-14.6H1277.4z"/>
		<path class="st5" d="M1282,816.8v-14.6h1.5c0.4,0,0.6,0.2,0.7,0.5l0.2,1.6c0.6-0.7,1.3-1.3,2.1-1.7c0.8-0.4,1.7-0.6,2.7-0.6
			c0.8,0,1.5,0.1,2.1,0.4c0.6,0.3,1.1,0.6,1.5,1.1s0.7,1.1,0.9,1.8s0.3,1.4,0.3,2.3v9.3h-2.6v-9.3c0-1.1-0.3-2-0.8-2.6
			c-0.5-0.6-1.3-0.9-2.3-0.9c-0.8,0-1.5,0.2-2.1,0.5c-0.7,0.4-1.3,0.9-1.8,1.5v10.8H1282z"/>
		<path class="st5" d="M1303,801.9c0.6,0,1.2,0.1,1.8,0.2c0.6,0.1,1.1,0.3,1.5,0.6h4v1c0,0.3-0.2,0.5-0.6,0.6l-1.7,0.2
			c0.3,0.6,0.5,1.3,0.5,2.1c0,0.7-0.1,1.4-0.4,1.9c-0.3,0.6-0.7,1.1-1.1,1.5c-0.5,0.4-1.1,0.7-1.7,1c-0.7,0.2-1.4,0.3-2.2,0.3
			c-0.7,0-1.3-0.1-1.9-0.2c-0.3,0.2-0.5,0.4-0.7,0.6c-0.2,0.2-0.2,0.5-0.2,0.7c0,0.4,0.1,0.6,0.4,0.8c0.3,0.2,0.7,0.3,1.1,0.4
			c0.5,0.1,1,0.1,1.6,0.1s1.2,0,1.8,0s1.2,0.1,1.8,0.2c0.6,0.1,1.1,0.3,1.6,0.5c0.5,0.2,0.8,0.6,1.1,1s0.4,1,0.4,1.7
			c0,0.6-0.2,1.2-0.5,1.8c-0.3,0.6-0.8,1.1-1.4,1.6c-0.6,0.5-1.3,0.8-2.2,1.1c-0.8,0.3-1.8,0.4-2.9,0.4c-1.1,0-2-0.1-2.8-0.3
			c-0.8-0.2-1.5-0.5-2-0.9s-0.9-0.8-1.2-1.2s-0.4-1-0.4-1.5c0-0.7,0.2-1.3,0.7-1.8s1.1-0.9,1.9-1.2c-0.4-0.2-0.7-0.4-1-0.8
			c-0.2-0.3-0.4-0.8-0.4-1.3c0-0.2,0-0.4,0.1-0.7c0.1-0.2,0.2-0.4,0.4-0.7c0.2-0.2,0.4-0.4,0.6-0.6c0.2-0.2,0.5-0.4,0.8-0.5
			c-0.7-0.4-1.3-0.9-1.7-1.6c-0.4-0.7-0.6-1.5-0.6-2.3c0-0.7,0.1-1.4,0.4-1.9c0.3-0.6,0.7-1.1,1.1-1.5c0.5-0.4,1.1-0.7,1.8-0.9
			C1301.4,802,1302.1,801.9,1303,801.9z M1307.5,817.5c0-0.4-0.1-0.7-0.3-0.9s-0.5-0.4-0.8-0.5c-0.3-0.1-0.7-0.2-1.2-0.3
			c-0.5-0.1-0.9-0.1-1.4-0.1c-0.5,0-1,0-1.5,0s-1-0.1-1.5-0.2c-0.5,0.3-1,0.6-1.3,1c-0.3,0.4-0.5,0.8-0.5,1.3c0,0.3,0.1,0.6,0.3,0.9
			c0.2,0.3,0.4,0.5,0.8,0.7c0.3,0.2,0.8,0.4,1.3,0.5c0.5,0.1,1.1,0.2,1.9,0.2c0.7,0,1.3-0.1,1.9-0.2c0.5-0.1,1-0.3,1.4-0.5
			c0.4-0.2,0.7-0.5,0.9-0.8C1307.4,818.3,1307.5,817.9,1307.5,817.5z M1303,809.6c0.5,0,1-0.1,1.4-0.2c0.4-0.1,0.7-0.3,1-0.6
			s0.5-0.6,0.6-0.9c0.1-0.4,0.2-0.8,0.2-1.2c0-0.9-0.3-1.6-0.8-2.1c-0.5-0.5-1.3-0.8-2.4-0.8c-1,0-1.8,0.3-2.4,0.8
			c-0.5,0.5-0.8,1.2-0.8,2.1c0,0.4,0.1,0.8,0.2,1.2c0.1,0.4,0.3,0.7,0.6,0.9s0.6,0.5,1,0.6C1302,809.6,1302.4,809.6,1303,809.6z"/>
	</g>
	<path class="st6" d="M834,529.7c-0.1,0.2-0.3,0.3-0.5,0.3c-0.1,0-0.3-0.1-0.5-0.2c-0.2-0.1-0.4-0.2-0.7-0.4
		c-0.3-0.1-0.6-0.3-0.9-0.4c-0.4-0.1-0.8-0.2-1.3-0.2c-0.4,0-0.8,0.1-1.2,0.2c-0.3,0.1-0.6,0.3-0.9,0.5c-0.2,0.2-0.4,0.4-0.6,0.7
		c-0.1,0.3-0.2,0.5-0.2,0.8c0,0.4,0.1,0.7,0.3,0.9c0.2,0.3,0.5,0.5,0.9,0.6c0.4,0.2,0.8,0.3,1.2,0.5c0.5,0.1,0.9,0.3,1.4,0.4
		c0.5,0.2,0.9,0.3,1.4,0.5c0.5,0.2,0.9,0.4,1.2,0.7c0.4,0.3,0.6,0.6,0.9,1.1c0.2,0.4,0.3,0.9,0.3,1.5c0,0.7-0.1,1.3-0.4,1.9
		c-0.2,0.6-0.6,1.1-1.1,1.5c-0.5,0.4-1,0.7-1.7,1c-0.7,0.2-1.5,0.4-2.4,0.4c-1,0-1.9-0.2-2.8-0.5c-0.8-0.3-1.5-0.8-2.1-1.3l0.6-1
		c0.1-0.1,0.2-0.2,0.3-0.3c0.1-0.1,0.2-0.1,0.4-0.1c0.2,0,0.4,0.1,0.5,0.2c0.2,0.1,0.4,0.3,0.7,0.4c0.3,0.2,0.6,0.3,1,0.4
		c0.4,0.1,0.9,0.2,1.5,0.2c0.5,0,0.9-0.1,1.3-0.2c0.4-0.1,0.7-0.3,0.9-0.5c0.3-0.2,0.4-0.5,0.6-0.8c0.1-0.3,0.2-0.6,0.2-0.9
		c0-0.4-0.1-0.7-0.3-1c-0.2-0.3-0.5-0.5-0.9-0.7c-0.4-0.2-0.8-0.4-1.2-0.5c-0.5-0.1-0.9-0.3-1.4-0.4c-0.5-0.2-0.9-0.3-1.4-0.5
		c-0.5-0.2-0.9-0.4-1.2-0.7c-0.4-0.3-0.6-0.7-0.9-1.1c-0.2-0.4-0.3-1-0.3-1.6c0-0.6,0.1-1.1,0.3-1.6c0.2-0.5,0.6-1,1-1.4
		c0.4-0.4,1-0.7,1.6-0.9c0.6-0.2,1.4-0.3,2.2-0.3c1,0,1.8,0.2,2.6,0.5c0.8,0.3,1.4,0.7,2,1.2L834,529.7z M838.1,546.9v-19.6h1.5
		c0.4,0,0.6,0.2,0.7,0.5l0.2,1.7c0.6-0.8,1.3-1.4,2.1-1.8c0.8-0.5,1.7-0.7,2.8-0.7c0.8,0,1.6,0.2,2.3,0.5c0.7,0.3,1.3,0.8,1.7,1.4
		c0.5,0.6,0.9,1.4,1.1,2.3c0.3,0.9,0.4,2,0.4,3.2c0,1.1-0.1,2.1-0.4,3c-0.3,0.9-0.7,1.7-1.2,2.4c-0.5,0.7-1.2,1.2-2,1.6
		c-0.8,0.4-1.7,0.6-2.7,0.6c-0.9,0-1.7-0.1-2.3-0.4c-0.6-0.3-1.2-0.7-1.7-1.3v6.5H838.1z M844.6,529.1c-0.8,0-1.6,0.2-2.2,0.6
		c-0.6,0.4-1.2,0.9-1.7,1.6v7.1c0.5,0.6,1,1.1,1.6,1.3c0.6,0.3,1.2,0.4,1.9,0.4c1.4,0,2.4-0.5,3.1-1.5c0.7-1,1.1-2.4,1.1-4.2
		c0-1-0.1-1.8-0.3-2.5c-0.2-0.7-0.4-1.2-0.7-1.7c-0.3-0.4-0.7-0.8-1.2-1C845.7,529.2,845.2,529.1,844.6,529.1z M859.9,527.1
		c0.9,0,1.7,0.1,2.4,0.4c0.7,0.3,1.4,0.7,1.9,1.3c0.5,0.6,1,1.2,1.3,2.1c0.3,0.8,0.5,1.7,0.5,2.8c0,0.4,0,0.7-0.1,0.8
		c-0.1,0.1-0.3,0.2-0.5,0.2h-9.7c0,0.9,0.1,1.7,0.4,2.4c0.2,0.7,0.5,1.3,1,1.7c0.4,0.5,0.9,0.8,1.4,1c0.6,0.2,1.2,0.3,1.9,0.3
		c0.6,0,1.2-0.1,1.7-0.2c0.5-0.1,0.9-0.3,1.2-0.5c0.3-0.2,0.6-0.3,0.8-0.5c0.2-0.1,0.4-0.2,0.6-0.2c0.2,0,0.4,0.1,0.5,0.2l0.7,0.9
		c-0.3,0.4-0.7,0.7-1.1,1c-0.4,0.3-0.9,0.5-1.4,0.7c-0.5,0.2-1,0.3-1.6,0.4c-0.5,0.1-1.1,0.1-1.6,0.1c-1,0-1.9-0.2-2.8-0.5
		c-0.9-0.3-1.6-0.8-2.2-1.5c-0.6-0.7-1.1-1.5-1.5-2.4c-0.3-1-0.5-2.1-0.5-3.4c0-1,0.2-2,0.5-2.9c0.3-0.9,0.8-1.7,1.4-2.3
		c0.6-0.6,1.3-1.2,2.2-1.5C857.8,527.3,858.8,527.1,859.9,527.1z M859.9,529c-1.2,0-2.2,0.4-2.9,1.1c-0.7,0.7-1.2,1.7-1.3,3h8
		c0-0.6-0.1-1.1-0.2-1.6c-0.2-0.5-0.4-0.9-0.7-1.3c-0.3-0.4-0.7-0.6-1.2-0.8C861,529.1,860.5,529,859.9,529z M879.2,529.9
		c-0.1,0.1-0.2,0.2-0.2,0.2c-0.1,0.1-0.2,0.1-0.3,0.1c-0.1,0-0.3-0.1-0.5-0.2c-0.2-0.1-0.4-0.3-0.6-0.4c-0.3-0.1-0.6-0.3-0.9-0.4
		c-0.4-0.1-0.8-0.2-1.4-0.2c-0.7,0-1.3,0.1-1.9,0.4c-0.5,0.3-1,0.6-1.4,1.1c-0.4,0.5-0.6,1.1-0.8,1.7c-0.2,0.7-0.3,1.4-0.3,2.3
		c0,0.9,0.1,1.7,0.3,2.4c0.2,0.7,0.5,1.3,0.9,1.7c0.4,0.5,0.8,0.8,1.3,1.1c0.5,0.2,1.1,0.4,1.8,0.4c0.6,0,1.1-0.1,1.5-0.2
		c0.4-0.1,0.7-0.3,1-0.5c0.3-0.2,0.5-0.3,0.7-0.5c0.2-0.1,0.3-0.2,0.5-0.2c0.2,0,0.4,0.1,0.5,0.2l0.7,0.9c-0.6,0.8-1.4,1.4-2.4,1.7
		s-2,0.5-3,0.5c-0.9,0-1.8-0.2-2.5-0.5c-0.8-0.3-1.5-0.8-2-1.5c-0.6-0.6-1-1.4-1.4-2.4c-0.3-0.9-0.5-2-0.5-3.2c0-1.1,0.2-2.1,0.5-3
		c0.3-0.9,0.7-1.7,1.3-2.4c0.6-0.7,1.3-1.2,2.2-1.6c0.9-0.4,1.8-0.6,2.9-0.6c1,0,1.9,0.2,2.7,0.5c0.8,0.3,1.5,0.8,2.1,1.4
		L879.2,529.9z M886.1,522.7c0,0.3-0.1,0.5-0.2,0.7c-0.1,0.2-0.2,0.4-0.4,0.6c-0.2,0.2-0.4,0.3-0.6,0.4c-0.2,0.1-0.5,0.1-0.7,0.1
		c-0.3,0-0.5,0-0.7-0.1c-0.2-0.1-0.4-0.2-0.6-0.4c-0.2-0.2-0.3-0.4-0.4-0.6c-0.1-0.2-0.1-0.5-0.1-0.7c0-0.3,0-0.5,0.1-0.7
		c0.1-0.2,0.2-0.4,0.4-0.6c0.2-0.2,0.4-0.3,0.6-0.4c0.2-0.1,0.5-0.1,0.7-0.1c0.3,0,0.5,0,0.7,0.1c0.2,0.1,0.4,0.2,0.6,0.4
		c0.2,0.2,0.3,0.4,0.4,0.6C886.1,522.2,886.1,522.5,886.1,522.7z M885.5,527.3v14.6H883v-14.6H885.5z M890.7,541.9v-12.4l-1.6-0.2
		c-0.2,0-0.4-0.1-0.5-0.2c-0.1-0.1-0.2-0.2-0.2-0.4v-1.1h2.3v-0.8c0-0.9,0.1-1.7,0.4-2.5c0.3-0.7,0.7-1.4,1.3-1.9
		c0.6-0.5,1.3-1,2.1-1.3c0.8-0.3,1.8-0.4,2.9-0.4c0.4,0,0.7,0,1.1,0.1c0.4,0,0.7,0.1,1,0.2l-0.1,1.3c0,0.1-0.1,0.2-0.2,0.2
		c-0.1,0-0.2,0-0.4,0c-0.1,0-0.2,0-0.3,0c-0.1,0-0.2,0-0.4,0c-1.7,0-2.9,0.4-3.7,1.1c-0.8,0.7-1.2,1.8-1.2,3.2v0.7h8.8v14.3h-2.6
		v-12.5h-6.2v12.5H890.7z M916.5,529.9c-0.1,0.1-0.2,0.2-0.2,0.2c-0.1,0.1-0.2,0.1-0.3,0.1s-0.3-0.1-0.5-0.2
		c-0.2-0.1-0.4-0.3-0.6-0.4c-0.3-0.1-0.6-0.3-0.9-0.4c-0.4-0.1-0.8-0.2-1.4-0.2c-0.7,0-1.3,0.1-1.9,0.4c-0.5,0.3-1,0.6-1.4,1.1
		c-0.4,0.5-0.6,1.1-0.8,1.7c-0.2,0.7-0.3,1.4-0.3,2.3c0,0.9,0.1,1.7,0.3,2.4c0.2,0.7,0.5,1.3,0.9,1.7c0.4,0.5,0.8,0.8,1.3,1.1
		c0.5,0.2,1.1,0.4,1.8,0.4c0.6,0,1.1-0.1,1.5-0.2c0.4-0.1,0.7-0.3,1-0.5c0.3-0.2,0.5-0.3,0.7-0.5c0.2-0.1,0.3-0.2,0.5-0.2
		c0.2,0,0.4,0.1,0.5,0.2l0.7,0.9c-0.6,0.8-1.4,1.4-2.4,1.7c-1,0.4-2,0.5-3,0.5c-0.9,0-1.8-0.2-2.5-0.5c-0.8-0.3-1.5-0.8-2-1.5
		c-0.6-0.6-1-1.4-1.4-2.4c-0.3-0.9-0.5-2-0.5-3.2c0-1.1,0.2-2.1,0.5-3c0.3-0.9,0.7-1.7,1.3-2.4c0.6-0.7,1.3-1.2,2.2-1.6
		c0.9-0.4,1.8-0.6,2.9-0.6c1,0,1.9,0.2,2.7,0.5c0.8,0.3,1.5,0.8,2.1,1.4L916.5,529.9z M935.6,529.9c-0.1,0.1-0.2,0.2-0.2,0.2
		c-0.1,0.1-0.2,0.1-0.3,0.1s-0.3-0.1-0.5-0.2c-0.2-0.1-0.4-0.3-0.6-0.4c-0.3-0.1-0.6-0.3-0.9-0.4c-0.4-0.1-0.8-0.2-1.4-0.2
		c-0.7,0-1.3,0.1-1.9,0.4c-0.5,0.3-1,0.6-1.4,1.1c-0.4,0.5-0.6,1.1-0.8,1.7c-0.2,0.7-0.3,1.4-0.3,2.3c0,0.9,0.1,1.7,0.3,2.4
		c0.2,0.7,0.5,1.3,0.9,1.7c0.4,0.5,0.8,0.8,1.3,1.1c0.5,0.2,1.1,0.4,1.8,0.4c0.6,0,1.1-0.1,1.5-0.2c0.4-0.1,0.7-0.3,1-0.5
		c0.3-0.2,0.5-0.3,0.7-0.5c0.2-0.1,0.3-0.2,0.5-0.2c0.2,0,0.4,0.1,0.5,0.2l0.7,0.9c-0.6,0.8-1.4,1.4-2.4,1.7c-1,0.4-2,0.5-3,0.5
		c-0.9,0-1.8-0.2-2.5-0.5c-0.8-0.3-1.5-0.8-2-1.5c-0.6-0.6-1-1.4-1.4-2.4c-0.3-0.9-0.5-2-0.5-3.2c0-1.1,0.2-2.1,0.5-3
		c0.3-0.9,0.7-1.7,1.3-2.4c0.6-0.7,1.3-1.2,2.2-1.6c0.9-0.4,1.8-0.6,2.9-0.6c1,0,1.9,0.2,2.7,0.5c0.8,0.3,1.5,0.8,2.1,1.4
		L935.6,529.9z M939.1,541.9v-21.3h2.6v8.6c0.6-0.7,1.3-1.2,2.1-1.6c0.8-0.4,1.6-0.6,2.6-0.6c0.8,0,1.5,0.1,2.1,0.4
		c0.6,0.3,1.1,0.6,1.5,1.1c0.4,0.5,0.7,1.1,0.9,1.8c0.2,0.7,0.3,1.4,0.3,2.3v9.3h-2.6v-9.3c0-1.1-0.3-2-0.8-2.6
		c-0.5-0.6-1.3-0.9-2.3-0.9c-0.8,0-1.5,0.2-2.1,0.5c-0.7,0.4-1.3,0.9-1.8,1.5v10.8H939.1z M965.9,541.9h-1.1c-0.3,0-0.5,0-0.6-0.1
		c-0.2-0.1-0.3-0.2-0.3-0.5l-0.3-1.4c-0.4,0.3-0.8,0.7-1.1,0.9c-0.4,0.3-0.8,0.5-1.2,0.7s-0.8,0.3-1.3,0.4c-0.5,0.1-1,0.1-1.5,0.1
		c-0.6,0-1.1-0.1-1.6-0.2c-0.5-0.2-0.9-0.4-1.3-0.7c-0.4-0.3-0.7-0.7-0.9-1.2c-0.2-0.5-0.3-1.1-0.3-1.7c0-0.6,0.2-1.1,0.5-1.7
		c0.3-0.5,0.8-1,1.5-1.4c0.7-0.4,1.6-0.8,2.8-1c1.1-0.3,2.5-0.4,4.2-0.4v-1.1c0-1.1-0.2-2-0.7-2.6c-0.5-0.6-1.2-0.9-2.2-0.9
		c-0.6,0-1.2,0.1-1.6,0.2c-0.4,0.2-0.8,0.3-1.1,0.5c-0.3,0.2-0.6,0.4-0.8,0.5c-0.2,0.2-0.5,0.2-0.7,0.2c-0.2,0-0.3,0-0.5-0.1
		c-0.1-0.1-0.2-0.2-0.3-0.3l-0.5-0.8c0.8-0.8,1.7-1.4,2.6-1.7c0.9-0.4,2-0.6,3.1-0.6c0.8,0,1.5,0.1,2.2,0.4c0.6,0.3,1.2,0.6,1.6,1.1
		c0.4,0.5,0.8,1.1,1,1.7c0.2,0.7,0.3,1.4,0.3,2.3V541.9z M959.2,540.4c0.5,0,0.9,0,1.2-0.1c0.4-0.1,0.7-0.2,1.1-0.4
		c0.3-0.2,0.6-0.4,1-0.6c0.3-0.2,0.6-0.5,0.9-0.8v-3c-1.2,0-2.2,0.1-3,0.2c-0.8,0.2-1.5,0.3-2,0.6c-0.5,0.2-0.9,0.5-1.1,0.9
		c-0.2,0.3-0.4,0.7-0.4,1.1c0,0.4,0.1,0.7,0.2,1c0.1,0.3,0.3,0.5,0.5,0.7c0.2,0.2,0.5,0.3,0.8,0.4
		C958.6,540.3,958.9,540.4,959.2,540.4z M972.7,520.7v21.3h-2.6v-21.3H972.7z M980.1,520.7v21.3h-2.6v-21.3H980.1z M990.4,527.1
		c0.9,0,1.7,0.1,2.4,0.4c0.7,0.3,1.4,0.7,1.9,1.3c0.5,0.6,1,1.2,1.3,2.1c0.3,0.8,0.5,1.7,0.5,2.8c0,0.4,0,0.7-0.1,0.8
		c-0.1,0.1-0.3,0.2-0.5,0.2h-9.7c0,0.9,0.1,1.7,0.4,2.4c0.2,0.7,0.5,1.3,1,1.7c0.4,0.5,0.9,0.8,1.4,1c0.6,0.2,1.2,0.3,1.9,0.3
		c0.6,0,1.2-0.1,1.7-0.2c0.5-0.1,0.9-0.3,1.2-0.5c0.3-0.2,0.6-0.3,0.8-0.5c0.2-0.1,0.4-0.2,0.6-0.2c0.2,0,0.4,0.1,0.5,0.2l0.7,0.9
		c-0.3,0.4-0.7,0.7-1.1,1c-0.4,0.3-0.9,0.5-1.4,0.7c-0.5,0.2-1,0.3-1.6,0.4c-0.5,0.1-1.1,0.1-1.6,0.1c-1,0-1.9-0.2-2.8-0.5
		c-0.9-0.3-1.6-0.8-2.2-1.5c-0.6-0.7-1.1-1.5-1.5-2.4c-0.3-1-0.5-2.1-0.5-3.4c0-1,0.2-2,0.5-2.9c0.3-0.9,0.8-1.7,1.4-2.3
		c0.6-0.6,1.3-1.2,2.2-1.5C988.4,527.3,989.3,527.1,990.4,527.1z M990.4,529c-1.2,0-2.2,0.4-2.9,1.1c-0.7,0.7-1.2,1.7-1.3,3h8
		c0-0.6-0.1-1.1-0.2-1.6c-0.2-0.5-0.4-0.9-0.7-1.3c-0.3-0.4-0.7-0.6-1.2-0.8C991.6,529.1,991,529,990.4,529z M999.7,541.9v-14.6h1.5
		c0.4,0,0.6,0.2,0.7,0.5l0.2,1.6c0.6-0.7,1.3-1.3,2.1-1.7c0.8-0.4,1.7-0.6,2.7-0.6c0.8,0,1.5,0.1,2.1,0.4c0.6,0.3,1.1,0.6,1.5,1.1
		c0.4,0.5,0.7,1.1,0.9,1.8c0.2,0.7,0.3,1.4,0.3,2.3v9.3h-2.6v-9.3c0-1.1-0.3-2-0.8-2.6c-0.5-0.6-1.3-0.9-2.3-0.9
		c-0.8,0-1.5,0.2-2.1,0.5c-0.7,0.4-1.3,0.9-1.8,1.5v10.8H999.7z M1020.7,527.1c0.6,0,1.2,0.1,1.8,0.2c0.6,0.1,1.1,0.3,1.5,0.6h4v1
		c0,0.3-0.2,0.5-0.6,0.6l-1.7,0.2c0.3,0.6,0.5,1.3,0.5,2.1c0,0.7-0.1,1.4-0.4,1.9c-0.3,0.6-0.7,1.1-1.1,1.5c-0.5,0.4-1.1,0.7-1.7,1
		c-0.7,0.2-1.4,0.3-2.2,0.3c-0.7,0-1.3-0.1-1.9-0.2c-0.3,0.2-0.5,0.4-0.7,0.6c-0.2,0.2-0.2,0.5-0.2,0.7c0,0.4,0.1,0.6,0.4,0.8
		c0.3,0.2,0.6,0.3,1.1,0.4c0.5,0.1,1,0.1,1.6,0.1c0.6,0,1.2,0,1.8,0c0.6,0,1.2,0.1,1.8,0.2c0.6,0.1,1.1,0.3,1.6,0.5s0.8,0.6,1.1,1
		c0.3,0.4,0.4,1,0.4,1.7c0,0.6-0.2,1.2-0.5,1.8c-0.3,0.6-0.8,1.1-1.4,1.6c-0.6,0.5-1.3,0.8-2.2,1.1c-0.8,0.3-1.8,0.4-2.9,0.4
		c-1.1,0-2-0.1-2.8-0.3c-0.8-0.2-1.5-0.5-2-0.9c-0.5-0.4-0.9-0.8-1.2-1.2c-0.3-0.5-0.4-1-0.4-1.5c0-0.7,0.2-1.3,0.7-1.8
		c0.5-0.5,1.1-0.9,1.9-1.2c-0.4-0.2-0.7-0.4-1-0.8c-0.2-0.3-0.4-0.8-0.4-1.3c0-0.2,0-0.4,0.1-0.7c0.1-0.2,0.2-0.4,0.4-0.7
		c0.2-0.2,0.4-0.4,0.6-0.6c0.2-0.2,0.5-0.4,0.8-0.5c-0.7-0.4-1.3-0.9-1.7-1.6c-0.4-0.7-0.6-1.5-0.6-2.3c0-0.7,0.1-1.4,0.4-1.9
		c0.3-0.6,0.7-1.1,1.1-1.5c0.5-0.4,1.1-0.7,1.8-0.9C1019.2,527.2,1019.9,527.1,1020.7,527.1z M1025.3,542.7c0-0.4-0.1-0.7-0.3-0.9
		c-0.2-0.2-0.5-0.4-0.8-0.5c-0.3-0.1-0.7-0.2-1.2-0.3c-0.5-0.1-0.9-0.1-1.4-0.1c-0.5,0-1,0-1.5,0c-0.5,0-1-0.1-1.5-0.2
		c-0.5,0.3-1,0.6-1.3,1c-0.3,0.4-0.5,0.8-0.5,1.3c0,0.3,0.1,0.6,0.3,0.9c0.2,0.3,0.4,0.5,0.8,0.7c0.3,0.2,0.8,0.4,1.3,0.5
		c0.5,0.1,1.1,0.2,1.9,0.2c0.7,0,1.3-0.1,1.9-0.2c0.5-0.1,1-0.3,1.4-0.5c0.4-0.2,0.7-0.5,0.9-0.8
		C1025.2,543.4,1025.3,543.1,1025.3,542.7z M1020.7,534.8c0.5,0,1-0.1,1.4-0.2c0.4-0.1,0.7-0.3,1-0.6c0.3-0.3,0.5-0.6,0.6-0.9
		c0.1-0.4,0.2-0.8,0.2-1.2c0-0.9-0.3-1.6-0.8-2.1c-0.5-0.5-1.3-0.8-2.4-0.8c-1,0-1.8,0.3-2.4,0.8c-0.5,0.5-0.8,1.2-0.8,2.1
		c0,0.4,0.1,0.8,0.2,1.2c0.1,0.4,0.3,0.7,0.6,0.9c0.3,0.3,0.6,0.5,1,0.6C1019.8,534.7,1020.2,534.8,1020.7,534.8z M1036.3,527.1
		c0.9,0,1.7,0.1,2.4,0.4c0.7,0.3,1.4,0.7,1.9,1.3c0.5,0.6,1,1.2,1.3,2.1c0.3,0.8,0.5,1.7,0.5,2.8c0,0.4,0,0.7-0.1,0.8
		c-0.1,0.1-0.3,0.2-0.5,0.2h-9.7c0,0.9,0.1,1.7,0.4,2.4c0.2,0.7,0.5,1.3,1,1.7c0.4,0.5,0.9,0.8,1.4,1c0.6,0.2,1.2,0.3,1.9,0.3
		c0.6,0,1.2-0.1,1.7-0.2c0.5-0.1,0.9-0.3,1.2-0.5c0.3-0.2,0.6-0.3,0.8-0.5c0.2-0.1,0.4-0.2,0.6-0.2c0.2,0,0.4,0.1,0.5,0.2l0.7,0.9
		c-0.3,0.4-0.7,0.7-1.1,1c-0.4,0.3-0.9,0.5-1.4,0.7c-0.5,0.2-1,0.3-1.6,0.4c-0.5,0.1-1.1,0.1-1.6,0.1c-1,0-1.9-0.2-2.8-0.5
		c-0.9-0.3-1.6-0.8-2.2-1.5c-0.6-0.7-1.1-1.5-1.5-2.4c-0.3-1-0.5-2.1-0.5-3.4c0-1,0.2-2,0.5-2.9c0.3-0.9,0.8-1.7,1.4-2.3
		c0.6-0.6,1.3-1.2,2.2-1.5C1034.3,527.3,1035.3,527.1,1036.3,527.1z M1036.4,529c-1.2,0-2.2,0.4-2.9,1.1c-0.7,0.7-1.2,1.7-1.3,3h8
		c0-0.6-0.1-1.1-0.2-1.6c-0.2-0.5-0.4-0.9-0.7-1.3c-0.3-0.4-0.7-0.6-1.2-0.8C1037.5,529.1,1037,529,1036.4,529z"/>
	<path class="st6" d="M1651.2,531c-0.1,0.2-0.3,0.3-0.5,0.3c-0.1,0-0.3-0.1-0.5-0.2c-0.2-0.1-0.4-0.2-0.7-0.4
		c-0.3-0.1-0.6-0.3-0.9-0.4c-0.4-0.1-0.8-0.2-1.3-0.2c-0.4,0-0.8,0.1-1.2,0.2c-0.3,0.1-0.6,0.3-0.9,0.5c-0.2,0.2-0.4,0.4-0.6,0.7
		c-0.1,0.3-0.2,0.5-0.2,0.8c0,0.4,0.1,0.7,0.3,0.9c0.2,0.3,0.5,0.5,0.9,0.6c0.4,0.2,0.8,0.3,1.2,0.5c0.5,0.1,0.9,0.3,1.4,0.4
		c0.5,0.2,0.9,0.3,1.4,0.5c0.5,0.2,0.9,0.4,1.2,0.7c0.4,0.3,0.6,0.6,0.9,1.1s0.3,0.9,0.3,1.5c0,0.7-0.1,1.3-0.4,1.9
		c-0.2,0.6-0.6,1.1-1.1,1.5c-0.5,0.4-1,0.7-1.7,1c-0.7,0.2-1.5,0.4-2.4,0.4c-1,0-1.9-0.2-2.8-0.5c-0.8-0.3-1.5-0.8-2.1-1.3l0.6-1
		c0.1-0.1,0.2-0.2,0.3-0.3c0.1-0.1,0.2-0.1,0.4-0.1s0.4,0.1,0.5,0.2c0.2,0.1,0.4,0.3,0.7,0.4c0.3,0.2,0.6,0.3,1,0.4
		c0.4,0.1,0.9,0.2,1.5,0.2c0.5,0,0.9-0.1,1.3-0.2c0.4-0.1,0.7-0.3,0.9-0.5c0.3-0.2,0.4-0.5,0.6-0.8c0.1-0.3,0.2-0.6,0.2-0.9
		c0-0.4-0.1-0.7-0.3-1c-0.2-0.3-0.5-0.5-0.9-0.7c-0.4-0.2-0.8-0.4-1.2-0.5c-0.5-0.1-0.9-0.3-1.4-0.4c-0.5-0.2-0.9-0.3-1.4-0.5
		c-0.5-0.2-0.9-0.4-1.2-0.7c-0.4-0.3-0.6-0.7-0.9-1.1c-0.2-0.4-0.3-1-0.3-1.6c0-0.6,0.1-1.1,0.3-1.6c0.2-0.5,0.6-1,1-1.4
		c0.4-0.4,1-0.7,1.6-0.9s1.4-0.3,2.2-0.3c1,0,1.8,0.2,2.6,0.5c0.8,0.3,1.4,0.7,2,1.2L1651.2,531z M1655.4,548.1v-19.6h1.5
		c0.4,0,0.6,0.2,0.7,0.5l0.2,1.7c0.6-0.8,1.3-1.4,2.1-1.8c0.8-0.5,1.7-0.7,2.8-0.7c0.8,0,1.6,0.2,2.3,0.5c0.7,0.3,1.3,0.8,1.7,1.4
		c0.5,0.6,0.9,1.4,1.1,2.3c0.3,0.9,0.4,2,0.4,3.2c0,1.1-0.1,2.1-0.4,3c-0.3,0.9-0.7,1.7-1.2,2.4c-0.5,0.7-1.2,1.2-2,1.6
		c-0.8,0.4-1.7,0.6-2.7,0.6c-0.9,0-1.7-0.1-2.3-0.4c-0.6-0.3-1.2-0.7-1.7-1.3v6.5H1655.4z M1661.9,530.4c-0.8,0-1.6,0.2-2.2,0.6
		c-0.6,0.4-1.2,0.9-1.7,1.6v7.1c0.5,0.6,1,1.1,1.6,1.3s1.2,0.4,1.9,0.4c1.4,0,2.4-0.5,3.1-1.5c0.7-1,1.1-2.4,1.1-4.2
		c0-1-0.1-1.8-0.3-2.5c-0.2-0.7-0.4-1.2-0.7-1.7c-0.3-0.4-0.7-0.8-1.2-1C1663,530.5,1662.5,530.4,1661.9,530.4z M1677.1,528.3
		c0.9,0,1.7,0.1,2.4,0.4c0.7,0.3,1.4,0.7,1.9,1.3c0.5,0.6,1,1.2,1.3,2.1c0.3,0.8,0.5,1.7,0.5,2.8c0,0.4,0,0.7-0.1,0.8
		c-0.1,0.1-0.3,0.2-0.5,0.2h-9.7c0,0.9,0.1,1.7,0.4,2.4c0.2,0.7,0.5,1.3,1,1.7c0.4,0.5,0.9,0.8,1.4,1c0.6,0.2,1.2,0.3,1.9,0.3
		c0.6,0,1.2-0.1,1.7-0.2c0.5-0.1,0.9-0.3,1.2-0.5c0.3-0.2,0.6-0.3,0.8-0.5c0.2-0.1,0.4-0.2,0.6-0.2c0.2,0,0.4,0.1,0.5,0.2l0.7,0.9
		c-0.3,0.4-0.7,0.7-1.1,1c-0.4,0.3-0.9,0.5-1.4,0.7c-0.5,0.2-1,0.3-1.6,0.4s-1.1,0.1-1.6,0.1c-1,0-1.9-0.2-2.8-0.5
		c-0.9-0.3-1.6-0.8-2.2-1.5c-0.6-0.7-1.1-1.5-1.5-2.4c-0.3-1-0.5-2.1-0.5-3.4c0-1,0.2-2,0.5-2.9c0.3-0.9,0.8-1.7,1.4-2.3
		c0.6-0.6,1.3-1.2,2.2-1.5C1675.1,528.5,1676.1,528.3,1677.1,528.3z M1677.2,530.2c-1.2,0-2.2,0.4-2.9,1.1c-0.7,0.7-1.2,1.7-1.3,3h8
		c0-0.6-0.1-1.1-0.2-1.6c-0.2-0.5-0.4-0.9-0.7-1.3c-0.3-0.4-0.7-0.6-1.2-0.8C1678.3,530.3,1677.8,530.2,1677.2,530.2z M1696.4,531.2
		c-0.1,0.1-0.2,0.2-0.2,0.2c-0.1,0.1-0.2,0.1-0.3,0.1c-0.1,0-0.3-0.1-0.5-0.2c-0.2-0.1-0.4-0.3-0.6-0.4c-0.3-0.1-0.6-0.3-0.9-0.4
		c-0.4-0.1-0.8-0.2-1.4-0.2c-0.7,0-1.3,0.1-1.9,0.4c-0.5,0.3-1,0.6-1.4,1.1c-0.4,0.5-0.6,1.1-0.8,1.7c-0.2,0.7-0.3,1.4-0.3,2.3
		c0,0.9,0.1,1.7,0.3,2.4c0.2,0.7,0.5,1.3,0.9,1.7c0.4,0.5,0.8,0.8,1.3,1.1c0.5,0.2,1.1,0.4,1.8,0.4c0.6,0,1.1-0.1,1.5-0.2
		c0.4-0.1,0.7-0.3,1-0.5c0.3-0.2,0.5-0.3,0.7-0.5c0.2-0.1,0.3-0.2,0.5-0.2c0.2,0,0.4,0.1,0.5,0.2l0.7,0.9c-0.6,0.8-1.4,1.4-2.4,1.7
		c-1,0.4-2,0.5-3,0.5c-0.9,0-1.8-0.2-2.5-0.5c-0.8-0.3-1.5-0.8-2-1.5c-0.6-0.6-1-1.4-1.4-2.4c-0.3-0.9-0.5-2-0.5-3.2
		c0-1.1,0.2-2.1,0.5-3c0.3-0.9,0.7-1.7,1.3-2.4c0.6-0.7,1.3-1.2,2.2-1.6c0.9-0.4,1.8-0.6,2.9-0.6c1,0,1.9,0.2,2.7,0.5
		c0.8,0.3,1.5,0.8,2.1,1.4L1696.4,531.2z M1703.4,524c0,0.3-0.1,0.5-0.2,0.7c-0.1,0.2-0.2,0.4-0.4,0.6c-0.2,0.2-0.4,0.3-0.6,0.4
		c-0.2,0.1-0.5,0.1-0.7,0.1c-0.3,0-0.5,0-0.7-0.1c-0.2-0.1-0.4-0.2-0.6-0.4c-0.2-0.2-0.3-0.4-0.4-0.6c-0.1-0.2-0.1-0.4-0.1-0.7
		c0-0.3,0-0.5,0.1-0.7c0.1-0.2,0.2-0.4,0.4-0.6c0.2-0.2,0.4-0.3,0.6-0.4c0.2-0.1,0.4-0.1,0.7-0.1c0.3,0,0.5,0,0.7,0.1
		c0.2,0.1,0.4,0.2,0.6,0.4c0.2,0.2,0.3,0.4,0.4,0.6C1703.3,523.5,1703.4,523.7,1703.4,524z M1702.8,528.6v14.6h-2.6v-14.6H1702.8z
		 M1707.9,543.2v-12.4l-1.6-0.2c-0.2,0-0.4-0.1-0.5-0.2c-0.1-0.1-0.2-0.2-0.2-0.4v-1.1h2.3V528c0-0.9,0.1-1.7,0.4-2.5
		c0.3-0.7,0.7-1.4,1.3-1.9c0.6-0.5,1.3-1,2.1-1.3c0.8-0.3,1.8-0.4,2.9-0.4c0.4,0,0.7,0,1.1,0.1c0.4,0,0.7,0.1,1,0.2l-0.1,1.3
		c0,0.1-0.1,0.2-0.2,0.2c-0.1,0-0.2,0-0.4,0c-0.1,0-0.2,0-0.3,0c-0.1,0-0.2,0-0.4,0c-1.7,0-2.9,0.4-3.7,1.1
		c-0.8,0.7-1.2,1.8-1.2,3.2v0.7h8.8v14.3h-2.6v-12.5h-6.2v12.5H1707.9z M1733.8,531.2c-0.1,0.1-0.2,0.2-0.2,0.2
		c-0.1,0.1-0.2,0.1-0.3,0.1s-0.3-0.1-0.5-0.2c-0.2-0.1-0.4-0.3-0.6-0.4c-0.3-0.1-0.6-0.3-0.9-0.4c-0.4-0.1-0.8-0.2-1.4-0.2
		c-0.7,0-1.3,0.1-1.9,0.4c-0.5,0.3-1,0.6-1.4,1.1c-0.4,0.5-0.6,1.1-0.8,1.7c-0.2,0.7-0.3,1.4-0.3,2.3c0,0.9,0.1,1.7,0.3,2.4
		c0.2,0.7,0.5,1.3,0.9,1.7c0.4,0.5,0.8,0.8,1.3,1.1c0.5,0.2,1.1,0.4,1.8,0.4c0.6,0,1.1-0.1,1.5-0.2c0.4-0.1,0.7-0.3,1-0.5
		c0.3-0.2,0.5-0.3,0.7-0.5c0.2-0.1,0.3-0.2,0.5-0.2c0.2,0,0.4,0.1,0.5,0.2l0.7,0.9c-0.6,0.8-1.4,1.4-2.4,1.7c-1,0.4-2,0.5-3,0.5
		c-0.9,0-1.8-0.2-2.5-0.5c-0.8-0.3-1.5-0.8-2-1.5c-0.6-0.6-1-1.4-1.4-2.4c-0.3-0.9-0.5-2-0.5-3.2c0-1.1,0.2-2.1,0.5-3
		c0.3-0.9,0.7-1.7,1.3-2.4c0.6-0.7,1.3-1.2,2.2-1.6c0.9-0.4,1.8-0.6,2.9-0.6c1,0,1.9,0.2,2.7,0.5c0.8,0.3,1.5,0.8,2.1,1.4
		L1733.8,531.2z M1751.2,531c-0.1,0.2-0.3,0.3-0.5,0.3c-0.1,0-0.3-0.1-0.5-0.2c-0.2-0.1-0.4-0.2-0.7-0.4c-0.3-0.1-0.6-0.3-0.9-0.4
		c-0.4-0.1-0.8-0.2-1.3-0.2c-0.4,0-0.8,0.1-1.2,0.2c-0.3,0.1-0.6,0.3-0.9,0.5c-0.2,0.2-0.4,0.4-0.6,0.7c-0.1,0.3-0.2,0.5-0.2,0.8
		c0,0.4,0.1,0.7,0.3,0.9c0.2,0.3,0.5,0.5,0.9,0.6c0.4,0.2,0.8,0.3,1.2,0.5c0.5,0.1,0.9,0.3,1.4,0.4s0.9,0.3,1.4,0.5
		c0.5,0.2,0.9,0.4,1.2,0.7c0.4,0.3,0.6,0.6,0.9,1.1c0.2,0.4,0.3,0.9,0.3,1.5c0,0.7-0.1,1.3-0.4,1.9c-0.2,0.6-0.6,1.1-1.1,1.5
		c-0.5,0.4-1,0.7-1.7,1c-0.7,0.2-1.5,0.4-2.4,0.4c-1,0-1.9-0.2-2.8-0.5c-0.8-0.3-1.5-0.8-2.1-1.3l0.6-1c0.1-0.1,0.2-0.2,0.3-0.3
		c0.1-0.1,0.2-0.1,0.4-0.1s0.4,0.1,0.5,0.2c0.2,0.1,0.4,0.3,0.7,0.4c0.3,0.2,0.6,0.3,1,0.4c0.4,0.1,0.9,0.2,1.5,0.2
		c0.5,0,0.9-0.1,1.3-0.2c0.4-0.1,0.7-0.3,0.9-0.5c0.3-0.2,0.4-0.5,0.6-0.8c0.1-0.3,0.2-0.6,0.2-0.9c0-0.4-0.1-0.7-0.3-1
		c-0.2-0.3-0.5-0.5-0.9-0.7c-0.4-0.2-0.8-0.4-1.2-0.5c-0.5-0.1-0.9-0.3-1.4-0.4c-0.5-0.2-0.9-0.3-1.4-0.5c-0.5-0.2-0.9-0.4-1.2-0.7
		c-0.4-0.3-0.6-0.7-0.9-1.1c-0.2-0.4-0.3-1-0.3-1.6c0-0.6,0.1-1.1,0.3-1.6c0.2-0.5,0.6-1,1-1.4c0.4-0.4,1-0.7,1.6-0.9
		c0.6-0.2,1.4-0.3,2.2-0.3c1,0,1.8,0.2,2.6,0.5c0.8,0.3,1.4,0.7,2,1.2L1751.2,531z M1761.3,528.3c1.1,0,2,0.2,2.9,0.5
		c0.9,0.4,1.6,0.9,2.2,1.5c0.6,0.7,1.1,1.4,1.4,2.4c0.3,0.9,0.5,2,0.5,3.1c0,1.2-0.2,2.2-0.5,3.1c-0.3,0.9-0.8,1.7-1.4,2.4
		c-0.6,0.7-1.3,1.2-2.2,1.5c-0.9,0.4-1.8,0.5-2.9,0.5c-1.1,0-2-0.2-2.9-0.5s-1.6-0.9-2.2-1.5c-0.6-0.7-1.1-1.4-1.4-2.4
		s-0.5-2-0.5-3.1c0-1.1,0.2-2.2,0.5-3.1c0.3-0.9,0.8-1.7,1.4-2.4c0.6-0.7,1.3-1.2,2.2-1.5C1759.3,528.5,1760.3,528.3,1761.3,528.3z
		 M1761.3,541.4c1.4,0,2.5-0.5,3.2-1.5c0.7-1,1.1-2.3,1.1-4.1c0-1.7-0.4-3.1-1.1-4.1c-0.7-1-1.8-1.5-3.2-1.5c-0.7,0-1.4,0.1-1.9,0.4
		c-0.5,0.3-1,0.6-1.4,1.1c-0.4,0.5-0.6,1.1-0.8,1.7c-0.2,0.7-0.3,1.5-0.3,2.3s0.1,1.6,0.3,2.3c0.2,0.7,0.4,1.3,0.8,1.7
		c0.4,0.5,0.8,0.8,1.4,1.1C1760,541.3,1760.6,541.4,1761.3,541.4z M1774.3,521.9v21.3h-2.6v-21.3H1774.3z M1781.1,528.6v9.3
		c0,1.1,0.3,2,0.8,2.6c0.5,0.6,1.3,0.9,2.3,0.9c0.8,0,1.5-0.2,2.1-0.5c0.7-0.4,1.3-0.9,1.8-1.5v-10.8h2.6v14.6h-1.5
		c-0.4,0-0.6-0.2-0.7-0.5l-0.2-1.6c-0.6,0.7-1.3,1.3-2.1,1.7c-0.8,0.4-1.7,0.6-2.7,0.6c-0.8,0-1.5-0.1-2.1-0.4
		c-0.6-0.3-1.1-0.6-1.5-1.1c-0.4-0.5-0.7-1.1-0.9-1.7c-0.2-0.7-0.3-1.4-0.3-2.3v-9.3H1781.1z M1799.4,543.4c-1.2,0-2-0.3-2.7-1
		c-0.6-0.6-0.9-1.6-0.9-2.8v-9h-1.8c-0.2,0-0.3,0-0.4-0.1c-0.1-0.1-0.2-0.2-0.2-0.4v-1l2.4-0.3l0.6-4.5c0-0.1,0.1-0.3,0.2-0.4
		c0.1-0.1,0.2-0.1,0.4-0.1h1.3v5h4.2v1.9h-4.2v8.8c0,0.6,0.1,1.1,0.4,1.4c0.3,0.3,0.7,0.4,1.2,0.4c0.3,0,0.5,0,0.7-0.1
		c0.2-0.1,0.4-0.2,0.5-0.2c0.1-0.1,0.3-0.2,0.4-0.2c0.1-0.1,0.2-0.1,0.3-0.1c0.1,0,0.3,0.1,0.4,0.2l0.8,1.2c-0.4,0.4-1,0.7-1.6,1
		C1800.7,543.3,1800,543.4,1799.4,543.4z M1809.1,524c0,0.3-0.1,0.5-0.2,0.7c-0.1,0.2-0.2,0.4-0.4,0.6c-0.2,0.2-0.4,0.3-0.6,0.4
		c-0.2,0.1-0.5,0.1-0.7,0.1c-0.3,0-0.5,0-0.7-0.1c-0.2-0.1-0.4-0.2-0.6-0.4c-0.2-0.2-0.3-0.4-0.4-0.6c-0.1-0.2-0.1-0.4-0.1-0.7
		c0-0.3,0-0.5,0.1-0.7c0.1-0.2,0.2-0.4,0.4-0.6c0.2-0.2,0.4-0.3,0.6-0.4c0.2-0.1,0.4-0.1,0.7-0.1c0.3,0,0.5,0,0.7,0.1
		c0.2,0.1,0.4,0.2,0.6,0.4c0.2,0.2,0.3,0.4,0.4,0.6C1809.1,523.5,1809.1,523.7,1809.1,524z M1808.6,528.6v14.6h-2.6v-14.6H1808.6z
		 M1819,528.3c1.1,0,2,0.2,2.9,0.5c0.9,0.4,1.6,0.9,2.2,1.5c0.6,0.7,1.1,1.4,1.4,2.4c0.3,0.9,0.5,2,0.5,3.1c0,1.2-0.2,2.2-0.5,3.1
		c-0.3,0.9-0.8,1.7-1.4,2.4c-0.6,0.7-1.3,1.2-2.2,1.5c-0.9,0.4-1.8,0.5-2.9,0.5s-2-0.2-2.9-0.5c-0.9-0.4-1.6-0.9-2.2-1.5
		c-0.6-0.7-1.1-1.4-1.4-2.4c-0.3-0.9-0.5-2-0.5-3.1c0-1.1,0.2-2.2,0.5-3.1c0.3-0.9,0.8-1.7,1.4-2.4c0.6-0.7,1.3-1.2,2.2-1.5
		C1817,528.5,1817.9,528.3,1819,528.3z M1819,541.4c1.4,0,2.5-0.5,3.2-1.5c0.7-1,1.1-2.3,1.1-4.1c0-1.7-0.4-3.1-1.1-4.1
		c-0.7-1-1.8-1.5-3.2-1.5c-0.7,0-1.4,0.1-1.9,0.4c-0.5,0.3-1,0.6-1.4,1.1c-0.4,0.5-0.6,1.1-0.8,1.7c-0.2,0.7-0.3,1.5-0.3,2.3
		s0.1,1.6,0.3,2.3c0.2,0.7,0.4,1.3,0.8,1.7c0.4,0.5,0.8,0.8,1.4,1.1C1817.6,541.3,1818.3,541.4,1819,541.4z M1829.2,543.2v-14.6h1.5
		c0.4,0,0.6,0.2,0.7,0.5l0.2,1.6c0.6-0.7,1.3-1.3,2.1-1.7c0.8-0.4,1.7-0.6,2.7-0.6c0.8,0,1.5,0.1,2.1,0.4c0.6,0.3,1.1,0.6,1.5,1.1
		c0.4,0.5,0.7,1.1,0.9,1.8c0.2,0.7,0.3,1.4,0.3,2.3v9.3h-2.6v-9.3c0-1.1-0.3-2-0.8-2.6c-0.5-0.6-1.3-0.9-2.3-0.9
		c-0.8,0-1.5,0.2-2.1,0.5c-0.7,0.4-1.3,0.9-1.8,1.5v10.8H1829.2z"/>
	<g class="st4">
		<defs>
			<rect id="SVGID_3_" x="2.3" y="-73.4" width="1917.7" height="917.8"/>
		</defs>
		<clipPath id="SVGID_4_">
			<use xlink:href="#SVGID_3_"  style="overflow:visible;"/>
		</clipPath>
		<g class="st7">
			<g>
				<defs>
					<rect id="SVGID_5_" x="888" y="224.3" width="230.4" height="224.6"/>
				</defs>
				<clipPath id="SVGID_6_">
					<use xlink:href="#SVGID_5_"  style="overflow:visible;"/>
				</clipPath>
				<path class="st8" d="M1003.2,448.3c60.7,0,110-49.2,110-110s-49.2-110-110-110c-60.7,0-110,49.2-110,110
					S942.4,448.3,1003.2,448.3"/>
			</g>
		</g>
	</g>
	<line class="st9" x1="7.5" y1="681.8" x2="1879.3" y2="681.8"/>
	<line class="st10" x1="1004" y1="76.5" x2="1004" y2="209"/>
	<polyline class="st10" points="1007.3,199.9 1004,209 1000.7,199.9 	"/>
	<g class="st4">
		<path class="st5" d="M986,20.9V6.3h1.5c0.4,0,0.6,0.2,0.7,0.5l0.2,1.6c0.6-0.7,1.3-1.3,2.1-1.7c0.8-0.4,1.7-0.6,2.7-0.6
			c0.8,0,1.5,0.1,2.1,0.4c0.6,0.3,1.1,0.6,1.5,1.1s0.7,1.1,0.9,1.8s0.3,1.4,0.3,2.3v9.3h-2.6v-9.3c0-1.1-0.3-2-0.8-2.6
			c-0.5-0.6-1.3-0.9-2.3-0.9c-0.8,0-1.5,0.2-2.1,0.5c-0.7,0.4-1.3,0.9-1.8,1.5v10.8H986z"/>
		<path class="st5" d="M1008,6.1c1.1,0,2,0.2,2.9,0.5s1.6,0.9,2.2,1.5c0.6,0.7,1.1,1.4,1.4,2.4c0.3,0.9,0.5,2,0.5,3.1
			c0,1.2-0.2,2.2-0.5,3.1c-0.3,0.9-0.8,1.7-1.4,2.4c-0.6,0.7-1.3,1.2-2.2,1.5s-1.8,0.5-2.9,0.5c-1.1,0-2-0.2-2.9-0.5
			c-0.9-0.4-1.6-0.9-2.2-1.5c-0.6-0.7-1.1-1.4-1.4-2.4c-0.3-0.9-0.5-2-0.5-3.1c0-1.1,0.2-2.2,0.5-3.1c0.3-0.9,0.8-1.7,1.4-2.4
			c0.6-0.7,1.3-1.2,2.2-1.5C1006,6.3,1007,6.1,1008,6.1z M1008,19.1c1.4,0,2.5-0.5,3.2-1.5c0.7-1,1.1-2.3,1.1-4.1
			c0-1.7-0.4-3.1-1.1-4.1c-0.7-1-1.8-1.5-3.2-1.5c-0.7,0-1.4,0.1-1.9,0.4c-0.5,0.3-1,0.6-1.4,1.1s-0.6,1.1-0.8,1.7
			c-0.2,0.7-0.3,1.5-0.3,2.3c0,0.9,0.1,1.6,0.3,2.3c0.2,0.7,0.4,1.3,0.8,1.7s0.8,0.8,1.4,1.1C1006.7,19,1007.3,19.1,1008,19.1z"/>
		<path class="st5" d="M1016.3,6.3h2c0.2,0,0.4,0.1,0.5,0.2c0.1,0.1,0.2,0.2,0.3,0.4l2.8,9.4c0.1,0.3,0.1,0.7,0.2,1
			c0.1,0.3,0.1,0.6,0.2,1c0.1-0.3,0.2-0.7,0.3-1c0.1-0.3,0.2-0.7,0.3-1l3.1-9.5c0-0.1,0.1-0.3,0.3-0.4c0.1-0.1,0.3-0.1,0.5-0.1h1.1
			c0.2,0,0.4,0,0.5,0.1c0.1,0.1,0.2,0.2,0.3,0.4l3,9.5c0.1,0.3,0.2,0.7,0.3,1s0.2,0.6,0.2,1c0-0.3,0.1-0.7,0.2-1
			c0.1-0.3,0.2-0.7,0.2-1l2.9-9.4c0-0.2,0.1-0.3,0.3-0.4c0.1-0.1,0.3-0.2,0.5-0.2h1.9l-4.7,14.6h-2c-0.3,0-0.4-0.2-0.5-0.5l-3.2-9.9
			c-0.1-0.2-0.1-0.4-0.2-0.7c0-0.2-0.1-0.5-0.1-0.7c0,0.2-0.1,0.4-0.1,0.7c0,0.2-0.1,0.5-0.2,0.7l-3.3,9.9c-0.1,0.3-0.3,0.5-0.6,0.5
			h-1.9L1016.3,6.3z"/>
	</g>
</g>
</svg>
