<?xml version="1.0" encoding="utf-8"?>
<!-- Generator: Adobe Illustrator 23.0.1, SVG Export Plug-In . SVG Version: 6.00 Build 0)  -->
<svg version="1.1" id="Ebene_1" xmlns="http://www.w3.org/2000/svg" xmlns:xlink="http://www.w3.org/1999/xlink" x="0px" y="0px"
	 viewBox="0 0 3840 1506" style="enable-background:new 0 0 3840 1506;" xml:space="preserve">
<style type="text/css">
	.st0{fill:none;stroke:#000000;stroke-width:3;stroke-miterlimit:10;}
	.st1{fill:none;stroke:#000000;stroke-width:10;stroke-miterlimit:10;}
	.st2{fill:none;stroke:#000000;stroke-width:10;stroke-miterlimit:10;stroke-dasharray:11.9686,11.9686;}
	.st3{fill:none;stroke:#000000;stroke-width:10;stroke-miterlimit:10;stroke-dasharray:12,12;}
	.st4{fill:none;}
	.st5{font-family:'Lato-Regular';}
	.st6{font-size:58.0416px;}
	.st7{fill:none;stroke:#FFCA00;stroke-width:10;stroke-miterlimit:10;}
</style>
<g>
	<g>
		<g>
			<line class="st0" x1="78.9" y1="1411.8" x2="78.3" y2="41.2"/>
			<g>
				<polygon points="90.6,51.2 88.4,53.2 78.3,42.4 68.3,53.2 66.1,51.2 78.3,38 				"/>
			</g>
		</g>
	</g>
	<g>
		<g>
			<line class="st0" x1="78.9" y1="1412.4" x2="3836.2" y2="1412.4"/>
			<g>
				<polygon points="3826.2,1424.7 3824.2,1422.5 3835,1412.4 3824.2,1402.3 3826.2,1400.1 3839.4,1412.4 				"/>
			</g>
		</g>
	</g>
</g>
<g>
	<polyline class="st1" points="114.9,206.4 226.7,18.8 319.4,387.3 417.6,537.4 518.5,206.4 616.7,891.5 720.3,848.2 826.7,610.5 
		919.4,1012.7 1023,947.3 1113,949.2 1219.8,1413 	"/>
	<polyline class="st1" points="1325.7,172.8 1421.2,535.5 1523.4,329.6 1614.8,307.5 1826.1,848.2 1924.3,1006.9 1993.9,1006.9 
		2216.1,943.4 2325.2,676 2415.2,1006.9 2521.5,1200.3 2614.3,1181.1 	"/>
	<polyline class="st1" points="2720.6,196.8 2816.1,968.5 2927.9,1269.6 3028.8,1211.9 3113.3,1254.2 3217,1250.4 3317.9,1333.1 
		3418.8,1210 3511.5,1184.9 3612.5,1412.5 	"/>
	<g>
		<g>
			<line class="st1" x1="1219.4" y1="1413" x2="1219.9" y2="1407"/>
			<line class="st2" x1="1220.9" y1="1395.1" x2="1324.7" y2="184.7"/>
			<line class="st1" x1="1325.2" y1="178.7" x2="1325.7" y2="172.8"/>
		</g>
	</g>
	<line class="st3" x1="2614.3" y1="1181.1" x2="2720.6" y2="196.8"/>
</g>
<rect x="3582.6" y="1436.8" class="st4" width="257.4" height="108.6"/>
<text transform="matrix(1 0 0 1 3597.333 1479.5488)" class="st5 st6">Tageszeit</text>
<g>
	<path d="M1.4,1114.7v-4.7c0-0.5,0.1-0.9,0.4-1.2c0.3-0.3,0.6-0.6,1-0.7l28.9-8.6c0.5-0.2,1.1-0.3,1.7-0.4c0.6-0.1,1.2-0.2,1.9-0.4
		c-0.7-0.1-1.3-0.3-1.9-0.4c-0.6-0.1-1.2-0.3-1.7-0.5l-28.9-9.8c-0.3-0.1-0.6-0.3-0.9-0.7c-0.3-0.3-0.4-0.7-0.4-1.2v-1.6
		c0-0.5,0.1-0.9,0.4-1.2c0.3-0.3,0.6-0.5,1-0.7l28.9-9.7c1-0.3,2.2-0.7,3.5-0.9c-0.6-0.1-1.2-0.2-1.8-0.3c-0.6-0.1-1.1-0.2-1.6-0.4
		l-28.9-8.6c-0.3-0.1-0.7-0.3-0.9-0.7s-0.4-0.7-0.4-1.2v-4.4l41.6,13v5l-31.7,10.5c-0.6,0.2-1.3,0.4-2.1,0.6
		c0.4,0.1,0.8,0.2,1.1,0.3c0.4,0.1,0.7,0.2,1,0.3l31.7,10.6v5L1.4,1114.7z"/>
	<path d="M43,1032.6v2.3c0,0.5-0.1,0.9-0.2,1.2c-0.2,0.3-0.5,0.5-1,0.6l-2.7,0.6c0.7,0.8,1.3,1.5,1.9,2.3c0.6,0.7,1,1.5,1.4,2.3
		c0.4,0.8,0.7,1.7,0.9,2.6c0.2,0.9,0.3,1.9,0.3,3.1c0,1.1-0.2,2.2-0.5,3.2c-0.3,1-0.8,1.9-1.4,2.6c-0.6,0.7-1.5,1.3-2.4,1.8
		c-1,0.4-2.1,0.7-3.5,0.7c-1.2,0-2.3-0.3-3.4-1c-1.1-0.6-2-1.7-2.9-3.1c-0.8-1.4-1.5-3.3-2.1-5.6c-0.5-2.3-0.8-5.1-0.8-8.4h-2.3
		c-2.3,0-4,0.5-5.2,1.5c-1.2,1-1.8,2.4-1.8,4.3c0,1.3,0.2,2.3,0.5,3.2c0.3,0.9,0.7,1.6,1.1,2.2c0.4,0.6,0.8,1.2,1.1,1.6
		c0.3,0.5,0.5,0.9,0.5,1.3c0,0.3-0.1,0.7-0.3,0.9c-0.2,0.3-0.4,0.5-0.7,0.6l-1.7,0.9c-1.6-1.6-2.7-3.4-3.5-5.3
		c-0.8-1.9-1.2-4-1.2-6.2c0-1.6,0.3-3.1,0.8-4.4c0.5-1.3,1.3-2.4,2.3-3.2c1-0.9,2.1-1.5,3.5-2c1.4-0.4,2.9-0.7,4.5-0.7H43z
		 M39.8,1046.1c0-0.9-0.1-1.7-0.3-2.5c-0.2-0.8-0.4-1.5-0.8-2.1c-0.3-0.7-0.7-1.3-1.2-1.9c-0.5-0.6-1-1.2-1.7-1.8h-6.1
		c0,2.4,0.2,4.4,0.5,6.1c0.3,1.7,0.7,3,1.2,4.1c0.5,1,1.1,1.8,1.7,2.3c0.7,0.5,1.4,0.7,2.2,0.7c0.8,0,1.4-0.1,2-0.4
		c0.6-0.3,1-0.6,1.4-1c0.4-0.4,0.6-0.9,0.8-1.5C39.7,1047.4,39.8,1046.7,39.8,1046.1z"/>
	<path d="M43,1024.8H0.2v-5.2h17.3c-1.3-1.3-2.4-2.7-3.2-4.2c-0.8-1.5-1.2-3.3-1.2-5.3c0-1.6,0.3-3,0.8-4.3c0.5-1.2,1.3-2.3,2.3-3.1
		c1-0.8,2.2-1.4,3.5-1.9c1.4-0.4,2.9-0.6,4.6-0.6H43v5.2H24.2c-2.2,0-4,0.5-5.2,1.5c-1.2,1-1.8,2.6-1.8,4.7c0,1.5,0.4,3,1.1,4.3
		c0.7,1.3,1.7,2.5,3,3.7H43V1024.8z"/>
	<path d="M43,992.5H13.6v-3c0-0.6,0.1-0.9,0.3-1.2c0.2-0.2,0.6-0.4,1.1-0.4l4.6-0.3c-2-1-3.7-2.2-4.8-3.7c-1.2-1.5-1.7-3.2-1.7-5.2
		c0-0.8,0.1-1.5,0.3-2.2c0.2-0.7,0.4-1.3,0.8-1.8l3.9,0.7c0.5,0.1,0.7,0.4,0.7,0.9c0,0.3-0.1,0.7-0.3,1.2s-0.3,1.3-0.3,2.4
		c0,1.8,0.5,3.3,1.6,4.5c1,1.2,2.6,2.2,4.6,3H43V992.5z"/>
	<path d="M18.4,952.3c0.4,0.2,0.6,0.6,0.6,1.1c0,0.3-0.1,0.6-0.3,1c-0.2,0.4-0.5,0.8-0.7,1.3c-0.3,0.5-0.5,1.2-0.7,1.9
		c-0.2,0.7-0.3,1.6-0.3,2.6c0,0.9,0.1,1.7,0.3,2.4c0.2,0.7,0.5,1.3,0.9,1.8c0.4,0.5,0.8,0.9,1.4,1.1c0.5,0.3,1.1,0.4,1.7,0.4
		c0.8,0,1.4-0.2,1.9-0.7c0.5-0.4,0.9-1,1.3-1.7c0.4-0.7,0.7-1.5,1-2.4c0.3-0.9,0.6-1.8,0.9-2.8c0.3-1,0.7-1.9,1.1-2.8
		c0.4-0.9,0.9-1.7,1.5-2.4s1.3-1.3,2.1-1.7c0.8-0.4,1.9-0.7,3-0.7c1.4,0,2.6,0.2,3.8,0.7c1.2,0.5,2.1,1.2,3,2.1
		c0.8,0.9,1.5,2.1,2,3.5c0.5,1.4,0.7,3,0.7,4.8c0,2.1-0.3,3.9-1,5.6c-0.7,1.7-1.5,3.1-2.6,4.2l-2-1.2c-0.3-0.2-0.4-0.3-0.6-0.6
		c-0.1-0.2-0.2-0.5-0.2-0.8c0-0.3,0.1-0.7,0.4-1.1c0.3-0.4,0.6-0.9,0.9-1.4c0.3-0.6,0.6-1.2,0.9-2c0.3-0.8,0.4-1.8,0.4-2.9
		c0-1-0.1-1.9-0.4-2.6c-0.3-0.8-0.6-1.4-1.1-1.9c-0.4-0.5-1-0.9-1.5-1.1c-0.6-0.2-1.2-0.4-1.9-0.4c-0.8,0-1.5,0.2-2,0.7
		c-0.5,0.4-1,1-1.4,1.7c-0.4,0.7-0.7,1.5-1,2.5c-0.3,0.9-0.6,1.9-0.9,2.8c-0.3,1-0.7,1.9-1.1,2.8c-0.4,0.9-0.9,1.7-1.5,2.5
		s-1.3,1.3-2.2,1.7c-0.9,0.4-1.9,0.7-3.2,0.7c-1.1,0-2.2-0.2-3.2-0.7c-1-0.5-1.9-1.1-2.7-2c-0.8-0.9-1.4-2-1.9-3.3
		c-0.5-1.3-0.7-2.8-0.7-4.4c0-1.9,0.3-3.7,0.9-5.2c0.6-1.5,1.4-2.9,2.5-4L18.4,952.3z"/>
	<path d="M18.8,923.9c0.2,0.2,0.4,0.3,0.5,0.5c0.1,0.2,0.2,0.4,0.2,0.7s-0.1,0.6-0.4,0.9c-0.2,0.3-0.5,0.8-0.8,1.3
		c-0.3,0.5-0.6,1.2-0.8,1.9c-0.2,0.7-0.4,1.7-0.4,2.7c0,1.4,0.3,2.7,0.8,3.8c0.5,1.1,1.3,2,2.2,2.8s2.1,1.3,3.5,1.7
		c1.4,0.4,2.9,0.6,4.6,0.6c1.8,0,3.4-0.2,4.7-0.6c1.4-0.4,2.5-1,3.5-1.7c0.9-0.7,1.7-1.6,2.1-2.7s0.7-2.2,0.7-3.6
		c0-1.3-0.1-2.3-0.5-3.1c-0.3-0.8-0.6-1.5-1-2s-0.7-1-1-1.3c-0.3-0.3-0.4-0.7-0.4-1c0-0.4,0.2-0.8,0.5-1l1.9-1.5
		c1.6,1.3,2.7,2.9,3.4,4.8s1.1,3.9,1.1,6.1c0,1.8-0.3,3.5-1,5.1c-0.7,1.6-1.7,2.9-2.9,4.1c-1.3,1.2-2.9,2.1-4.7,2.7
		c-1.9,0.7-4,1-6.4,1c-2.2,0-4.2-0.3-6.1-0.9c-1.9-0.6-3.5-1.5-4.8-2.7c-1.3-1.2-2.4-2.6-3.1-4.3c-0.8-1.7-1.1-3.7-1.1-5.9
		c0-2,0.3-3.9,1-5.5c0.7-1.6,1.6-3,2.8-4.2L18.8,923.9z"/>
	<path d="M43,916.9H0.2v-5.2h17.3c-1.3-1.3-2.4-2.7-3.2-4.2c-0.8-1.5-1.2-3.3-1.2-5.3c0-1.6,0.3-3,0.8-4.3c0.5-1.2,1.3-2.3,2.3-3.1
		c1-0.8,2.2-1.4,3.5-1.9c1.4-0.4,2.9-0.6,4.6-0.6H43v5.2H24.2c-2.2,0-4,0.5-5.2,1.5c-1.2,1-1.8,2.6-1.8,4.7c0,1.5,0.4,3,1.1,4.3
		c0.7,1.3,1.7,2.5,3,3.7H43V916.9z"/>
	<path d="M13.1,872.9c0-1.8,0.3-3.4,0.9-4.9c0.6-1.5,1.4-2.8,2.6-3.9c1.1-1.1,2.5-1.9,4.1-2.5c1.6-0.6,3.5-0.9,5.6-0.9
		c0.8,0,1.4,0.1,1.6,0.3c0.3,0.2,0.4,0.5,0.4,1v19.6c1.9,0,3.5-0.3,4.8-0.8c1.4-0.5,2.5-1.1,3.4-1.9c0.9-0.8,1.6-1.8,2.1-2.9
		c0.5-1.1,0.7-2.4,0.7-3.8c0-1.3-0.1-2.4-0.4-3.4c-0.3-0.9-0.6-1.7-1-2.4c-0.3-0.7-0.7-1.2-1-1.7c-0.3-0.5-0.4-0.8-0.4-1.2
		c0-0.4,0.2-0.8,0.5-1l1.9-1.5c0.8,0.6,1.4,1.4,2,2.3c0.6,0.9,1,1.8,1.4,2.9c0.4,1,0.6,2.1,0.8,3.1c0.2,1.1,0.3,2.2,0.3,3.2
		c0,2-0.3,3.9-1,5.6c-0.7,1.7-1.7,3.2-3,4.4c-1.3,1.2-3,2.2-4.9,2.9c-2,0.7-4.2,1-6.7,1c-2.1,0-4-0.3-5.7-0.9
		c-1.8-0.6-3.3-1.5-4.6-2.7c-1.3-1.2-2.3-2.6-3.1-4.3C13.5,877,13.1,875.1,13.1,872.9z M16.9,872.8c0,2.5,0.7,4.5,2.2,5.9
		c1.4,1.4,3.4,2.3,6,2.7v-16c-1.2,0-2.3,0.2-3.3,0.5s-1.9,0.8-2.6,1.5c-0.7,0.6-1.3,1.4-1.7,2.3S16.9,871.7,16.9,872.8z"/>
	<path d="M4.3,847.3c0.5,0,1,0.1,1.4,0.3c0.4,0.2,0.8,0.5,1.2,0.8c0.3,0.3,0.6,0.7,0.8,1.2C7.9,850,8,850.5,8,851
		c0,0.5-0.1,1-0.3,1.4c-0.2,0.4-0.5,0.8-0.8,1.2c-0.3,0.3-0.7,0.6-1.2,0.8c-0.4,0.2-0.9,0.3-1.4,0.3c-0.5,0-1-0.1-1.4-0.3
		c-0.5-0.2-0.9-0.5-1.2-0.8c-0.3-0.3-0.6-0.7-0.8-1.2c-0.2-0.4-0.3-0.9-0.3-1.4c0-0.5,0.1-1,0.3-1.4c0.2-0.4,0.5-0.8,0.8-1.2
		c0.3-0.3,0.7-0.6,1.2-0.8C3.3,847.4,3.8,847.3,4.3,847.3z M13.6,848.4H43v5.2H13.6V848.4z"/>
	<path d="M43,839.3H13.6v-3.1c0-0.7,0.4-1.2,1.1-1.4l3.2-0.4c-1.4-1.3-2.6-2.7-3.4-4.3c-0.9-1.6-1.3-3.4-1.3-5.5
		c0-1.6,0.3-3,0.8-4.3c0.5-1.2,1.3-2.3,2.3-3.1c1-0.8,2.2-1.4,3.5-1.9c1.4-0.4,2.9-0.6,4.6-0.6H43v5.2H24.2c-2.2,0-4,0.5-5.2,1.5
		c-1.2,1-1.8,2.6-1.8,4.7c0,1.5,0.4,3,1.1,4.3c0.7,1.3,1.7,2.5,3,3.7H43V839.3z"/>
	<path d="M0.2,801.3H43v5.2H0.2V801.3z"/>
	<path d="M4.3,785.3c0.5,0,1,0.1,1.4,0.3c0.4,0.2,0.8,0.5,1.2,0.8c0.3,0.3,0.6,0.7,0.8,1.2C7.9,788,8,788.5,8,789
		c0,0.5-0.1,1-0.3,1.4c-0.2,0.4-0.5,0.8-0.8,1.2c-0.3,0.3-0.7,0.6-1.2,0.8c-0.4,0.2-0.9,0.3-1.4,0.3c-0.5,0-1-0.1-1.4-0.3
		c-0.5-0.2-0.9-0.5-1.2-0.8c-0.3-0.3-0.6-0.7-0.8-1.2c-0.2-0.4-0.3-0.9-0.3-1.4c0-0.5,0.1-1,0.3-1.4c0.2-0.4,0.5-0.8,0.8-1.2
		c0.3-0.3,0.7-0.6,1.2-0.8C3.3,785.4,3.8,785.3,4.3,785.3z M13.6,786.4H43v5.2H13.6V786.4z"/>
	<path d="M18.8,757.3c0.2,0.2,0.4,0.3,0.5,0.5c0.1,0.2,0.2,0.4,0.2,0.7s-0.1,0.6-0.4,0.9c-0.2,0.3-0.5,0.8-0.8,1.3
		c-0.3,0.5-0.6,1.2-0.8,1.9c-0.2,0.7-0.4,1.7-0.4,2.7c0,1.4,0.3,2.7,0.8,3.8c0.5,1.1,1.3,2,2.2,2.8s2.1,1.3,3.5,1.7
		c1.4,0.4,2.9,0.6,4.6,0.6c1.8,0,3.4-0.2,4.7-0.6c1.4-0.4,2.5-1,3.5-1.7c0.9-0.7,1.7-1.6,2.1-2.7c0.5-1.1,0.7-2.2,0.7-3.6
		c0-1.3-0.1-2.3-0.5-3.1c-0.3-0.8-0.6-1.5-1-2s-0.7-1-1-1.3c-0.3-0.3-0.4-0.7-0.4-1c0-0.4,0.2-0.8,0.5-1l1.9-1.5
		c1.6,1.3,2.7,2.9,3.4,4.8s1.1,3.9,1.1,6.1c0,1.8-0.3,3.5-1,5.1c-0.7,1.6-1.7,2.9-2.9,4.1c-1.3,1.2-2.9,2.1-4.7,2.7
		c-1.9,0.7-4,1-6.4,1c-2.2,0-4.2-0.3-6.1-0.9c-1.9-0.6-3.5-1.5-4.8-2.7c-1.3-1.2-2.4-2.6-3.1-4.3c-0.8-1.7-1.1-3.7-1.1-5.9
		c0-2,0.3-3.9,1-5.5c0.7-1.6,1.6-3,2.8-4.2L18.8,757.3z"/>
	<path d="M43,750.2H0.2v-5.2h17.3c-1.3-1.3-2.4-2.7-3.2-4.2c-0.8-1.5-1.2-3.3-1.2-5.3c0-1.6,0.3-3,0.8-4.3c0.5-1.2,1.3-2.3,2.3-3.1
		c1-0.8,2.2-1.4,3.5-1.9c1.4-0.4,2.9-0.6,4.6-0.6H43v5.2H24.2c-2.2,0-4,0.5-5.2,1.5c-1.2,1-1.8,2.6-1.8,4.7c0,1.5,0.4,3,1.1,4.3
		c0.7,1.3,1.7,2.5,3,3.7H43V750.2z"/>
	<path d="M0.2,712.6h25.2v-1.3c0-0.4-0.1-0.7-0.2-1c-0.1-0.3-0.3-0.5-0.7-0.8l-10-9.3c-0.3-0.3-0.6-0.6-0.8-0.9
		c-0.2-0.3-0.3-0.7-0.3-1.2v-4.7l11.5,10.8c0.3,0.3,0.6,0.5,0.9,0.8c0.3,0.3,0.5,0.6,0.7,0.9c0.2-0.3,0.5-0.7,0.8-0.9
		c0.3-0.3,0.6-0.5,1-0.8L43,692.7v4.6c0,0.4-0.1,0.8-0.2,1.1c-0.2,0.3-0.4,0.6-0.8,0.9l-12,9.7c-0.4,0.3-0.7,0.6-0.8,0.9
		c-0.1,0.3-0.2,0.7-0.2,1.3v1.5h14v5.2H0.2V712.6z"/>
	<path d="M13.1,677.6c0-1.8,0.3-3.4,0.9-4.9c0.6-1.5,1.4-2.8,2.6-3.9c1.1-1.1,2.5-1.9,4.1-2.5c1.6-0.6,3.5-0.9,5.6-0.9
		c0.8,0,1.4,0.1,1.6,0.3c0.3,0.2,0.4,0.5,0.4,1v19.6c1.9,0,3.5-0.3,4.8-0.8c1.4-0.5,2.5-1.1,3.4-1.9c0.9-0.8,1.6-1.8,2.1-2.9
		c0.5-1.1,0.7-2.4,0.7-3.8c0-1.3-0.1-2.4-0.4-3.4c-0.3-0.9-0.6-1.7-1-2.4c-0.3-0.7-0.7-1.2-1-1.7c-0.3-0.5-0.4-0.8-0.4-1.2
		c0-0.4,0.2-0.8,0.5-1l1.9-1.5c0.8,0.6,1.4,1.4,2,2.3c0.6,0.9,1,1.8,1.4,2.9s0.6,2.1,0.8,3.1c0.2,1.1,0.3,2.2,0.3,3.2
		c0,2-0.3,3.9-1,5.6c-0.7,1.7-1.7,3.2-3,4.4s-3,2.2-4.9,2.9c-2,0.7-4.2,1-6.7,1c-2.1,0-4-0.3-5.7-0.9c-1.8-0.6-3.3-1.5-4.6-2.7
		s-2.3-2.6-3.1-4.3C13.5,681.7,13.1,679.8,13.1,677.6z M16.9,677.5c0,2.5,0.7,4.5,2.2,5.9c1.4,1.4,3.4,2.3,6,2.7v-16
		c-1.2,0-2.3,0.2-3.3,0.5c-1,0.3-1.9,0.8-2.6,1.5c-0.7,0.6-1.3,1.4-1.7,2.3S16.9,676.3,16.9,677.5z"/>
	<path d="M4.3,652c0.5,0,1,0.1,1.4,0.3c0.4,0.2,0.8,0.5,1.2,0.8c0.3,0.3,0.6,0.7,0.8,1.2c0.2,0.4,0.3,0.9,0.3,1.4
		c0,0.5-0.1,1-0.3,1.4c-0.2,0.4-0.5,0.8-0.8,1.2c-0.3,0.3-0.7,0.6-1.2,0.8c-0.4,0.2-0.9,0.3-1.4,0.3c-0.5,0-1-0.1-1.4-0.3
		c-0.5-0.2-0.9-0.5-1.2-0.8c-0.3-0.3-0.6-0.7-0.8-1.2c-0.2-0.4-0.3-0.9-0.3-1.4c0-0.5,0.1-1,0.3-1.4c0.2-0.4,0.5-0.8,0.8-1.2
		c0.3-0.3,0.7-0.6,1.2-0.8C3.3,652.1,3.8,652,4.3,652z M13.6,653.1H43v5.2H13.6V653.1z"/>
	<path d="M43.4,635.1c0,2.3-0.6,4.1-1.9,5.4c-1.3,1.2-3.2,1.9-5.6,1.9h-18v3.5c0,0.3-0.1,0.6-0.3,0.8c-0.2,0.2-0.5,0.3-0.9,0.3h-2.1
		l-0.6-4.8L5,641c-0.3,0-0.5-0.2-0.7-0.4c-0.2-0.2-0.3-0.5-0.3-0.8v-2.6h10.1v-8.4h3.7v8.4h17.6c1.2,0,2.2-0.3,2.8-0.9
		c0.6-0.6,0.9-1.4,0.9-2.3c0-0.5-0.1-1-0.2-1.4c-0.1-0.4-0.3-0.7-0.5-1c-0.2-0.3-0.3-0.5-0.5-0.7c-0.1-0.2-0.2-0.4-0.2-0.5
		c0-0.3,0.2-0.5,0.5-0.7l2.5-1.5c0.8,0.9,1.5,2,2,3.2C43.2,632.5,43.4,633.8,43.4,635.1z"/>
	<path d="M52.9,611.2H13.6v-3.1c0-0.7,0.4-1.2,1.1-1.4l3.5-0.4c-1.5-1.3-2.8-2.7-3.7-4.3c-0.9-1.6-1.4-3.5-1.4-5.6
		c0-1.7,0.3-3.2,1-4.6s1.6-2.5,2.9-3.5c1.3-1,2.8-1.7,4.7-2.2c1.9-0.5,4-0.8,6.5-0.8c2.2,0,4.2,0.3,6.1,0.9c1.9,0.6,3.5,1.4,4.8,2.5
		c1.4,1.1,2.4,2.4,3.2,4c0.8,1.6,1.2,3.4,1.2,5.3c0,1.8-0.3,3.4-0.9,4.7c-0.6,1.3-1.5,2.4-2.6,3.4h13V611.2z M17.2,598.1
		c0,1.7,0.4,3.2,1.2,4.4c0.8,1.3,1.9,2.4,3.3,3.5h14.2c1.3-0.9,2.2-2,2.7-3.1c0.5-1.1,0.8-2.4,0.8-3.8c0-2.7-1-4.8-2.9-6.3
		c-2-1.5-4.7-2.2-8.4-2.2c-1.9,0-3.6,0.2-4.9,0.5c-1.4,0.3-2.5,0.8-3.4,1.5s-1.5,1.4-1.9,2.3C17.4,595.8,17.2,596.9,17.2,598.1z"/>
	<path d="M13.1,567.2c0-2.1,0.4-4.1,1.1-5.8c0.7-1.7,1.7-3.2,3-4.4c1.3-1.2,2.9-2.1,4.8-2.8s4-1,6.3-1c2.3,0,4.4,0.3,6.3,1
		c1.9,0.6,3.4,1.6,4.8,2.8c1.3,1.2,2.3,2.7,3,4.4c0.7,1.7,1.1,3.7,1.1,5.8c0,2.1-0.4,4.1-1.1,5.8c-0.7,1.7-1.7,3.2-3,4.4
		c-1.3,1.2-2.9,2.2-4.8,2.8c-1.9,0.7-3.9,1-6.3,1c-2.3,0-4.4-0.3-6.3-1c-1.9-0.7-3.5-1.6-4.8-2.8s-2.3-2.7-3-4.4
		C13.4,571.3,13.1,569.4,13.1,567.2z M39.3,567.2c0-2.9-1-5.1-2.9-6.5c-1.9-1.4-4.7-2.1-8.1-2.1c-3.5,0-6.2,0.7-8.2,2.1
		c-2,1.4-2.9,3.6-2.9,6.5c0,1.5,0.3,2.7,0.8,3.8c0.5,1.1,1.2,2,2.2,2.7c0.9,0.7,2.1,1.3,3.5,1.6c1.4,0.4,2.9,0.5,4.7,0.5
		c1.7,0,3.3-0.2,4.7-0.5s2.5-0.9,3.5-1.6c0.9-0.7,1.7-1.6,2.2-2.7C39.1,570,39.3,568.7,39.3,567.2z"/>
	<path d="M18.4,530c0.4,0.2,0.6,0.6,0.6,1.1c0,0.3-0.1,0.6-0.3,1c-0.2,0.4-0.5,0.8-0.7,1.3c-0.3,0.5-0.5,1.2-0.7,1.9
		c-0.2,0.7-0.3,1.6-0.3,2.6c0,0.9,0.1,1.7,0.3,2.4c0.2,0.7,0.5,1.3,0.9,1.8c0.4,0.5,0.8,0.9,1.4,1.1c0.5,0.3,1.1,0.4,1.7,0.4
		c0.8,0,1.4-0.2,1.9-0.7c0.5-0.4,0.9-1,1.3-1.7c0.4-0.7,0.7-1.5,1-2.4c0.3-0.9,0.6-1.8,0.9-2.8c0.3-1,0.7-1.9,1.1-2.8
		c0.4-0.9,0.9-1.7,1.5-2.4c0.6-0.7,1.3-1.3,2.1-1.7c0.8-0.4,1.9-0.7,3-0.7c1.4,0,2.6,0.2,3.8,0.7c1.2,0.5,2.1,1.2,3,2.1
		c0.8,0.9,1.5,2.1,2,3.5c0.5,1.4,0.7,3,0.7,4.8c0,2.1-0.3,3.9-1,5.6c-0.7,1.7-1.5,3.1-2.6,4.2l-2-1.2c-0.3-0.2-0.4-0.3-0.6-0.6
		c-0.1-0.2-0.2-0.5-0.2-0.8s0.1-0.7,0.4-1.1c0.3-0.4,0.6-0.9,0.9-1.4c0.3-0.6,0.6-1.2,0.9-2c0.3-0.8,0.4-1.8,0.4-2.9
		c0-1-0.1-1.9-0.4-2.6c-0.3-0.8-0.6-1.4-1.1-1.9c-0.4-0.5-1-0.9-1.5-1.1c-0.6-0.2-1.2-0.4-1.9-0.4c-0.8,0-1.5,0.2-2,0.7
		c-0.5,0.4-1,1-1.4,1.7c-0.4,0.7-0.7,1.5-1,2.5c-0.3,0.9-0.6,1.9-0.9,2.8c-0.3,1-0.7,1.9-1.1,2.8c-0.4,0.9-0.9,1.7-1.5,2.5
		c-0.6,0.7-1.3,1.3-2.2,1.7c-0.9,0.4-1.9,0.7-3.2,0.7c-1.1,0-2.2-0.2-3.2-0.7c-1-0.5-1.9-1.1-2.7-2c-0.8-0.9-1.4-2-1.9-3.3
		c-0.5-1.3-0.7-2.8-0.7-4.4c0-1.9,0.3-3.7,0.9-5.2c0.6-1.5,1.4-2.9,2.5-4L18.4,530z"/>
	<path d="M4.3,514.8c0.5,0,1,0.1,1.4,0.3c0.4,0.2,0.8,0.5,1.2,0.8c0.3,0.3,0.6,0.7,0.8,1.2c0.2,0.4,0.3,0.9,0.3,1.4
		c0,0.5-0.1,1-0.3,1.4c-0.2,0.4-0.5,0.8-0.8,1.2c-0.3,0.3-0.7,0.6-1.2,0.8c-0.4,0.2-0.9,0.3-1.4,0.3c-0.5,0-1-0.1-1.4-0.3
		c-0.5-0.2-0.9-0.5-1.2-0.8c-0.3-0.3-0.6-0.7-0.8-1.2c-0.2-0.4-0.3-0.9-0.3-1.4c0-0.5,0.1-1,0.3-1.4c0.2-0.4,0.5-0.8,0.8-1.2
		c0.3-0.3,0.7-0.6,1.2-0.8C3.3,514.9,3.8,514.8,4.3,514.8z M13.6,515.9H43v5.2H13.6V515.9z"/>
	<path d="M43.4,497.9c0,2.3-0.6,4.1-1.9,5.4c-1.3,1.2-3.2,1.9-5.6,1.9h-18v3.5c0,0.3-0.1,0.6-0.3,0.8c-0.2,0.2-0.5,0.3-0.9,0.3h-2.1
		l-0.6-4.8L5,503.8c-0.3,0-0.5-0.2-0.7-0.4c-0.2-0.2-0.3-0.5-0.3-0.8V500h10.1v-8.4h3.7v8.4h17.6c1.2,0,2.2-0.3,2.8-0.9
		c0.6-0.6,0.9-1.4,0.9-2.3c0-0.5-0.1-1-0.2-1.4c-0.1-0.4-0.3-0.7-0.5-1c-0.2-0.3-0.3-0.5-0.5-0.7c-0.1-0.2-0.2-0.4-0.2-0.5
		c0-0.3,0.2-0.5,0.5-0.7l2.5-1.5c0.8,0.9,1.5,2,2,3.2C43.2,495.3,43.4,496.6,43.4,497.9z"/>
	<path d="M4.3,478.2c0.5,0,1,0.1,1.4,0.3c0.4,0.2,0.8,0.5,1.2,0.8c0.3,0.3,0.6,0.7,0.8,1.2C7.9,481,8,481.5,8,482
		c0,0.5-0.1,1-0.3,1.4c-0.2,0.4-0.5,0.8-0.8,1.2c-0.3,0.3-0.7,0.6-1.2,0.8c-0.4,0.2-0.9,0.3-1.4,0.3c-0.5,0-1-0.1-1.4-0.3
		c-0.5-0.2-0.9-0.5-1.2-0.8c-0.3-0.3-0.6-0.7-0.8-1.2c-0.2-0.4-0.3-0.9-0.3-1.4c0-0.5,0.1-1,0.3-1.4c0.2-0.4,0.5-0.8,0.8-1.2
		c0.3-0.3,0.7-0.6,1.2-0.8C3.3,478.3,3.8,478.2,4.3,478.2z M13.6,479.4H43v5.2H13.6V479.4z"/>
	<path d="M13.6,474v-4.2c0-0.4,0.1-0.7,0.3-1s0.5-0.5,0.8-0.6l18.9-7.5c0.7-0.3,1.4-0.5,2.1-0.6c0.7-0.2,1.4-0.3,2.1-0.4
		c-0.7-0.2-1.4-0.3-2.1-0.5c-0.7-0.2-1.4-0.4-2.1-0.7l-18.9-7.5c-0.3-0.1-0.6-0.3-0.8-0.6s-0.3-0.6-0.3-1v-4l29.4,12v4.7L13.6,474z"
		/>
	<path d="M13.1,429.7c0-1.8,0.3-3.4,0.9-4.9c0.6-1.5,1.4-2.8,2.6-3.9c1.1-1.1,2.5-1.9,4.1-2.5c1.6-0.6,3.5-0.9,5.6-0.9
		c0.8,0,1.4,0.1,1.6,0.3c0.3,0.2,0.4,0.5,0.4,1v19.6c1.9,0,3.5-0.3,4.8-0.8c1.4-0.5,2.5-1.1,3.4-1.9c0.9-0.8,1.6-1.8,2.1-2.9
		c0.5-1.1,0.7-2.4,0.7-3.8c0-1.3-0.1-2.4-0.4-3.4c-0.3-0.9-0.6-1.7-1-2.4c-0.3-0.7-0.7-1.2-1-1.7c-0.3-0.5-0.4-0.8-0.4-1.2
		c0-0.4,0.2-0.8,0.5-1l1.9-1.5c0.8,0.6,1.4,1.4,2,2.3c0.6,0.9,1,1.8,1.4,2.9c0.4,1,0.6,2.1,0.8,3.1c0.2,1.1,0.3,2.2,0.3,3.2
		c0,2-0.3,3.9-1,5.6c-0.7,1.7-1.7,3.2-3,4.4c-1.3,1.2-3,2.2-4.9,2.9c-2,0.7-4.2,1-6.7,1c-2.1,0-4-0.3-5.7-0.9
		c-1.8-0.6-3.3-1.5-4.6-2.7c-1.3-1.2-2.3-2.6-3.1-4.3C13.5,433.7,13.1,431.8,13.1,429.7z M16.9,429.6c0,2.5,0.7,4.5,2.2,5.9
		c1.4,1.4,3.4,2.3,6,2.7v-16c-1.2,0-2.3,0.2-3.3,0.5c-1,0.3-1.9,0.8-2.6,1.5c-0.7,0.6-1.3,1.4-1.7,2.3S16.9,428.4,16.9,429.6z"/>
	<path d="M43,410.9H13.6v-3c0-0.6,0.1-0.9,0.3-1.2c0.2-0.2,0.6-0.4,1.1-0.4l4.6-0.3c-2-1-3.7-2.2-4.8-3.7c-1.2-1.5-1.7-3.2-1.7-5.2
		c0-0.8,0.1-1.5,0.3-2.2s0.4-1.3,0.8-1.8l3.9,0.7c0.5,0.1,0.7,0.4,0.7,0.9c0,0.3-0.1,0.7-0.3,1.2c-0.2,0.6-0.3,1.3-0.3,2.4
		c0,1.8,0.5,3.3,1.6,4.5c1,1.2,2.6,2.2,4.6,3H43V410.9z"/>
	<path d="M1.4,349.9H6v20h13.8v-16.2h4.4v16.2h14.2v-20H43v25.6H1.4V349.9z"/>
	<path d="M43,342.6H13.6v-3.1c0-0.7,0.4-1.2,1.1-1.4l3.2-0.4c-1.4-1.3-2.6-2.7-3.4-4.3c-0.9-1.6-1.3-3.4-1.3-5.5
		c0-1.6,0.3-3,0.8-4.3c0.5-1.2,1.3-2.3,2.3-3.1c1-0.8,2.2-1.4,3.5-1.9c1.4-0.4,2.9-0.6,4.6-0.6H43v5.2H24.2c-2.2,0-4,0.5-5.2,1.5
		c-1.2,1-1.8,2.6-1.8,4.7c0,1.5,0.4,3,1.1,4.3c0.7,1.3,1.7,2.5,3,3.7H43V342.6z"/>
	<path d="M43.4,301.4c0,2.3-0.6,4.1-1.9,5.4c-1.3,1.2-3.2,1.9-5.6,1.9h-18v3.5c0,0.3-0.1,0.6-0.3,0.8c-0.2,0.2-0.5,0.3-0.9,0.3h-2.1
		l-0.6-4.8L5,307.3c-0.3,0-0.5-0.2-0.7-0.4c-0.2-0.2-0.3-0.5-0.3-0.8v-2.6h10.1v-8.4h3.7v8.4h17.6c1.2,0,2.2-0.3,2.8-0.9
		c0.6-0.6,0.9-1.4,0.9-2.3c0-0.5-0.1-1-0.2-1.4s-0.3-0.7-0.5-1c-0.2-0.3-0.3-0.5-0.5-0.7s-0.2-0.4-0.2-0.5c0-0.3,0.2-0.5,0.5-0.7
		l2.5-1.5c0.8,0.9,1.5,2,2,3.2C43.2,298.8,43.4,300.1,43.4,301.4z"/>
	<path d="M18.4,271.9c0.4,0.2,0.6,0.6,0.6,1.1c0,0.3-0.1,0.6-0.3,1c-0.2,0.4-0.5,0.8-0.7,1.3c-0.3,0.5-0.5,1.2-0.7,1.9
		c-0.2,0.7-0.3,1.6-0.3,2.6c0,0.9,0.1,1.7,0.3,2.4c0.2,0.7,0.5,1.3,0.9,1.8c0.4,0.5,0.8,0.9,1.4,1.1c0.5,0.3,1.1,0.4,1.7,0.4
		c0.8,0,1.4-0.2,1.9-0.7c0.5-0.4,0.9-1,1.3-1.7c0.4-0.7,0.7-1.5,1-2.4c0.3-0.9,0.6-1.8,0.9-2.8c0.3-1,0.7-1.9,1.1-2.8
		c0.4-0.9,0.9-1.7,1.5-2.4c0.6-0.7,1.3-1.3,2.1-1.7c0.8-0.4,1.9-0.7,3-0.7c1.4,0,2.6,0.2,3.8,0.7c1.2,0.5,2.1,1.2,3,2.1
		c0.8,0.9,1.5,2.1,2,3.5c0.5,1.4,0.7,3,0.7,4.8c0,2.1-0.3,3.9-1,5.6c-0.7,1.7-1.5,3.1-2.6,4.2l-2-1.2c-0.3-0.2-0.4-0.3-0.6-0.6
		c-0.1-0.2-0.2-0.5-0.2-0.8s0.1-0.7,0.4-1.1c0.3-0.4,0.6-0.9,0.9-1.4c0.3-0.6,0.6-1.2,0.9-2c0.3-0.8,0.4-1.8,0.4-2.9
		c0-1-0.1-1.9-0.4-2.6c-0.3-0.8-0.6-1.4-1.1-1.9c-0.4-0.5-1-0.9-1.5-1.1c-0.6-0.2-1.2-0.4-1.9-0.4c-0.8,0-1.5,0.2-2,0.7
		c-0.5,0.4-1,1-1.4,1.7c-0.4,0.7-0.7,1.5-1,2.5c-0.3,0.9-0.6,1.9-0.9,2.8c-0.3,1-0.7,1.9-1.1,2.8c-0.4,0.9-0.9,1.7-1.5,2.5
		c-0.6,0.7-1.3,1.3-2.2,1.7c-0.9,0.4-1.9,0.7-3.2,0.7c-1.1,0-2.2-0.2-3.2-0.7c-1-0.5-1.9-1.1-2.7-2c-0.8-0.9-1.4-2-1.9-3.3
		c-0.5-1.3-0.7-2.8-0.7-4.4c0-1.9,0.3-3.7,0.9-5.2c0.6-1.5,1.4-2.9,2.5-4L18.4,271.9z"/>
	<path d="M18.8,243.4c0.2,0.2,0.4,0.3,0.5,0.5c0.1,0.2,0.2,0.4,0.2,0.7s-0.1,0.6-0.4,0.9c-0.2,0.3-0.5,0.8-0.8,1.3
		c-0.3,0.5-0.6,1.2-0.8,1.9c-0.2,0.7-0.4,1.7-0.4,2.7c0,1.4,0.3,2.7,0.8,3.8c0.5,1.1,1.3,2,2.2,2.8c1,0.7,2.1,1.3,3.5,1.7
		c1.4,0.4,2.9,0.6,4.6,0.6c1.8,0,3.4-0.2,4.7-0.6c1.4-0.4,2.5-1,3.5-1.7c0.9-0.7,1.7-1.6,2.1-2.7c0.5-1.1,0.7-2.2,0.7-3.6
		c0-1.3-0.1-2.3-0.5-3.1c-0.3-0.8-0.6-1.5-1-2c-0.4-0.5-0.7-1-1-1.3c-0.3-0.3-0.4-0.7-0.4-1c0-0.4,0.2-0.8,0.5-1l1.9-1.5
		c1.6,1.3,2.7,2.9,3.4,4.8c0.7,1.9,1.1,3.9,1.1,6.1c0,1.8-0.3,3.5-1,5.1c-0.7,1.6-1.7,2.9-2.9,4.1c-1.3,1.2-2.9,2.1-4.7,2.7
		c-1.9,0.7-4,1-6.4,1c-2.2,0-4.2-0.3-6.1-0.9c-1.9-0.6-3.5-1.5-4.8-2.7c-1.3-1.2-2.4-2.6-3.1-4.3c-0.8-1.7-1.1-3.7-1.1-5.9
		c0-2,0.3-3.9,1-5.5c0.7-1.6,1.6-3,2.8-4.2L18.8,243.4z"/>
	<path d="M43,236.4H0.2v-5.2h17.3c-1.3-1.3-2.4-2.7-3.2-4.2c-0.8-1.5-1.2-3.3-1.2-5.3c0-1.6,0.3-3,0.8-4.3c0.5-1.2,1.3-2.3,2.3-3.1
		c1-0.8,2.2-1.4,3.5-1.9c1.4-0.4,2.9-0.6,4.6-0.6H43v5.2H24.2c-2.2,0-4,0.5-5.2,1.5c-1.2,1-1.8,2.6-1.8,4.7c0,1.5,0.4,3,1.1,4.3
		c0.7,1.3,1.7,2.5,3,3.7H43V236.4z"/>
	<path d="M13.1,192.5c0-1.8,0.3-3.4,0.9-4.9c0.6-1.5,1.4-2.8,2.6-3.9c1.1-1.1,2.5-1.9,4.1-2.5c1.6-0.6,3.5-0.9,5.6-0.9
		c0.8,0,1.4,0.1,1.6,0.3c0.3,0.2,0.4,0.5,0.4,1v19.6c1.9,0,3.5-0.3,4.8-0.8c1.4-0.5,2.5-1.1,3.4-1.9c0.9-0.8,1.6-1.8,2.1-2.9
		s0.7-2.4,0.7-3.8c0-1.3-0.1-2.4-0.4-3.4c-0.3-0.9-0.6-1.7-1-2.4c-0.3-0.7-0.7-1.2-1-1.7c-0.3-0.5-0.4-0.8-0.4-1.2
		c0-0.4,0.2-0.8,0.5-1l1.9-1.5c0.8,0.6,1.4,1.4,2,2.3c0.6,0.9,1,1.8,1.4,2.9s0.6,2.1,0.8,3.1c0.2,1.1,0.3,2.2,0.3,3.2
		c0,2-0.3,3.9-1,5.6c-0.7,1.7-1.7,3.2-3,4.4s-3,2.2-4.9,2.9c-2,0.7-4.2,1-6.7,1c-2.1,0-4-0.3-5.7-0.9c-1.8-0.6-3.3-1.5-4.6-2.7
		c-1.3-1.2-2.3-2.6-3.1-4.3C13.5,196.5,13.1,194.6,13.1,192.5z M16.9,192.4c0,2.5,0.7,4.5,2.2,5.9c1.4,1.4,3.4,2.3,6,2.7v-16
		c-1.2,0-2.3,0.2-3.3,0.5s-1.9,0.8-2.6,1.5c-0.7,0.6-1.3,1.4-1.7,2.3S16.9,191.2,16.9,192.4z"/>
	<path d="M4.3,166.8c0.5,0,1,0.1,1.4,0.3c0.4,0.2,0.8,0.5,1.2,0.8c0.3,0.3,0.6,0.7,0.8,1.2c0.2,0.4,0.3,0.9,0.3,1.4
		c0,0.5-0.1,1-0.3,1.4c-0.2,0.4-0.5,0.8-0.8,1.2c-0.3,0.3-0.7,0.6-1.2,0.8c-0.4,0.2-0.9,0.3-1.4,0.3c-0.5,0-1-0.1-1.4-0.3
		c-0.5-0.2-0.9-0.5-1.2-0.8c-0.3-0.3-0.6-0.7-0.8-1.2c-0.2-0.4-0.3-0.9-0.3-1.4c0-0.5,0.1-1,0.3-1.4c0.2-0.4,0.5-0.8,0.8-1.2
		c0.3-0.3,0.7-0.6,1.2-0.8C3.3,166.9,3.8,166.8,4.3,166.8z M13.6,168H43v5.2H13.6V168z"/>
	<path d="M43,138.2c0,0.7-0.4,1.2-1.1,1.4l-3.6,0.5c1.5,1.3,2.8,2.7,3.7,4.3c0.9,1.6,1.4,3.5,1.4,5.6c0,1.7-0.3,3.2-1,4.6
		c-0.6,1.4-1.6,2.5-2.9,3.5c-1.3,1-2.8,1.7-4.7,2.2c-1.9,0.5-4,0.8-6.5,0.8c-2.2,0-4.2-0.3-6.1-0.9s-3.5-1.4-4.9-2.5
		c-1.4-1.1-2.5-2.4-3.2-4c-0.8-1.6-1.2-3.3-1.2-5.3c0-1.8,0.3-3.3,0.9-4.6c0.6-1.3,1.5-2.4,2.6-3.4H0.2v-5.2H43V138.2z M39.2,148.2
		c0-1.7-0.4-3.2-1.2-4.4c-0.8-1.3-1.9-2.4-3.3-3.5H20.5c-1.3,0.9-2.2,2-2.7,3.1c-0.5,1.1-0.8,2.4-0.8,3.8c0,2.7,1,4.9,2.9,6.3
		c2,1.5,4.7,2.2,8.4,2.2c1.9,0,3.6-0.2,4.9-0.5c1.4-0.3,2.5-0.8,3.4-1.5c0.9-0.6,1.5-1.4,1.9-2.4C39,150.4,39.2,149.4,39.2,148.2z"
		/>
	<path d="M13.6,121.9h18.7c2.2,0,3.9-0.5,5.2-1.5c1.2-1,1.8-2.6,1.8-4.6c0-1.5-0.4-2.9-1.1-4.3c-0.7-1.3-1.7-2.6-3-3.7H13.6v-5.2H43
		v3.1c0,0.7-0.4,1.2-1.1,1.4l-3.2,0.4c1.4,1.3,2.5,2.7,3.4,4.3c0.9,1.6,1.3,3.4,1.3,5.5c0,1.6-0.3,3-0.8,4.3
		c-0.5,1.2-1.3,2.3-2.2,3.1c-1,0.8-2.1,1.5-3.5,1.9c-1.4,0.4-2.9,0.6-4.6,0.6H13.6V121.9z"/>
	<path d="M43,94.1H13.6v-3.1c0-0.7,0.4-1.2,1.1-1.4l3.2-0.4c-1.4-1.3-2.6-2.7-3.4-4.3c-0.9-1.6-1.3-3.4-1.3-5.5c0-1.6,0.3-3,0.8-4.3
		c0.5-1.2,1.3-2.3,2.3-3.1c1-0.8,2.2-1.4,3.5-1.9c1.4-0.4,2.9-0.6,4.6-0.6H43v5.2H24.2c-2.2,0-4,0.5-5.2,1.5c-1.2,1-1.8,2.6-1.8,4.7
		c0,1.5,0.4,3,1.1,4.3c0.7,1.3,1.7,2.5,3,3.7H43V94.1z"/>
	<path d="M13.1,52c0-1.3,0.1-2.5,0.4-3.6c0.3-1.1,0.7-2.1,1.2-3v-8h1.9c0.6,0,1,0.4,1.2,1.2l0.5,3.3c1.3-0.7,2.7-1,4.2-1
		c1.4,0,2.7,0.3,3.9,0.8c1.2,0.6,2.2,1.3,3,2.3c0.8,1,1.5,2.1,1.9,3.5c0.4,1.3,0.7,2.8,0.7,4.4c0,1.4-0.2,2.7-0.5,3.9
		c0.4,0.6,0.8,1.1,1.3,1.4c0.5,0.3,0.9,0.5,1.4,0.5c0.7,0,1.3-0.3,1.6-0.8c0.4-0.6,0.6-1.3,0.8-2.2c0.2-0.9,0.2-2,0.2-3.2
		s0-2.4,0-3.6c0-1.2,0.1-2.4,0.3-3.6s0.6-2.2,1.1-3.2c0.5-0.9,1.2-1.7,2-2.2c0.9-0.6,2-0.8,3.3-0.8c1.3,0,2.5,0.3,3.7,0.9
		c1.2,0.6,2.3,1.5,3.2,2.7c0.9,1.2,1.7,2.6,2.2,4.3c0.6,1.7,0.8,3.6,0.8,5.8c0,2.1-0.2,4-0.6,5.6c-0.4,1.6-1,3-1.7,4
		c-0.7,1.1-1.5,1.9-2.5,2.4c-0.9,0.5-1.9,0.8-2.9,0.8c-1.5,0-2.7-0.5-3.7-1.4c-1-0.9-1.8-2.2-2.4-3.8c-0.4,0.8-0.9,1.5-1.5,2
		c-0.6,0.5-1.5,0.7-2.6,0.7c-0.4,0-0.9-0.1-1.3-0.2c-0.5-0.2-0.9-0.4-1.3-0.7c-0.4-0.3-0.9-0.7-1.3-1.2c-0.4-0.5-0.8-1-1.1-1.6
		c-0.8,1.5-1.9,2.6-3.2,3.4c-1.3,0.8-2.9,1.2-4.7,1.2c-1.4,0-2.7-0.3-3.9-0.8c-1.2-0.6-2.2-1.3-3-2.3c-0.8-1-1.5-2.2-1.9-3.5
		C13.3,55.1,13.1,53.6,13.1,52z M44.4,42.8c-0.8,0-1.4,0.2-1.8,0.6c-0.5,0.4-0.8,1-1.1,1.7c-0.2,0.7-0.4,1.5-0.5,2.4
		c-0.1,0.9-0.2,1.9-0.2,2.9c0,1,0,2,0,3.1c0,1-0.1,2-0.4,3c0.5,1.1,1.2,2,1.9,2.7c0.8,0.7,1.7,1,2.7,1c0.7,0,1.3-0.2,1.8-0.5
		c0.6-0.3,1.1-0.9,1.5-1.6c0.4-0.7,0.7-1.6,1-2.6c0.2-1.1,0.4-2.3,0.4-3.7c0-1.4-0.1-2.6-0.4-3.7c-0.3-1.1-0.6-2-1.1-2.8
		c-0.5-0.8-1-1.4-1.7-1.8C46,43,45.2,42.8,44.4,42.8z M28.6,52c0-1-0.1-2-0.4-2.8c-0.3-0.8-0.7-1.5-1.2-2c-0.5-0.5-1.1-0.9-1.9-1.2
		c-0.7-0.3-1.5-0.4-2.4-0.4c-1.8,0-3.2,0.5-4.3,1.6c-1.1,1.1-1.6,2.7-1.6,4.8c0,2.1,0.5,3.7,1.6,4.7c1.1,1.1,2.5,1.6,4.3,1.6
		c0.9,0,1.7-0.1,2.4-0.4c0.7-0.3,1.3-0.7,1.9-1.2c0.5-0.5,0.9-1.2,1.2-2C28.4,53.9,28.6,53,28.6,52z"/>
</g>
<circle class="st7" cx="114.9" cy="205.7" r="29"/>
<circle class="st7" cx="1325.6" cy="173.2" r="29"/>
<circle class="st7" cx="2721" cy="196.4" r="29"/>
</svg>
