<?xml version="1.0" encoding="utf-8"?>
<!-- Generator: Adobe Illustrator 23.0.1, SVG Export Plug-In . SVG Version: 6.00 Build 0)  -->
<svg version="1.1" id="Ebene_1" xmlns="http://www.w3.org/2000/svg" xmlns:xlink="http://www.w3.org/1999/xlink" x="0px" y="0px"
	 viewBox="0 0 3840 1477" style="enable-background:new 0 0 3840 1477;" xml:space="preserve">
<style type="text/css">
	.st0{fill:none;stroke:#000000;stroke-width:3;stroke-miterlimit:10;}
	.st1{fill:none;stroke:#000000;stroke-width:10;stroke-miterlimit:10;}
	.st2{fill:none;stroke:#000000;stroke-width:10;stroke-miterlimit:10;stroke-dasharray:12.1072,12.1072;}
	.st3{fill:none;stroke:#000000;stroke-width:10;stroke-miterlimit:10;stroke-dasharray:12,12;}
	.st4{fill:none;stroke:#FFCA00;stroke-width:10;stroke-miterlimit:10;}
</style>
<g>
	<g>
		<g>
			<line class="st0" x1="78.9" y1="1389.8" x2="78.3" y2="19.2"/>
			<g>
				<polygon points="90.6,29.2 88.4,31.2 78.3,20.4 68.3,31.2 66.1,29.2 78.3,16 				"/>
			</g>
		</g>
	</g>
	<g>
		<g>
			<line class="st0" x1="78.9" y1="1390.4" x2="3836.2" y2="1390.4"/>
			<g>
				<polygon points="3826.2,1402.7 3824.2,1400.5 3835,1390.4 3824.2,1380.3 3826.2,1378.1 3839.4,1390.4 				"/>
			</g>
		</g>
	</g>
</g>
<g>
	<polyline class="st1" points="111.9,241.7 227,63 322.4,414 423.5,557 527.3,241.7 628.4,894.2 735,853 844.5,626.6 940,1009.7 
		1046.6,947.4 1139.3,949.2 1249.2,1391 	"/>
	<polyline class="st1" points="1358.2,209.6 1456.5,555.1 1561.7,359 1655.8,337.9 1873.3,853 1974.4,1004.2 2045.9,1004.2 
		2274.7,943.7 2387,689 2479.6,1004.2 2589.1,1188.4 2684.5,1170.1 	"/>
	<polyline class="st1" points="2794,232.5 2892.2,967.6 3007.3,1254.4 3111.2,1199.4 3198.2,1239.8 3304.9,1236.1 3408.7,1314.9 
		3512.6,1197.6 3608,1173.8 3712,1390.5 	"/>
	<g>
		<g>
			<line class="st1" x1="1248.7" y1="1391" x2="1249.3" y2="1385"/>
			<line class="st2" x1="1250.4" y1="1372.9" x2="1357.1" y2="221.6"/>
			<line class="st1" x1="1357.7" y1="215.6" x2="1358.2" y2="209.6"/>
		</g>
	</g>
	<line class="st3" x1="2684.5" y1="1170.1" x2="2794" y2="232.5"/>
</g>
<circle class="st4" cx="112.5" cy="241.1" r="26.9"/>
<circle class="st4" cx="1358" cy="209.9" r="26.9"/>
<circle class="st4" cx="2793.6" cy="232.5" r="26.9"/>
<g>
	<path d="M3758.2,1441.9h-0.2c-1.9,2.7-4.7,4.1-8.4,4.1c-3.5,0-6.2-1.2-8.2-3.6s-2.9-5.8-2.9-10.2c0-4.4,1-7.8,2.9-10.3
		s4.7-3.7,8.2-3.7c3.6,0,6.4,1.3,8.3,4h0.3l-0.2-1.9l-0.1-1.9v-10.9h4.1v38h-3.3L3758.2,1441.9z M3750.1,1442.6c2.8,0,4.8-0.8,6-2.3
		c1.2-1.5,1.9-3.9,1.9-7.3v-0.9c0-3.8-0.6-6.5-1.9-8.1c-1.3-1.6-3.3-2.4-6-2.4c-2.4,0-4.2,0.9-5.5,2.8c-1.3,1.8-1.9,4.5-1.9,7.8
		c0,3.4,0.6,6,1.9,7.7C3745.8,1441.7,3747.7,1442.6,3750.1,1442.6z"/>
	<path d="M3787.1,1445.5l-0.8-3.8h-0.2c-1.3,1.7-2.7,2.8-4,3.4c-1.3,0.6-3,0.9-5,0.9c-2.7,0-4.7-0.7-6.2-2.1
		c-1.5-1.4-2.3-3.3-2.3-5.8c0-5.4,4.3-8.2,13-8.5l4.5-0.1v-1.7c0-2.1-0.5-3.6-1.4-4.7c-0.9-1-2.3-1.5-4.3-1.5
		c-2.2,0-4.8,0.7-7.6,2.1l-1.2-3.1c1.3-0.7,2.8-1.3,4.3-1.7c1.6-0.4,3.1-0.6,4.7-0.6c3.2,0,5.6,0.7,7.1,2.1c1.5,1.4,2.3,3.7,2.3,6.8
		v18.3H3787.1z M3777.9,1442.6c2.5,0,4.5-0.7,5.9-2.1c1.4-1.4,2.2-3.3,2.2-5.8v-2.4l-4.1,0.2c-3.2,0.1-5.5,0.6-7,1.5
		c-1.4,0.9-2.1,2.3-2.1,4.1c0,1.5,0.4,2.6,1.3,3.3C3775.1,1442.2,3776.3,1442.6,3777.9,1442.6z"/>
	<path d="M3794.2,1418.7h4.3l5.9,15.3c1.3,3.5,2.1,6,2.4,7.5h0.2c0.2-0.8,0.7-2.3,1.3-4.3c0.7-2,2.9-8.2,6.6-18.5h4.3l-11.5,30.5
		c-1.1,3-2.5,5.1-4,6.4c-1.5,1.3-3.4,1.9-5.6,1.9c-1.2,0-2.5-0.1-3.7-0.4v-3.2c0.9,0.2,1.9,0.3,3,0.3c2.8,0,4.8-1.6,6-4.7l1.5-3.8
		L3794.2,1418.7z"/>
</g>
<g>
	<path d="M56.2,669.5c0,1.7-0.3,3.3-1,4.8c-0.6,1.4-1.6,2.6-3,3.6v0.3c1.6-0.2,3-0.3,4.4-0.3h11v4.1H28.9v-3.3l3.7-0.6v-0.2
		c-1.5-1-2.5-2.3-3.2-3.6c-0.7-1.4-1-3-1-4.8c0-3.5,1.2-6.3,3.6-8.2c2.4-1.9,5.8-2.9,10.2-2.9c4.4,0,7.8,1,10.2,2.9
		C55,663.3,56.2,666,56.2,669.5z M31.9,670.1c0,2.7,0.8,4.7,2.3,5.9s3.9,1.8,7.2,1.9h0.9c3.8,0,6.4-0.6,8.1-1.9
		c1.6-1.3,2.4-3.3,2.4-6c0-2.3-0.9-4.1-2.8-5.4c-1.9-1.3-4.5-2-7.7-2c-3.3,0-5.9,0.7-7.7,2C32.8,665.9,31.9,667.7,31.9,670.1z"/>
	<path d="M42.3,628.2c4.4,0,7.8,1.1,10.2,3.3c2.4,2.2,3.7,5.2,3.7,9.1c0,2.4-0.6,4.5-1.7,6.4s-2.7,3.3-4.8,4.3
		c-2.1,1-4.6,1.5-7.4,1.5c-4.4,0-7.8-1.1-10.2-3.3c-2.4-2.2-3.7-5.2-3.7-9.1c0-3.7,1.2-6.7,3.7-8.9C34.7,629.3,38,628.2,42.3,628.2z
		 M42.3,648.6c3.4,0,6-0.7,7.8-2.1c1.8-1.4,2.7-3.4,2.7-6c0-2.7-0.9-4.7-2.7-6c-1.8-1.4-4.4-2.1-7.8-2.1c-3.4,0-6,0.7-7.8,2.1
		c-1.8,1.4-2.6,3.4-2.6,6.1c0,2.7,0.9,4.7,2.6,6C36.2,647.9,38.8,648.6,42.3,648.6z"/>
	<path d="M52.8,612.5c0-0.7-0.1-1.4-0.2-2.1c-0.1-0.7-0.2-1.2-0.3-1.6h3.1c0.2,0.4,0.4,1.1,0.5,1.9c0.1,0.9,0.2,1.6,0.2,2.3
		c0,5.2-2.7,7.8-8.2,7.8H32.1v3.8h-2l-1.7-3.8l-5.7-1.7v-2.3h6.2V609h3.1v7.8h15.7c1.6,0,2.8-0.4,3.7-1.1
		C52.4,614.8,52.8,613.8,52.8,612.5z"/>
	<path d="M56.2,592.1c0,4-1.2,7.1-3.6,9.4c-2.4,2.3-5.8,3.4-10,3.4c-4.3,0-7.7-1.1-10.3-3.2s-3.8-5-3.8-8.6c0-3.4,1.1-6,3.3-8
		c2.2-2,5.1-2.9,8.7-2.9H43v18.4c3.1-0.1,5.5-0.9,7.2-2.4c1.6-1.5,2.4-3.6,2.4-6.4c0-2.9-0.6-5.7-1.8-8.5h3.6
		c0.6,1.4,1.1,2.8,1.3,4.1C56,588.8,56.2,590.3,56.2,592.1z M31.8,593.2c0,2.1,0.7,3.9,2.1,5.1c1.4,1.3,3.3,2,5.8,2.3v-14
		c-2.6,0-4.5,0.6-5.9,1.7C32.5,589.5,31.8,591.1,31.8,593.2z"/>
	<path d="M55.7,557.1H38.4c-2.2,0-3.8,0.5-4.9,1.5c-1.1,1-1.6,2.5-1.6,4.7c0,2.8,0.8,4.9,2.3,6.2c1.5,1.3,4,2,7.5,2h14v4.1H28.9
		v-3.3l3.7-0.7v-0.2c-1.3-0.8-2.3-2-3.1-3.5c-0.7-1.5-1.1-3.2-1.1-5c0-3.2,0.8-5.6,2.3-7.3c1.6-1.6,4-2.4,7.5-2.4h17.5V557.1z"/>
	<path d="M52.8,536.1c0-0.7-0.1-1.4-0.2-2.1c-0.1-0.7-0.2-1.2-0.3-1.6h3.1c0.2,0.4,0.4,1.1,0.5,1.9c0.1,0.9,0.2,1.6,0.2,2.3
		c0,5.2-2.7,7.8-8.2,7.8H32.1v3.8h-2l-1.7-3.8l-5.7-1.7v-2.3h6.2v-7.8h3.1v7.8h15.7c1.6,0,2.8-0.4,3.7-1.1
		C52.4,538.5,52.8,537.4,52.8,536.1z"/>
	<path d="M21.7,527.4c-0.9,0-1.6-0.2-2-0.7c-0.4-0.5-0.6-1-0.6-1.7c0-0.7,0.2-1.2,0.7-1.7c0.4-0.5,1.1-0.7,2-0.7
		c0.9,0,1.6,0.2,2,0.7c0.4,0.5,0.7,1,0.7,1.7c0,0.7-0.2,1.3-0.7,1.7C23.3,527.2,22.6,527.4,21.7,527.4z M55.7,523v4.1H28.9V523H55.7
		z"/>
	<path d="M55.7,498l-3.8,0.8v0.2c1.7,1.3,2.8,2.7,3.4,4c0.6,1.3,0.9,3,0.9,5c0,2.7-0.7,4.7-2.1,6.2c-1.4,1.5-3.3,2.3-5.8,2.3
		c-5.4,0-8.2-4.3-8.5-13l-0.1-4.5H38c-2.1,0-3.6,0.5-4.7,1.4c-1,0.9-1.5,2.3-1.5,4.3c0,2.2,0.7,4.8,2.1,7.6l-3.1,1.2
		c-0.7-1.3-1.3-2.8-1.7-4.3c-0.4-1.6-0.6-3.1-0.6-4.7c0-3.2,0.7-5.6,2.1-7.1s3.7-2.3,6.8-2.3h18.3V498z M52.8,507.1
		c0-2.5-0.7-4.5-2.1-5.9c-1.4-1.4-3.3-2.2-5.8-2.2h-2.4l0.2,4.1c0.1,3.2,0.6,5.5,1.5,7c0.9,1.4,2.3,2.1,4.1,2.1
		c1.5,0,2.6-0.4,3.3-1.3C52.4,510,52.8,508.7,52.8,507.1z"/>
	<path d="M55.7,482.6v4.1h-38v-4.1H55.7z"/>
	<path d="M32.1,448.9v6.8h23.6v4.1H32.1v4.8h-1.8l-1.5-4.8h-1.5c-6.6,0-9.9-2.9-9.9-8.6c0-1.4,0.3-3.1,0.9-5l3.2,1
		c-0.5,1.6-0.8,2.9-0.8,4c0,1.5,0.5,2.7,1.5,3.4c1,0.7,2.6,1.1,4.9,1.1h1.7v-6.8H32.1z"/>
	<path d="M42.3,420.9c4.4,0,7.8,1.1,10.2,3.3c2.4,2.2,3.7,5.2,3.7,9.1c0,2.4-0.6,4.5-1.7,6.4s-2.7,3.3-4.8,4.3
		c-2.1,1-4.6,1.5-7.4,1.5c-4.4,0-7.8-1.1-10.2-3.3c-2.4-2.2-3.7-5.2-3.7-9.1c0-3.7,1.2-6.7,3.7-8.9C34.7,422,38,420.9,42.3,420.9z
		 M42.3,441.3c3.4,0,6-0.7,7.8-2.1c1.8-1.4,2.7-3.4,2.7-6c0-2.7-0.9-4.7-2.7-6c-1.8-1.4-4.4-2.1-7.8-2.1c-3.4,0-6,0.7-7.8,2.1
		c-1.8,1.4-2.6,3.4-2.6,6.1c0,2.7,0.9,4.7,2.6,6C36.2,440.6,38.8,441.3,42.3,441.3z"/>
	<path d="M28.4,401.6c0-1.2,0.1-2.3,0.3-3.2l3.8,0.6c-0.2,1.1-0.4,2.1-0.4,2.9c0,2.2,0.9,4,2.6,5.6s3.9,2.3,6.6,2.3h14.4v4.1H28.9
		v-3.3l5-0.5v-0.2c-1.7-1-3.1-2.2-4-3.6C28.9,404.8,28.4,403.3,28.4,401.6z"/>
	<path d="M28.5,368c0-3.5,1.2-6.2,3.6-8.2c2.4-1.9,5.8-2.9,10.2-2.9s7.8,1,10.2,2.9c2.4,2,3.7,4.7,3.7,8.2c0,1.7-0.3,3.3-1,4.8
		c-0.6,1.4-1.6,2.6-3,3.6v0.3l3.4,0.9v2.9h-38v-4.1h9.2c2.1,0,3.9,0.1,5.6,0.2v-0.2C29.8,374.5,28.5,371.7,28.5,368z M31.9,368.6
		c0,2.8,0.8,4.8,2.4,6c1.6,1.2,4.3,1.8,8,1.8s6.4-0.6,8.1-1.9c1.6-1.3,2.4-3.3,2.4-6c0-2.5-0.9-4.3-2.7-5.6
		c-1.8-1.2-4.4-1.8-7.8-1.8c-3.5,0-6.1,0.6-7.8,1.8S31.9,366,31.9,368.6z"/>
	<path d="M56.2,338.5c0,4-1.2,7.1-3.6,9.4c-2.4,2.3-5.8,3.4-10,3.4c-4.3,0-7.7-1.1-10.3-3.2s-3.8-5-3.8-8.6c0-3.4,1.1-6,3.3-8
		c2.2-2,5.1-2.9,8.7-2.9H43v18.4c3.1-0.1,5.5-0.9,7.2-2.4c1.6-1.5,2.4-3.6,2.4-6.4c0-2.9-0.6-5.7-1.8-8.5h3.6
		c0.6,1.4,1.1,2.8,1.3,4.1C56,335.1,56.2,336.7,56.2,338.5z M31.8,339.6c0,2.1,0.7,3.9,2.1,5.1c1.4,1.3,3.3,2,5.8,2.3v-14
		c-2.6,0-4.5,0.6-5.9,1.7C32.5,335.8,31.8,337.5,31.8,339.6z"/>
	<path d="M52.8,313.1c0-0.7-0.1-1.4-0.2-2.1c-0.1-0.7-0.2-1.2-0.3-1.6h3.1c0.2,0.4,0.4,1.1,0.5,1.9c0.1,0.9,0.2,1.6,0.2,2.3
		c0,5.2-2.7,7.8-8.2,7.8H32.1v3.8h-2l-1.7-3.8l-5.7-1.7v-2.3h6.2v-7.8h3.1v7.8h15.7c1.6,0,2.8-0.4,3.7-1.1
		C52.4,315.5,52.8,314.4,52.8,313.1z"/>
	<path d="M52.8,295.4c0-0.7-0.1-1.4-0.2-2.1c-0.1-0.7-0.2-1.2-0.3-1.6h3.1c0.2,0.4,0.4,1.1,0.5,1.9c0.1,0.9,0.2,1.6,0.2,2.3
		c0,5.2-2.7,7.8-8.2,7.8H32.1v3.8h-2l-1.7-3.8l-5.7-1.7v-2.3h6.2V292h3.1v7.8h15.7c1.6,0,2.8-0.4,3.7-1.1
		C52.4,297.8,52.8,296.8,52.8,295.4z"/>
	<path d="M56.2,275.1c0,4-1.2,7.1-3.6,9.4c-2.4,2.3-5.8,3.4-10,3.4c-4.3,0-7.7-1.1-10.3-3.2s-3.8-5-3.8-8.6c0-3.4,1.1-6,3.3-8
		c2.2-2,5.1-2.9,8.7-2.9H43v18.4c3.1-0.1,5.5-0.9,7.2-2.4c1.6-1.5,2.4-3.6,2.4-6.4c0-2.9-0.6-5.7-1.8-8.5h3.6
		c0.6,1.4,1.1,2.8,1.3,4.1C56,271.8,56.2,273.3,56.2,275.1z M31.8,276.2c0,2.1,0.7,3.9,2.1,5.1c1.4,1.3,3.3,2,5.8,2.3v-14
		c-2.6,0-4.5,0.6-5.9,1.7C32.5,272.5,31.8,274.1,31.8,276.2z"/>
	<path d="M28.4,246.2c0-1.2,0.1-2.3,0.3-3.2l3.8,0.6c-0.2,1.1-0.4,2.1-0.4,2.9c0,2.2,0.9,4,2.6,5.6c1.8,1.5,3.9,2.3,6.6,2.3h14.4
		v4.1H28.9V255l5-0.5v-0.2c-1.7-1-3.1-2.2-4-3.6C28.9,249.4,28.4,247.9,28.4,246.2z"/>
	<path d="M52.1,206.8v0.2c2.7,1.9,4.1,4.7,4.1,8.4c0,3.5-1.2,6.2-3.6,8.2c-2.4,1.9-5.8,2.9-10.2,2.9c-4.4,0-7.8-1-10.3-2.9
		s-3.7-4.7-3.7-8.2c0-3.6,1.3-6.4,4-8.3v-0.3l-1.9,0.2l-1.9,0.1H17.7v-4.1h38v3.3L52.1,206.8z M52.8,214.9c0-2.8-0.8-4.8-2.3-6
		c-1.5-1.2-3.9-1.9-7.3-1.9h-0.9c-3.8,0-6.5,0.6-8.1,1.9c-1.6,1.3-2.4,3.3-2.4,6c0,2.4,0.9,4.2,2.8,5.5c1.8,1.3,4.5,1.9,7.8,1.9
		c3.4,0,6-0.6,7.7-1.9C51.9,219.1,52.8,217.3,52.8,214.9z"/>
	<path d="M56.2,183c0,4-1.2,7.1-3.6,9.4c-2.4,2.3-5.8,3.4-10,3.4c-4.3,0-7.7-1.1-10.3-3.2c-2.5-2.1-3.8-5-3.8-8.6c0-3.4,1.1-6,3.3-8
		c2.2-2,5.1-2.9,8.7-2.9H43v18.4c3.1-0.1,5.5-0.9,7.2-2.4c1.6-1.5,2.4-3.6,2.4-6.4c0-2.9-0.6-5.7-1.8-8.5h3.6
		c0.6,1.4,1.1,2.8,1.3,4.1C56,179.7,56.2,181.2,56.2,183z M31.8,184.1c0,2.1,0.7,3.9,2.1,5.1c1.4,1.3,3.3,2,5.8,2.3v-14
		c-2.6,0-4.5,0.6-5.9,1.7C32.5,180.4,31.8,182,31.8,184.1z"/>
	<path d="M56.2,155.6c0,3.9-1.2,6.9-3.6,9c-2.4,2.1-5.8,3.2-10.1,3.2c-4.5,0-7.9-1.1-10.4-3.2s-3.7-5.2-3.7-9.2
		c0-1.3,0.1-2.6,0.4-3.9c0.3-1.3,0.6-2.3,1-3l3.4,1.2c-0.4,0.9-0.7,1.9-0.9,2.9c-0.2,1.1-0.4,2-0.4,2.8c0,5.4,3.5,8.2,10.4,8.2
		c3.3,0,5.8-0.7,7.6-2c1.8-1.3,2.6-3.3,2.6-5.9c0-2.2-0.5-4.5-1.4-6.9h3.6C55.7,150.6,56.2,152.9,56.2,155.6z"/>
	<path d="M21.7,142.8c-0.9,0-1.6-0.2-2-0.7c-0.4-0.5-0.6-1-0.6-1.7c0-0.7,0.2-1.2,0.7-1.7s1.1-0.7,2-0.7c0.9,0,1.6,0.2,2,0.7
		c0.4,0.5,0.7,1,0.7,1.7c0,0.7-0.2,1.3-0.7,1.7C23.3,142.6,22.6,142.8,21.7,142.8z M55.7,138.4v4.1H28.9v-4.1H55.7z"/>
	<path d="M48.4,112.6c2.5,0,4.4,0.9,5.8,2.8c1.4,1.9,2,4.5,2,7.8c0,3.5-0.6,6.3-1.7,8.3h-3.8c0.7-1.3,1.2-2.7,1.5-4.1
		c0.4-1.5,0.6-2.9,0.6-4.3c0-2.1-0.3-3.7-1-4.9c-0.7-1.1-1.7-1.7-3.1-1.7c-1,0-1.9,0.5-2.7,1.4c-0.7,0.9-1.6,2.7-2.6,5.3
		c-0.9,2.5-1.7,4.3-2.4,5.3c-0.7,1.1-1.5,1.8-2.4,2.3c-0.9,0.5-1.9,0.8-3.1,0.8c-2.2,0-3.9-0.9-5.2-2.7c-1.3-1.8-1.9-4.2-1.9-7.3
		c0-2.9,0.6-5.7,1.8-8.4l3.3,1.4c-1.1,2.7-1.7,5.1-1.7,7.3c0,1.9,0.3,3.4,0.9,4.3c0.6,1,1.4,1.5,2.5,1.5c0.7,0,1.3-0.2,1.8-0.5
		c0.5-0.4,1-1,1.4-1.8c0.5-0.8,1.1-2.4,2-4.7c1.2-3.2,2.3-5.3,3.5-6.4S46.6,112.6,48.4,112.6z"/>
	<path d="M21.7,106.3c-0.9,0-1.6-0.2-2-0.7c-0.4-0.5-0.6-1-0.6-1.7c0-0.7,0.2-1.2,0.7-1.7c0.4-0.5,1.1-0.7,2-0.7
		c0.9,0,1.6,0.2,2,0.7c0.4,0.5,0.7,1,0.7,1.7c0,0.7-0.2,1.3-0.7,1.7C23.3,106.1,22.6,106.3,21.7,106.3z M55.7,101.9v4.1H28.9v-4.1
		H55.7z"/>
	<path d="M42.3,70.2c4.4,0,7.8,1.1,10.2,3.3c2.4,2.2,3.7,5.2,3.7,9.1c0,2.4-0.6,4.5-1.7,6.4s-2.7,3.3-4.8,4.3
		c-2.1,1-4.6,1.5-7.4,1.5c-4.4,0-7.8-1.1-10.2-3.3c-2.4-2.2-3.7-5.2-3.7-9.1c0-3.7,1.2-6.7,3.7-8.9C34.7,71.4,38,70.2,42.3,70.2z
		 M42.3,90.6c3.4,0,6-0.7,7.8-2.1c1.8-1.4,2.7-3.4,2.7-6s-0.9-4.7-2.7-6c-1.8-1.4-4.4-2.1-7.8-2.1c-3.4,0-6,0.7-7.8,2.1
		c-1.8,1.4-2.6,3.4-2.6,6.1c0,2.7,0.9,4.7,2.6,6C36.2,90,38.8,90.6,42.3,90.6z"/>
	<path d="M55.7,44.8H38.4c-2.2,0-3.8,0.5-4.9,1.5s-1.6,2.5-1.6,4.7c0,2.8,0.8,4.9,2.3,6.2c1.5,1.3,4,2,7.5,2h14v4.1H28.9v-3.3
		l3.7-0.7V59c-1.3-0.8-2.3-2-3.1-3.5c-0.7-1.5-1.1-3.2-1.1-5c0-3.2,0.8-5.6,2.3-7.3c1.6-1.6,4-2.4,7.5-2.4h17.5V44.8z"/>
</g>
</svg>
