<?xml version="1.0" encoding="utf-8"?>
<!-- Generator: Adobe Illustrator 16.0.0, SVG Export Plug-In . SVG Version: 6.00 Build 0)  -->
<!DOCTYPE svg PUBLIC "-//W3C//DTD SVG 1.1//EN" "http://www.w3.org/Graphics/SVG/1.1/DTD/svg11.dtd">
<svg version="1.1" id="Layer_1" xmlns="http://www.w3.org/2000/svg" xmlns:xlink="http://www.w3.org/1999/xlink" x="0px" y="0px"
	 width="2048px" height="2048px" viewBox="0 0 2048 2048" enable-background="new 0 0 2048 2048" xml:space="preserve">
<g id="Layer_x0020_1">
	<path d="M1540.85,370.282c2.689,0.043,5.18,0.1,7.412,0.171v0.003c75.914,2.207,133.326,26.781,172.233,73.7
		c38.247,46.122,57.696,113.332,58.342,201.604l0.063,0.063v8.942l-0.063,0.063c-0.029,4.571-0.104,9.021-0.221,13.352
		c-0.132,4.896-0.297,9.459-0.491,13.665v0.063c-3.506,74.209-30.746,161.449-81.765,261.74
		c-50.392,99.061-124.251,211.396-221.62,337.033l0.009,0.007c-100.841,131.353-194.195,230.028-279.992,296.021
		c-87.667,67.432-167.969,101.146-240.841,101.146c-47.527,0-91.113-21.673-130.616-65.004
		c-37.593-41.236-71.567-102.569-101.789-183.978l-0.499-1.376c-13.093-48.162-26.214-96.327-39.332-144.495
		c-25.476-93.532-50.953-187.071-79.576-292.97l0.026-0.007c-21.612-78.01-43.879-136.247-66.79-174.71
		c-20.566-34.524-40.505-51.789-59.806-51.789c-2.476,0-12.209,5.101-29.189,15.335c-18.985,11.443-44.681,28.523-77.007,51.275
		l-12.454,8.766l-9.358-12.077l-69.247-89.364l-9.177-11.844l11.239-9.906c39.596-34.895,75.437-66.738,108.081-95.981
		c32.957-29.522,68.588-61.701,106.399-96.047l0.313-0.25c49.039-42.529,92.031-75.078,129.006-97.624
		c38.296-23.354,70.778-36.283,97.479-38.768v-0.006c62.478-6.024,113.097,12.559,151.863,55.743
		c37.287,41.536,62.821,105.84,76.618,192.907v0.063c13.781,88.152,25.767,161.204,35.915,219.097
		c9.914,56.559,17.616,95.701,23.08,117.451l0.125,0.438c16.284,73.942,33.182,129.099,50.742,165.436
		c15.23,31.513,29.434,47.279,42.642,47.279c10.789,0,26.129-10.474,46.033-31.437c22.284-23.471,48.598-59.117,78.962-106.957
		l0.027,0.019c30.339-47.932,53.596-90.037,69.746-126.301c15.712-35.278,24.596-64.774,26.633-88.473l0.063-0.313
		c3.946-37.686-0.995-65.317-14.814-82.907c-13.267-16.885-35.989-25.322-68.154-25.322c-16.657,0-33.466,1.827-50.45,5.447
		c-17.299,3.685-34.79,9.181-52.502,16.448l-31.201,12.803l9.889-32.24c35.901-117.059,87.902-205.292,156.019-264.732
		c68.808-60.04,153.521-90.455,254.158-91.272l0.125-0.063h6.353l0.063,0.063C1536.078,370.222,1538.535,370.245,1540.85,370.282
		L1540.85,370.282z"/>
</g>
<rect x="0" y="0" fill="none" width="2048" height="2048"/>
</svg>
