<?xml version="1.0" encoding="utf-8"?>
<!-- Generator: Adobe Illustrator 23.0.1, SVG Export Plug-In . SVG Version: 6.00 Build 0)  -->
<svg version="1.1" id="Ebene_1" xmlns="http://www.w3.org/2000/svg" xmlns:xlink="http://www.w3.org/1999/xlink" x="0px" y="0px"
	 viewBox="0 0 754 1712" style="enable-background:new 0 0 754 1712;" xml:space="preserve">
<style type="text/css">
	.st0{fill:#282828;stroke:#000000;stroke-miterlimit:10;}
	.st1{fill:url(#SVGID_1_);stroke:#000000;stroke-linejoin:round;stroke-miterlimit:10;}
	.st2{fill:url(#SVGID_2_);stroke:#000000;stroke-linejoin:bevel;stroke-miterlimit:10;}
	.st3{fill:#898989;stroke:#000000;stroke-linejoin:round;stroke-miterlimit:10;}
	.st4{fill:#9E7E64;stroke:#000000;stroke-miterlimit:10;}
	.st5{fill:none;stroke:#000000;stroke-miterlimit:10;}
	.st6{fill:#D1AD86;stroke:#000000;stroke-linejoin:round;stroke-miterlimit:10;}
	.st7{fill:#FFFFFF;stroke:#000000;stroke-width:0.5;stroke-miterlimit:10;}
	.st8{fill:none;stroke:#000000;stroke-width:0.5;stroke-miterlimit:10;}
	.st9{fill:#0C0C28;stroke:#000000;stroke-width:0.5;stroke-miterlimit:10;}
	.st10{fill:#161638;stroke:#000000;stroke-width:0.5;stroke-miterlimit:10;}
	.st11{stroke:#000000;stroke-width:0.5;stroke-miterlimit:10;}
	.st12{fill:#C9A277;stroke:#000000;stroke-linejoin:round;stroke-miterlimit:10;}
	.st13{fill:#EEC591;stroke:#000000;stroke-linejoin:round;stroke-miterlimit:10;}
	.st14{opacity:0.6;}
	.st15{fill:#C9A277;}
	.st16{fill:#FFFFFF;stroke:#000000;stroke-linejoin:round;stroke-miterlimit:10;}
	.st17{fill:#C17829;stroke:#000000;stroke-linejoin:round;stroke-miterlimit:10;}
	.st18{fill:none;stroke:#E22385;stroke-miterlimit:10;}
	.st19{fill:#F4F4F4;stroke:#000000;stroke-miterlimit:10;}
	.st20{opacity:0.4;fill:#FFFFFF;stroke:#000000;stroke-miterlimit:10;enable-background:new    ;}
	.st21{opacity:0.93;fill:#F4F4F4;stroke:#000000;stroke-miterlimit:10;enable-background:new    ;}
	.st22{fill:#303030;stroke:#000000;stroke-miterlimit:10;}
	.st23{fill:#FFFFFF;stroke:#000000;stroke-miterlimit:10;}
	.st24{enable-background:new    ;}
	.st25{fill:#333333;}
	.st26{fill:#272727;}
	.st27{fill:#414141;}
	.st28{fill:#262626;}
	.st29{fill:#292929;}
	.st30{fill:#2C2C2C;}
	.st31{fill:#2D2D2D;}
	.st32{fill:#252525;}
</style>
<g id="KAsten">
	<polyline class="st0" points="729.6,1551.6 376.4,1407.3 376.4,1325.1 728.9,1462.9 	"/>
	
		<linearGradient id="SVGID_1_" gradientUnits="userSpaceOnUse" x1="577.9521" y1="-309.0243" x2="541.6337" y2="-214.4114" gradientTransform="matrix(1 0 0 -1 0 1320)">
		<stop  offset="0" style="stop-color:#000000"/>
		<stop  offset="0.8746" style="stop-color:#0D0D0D"/>
		<stop  offset="0.878" style="stop-color:#131313"/>
		<stop  offset="0.8985" style="stop-color:#313131"/>
		<stop  offset="0.92" style="stop-color:#484848"/>
		<stop  offset="0.9429" style="stop-color:#595959"/>
		<stop  offset="0.9682" style="stop-color:#636363"/>
		<stop  offset="1" style="stop-color:#666666"/>
	</linearGradient>
	<path class="st1" d="M728.9,1462.9L386.4,1594l-10.4,4c0,0,0,17.1,0,27.2c0,9.9-0.4,81.5-0.4,81.5L746.1,1563c0,0,1-88,1-98
		C747.1,1461.8,728.9,1462.9,728.9,1462.9z"/>
	<polyline class="st0" points="22.2,1551.6 375.3,1407.3 375.3,1325.1 22.9,1462.9 	"/>
	
		<linearGradient id="SVGID_2_" gradientUnits="userSpaceOnUse" x1="5579.4429" y1="-309.1412" x2="5543.0342" y2="-214.2942" gradientTransform="matrix(-1 0 0 -1 5753.0957 1320)">
		<stop  offset="0" style="stop-color:#000000"/>
		<stop  offset="0.8692" style="stop-color:#0D0D0D"/>
		<stop  offset="0.8728" style="stop-color:#131313"/>
		<stop  offset="0.8941" style="stop-color:#313131"/>
		<stop  offset="0.9166" style="stop-color:#484848"/>
		<stop  offset="0.9405" style="stop-color:#595959"/>
		<stop  offset="0.9668" style="stop-color:#636363"/>
		<stop  offset="1" style="stop-color:#666666"/>
	</linearGradient>
	<path class="st2" d="M23.1,1462.9L365.6,1594l10.4,4c0,0,0,17.1,0,27.2c0,9.9-0.3,81.5-0.3,81.5l-369.3-145c0,0-1.5-86.7-1.5-96.7
		C4.9,1461.8,23.1,1462.9,23.1,1462.9z"/>
	<polygon class="st3" points="746.1,1463.9 729.6,1462.8 375.7,1325.1 378.7,1322.7 	"/>
	<polygon class="st3" points="6,1463.7 22.5,1462.6 376.4,1324.9 373.4,1322.5 	"/>
</g>
<g id="Standplatte">
	<g>
		<polyline class="st4" points="20.7,1278.8 20.7,1287.5 376.4,1424.1 732,1287.5 732,1278.8 		"/>
		<line class="st5" x1="376.4" y1="1424.1" x2="376.4" y2="1415"/>
		<polygon class="st6" points="378.9,1139.5 20.7,1278.8 376.4,1415 732,1278.8 		"/>
	</g>
</g>
<g id="LEDs">
	<g>
		<polygon class="st7" points="388,1260.4 673.4,1146.9 672.4,1146.2 387.5,1259.5 		"/>
		<polygon class="st7" points="387.2,1258.7 672.8,1144.9 671.8,1144.2 386.8,1257.7 		"/>
		<polygon class="st7" points="385.8,1257.2 671.1,1143.4 670.1,1142.8 385.3,1256.3 		"/>
	</g>
	<g>
		<line class="st8" x1="643.7" y1="1158.8" x2="644.2" y2="1159.7"/>
		<line class="st8" x1="677.4" y1="1145.6" x2="676.4" y2="1144.9"/>
		<line class="st8" x1="643" y1="1157" x2="643.5" y2="1157.9"/>
		<line class="st8" x1="676.7" y1="1143.8" x2="675.7" y2="1143.1"/>
		<line class="st8" x1="641.6" y1="1155.6" x2="642.1" y2="1156.5"/>
		<line class="st8" x1="675.3" y1="1142.4" x2="674.3" y2="1141.7"/>
	</g>
	<g>
		<path class="st9" d="M370.2,1260.1c0-2.7,4-4.9,8.9-4.9s8.9,2.2,8.9,4.9s-4,4.9-8.9,4.9S370.2,1262.8,370.2,1260.1z"/>
		<path class="st10" d="M370.2,1258.7c0-2.7,4-4.9,8.9-4.9s8.9,2.2,8.9,4.9s-4,4.9-8.9,4.9S370.2,1261.4,370.2,1258.7z"/>
		<polygon class="st11" points="374.9,1258.8 379.3,1256.9 383.3,1258.9 378.8,1260.7 		"/>
		<polygon class="st11" points="374.9,1258.3 379.3,1256.4 383.3,1258.4 378.8,1260.2 		"/>
		<polygon class="st11" points="374.8,1257.9 379.2,1256 383.2,1258 378.7,1259.8 		"/>
		<path class="st5" d="M370.2,1260.1"/>
		<path class="st5" d="M370.2,1257.4"/>
		<path class="st5" d="M387.9,1260.4"/>
		<path class="st5" d="M387.9,1257.2"/>
		<polygon class="st7" points="374.8,1257.6 379.2,1255.7 383.2,1257.8 378.7,1259.5 		"/>
		<line class="st8" x1="383.6" y1="1257.7" x2="383.6" y2="1258.9"/>
		<line class="st8" x1="374.5" y1="1257.7" x2="374.5" y2="1258.8"/>
	</g>
	<g>
		<path class="st9" d="M416.2,1242.1c0-2.7,4-4.9,8.9-4.9s8.9,2.2,8.9,4.9s-4,4.9-8.9,4.9C420.2,1247.1,416.2,1244.8,416.2,1242.1z"
			/>
		<path class="st10" d="M416.2,1240.7c0-2.7,4-4.9,8.9-4.9s8.9,2.2,8.9,4.9s-4,4.9-8.9,4.9S416.2,1243.4,416.2,1240.7z"/>
		<polygon class="st11" points="420.9,1240.8 425.3,1238.9 429.3,1240.9 424.8,1242.7 		"/>
		<polygon class="st11" points="420.9,1240.3 425.3,1238.4 429.3,1240.4 424.8,1242.2 		"/>
		<polygon class="st11" points="420.8,1239.9 425.2,1238 429.2,1240 424.7,1241.8 		"/>
		<path class="st5" d="M416.2,1242.1"/>
		<path class="st5" d="M416.2,1239.4"/>
		<path class="st5" d="M433.9,1242.4"/>
		<path class="st5" d="M433.9,1239.2"/>
		<polygon class="st7" points="420.8,1239.6 425.2,1237.7 429.2,1239.8 424.7,1241.5 		"/>
		<line class="st8" x1="429.6" y1="1239.7" x2="429.6" y2="1240.9"/>
		<line class="st8" x1="420.5" y1="1239.7" x2="420.5" y2="1240.8"/>
	</g>
	<g>
		<path class="st9" d="M460.2,1224.1c0-2.7,4-4.9,8.9-4.9s8.9,2.2,8.9,4.9s-4,4.9-8.9,4.9C464.2,1229.1,460.2,1226.8,460.2,1224.1z"
			/>
		<path class="st10" d="M460.2,1222.7c0-2.7,4-4.9,8.9-4.9s8.9,2.2,8.9,4.9s-4,4.9-8.9,4.9S460.2,1225.4,460.2,1222.7z"/>
		<polygon class="st11" points="464.9,1222.8 469.3,1220.9 473.3,1222.9 468.8,1224.7 		"/>
		<polygon class="st11" points="464.9,1222.3 469.3,1220.4 473.3,1222.4 468.8,1224.2 		"/>
		<polygon class="st11" points="464.8,1221.9 469.2,1220 473.2,1222 468.7,1223.8 		"/>
		<path class="st5" d="M460.2,1224.1"/>
		<path class="st5" d="M460.2,1221.4"/>
		<path class="st5" d="M477.9,1224.4"/>
		<path class="st5" d="M477.9,1221.2"/>
		<polygon class="st7" points="464.8,1221.6 469.2,1219.7 473.2,1221.8 468.7,1223.5 		"/>
		<line class="st8" x1="473.6" y1="1221.7" x2="473.6" y2="1222.9"/>
		<line class="st8" x1="464.5" y1="1221.7" x2="464.5" y2="1222.8"/>
	</g>
	<g>
		<path class="st9" d="M502.2,1208.1c0-2.7,4-4.9,8.9-4.9s8.9,2.2,8.9,4.9s-4,4.9-8.9,4.9C506.2,1213.1,502.2,1210.8,502.2,1208.1z"
			/>
		<path class="st10" d="M502.2,1206.7c0-2.7,4-4.9,8.9-4.9s8.9,2.2,8.9,4.9s-4,4.9-8.9,4.9S502.2,1209.4,502.2,1206.7z"/>
		<polygon class="st11" points="506.9,1206.8 511.3,1204.9 515.3,1206.9 510.8,1208.7 		"/>
		<polygon class="st11" points="506.9,1206.3 511.3,1204.4 515.3,1206.4 510.8,1208.2 		"/>
		<polygon class="st11" points="506.8,1205.9 511.2,1204 515.2,1206 510.7,1207.8 		"/>
		<path class="st5" d="M502.2,1208.1"/>
		<path class="st5" d="M502.2,1205.4"/>
		<path class="st5" d="M519.9,1208.4"/>
		<path class="st5" d="M519.9,1205.2"/>
		<polygon class="st7" points="506.8,1205.6 511.2,1203.7 515.2,1205.8 510.7,1207.5 		"/>
		<line class="st8" x1="515.6" y1="1205.7" x2="515.6" y2="1206.9"/>
		<line class="st8" x1="506.5" y1="1205.7" x2="506.5" y2="1206.8"/>
	</g>
	<g>
		<path class="st9" d="M546.2,1191.1c0-2.7,4-4.9,8.9-4.9s8.9,2.2,8.9,4.9s-4,4.9-8.9,4.9C550.2,1196.1,546.2,1193.8,546.2,1191.1z"
			/>
		<path class="st10" d="M546.2,1189.7c0-2.7,4-4.9,8.9-4.9s8.9,2.2,8.9,4.9s-4,4.9-8.9,4.9S546.2,1192.4,546.2,1189.7z"/>
		<polygon class="st11" points="550.9,1189.8 555.3,1187.9 559.3,1189.9 554.8,1191.7 		"/>
		<polygon class="st11" points="550.9,1189.3 555.3,1187.4 559.3,1189.4 554.8,1191.2 		"/>
		<polygon class="st11" points="550.8,1188.9 555.2,1187 559.2,1189 554.7,1190.8 		"/>
		<path class="st5" d="M546.2,1191.1"/>
		<path class="st5" d="M546.2,1188.4"/>
		<path class="st5" d="M563.9,1191.4"/>
		<path class="st5" d="M563.9,1188.2"/>
		<polygon class="st7" points="550.8,1188.6 555.2,1186.7 559.2,1188.8 554.7,1190.5 		"/>
		<line class="st8" x1="559.6" y1="1188.7" x2="559.6" y2="1189.9"/>
		<line class="st8" x1="550.5" y1="1188.7" x2="550.5" y2="1189.8"/>
	</g>
	<g>
		<path class="st9" d="M588.2,1175.1c0-2.7,4-4.9,8.9-4.9s8.9,2.2,8.9,4.9s-4,4.9-8.9,4.9S588.2,1177.8,588.2,1175.1z"/>
		<path class="st10" d="M588.2,1173.7c0-2.7,4-4.9,8.9-4.9s8.9,2.2,8.9,4.9s-4,4.9-8.9,4.9S588.2,1176.4,588.2,1173.7z"/>
		<polygon class="st11" points="592.9,1173.8 597.3,1171.9 601.3,1173.9 596.8,1175.7 		"/>
		<polygon class="st11" points="592.9,1173.3 597.3,1171.4 601.3,1173.4 596.8,1175.2 		"/>
		<polygon class="st11" points="592.8,1172.9 597.2,1171 601.2,1173 596.7,1174.8 		"/>
		<path class="st5" d="M588.2,1175.1"/>
		<path class="st5" d="M588.2,1172.4"/>
		<path class="st5" d="M605.9,1175.4"/>
		<path class="st5" d="M605.9,1172.2"/>
		<polygon class="st7" points="592.8,1172.6 597.2,1170.7 601.2,1172.8 596.7,1174.5 		"/>
		<line class="st8" x1="601.6" y1="1172.7" x2="601.6" y2="1173.9"/>
		<line class="st8" x1="592.5" y1="1172.7" x2="592.5" y2="1173.8"/>
	</g>
	<g>
		<path class="st9" d="M629.2,1158.1c0-2.7,4-4.9,8.9-4.9s8.9,2.2,8.9,4.9s-4,4.9-8.9,4.9S629.2,1160.8,629.2,1158.1z"/>
		<path class="st10" d="M629.2,1156.7c0-2.7,4-4.9,8.9-4.9s8.9,2.2,8.9,4.9s-4,4.9-8.9,4.9S629.2,1159.4,629.2,1156.7z"/>
		<polygon class="st11" points="633.9,1156.8 638.3,1154.9 642.3,1156.9 637.8,1158.7 		"/>
		<polygon class="st11" points="633.9,1156.3 638.3,1154.4 642.3,1156.4 637.8,1158.2 		"/>
		<polygon class="st11" points="633.8,1155.9 638.2,1154 642.2,1156 637.7,1157.8 		"/>
		<path class="st5" d="M629.2,1158.1"/>
		<path class="st5" d="M629.2,1155.4"/>
		<path class="st5" d="M646.9,1158.4"/>
		<path class="st5" d="M646.9,1155.2"/>
		<polygon class="st7" points="633.8,1155.6 638.2,1153.7 642.2,1155.8 637.7,1157.5 		"/>
		<line class="st8" x1="642.6" y1="1155.7" x2="642.6" y2="1156.9"/>
		<line class="st8" x1="633.5" y1="1155.7" x2="633.5" y2="1156.8"/>
	</g>
	<g>
		<path class="st9" d="M668.2,1143.1c0-2.7,4-4.9,8.9-4.9s8.9,2.2,8.9,4.9s-4,4.9-8.9,4.9C672.2,1148.1,668.2,1145.8,668.2,1143.1z"
			/>
		<path class="st10" d="M668.2,1141.7c0-2.7,4-4.9,8.9-4.9s8.9,2.2,8.9,4.9s-4,4.9-8.9,4.9S668.2,1144.4,668.2,1141.7z"/>
		<polygon class="st11" points="672.9,1141.8 677.3,1139.9 681.3,1141.9 676.8,1143.7 		"/>
		<polygon class="st11" points="672.9,1141.3 677.3,1139.4 681.3,1141.4 676.8,1143.2 		"/>
		<polygon class="st11" points="672.8,1140.9 677.2,1139 681.2,1141 676.7,1142.8 		"/>
		<path class="st5" d="M668.2,1143.1"/>
		<path class="st5" d="M668.2,1140.4"/>
		<path class="st5" d="M685.9,1143.4"/>
		<path class="st5" d="M685.9,1140.2"/>
		<polygon class="st7" points="672.8,1140.6 677.2,1138.7 681.2,1140.8 676.7,1142.5 		"/>
		<line class="st8" x1="681.6" y1="1140.7" x2="681.6" y2="1141.9"/>
		<line class="st8" x1="672.5" y1="1140.7" x2="672.5" y2="1141.8"/>
	</g>
</g>
<g id="Abgrenzung">
	<g>
		<g>
			<path class="st12" d="M341.6,1050.2"/>
			<path class="st12" d="M307.7,1065.5"/>
			<g>
				<polygon class="st12" points="320.3,1071.2 351.1,1059.2 351.1,1005.1 320.7,1016.8 				"/>
				<polygon class="st12" points="312.3,1013.5 321,1016.8 351.4,1005.1 343.3,1001.6 				"/>
				<polygon class="st12" points="311.9,1067.9 320.3,1071.2 320.7,1016.8 311.9,1013.5 				"/>
			</g>
		</g>
		<g>
			<path class="st12" d="M387.3,1032.8"/>
			<path class="st12" d="M353.4,1048.1"/>
			<g>
				<polygon class="st12" points="365.9,1053.8 396.8,1041.8 396.8,987.7 366.4,999.4 				"/>
				<polygon class="st13" points="357.9,996.1 366.7,999.4 397.1,987.7 389,984.2 				"/>
				<polygon class="st12" points="357.6,1050.5 365.9,1053.8 366.4,999.4 357.6,996.1 				"/>
			</g>
		</g>
		<g>
			<path class="st12" d="M433,1015.4"/>
			<path class="st12" d="M399.1,1030.7"/>
			<g>
				<polygon class="st12" points="411.6,1036.4 442.5,1024.4 442.5,970.3 412.1,982 				"/>
				<polygon class="st13" points="403.6,978.7 412.3,982 442.8,970.3 434.7,966.8 				"/>
				<polygon class="st12" points="403.3,1033.1 411.6,1036.4 412.1,982 403.3,978.7 				"/>
			</g>
		</g>
		<g>
			<path class="st12" d="M477.6,998"/>
			<path class="st12" d="M443.6,1013.3"/>
			<g>
				<polygon class="st12" points="456.2,1019 487.1,1007 487.1,952.9 456.7,964.6 				"/>
				<polygon class="st13" points="448.2,961.3 456.9,964.6 487.4,952.9 479.3,949.4 				"/>
				<polygon class="st12" points="447.9,1015.7 456.2,1019 456.7,964.6 447.9,961.3 				"/>
			</g>
		</g>
		<g>
			<path class="st12" d="M521.1,981.7"/>
			<path class="st12" d="M487.2,997"/>
			<g>
				<polygon class="st12" points="499.7,1002.7 530.6,990.7 530.6,936.6 500.2,948.3 				"/>
				<polygon class="st13" points="491.7,945 500.4,948.3 530.9,936.6 522.8,933.1 				"/>
				<polygon class="st12" points="491.4,999.4 499.7,1002.7 500.2,948.3 491.4,945 				"/>
			</g>
		</g>
		<g>
			<path class="st12" d="M565.7,964.3"/>
			<path class="st12" d="M531.8,979.6"/>
			<g>
				<polygon class="st12" points="544.3,985.3 575.2,973.3 575.2,919.2 544.8,930.9 				"/>
				<polygon class="st13" points="536.3,927.6 545,930.9 575.5,919.2 567.4,915.7 				"/>
				<polygon class="st12" points="536,982 544.3,985.3 544.8,930.9 536,927.6 				"/>
			</g>
		</g>
		<g>
			<path class="st12" d="M609.2,948"/>
			<path class="st12" d="M575.3,963.3"/>
			<g>
				<polygon class="st12" points="587.8,968.9 618.7,957 618.7,902.9 588.3,914.5 				"/>
				<polygon class="st13" points="579.8,911.3 588.5,914.5 619,902.9 610.9,899.4 				"/>
				<polygon class="st12" points="579.5,965.7 587.8,968.9 588.3,914.5 579.5,911.3 				"/>
			</g>
		</g>
		<g>
			<path class="st12" d="M652.7,931.6"/>
			<path class="st12" d="M618.8,946.9"/>
			<g>
				<polygon class="st12" points="631.3,952.6 662.2,940.7 662.2,886.6 631.8,898.2 				"/>
				<polygon class="st13" points="623.4,895 632.1,898.2 662.5,886.6 654.4,883.1 				"/>
				<polygon class="st12" points="623,949.4 631.3,952.6 631.8,898.2 623,895 				"/>
			</g>
		</g>
		<polygon class="st12" points="306.5,1027.3 320.8,1021.9 312.2,1018.3 303.8,1021.3 306.5,1022.6 		"/>
		<polygon class="st12" points="351.1,1010.4 366.3,1004.7 357.3,1000.9 348.4,1004.2 351.1,1005.4 		"/>
		<polygon class="st13" points="396.8,993 411.9,987.3 403.1,983.5 394.2,986.7 396.8,988 		"/>
		<polygon class="st13" points="442.5,975.1 456.8,969.6 448.1,966.1 439.8,969.1 442.5,970.3 		"/>
		<polygon class="st13" points="487.4,958.3 500.4,953.4 492.4,950.1 485.9,952.5 487.4,953.2 		"/>
		<polygon class="st13" points="530.6,941.3 544.9,935.9 536.3,932.3 527.9,935.4 530.6,936.6 		"/>
		<polygon class="st13" points="575.5,924.1 588.7,919.2 580.4,916 573.7,918.4 575.5,919.4 		"/>
		<polygon class="st13" points="619.2,907.5 632.1,902.8 623.4,899.2 616.4,901.8 619.2,902.9 		"/>
		<g>
			<path class="st12" d="M297,1067.6"/>
			<path class="st12" d="M263.1,1082.9"/>
			<g>
				<polygon class="st12" points="275.7,1088.6 306.5,1076.6 306.5,1022.6 276.1,1034.2 				"/>
				<polygon class="st12" points="267.3,1085.3 275.7,1088.6 276.1,1034.2 267.3,1030.9 				"/>
				<polygon class="st12" points="267.7,1030.9 276.4,1034.2 306.8,1022.6 298.7,1019 				"/>
			</g>
		</g>
		<polyline class="st12" points="276.1,1039.4 275.8,1088.6 662.5,940.7 662.3,891.5 		"/>
	</g>
	<g>
		<g>
			<path class="st12" d="M385.9,1066.7"/>
			<path class="st12" d="M352,1081.9"/>
			<g>
				<polygon class="st12" points="364.8,1087.6 395.7,1075.7 395.7,1021.9 365.3,1033.5 				"/>
				<polygon class="st12" points="356.6,1030.2 365.3,1033.5 395.7,1021.9 387.6,1018.4 				"/>
				<polygon class="st12" points="356.5,1084.3 364.7,1087.6 365.2,1033.5 356.5,1030.2 				"/>
			</g>
		</g>
		<g>
			<path class="st12" d="M431.5,1049.4"/>
			<path class="st12" d="M397.6,1064.6"/>
			<g>
				<polygon class="st12" points="410.4,1070.2 441.4,1058.3 441.4,1004.6 411,1016.2 				"/>
				<polygon class="st13" points="402.2,1012.9 410.9,1016.2 441.2,1004.6 433.2,1001.1 				"/>
				<polygon class="st12" points="402.2,1067 410.3,1070.2 410.9,1016.2 402.2,1012.9 				"/>
			</g>
		</g>
		<g>
			<path class="st12" d="M477.1,1032.1"/>
			<path class="st12" d="M443.2,1047.3"/>
			<g>
				<polygon class="st12" points="455.5,1052.9 486,1041 486,987.3 455.8,998.8 				"/>
				<polygon class="st13" points="447.8,995.6 456.4,998.8 486.8,987.3 478.7,983.8 				"/>
				<polygon class="st12" points="447.9,1049.7 456,1052.9 456.5,998.8 447.9,995.6 				"/>
			</g>
		</g>
		<g>
			<path class="st12" d="M521.6,1014.8"/>
			<path class="st12" d="M487.7,1030"/>
			<g>
				<polygon class="st12" points="500,1035.6 530.6,1023.7 530.6,970 500.4,981.5 				"/>
				<polygon class="st13" points="492.3,978.3 500.9,981.5 531.3,970 523.2,966.5 				"/>
				<polygon class="st12" points="491.4,1032.4 500,1035.6 500.3,981.5 491.4,978.3 				"/>
			</g>
		</g>
		<g>
			<path class="st12" d="M565,998.5"/>
			<path class="st12" d="M531.1,1013.8"/>
			<g>
				<polygon class="st12" points="543.5,1019.4 574.1,1007.5 574.1,953.7 543.9,965.3 				"/>
				<polygon class="st13" points="535.7,962.1 544.3,965.3 574.7,953.7 566.6,950.2 				"/>
				<polygon class="st12" points="534.9,1016.2 543.4,1019.4 543.8,965.3 534.9,962.1 				"/>
			</g>
		</g>
		<g>
			<path class="st12" d="M609.5,981.2"/>
			<path class="st12" d="M575.6,996.5"/>
			<g>
				<polygon class="st12" points="588,1002.1 618.7,990.2 618.7,936.4 588.4,948 				"/>
				<polygon class="st13" points="580.1,944.8 588.8,948 619.2,936.4 611.1,932.9 				"/>
				<polygon class="st12" points="579.5,998.8 588,1002.1 588.4,948 579.5,944.8 				"/>
			</g>
		</g>
		<g>
			<path class="st12" d="M652.9,965"/>
			<path class="st12" d="M619,980.2"/>
			<g>
				<polygon class="st12" points="631.5,985.9 662.2,974 662.2,920.2 631.9,931.8 				"/>
				<polygon class="st13" points="623.6,928.5 632.2,931.8 662.6,920.2 654.5,916.7 				"/>
				<polygon class="st12" points="623,982.6 631.4,985.9 631.8,931.8 623,928.5 				"/>
			</g>
		</g>
		<g>
			<path class="st12" d="M696.3,948.8"/>
			<path class="st12" d="M662.4,964"/>
			<g>
				<polygon class="st12" points="674.9,969.6 705.7,957.7 705.7,904 675.4,915.6 				"/>
				<polygon class="st13" points="667,912.3 675.6,915.6 706,904 697.9,900.5 				"/>
				<polygon class="st12" points="666.5,966.4 674.9,969.6 675.3,915.6 666.5,912.3 				"/>
			</g>
		</g>
		<polygon class="st12" points="351.1,1043.9 365.2,1038.5 356.6,1034.9 348.3,1038 351.1,1039.2 		"/>
		<polygon class="st12" points="395.7,1027.1 410.7,1021.4 401.6,1017.7 392.8,1020.9 395.7,1022.2 		"/>
		<polygon class="st13" points="441.4,1009.8 456.2,1004.1 447.3,1000.3 438.6,1003.5 441.4,1004.8 		"/>
		<polygon class="st13" points="486,992 500.5,986.6 492,983 483.5,986 486,987.3 		"/>
		<polygon class="st13" points="531.3,975.3 544.3,970.4 536.3,967.1 529.9,969.5 531.3,970.2 		"/>
		<polygon class="st13" points="574.1,958.4 588.5,953 580,949.5 571.5,952.5 574.1,953.7 		"/>
		<polygon class="st13" points="619.2,941.3 632.3,936.5 624.1,933.3 617.4,935.6 619.2,936.6 		"/>
		<polygon class="st13" points="662.8,924.7 675.6,920 667,916.5 660,919.1 662.9,920.2 		"/>
		<g>
			<path class="st12" d="M341.4,1084"/>
			<path class="st12" d="M307.6,1099.2"/>
			<g>
				<polygon class="st12" points="320.2,1104.9 351.1,1093 351.1,1039.2 320.7,1050.8 				"/>
				<polygon class="st12" points="311.9,1101.6 320.2,1104.9 320.7,1050.8 311.9,1047.5 				"/>
				<polygon class="st12" points="312.1,1047.5 320.8,1050.8 351.2,1039.2 343.1,1035.7 				"/>
			</g>
		</g>
		<polyline class="st12" points="320.6,1056 320.3,1104.9 706,957.7 705.8,908.9 		"/>
	</g>
	<g>
		<path class="st12" d="M415.4,1049.1"/>
		<path class="st12" d="M449.3,1064.4"/>
		<g>
			<polygon class="st12" points="436.5,1070.1 405.5,1058.1 405.5,1004.1 436,1015.7 			"/>
			<polygon class="st13" points="444.7,1012.4 436,1015.7 405.6,1004.1 413.7,1000.5 			"/>
			<polygon class="st12" points="444.6,1066.8 436.5,1070.1 436,1015.7 444.6,1012.4 			"/>
		</g>
	</g>
	<g>
		<path class="st12" d="M369.7,1031.7"/>
		<path class="st12" d="M403.6,1047"/>
		<g>
			<polygon class="st12" points="390.8,1052.7 359.8,1040.7 359.8,986.7 390.3,998.3 			"/>
			<polygon class="st13" points="399.1,995 390.3,998.3 359.9,986.7 368,983.1 			"/>
			<polygon class="st12" points="398.9,1049.4 390.8,1052.7 390.3,998.3 398.9,995 			"/>
		</g>
	</g>
	<g>
		<path class="st12" d="M324,1014.3"/>
		<path class="st12" d="M357.9,1029.6"/>
		<g>
			<polygon class="st12" points="345.2,1035.3 314.1,1023.3 314.1,969.3 344.6,980.9 			"/>
			<polygon class="st13" points="353.4,977.6 344.7,980.9 314.2,969.3 322.3,965.7 			"/>
			<polygon class="st12" points="353.3,1032 345.2,1035.3 344.6,980.9 353.3,977.6 			"/>
		</g>
	</g>
	<g>
		<path class="st12" d="M279.4,996.9"/>
		<path class="st12" d="M313.4,1012.2"/>
		<g>
			<polygon class="st12" points="300.6,1017.9 269.5,1005.9 269.5,951.9 300,963.5 			"/>
			<polygon class="st13" points="308.8,960.2 300.1,963.5 269.6,951.9 277.7,948.3 			"/>
			<polygon class="st12" points="308.7,1014.6 300.6,1017.9 300,963.5 308.7,960.2 			"/>
		</g>
	</g>
	<g>
		<path class="st12" d="M235.9,980.6"/>
		<path class="st12" d="M269.8,995.9"/>
		<g>
			<polygon class="st12" points="257.1,1001.6 226,989.6 226,935.5 256.5,947.2 			"/>
			<polygon class="st13" points="265.3,943.9 256.6,947.2 226.1,935.5 234.2,932 			"/>
			<polygon class="st12" points="265.2,998.3 257.1,1001.6 256.5,947.2 265.2,943.9 			"/>
		</g>
	</g>
	<g>
		<path class="st12" d="M191.3,963.2"/>
		<path class="st12" d="M225.2,978.5"/>
		<g>
			<polygon class="st12" points="212.5,984.2 181.4,972.2 181.4,918.1 211.9,929.8 			"/>
			<polygon class="st13" points="220.7,926.5 212,929.8 181.5,918.1 189.6,914.6 			"/>
			<polygon class="st12" points="220.6,980.9 212.5,984.2 211.9,929.8 220.6,926.5 			"/>
		</g>
	</g>
	<g>
		<path class="st12" d="M147.8,946.9"/>
		<path class="st12" d="M181.7,962.2"/>
		<g>
			<polygon class="st12" points="168.9,967.8 137.9,955.9 137.9,901.8 168.4,913.5 			"/>
			<polygon class="st13" points="177.2,910.2 168.5,913.5 138,901.8 146.1,898.3 			"/>
			<polygon class="st12" points="177.1,964.6 168.9,967.8 168.4,913.5 177.1,910.2 			"/>
		</g>
	</g>
	<g>
		<path class="st12" d="M104.3,930.6"/>
		<path class="st12" d="M138.2,945.9"/>
		<g>
			<polygon class="st12" points="125.4,951.5 94.4,939.6 94.4,885.5 124.9,897.1 			"/>
			<polygon class="st13" points="133.6,893.9 124.9,897.1 94.5,885.5 102.6,882 			"/>
			<polygon class="st12" points="133.5,948.3 125.4,951.5 124.9,897.1 133.5,893.9 			"/>
		</g>
	</g>
	<polygon class="st13" points="450.1,1026.2 436,1020.8 444.7,1017.2 452.9,1020.2 450.1,1021.5 	"/>
	<polygon class="st13" points="405.5,1009.3 390.5,1003.6 399.6,999.9 408.4,1003.1 405.5,1004.4 	"/>
	<polygon class="st13" points="359.8,991.9 344.9,986.2 353.8,982.4 362.6,985.6 359.8,986.9 	"/>
	<polygon class="st13" points="314.1,974 300,968.6 308.7,965 317,968 314.1,969.3 	"/>
	<polygon class="st13" points="269.6,957.2 256.6,952.3 264.6,949 271.1,951.4 269.6,952.1 	"/>
	<polygon class="st13" points="226,940.3 211.9,934.8 220.6,931.3 228.9,934.3 226,935.5 	"/>
	<polygon class="st13" points="181.5,923 168.3,918.2 176.6,914.9 183.3,917.3 181.5,918.3 	"/>
	<polygon class="st13" points="137.8,906.4 124.9,901.7 133.6,898.1 140.6,900.7 137.8,901.8 	"/>
	<path class="st12" d="M460,1066.5"/>
	<path class="st12" d="M492,1080.3"/>
	<polyline class="st12" points="480.9,1038.4 481.2,1087.5 94.5,939.6 94.7,890.4 	"/>
	<g>
		<g>
			<path class="st12" d="M388.4,1033.9"/>
			<path class="st12" d="M354.5,1049.2"/>
			<g>
				<polygon class="st12" points="367,1054.9 380.5,1049.4 380.5,995.4 367.5,1000.5 				"/>
				<polygon class="st13" points="359,997.2 367.7,1000.5 380.8,995 372.7,991.8 				"/>
				<polygon class="st12" points="358.7,1051.6 367,1054.9 367.5,1000.5 358.7,997.2 				"/>
			</g>
		</g>
		<polygon class="st13" points="353.3,1011 367.6,1005.5 359,1002 350.6,1005 353.3,1006.2 		"/>
		<g>
			<path class="st12" d="M341.6,1052.4"/>
			<path class="st12" d="M309.9,1066.6"/>
			<g>
				<polygon class="st12" points="339.8,1065.7 353.3,1060.3 353.3,1006.2 340.3,1011.4 				"/>
				<polygon class="st12" points="331.5,1062.5 339.8,1065.7 340.3,1011.4 331.5,1008.1 				"/>
				<polygon class="st13" points="331.8,1008.1 340.5,1011.4 353.6,1006.2 345.5,1002.7 				"/>
			</g>
		</g>
		<polyline class="st12" points="340.3,1016.6 340,1065.7 380.8,1049.4 380.5,1000.3 		"/>
	</g>
	<g>
		<g>
			<path class="st12" d="M433,1050.2"/>
			<path class="st12" d="M399.1,1065.5"/>
			<g>
				<polygon class="st12" points="411.6,1071.2 425.1,1065.7 425.1,1011.7 412.1,1016.8 				"/>
				<polygon class="st13" points="403.6,1013.5 412.3,1016.8 425.4,1011.7 417,1008.4 				"/>
				<polygon class="st12" points="403.3,1067.9 411.6,1071.2 412.1,1016.8 403.3,1013.5 				"/>
			</g>
		</g>
		<polygon class="st13" points="397.9,1027.1 412.2,1021.6 403.6,1018.4 395.5,1021.4 397.9,1022.3 		"/>
		<g>
			<path class="st12" d="M386.2,1068.7"/>
			<path class="st12" d="M354.5,1082.9"/>
			<g>
				<polygon class="st12" points="384.4,1082.1 397.9,1076.6 397.9,1022.6 384.9,1027.7 				"/>
				<polygon class="st12" points="376.1,1078.8 384.4,1082.1 384.9,1027.7 376.1,1024.4 				"/>
				<polygon class="st13" points="375.6,1024.8 384.3,1028.1 398.2,1022.6 390.1,1019 				"/>
			</g>
		</g>
		<polyline class="st12" points="384.9,1032.9 384.6,1082.1 425.4,1065.7 425.1,1016.6 		"/>
	</g>
	<g>
		<path class="st12" d="M364.2,1068.7"/>
		<path class="st12" d="M398.2,1084"/>
		<g>
			<polygon class="st12" points="385.4,1089.7 354.4,1077.7 354.4,1023.6 384.8,1035.3 			"/>
			<polygon class="st13" points="393.6,1032 384.9,1035.3 354.5,1023.6 362.6,1020.1 			"/>
			<polygon class="st12" points="393.5,1086.4 385.4,1089.7 384.8,1035.3 393.5,1032 			"/>
		</g>
	</g>
	<g>
		<path class="st12" d="M318.5,1051.3"/>
		<path class="st12" d="M352.5,1066.6"/>
		<g>
			<polygon class="st12" points="339.7,1072.3 308.7,1060.3 308.7,1006.2 339.2,1017.9 			"/>
			<polygon class="st13" points="347.9,1014.6 339.2,1017.9 308.8,1006.2 316.9,1002.7 			"/>
			<polygon class="st12" points="347.8,1069 339.7,1072.3 339.2,1017.9 347.8,1014.6 			"/>
		</g>
	</g>
	<g>
		<path class="st12" d="M272.9,1033.9"/>
		<path class="st12" d="M306.8,1049.2"/>
		<g>
			<polygon class="st12" points="294,1054.9 263,1042.9 263,988.8 293.5,1000.5 			"/>
			<polygon class="st13" points="302.2,997.2 293.5,1000.5 263.1,988.8 271.2,985.3 			"/>
			<polygon class="st12" points="302.1,1051.6 294,1054.9 293.5,1000.5 302.1,997.2 			"/>
		</g>
	</g>
	<g>
		<path class="st12" d="M228.3,1016.5"/>
		<path class="st12" d="M262.2,1031.8"/>
		<g>
			<polygon class="st12" points="249.4,1037.5 218.4,1025.5 218.4,971.4 248.9,983.1 			"/>
			<polygon class="st13" points="257.6,979.8 248.9,983.1 218.5,971.4 226.6,967.9 			"/>
			<polygon class="st12" points="257.5,1034.2 249.4,1037.5 248.9,983.1 257.5,979.8 			"/>
		</g>
	</g>
	<g>
		<path class="st12" d="M184.8,1000.2"/>
		<path class="st12" d="M218.7,1015.5"/>
		<g>
			<polygon class="st12" points="205.9,1021.1 174.9,1009.2 174.9,955.1 205.4,966.8 			"/>
			<polygon class="st13" points="214.1,963.5 205.4,966.8 175,955.1 183.1,951.6 			"/>
			<polygon class="st12" points="214,1017.9 205.9,1021.1 205.4,966.8 214,963.5 			"/>
		</g>
	</g>
	<g>
		<path class="st12" d="M140.2,982.8"/>
		<path class="st12" d="M174.1,998.1"/>
		<g>
			<polygon class="st12" points="161.3,1003.7 130.3,991.8 130.3,937.7 160.8,949.4 			"/>
			<polygon class="st13" points="169.5,946.1 160.8,949.4 130.4,937.7 138.5,934.2 			"/>
			<polygon class="st12" points="169.4,1000.5 161.3,1003.7 160.8,949.4 169.4,946.1 			"/>
		</g>
	</g>
	<g>
		<path class="st12" d="M96.7,966.5"/>
		<path class="st12" d="M130.6,981.8"/>
		<g>
			<polygon class="st12" points="117.8,987.4 86.8,975.5 86.8,921.4 117.3,933 			"/>
			<polygon class="st13" points="126,929.8 117.3,933 86.9,921.4 95,917.9 			"/>
			<polygon class="st12" points="125.9,984.2 117.8,987.4 117.3,933 125.9,929.8 			"/>
		</g>
	</g>
	<g>
		<path class="st12" d="M53.1,950.1"/>
		<path class="st12" d="M87.1,965.4"/>
		<g>
			<polygon class="st12" points="74.3,971.1 43.3,959.1 43.3,905.1 73.7,916.7 			"/>
			<polygon class="st13" points="82.5,913.5 73.8,916.7 43.4,905.1 51.5,901.6 			"/>
			<polygon class="st12" points="82.4,967.8 74.3,971.1 73.7,916.7 82.4,913.5 			"/>
		</g>
	</g>
	<polygon class="st13" points="398.9,1045.8 384.9,1040.4 393.6,1036.8 401.8,1039.8 398.9,1041 	"/>
	<polygon class="st13" points="354.4,1028.5 339.3,1022.8 348.5,1019.4 357.3,1022.6 354.4,1023.9 	"/>
	<polygon class="st13" points="308.7,1011.2 293.8,1005.5 302.7,1002 311.4,1005.2 308.7,1006.5 	"/>
	<polygon class="st13" points="263,993.6 248.9,988.1 257.6,984.6 265.8,987.6 263,988.8 	"/>
	<polygon class="st13" points="218.5,976.8 205.4,971.9 213.5,968.6 219.9,971 218.5,971.7 	"/>
	<polygon class="st13" points="174.9,959.8 160.8,954.4 169.5,950.8 177.7,953.9 174.9,955.1 	"/>
	<polygon class="st13" points="130.4,942.6 117.2,937.7 125.5,934.5 132.2,936.9 130.4,937.9 	"/>
	<polygon class="st13" points="86.7,926 73.8,921.2 82.5,917.7 89.5,920.2 86.6,921.4 	"/>
	<path class="st12" d="M408.5,1084.5"/>
	<path class="st12" d="M441.8,1099.5"/>
	<polygon class="st12" points="489.2,1084.2 481.1,1087.5 480.6,1033.1 489.2,1029.8 	"/>
	<polygon class="st12" points="438.1,1103.8 430,1107.1 429.4,1052.7 438.1,1049.4 	"/>
	<polyline class="st12" points="429.8,1057.9 430.1,1107.1 43.4,959.1 43.6,910 	"/>
	<g>
		<g>
			<path class="st12" d="M360.1,1042.6"/>
			<path class="st12" d="M306.6,1065.5"/>
			<g>
				<polygon class="st12" points="319.2,1071.2 328.2,1067.9 328.2,1013.9 319.6,1016.8 				"/>
				<polygon class="st13" points="311.2,1013.5 319.9,1016.8 328.6,1013.9 320,1010.6 				"/>
				<polygon class="st12" points="310.8,1067.9 319.2,1071.2 319.6,1016.8 310.8,1013.5 				"/>
			</g>
		</g>
		<polygon class="st13" points="305.4,1027.3 319.7,1021.9 311.1,1018.3 302.7,1021.3 305.4,1022.6 		"/>
		<g>
			<path class="st12" d="M296,1067.6"/>
			<path class="st12" d="M262,1082.9"/>
			<g>
				<polygon class="st12" points="274.6,1088.6 305.4,1076.6 305.4,1022.6 275,1034.2 				"/>
				<polygon class="st12" points="266.2,1085.3 274.6,1088.6 275,1034.2 266.2,1030.9 				"/>
				<polygon class="st13" points="266.6,1030.9 275.3,1034.2 304.6,1022.6 296.8,1019.2 				"/>
			</g>
		</g>
		<polyline class="st12" points="275,1039.4 274.7,1088.6 328.6,1067.9 328.3,1018.8 		"/>
	</g>
	<g>
		<g>
			<path class="st12" d="M405.8,1060"/>
			<path class="st12" d="M352.3,1082.9"/>
			<g>
				<polygon class="st12" points="364.9,1088.6 373.9,1085.3 373.9,1031.3 365.3,1034.2 				"/>
				<polygon class="st13" points="357,1030.8 365.6,1034.1 374.3,1031.3 366.3,1028.1 				"/>
				<polygon class="st12" points="356.6,1085.3 364.9,1088.6 365.3,1034.2 357,1031.1 				"/>
			</g>
		</g>
		<polygon class="st13" points="351.1,1044.7 365.4,1039.3 356.8,1035.7 348.4,1038.7 351.1,1040 		"/>
		<g>
			<path class="st12" d="M341.6,1085"/>
			<path class="st12" d="M307.7,1100.3"/>
			<g>
				<polygon class="st12" points="320.3,1106 351.1,1094 351.1,1040 320.7,1051.6 				"/>
				<polygon class="st12" points="312,1102.7 320.3,1106 320.8,1051.6 312.4,1048.9 				"/>
				<polygon class="st13" points="312.4,1048.7 321,1051.6 351.1,1040.2 343.1,1037 				"/>
			</g>
		</g>
		<polyline class="st12" points="320.7,1056.8 320.4,1106 374.3,1085.3 374,1036.2 		"/>
	</g>
	<g class="st14">
		<polygon class="st7" points="345.7,1061.1 330.9,1055.6 718.2,908.5 734.5,914.7 		"/>
		<polygon class="st7" points="345.7,1061.1 345.7,1064.9 330.9,1059.3 330.9,1055.6 		"/>
		<polygon class="st7" points="345.7,1064.9 734.5,918.3 734.5,914.7 345.7,1061.1 		"/>
	</g>
	<polygon class="st13" points="438.2,1049.4 429.5,1052.7 399.1,1041 407.2,1037.5 	"/>
	<polygon class="st12" points="430,1107.1 398.9,1095.1 398.9,1041 429.4,1052.7 	"/>
	<polyline class="st15" points="428.1,1064.1 428.4,1106 397.6,1094.1 398.2,1045.8 	"/>
	<polygon class="st12" points="481.1,1087.5 450.1,1075.5 450.1,1021.5 480.6,1033.1 	"/>
	<polygon class="st13" points="489.3,1029.8 480.6,1033.1 450.2,1021.5 458.3,1017.9 	"/>
	<polyline class="st15" points="479.6,1044.6 479.9,1086.6 449.1,1074.7 449.3,1026.2 	"/>
</g>
<g id="Sensor">
	<polygon class="st16" points="305.2,862.7 691.4,716.8 691.4,713.3 305.2,858.9 	"/>
	<polygon class="st16" points="348,878.9 734.2,733.1 734.2,729.5 348,875.1 	"/>
	<g>
		<polygon class="st16" points="404.3,876.2 404.3,880 418.7,874.4 418.7,870.9 		"/>
		<polygon class="st16" points="404.3,880 18,734.1 18,730.6 404.3,876.2 		"/>
		<polygon class="st17" points="404.3,876.2 418.7,870.9 33.8,724.6 18,730.6 		"/>
	</g>
	<g>
		<polygon class="st17" points="446.2,858.1 460.6,852.8 75.7,706.5 59.9,712.5 		"/>
		<polygon class="st16" points="446.2,858.1 446.2,861.9 460.6,856.3 460.6,852.8 		"/>
		<polygon class="st16" points="446.2,861.9 59.9,716 59.9,712.5 446.2,858.1 		"/>
	</g>
	<path class="st18" d="M390.3,848.3"/>
	<path class="st18" d="M389.5,1031"/>
	<path class="st18" d="M404,874.2"/>
	<path class="st18" d="M402.5,1036.3"/>
	<polygon class="st17" points="348,875.1 333.5,869.8 718.4,723.5 734.2,729.5 	"/>
	<polygon class="st16" points="348,875.1 348,878.9 333.5,873.4 333.5,869.8 	"/>
	<polygon class="st16" points="348,878.9 375.1,868.8 375.1,865.3 348,875.1 	"/>
	<polygon class="st16" points="305.2,862.7 332.3,852.6 332.3,849 305.2,858.9 	"/>
	<polygon class="st16" points="394.1,861.5 420.3,851.8 420.3,848.3 389.1,859.6 	"/>
	<polygon class="st16" points="351.5,845 376.9,835.6 376.9,832.1 346.5,843.1 	"/>
	<polygon class="st17" points="305.2,858.9 290.8,853.6 675.6,707.3 691.4,713.3 	"/>
	<polygon class="st16" points="305.2,858.9 305.2,862.7 290.8,857.1 290.8,853.6 	"/>
</g>
<g id="Vivak">
	<path class="st19" d="M488.2,257.7"/>
	<g>
		<polygon class="st20" points="377.3,417.7 16.2,558.1 377.3,696.3 738.3,558.1 		"/>
		<path d="M377.3,696.7l-0.1-0.1l-362-138.5l0.9-0.3l361.2-140.4l0.1,0.1l361.9,140.7L377.3,696.7z M17.3,558.1l360,137.9l360-137.9
			l-360-140L17.3,558.1z"/>
	</g>
	<path class="st19" d="M57.6,1072.9"/>
</g>
<g id="Transparentpapier">
	<g>
		<polygon class="st21" points="376.8,211.8 15.7,352.2 311.3,465.4 376.8,490.5 444.2,464.6 737.8,352.2 		"/>
		<path class="st5" d="M307.3,463.9c23.7,3.4,49.5,4.6,69.6-11.8c0,0,25,20.9,68.5,12.1"/>
		<path class="st5" d="M307.3,463.9c44.1,8.8,69.6-5.5,69.6-5.5s25,14.6,68.5,5.8"/>
		<path class="st5" d="M307.3,463.9c44.1,8.8,69.6,0.8,69.6,0.8s25,8.3,68.5-0.5"/>
		<path class="st5" d="M307.3,463.9c44.1,8.8,69.6,7.1,69.6,7.1s25,2,68.5-6.8"/>
		<path class="st5" d="M307.3,463.9c44.1,8.8,69.6,13.4,69.6,13.4s25-4.3,68.5-13.1"/>
		<path class="st5" d="M307.3,463.9c44.1,11.3,69.6,21,69.6,21s25.6-9.3,68.5-20.7"/>
	</g>
</g>
<g id="Plexi">
	<g>
		<g>
			<g>
				<g>
					<g>
						<polyline class="st22" points="331.5,38.2 331.5,45.6 375.9,62.8 420.3,45.7 420.3,38.2 						"/>
						<line class="st5" x1="375.9" y1="62.8" x2="375.9" y2="55.1"/>
						<polygon class="st22" points="375.9,21.1 332,38.2 375.9,55 419.7,38.2 						"/>
					</g>
					<g>
						<polyline class="st23" points="375.7,55.4 375.7,62.8 420.1,80 464.5,63 464.5,55.4 						"/>
						<line class="st5" x1="420.1" y1="80" x2="420.1" y2="72.3"/>
						<polygon class="st23" points="420.1,38.4 376.2,55.4 420.1,72.2 463.9,55.4 						"/>
					</g>
					<g>
						<polyline class="st23" points="287,55.1 287,62.6 331.3,79.7 375.7,62.7 375.7,55.2 						"/>
						<line class="st5" x1="331.3" y1="79.7" x2="331.3" y2="72"/>
						<polygon class="st23" points="331.3,38.1 287.5,55.1 331.3,71.9 375.2,55.1 						"/>
					</g>
					<g>
						<polyline class="st22" points="331.5,72.3 331.5,79.7 375.9,96.9 420.3,79.9 420.3,72.3 						"/>
						<line class="st5" x1="375.9" y1="96.9" x2="375.9" y2="89.2"/>
						<polygon class="st22" points="375.9,55.2 332,72.3 375.9,89.1 419.7,72.3 						"/>
					</g>
				</g>
				<g>
					<g>
						<polyline class="st22" points="420.5,72.5 420.5,80 464.9,97.1 509.3,80.1 509.3,72.6 						"/>
						<line class="st5" x1="464.9" y1="97.1" x2="464.9" y2="89.4"/>
						<polygon class="st22" points="464.9,55.5 421,72.5 464.9,89.3 508.7,72.5 						"/>
					</g>
					<g>
						<polyline class="st23" points="464.7,89.8 464.7,97.2 509.1,114.4 553.5,97.3 553.5,89.8 						"/>
						<line class="st5" x1="509.1" y1="114.4" x2="509.1" y2="106.7"/>
						<polygon class="st23" points="509.1,72.7 465.2,89.8 509.1,106.6 552.9,89.8 						"/>
					</g>
					<g>
						<polyline class="st23" points="376,89.5 376,96.9 420.3,114.1 464.7,97 464.7,89.5 						"/>
						<line class="st5" x1="420.3" y1="114.1" x2="420.3" y2="106.4"/>
						<polygon class="st23" points="420.3,72.4 376.5,89.5 420.3,106.3 464.2,89.5 						"/>
					</g>
					<g>
						<polyline class="st22" points="420.5,106.6 420.5,114.1 464.9,131.2 509.3,114.2 509.3,106.7 						"/>
						<line class="st5" x1="464.9" y1="131.2" x2="464.9" y2="123.6"/>
						<polygon class="st22" points="464.9,89.6 421,106.6 464.9,123.4 508.7,106.6 						"/>
					</g>
				</g>
			</g>
			<g>
				<polyline class="st22" points="509.3,106.7 509.3,114.2 553.6,131.4 598,114.3 598,106.8 				"/>
				<line class="st5" x1="553.6" y1="131.4" x2="553.6" y2="123.7"/>
				<polygon class="st22" points="553.6,89.7 509.8,106.8 553.6,123.5 597.5,106.8 				"/>
			</g>
			<g>
				<polyline class="st23" points="553.5,124 553.5,131.4 597.8,148.6 642.2,131.5 642.2,124 				"/>
				<line class="st5" x1="597.8" y1="148.6" x2="597.8" y2="140.9"/>
				<polygon class="st23" points="597.8,106.9 554,124 597.8,140.8 641.7,124 				"/>
			</g>
			<g>
				<polyline class="st23" points="464.7,123.7 464.7,131.1 509.1,148.3 553.5,131.3 553.5,123.7 				"/>
				<line class="st5" x1="509.1" y1="148.3" x2="509.1" y2="140.6"/>
				<polygon class="st23" points="509.1,106.7 465.2,123.7 509.1,140.5 552.9,123.7 				"/>
			</g>
			<g>
				<polyline class="st22" points="509.3,140.9 509.3,148.3 553.6,165.5 598,148.4 598,140.9 				"/>
				<line class="st5" x1="553.6" y1="165.5" x2="553.6" y2="157.8"/>
				<polygon class="st22" points="553.6,123.8 509.8,140.9 553.6,157.7 597.5,140.9 				"/>
			</g>
			<g>
				<g>
					<polyline class="st22" points="598.3,141.1 598.3,148.5 642.6,165.7 687,148.7 687,141.1 					"/>
					<line class="st5" x1="642.6" y1="165.7" x2="642.6" y2="158"/>
					<polygon class="st22" points="642.6,124.1 598.8,141.1 642.6,157.9 686.5,141.1 					"/>
				</g>
				<g>
					<polyline class="st23" points="642.5,158.3 642.5,165.8 686.8,182.9 731.2,165.9 731.2,158.4 					"/>
					<line class="st5" x1="686.8" y1="182.9" x2="686.8" y2="175.2"/>
					<polygon class="st23" points="686.8,141.3 643,158.3 686.8,175.1 730.7,158.3 					"/>
				</g>
				<g>
					<polyline class="st23" points="553.7,158 553.7,165.5 598.1,182.7 642.5,165.6 642.5,158.1 					"/>
					<line class="st5" x1="598.1" y1="182.7" x2="598.1" y2="175"/>
					<polygon class="st23" points="598.1,141 554.3,158.1 598.1,174.9 641.9,158.1 					"/>
				</g>
				<g>
					<polyline class="st22" points="598.3,175.2 598.3,182.7 642.6,199.8 687,182.8 687,175.3 					"/>
					<line class="st5" x1="642.6" y1="199.8" x2="642.6" y2="192.1"/>
					<polygon class="st22" points="642.6,158.2 598.8,175.2 642.6,192 686.5,175.2 					"/>
				</g>
			</g>
		</g>
		<g>
			<g>
				<g>
					<g>
						<polyline class="st22" points="242.8,72.2 242.8,79.6 287.2,96.8 331.6,79.8 331.6,72.2 						"/>
						<line class="st5" x1="287.2" y1="96.8" x2="287.2" y2="89.1"/>
						<polygon class="st22" points="287.2,55.2 243.3,72.2 287.2,89 331,72.2 						"/>
					</g>
					<g>
						<polyline class="st23" points="287,89.4 287,96.9 331.4,114 375.8,97 375.8,89.5 						"/>
						<line class="st5" x1="331.4" y1="114" x2="331.4" y2="106.3"/>
						<polygon class="st23" points="331.4,72.4 287.5,89.4 331.4,106.2 375.2,89.4 						"/>
					</g>
					<g>
						<polyline class="st23" points="198.3,89.1 198.3,96.6 242.6,113.7 287,96.7 287,89.2 						"/>
						<line class="st5" x1="242.6" y1="113.7" x2="242.6" y2="106.1"/>
						<polygon class="st23" points="242.6,72.1 198.8,89.2 242.6,105.9 286.5,89.2 						"/>
					</g>
					<g>
						<polyline class="st22" points="242.8,106.3 242.8,113.8 287.2,130.9 331.6,113.9 331.6,106.4 						"/>
						<line class="st5" x1="287.2" y1="130.9" x2="287.2" y2="123.2"/>
						<polygon class="st22" points="287.2,89.3 243.3,106.3 287.2,123.1 331,106.3 						"/>
					</g>
				</g>
				<g>
					<g>
						<polyline class="st22" points="331.8,106.6 331.8,114 376.2,131.2 420.6,114.1 420.6,106.6 						"/>
						<line class="st5" x1="376.2" y1="131.2" x2="376.2" y2="123.5"/>
						<polygon class="st22" points="376.2,89.5 332.3,106.6 376.2,123.4 420,106.6 						"/>
					</g>
					<g>
						<polyline class="st23" points="376,123.8 376,131.2 420.4,148.4 464.8,131.4 464.8,123.8 						"/>
						<line class="st5" x1="420.4" y1="148.4" x2="420.4" y2="140.7"/>
						<polygon class="st23" points="420.4,106.7 376.5,123.8 420.4,140.6 464.2,123.8 						"/>
					</g>
					<g>
						<polyline class="st23" points="287.3,123.5 287.3,130.9 331.6,148.1 376,131.1 376,123.5 						"/>
						<line class="st5" x1="331.6" y1="148.1" x2="331.6" y2="140.4"/>
						<polygon class="st23" points="331.6,106.5 287.8,123.5 331.6,140.3 375.5,123.5 						"/>
					</g>
					<g>
						<polyline class="st22" points="331.8,140.7 331.8,148.1 376.2,165.3 420.6,148.2 420.6,140.7 						"/>
						<line class="st5" x1="376.2" y1="165.3" x2="376.2" y2="157.6"/>
						<polygon class="st22" points="376.2,123.6 332.3,140.7 376.2,157.5 420,140.7 						"/>
					</g>
				</g>
			</g>
			<g>
				<polyline class="st22" points="420.6,140.8 420.6,148.2 464.9,165.4 509.3,148.3 509.3,140.8 				"/>
				<line class="st5" x1="464.9" y1="165.4" x2="464.9" y2="157.7"/>
				<polygon class="st22" points="464.9,123.7 421.1,140.8 464.9,157.6 508.8,140.8 				"/>
			</g>
			<g>
				<polyline class="st23" points="464.7,158 464.7,165.4 509.1,182.6 553.5,165.6 553.5,158 				"/>
				<line class="st5" x1="509.1" y1="182.6" x2="509.1" y2="174.9"/>
				<polygon class="st23" points="509.1,141 465.3,158 509.1,174.8 553,158 				"/>
			</g>
			<g>
				<polyline class="st23" points="376,157.7 376,165.2 420.4,182.3 464.8,165.3 464.8,157.8 				"/>
				<line class="st5" x1="420.4" y1="182.3" x2="420.4" y2="174.6"/>
				<polygon class="st23" points="420.4,140.7 376.5,157.7 420.4,174.5 464.2,157.7 				"/>
			</g>
			<g>
				<polyline class="st22" points="420.6,174.9 420.6,182.3 464.9,199.5 509.3,182.5 509.3,174.9 				"/>
				<line class="st5" x1="464.9" y1="199.5" x2="464.9" y2="191.8"/>
				<polygon class="st22" points="464.9,157.8 421.1,174.9 464.9,191.7 508.8,174.9 				"/>
			</g>
			<g>
				<g>
					<polyline class="st22" points="509.6,175.1 509.6,182.6 553.9,199.7 598.3,182.7 598.3,175.2 					"/>
					<line class="st5" x1="553.9" y1="199.7" x2="553.9" y2="192.1"/>
					<polygon class="st22" points="553.9,158.1 510.1,175.1 553.9,191.9 597.8,175.1 					"/>
				</g>
				<g>
					<polyline class="st23" points="553.7,192.4 553.7,199.8 598.1,217 642.5,199.9 642.5,192.4 					"/>
					<line class="st5" x1="598.1" y1="217" x2="598.1" y2="209.3"/>
					<polygon class="st23" points="598.1,175.3 554.3,192.4 598.1,209.2 642,192.4 					"/>
				</g>
				<g>
					<polyline class="st23" points="465,192.1 465,199.5 509.4,216.7 553.8,199.7 553.8,192.1 					"/>
					<line class="st5" x1="509.4" y1="216.7" x2="509.4" y2="209"/>
					<polygon class="st23" points="509.4,175 465.5,192.1 509.4,208.9 553.2,192.1 					"/>
				</g>
				<g>
					<polyline class="st22" points="509.6,209.2 509.6,216.7 553.9,233.9 598.3,216.8 598.3,209.3 					"/>
					<line class="st5" x1="553.9" y1="233.9" x2="553.9" y2="226.2"/>
					<polygon class="st22" points="553.9,192.2 510.1,209.3 553.9,226 597.8,209.3 					"/>
				</g>
			</g>
		</g>
	</g>
	<g>
		<g>
			<g>
				<g>
					<g>
						<polyline class="st22" points="154.4,105.9 154.4,113.4 198.8,130.6 243.2,113.5 243.2,106 						"/>
						<line class="st5" x1="198.8" y1="130.6" x2="198.8" y2="122.9"/>
						<polygon class="st22" points="198.8,88.9 154.9,106 198.8,122.8 242.6,106 						"/>
					</g>
					<g>
						<polyline class="st23" points="198.6,123.2 198.6,130.6 243,147.8 287.4,130.8 287.4,123.2 						"/>
						<line class="st5" x1="243" y1="147.8" x2="243" y2="140.1"/>
						<polygon class="st23" points="243,106.1 199.1,123.2 243,140 286.8,123.2 						"/>
					</g>
					<g>
						<polyline class="st23" points="109.9,122.9 109.9,130.3 154.2,147.5 198.6,130.5 198.6,122.9 						"/>
						<line class="st5" x1="154.2" y1="147.5" x2="154.2" y2="139.8"/>
						<polygon class="st23" points="154.2,105.9 110.4,122.9 154.2,139.7 198.1,122.9 						"/>
					</g>
					<g>
						<polyline class="st22" points="154.4,140.1 154.4,147.5 198.8,164.7 243.2,147.6 243.2,140.1 						"/>
						<line class="st5" x1="198.8" y1="164.7" x2="198.8" y2="157"/>
						<polygon class="st22" points="198.8,123 154.9,140.1 198.8,156.9 242.6,140.1 						"/>
					</g>
				</g>
				<g>
					<g>
						<polyline class="st22" points="243.4,140.3 243.4,147.8 287.8,164.9 332.2,147.9 332.2,140.3 						"/>
						<line class="st5" x1="287.8" y1="164.9" x2="287.8" y2="157.2"/>
						<polygon class="st22" points="287.8,123.3 243.9,140.3 287.8,157.1 331.6,140.3 						"/>
					</g>
					<g>
						<polyline class="st23" points="287.6,157.5 287.6,165 332,182.1 376.4,165.1 376.4,157.6 						"/>
						<line class="st5" x1="332" y1="182.1" x2="332" y2="174.4"/>
						<polygon class="st23" points="332,140.5 288.1,157.5 332,174.3 375.8,157.5 						"/>
					</g>
					<g>
						<polyline class="st23" points="198.9,157.3 198.9,164.7 243.2,181.9 287.6,164.8 287.6,157.3 						"/>
						<line class="st5" x1="243.2" y1="181.9" x2="243.2" y2="174.2"/>
						<polygon class="st23" points="243.2,140.2 199.4,157.3 243.2,174.1 287.1,157.3 						"/>
					</g>
					<g>
						<polyline class="st22" points="243.4,174.4 243.4,181.9 287.8,199 332.2,182 332.2,174.5 						"/>
						<line class="st5" x1="287.8" y1="199" x2="287.8" y2="191.3"/>
						<polygon class="st22" points="287.8,157.4 243.9,174.4 287.8,191.2 331.6,174.4 						"/>
					</g>
				</g>
			</g>
			<g>
				<polyline class="st22" points="332.1,174.5 332.1,182 376.5,199.1 420.9,182.1 420.9,174.6 				"/>
				<line class="st5" x1="376.5" y1="199.1" x2="376.5" y2="191.4"/>
				<polygon class="st22" points="376.5,157.5 332.7,174.5 376.5,191.3 420.4,174.5 				"/>
			</g>
			<g>
				<polyline class="st23" points="376.3,191.8 376.3,199.2 420.7,216.4 465.1,199.3 465.1,191.8 				"/>
				<line class="st5" x1="420.7" y1="216.4" x2="420.7" y2="208.7"/>
				<polygon class="st23" points="420.7,174.7 376.9,191.8 420.7,208.6 464.6,191.8 				"/>
			</g>
			<g>
				<polyline class="st23" points="287.6,191.5 287.6,198.9 332,216.1 376.4,199 376.4,191.5 				"/>
				<line class="st5" x1="332" y1="216.1" x2="332" y2="208.4"/>
				<polygon class="st23" points="332,174.4 288.1,191.5 332,208.3 375.8,191.5 				"/>
			</g>
			<g>
				<polyline class="st22" points="332.1,208.6 332.1,216.1 376.5,233.2 420.9,216.2 420.9,208.7 				"/>
				<line class="st5" x1="376.5" y1="233.2" x2="376.5" y2="225.6"/>
				<polygon class="st22" points="376.5,191.6 332.7,208.6 376.5,225.4 420.4,208.6 				"/>
			</g>
			<g>
				<g>
					<polyline class="st22" points="421.1,208.9 421.1,216.3 465.5,233.5 509.9,216.5 509.9,208.9 					"/>
					<line class="st5" x1="465.5" y1="233.5" x2="465.5" y2="225.8"/>
					<polygon class="st22" points="465.5,191.8 421.7,208.9 465.5,225.7 509.4,208.9 					"/>
				</g>
				<g>
					<polyline class="st23" points="465.3,226.1 465.3,233.6 509.7,250.7 554.1,233.7 554.1,226.2 					"/>
					<line class="st5" x1="509.7" y1="250.7" x2="509.7" y2="243"/>
					<polygon class="st23" points="509.7,209.1 465.9,226.1 509.7,242.9 553.6,226.1 					"/>
				</g>
				<g>
					<polyline class="st23" points="376.6,225.8 376.6,233.3 421,250.4 465.4,233.4 465.4,225.9 					"/>
					<line class="st5" x1="421" y1="250.4" x2="421" y2="242.7"/>
					<polygon class="st23" points="421,208.8 377.1,225.8 421,242.6 464.8,225.8 					"/>
				</g>
				<g>
					<polyline class="st22" points="421.1,243 421.1,250.4 465.5,267.6 509.9,250.6 509.9,243 					"/>
					<line class="st5" x1="465.5" y1="267.6" x2="465.5" y2="259.9"/>
					<polygon class="st22" points="465.5,226 421.7,243 465.5,259.8 509.4,243 					"/>
				</g>
			</g>
		</g>
		<g>
			<g>
				<g>
					<g>
						<polyline class="st22" points="65.7,140 65.7,147.4 110.1,164.6 154.5,147.6 154.5,140 						"/>
						<line class="st5" x1="110.1" y1="164.6" x2="110.1" y2="156.9"/>
						<polygon class="st22" points="110.1,122.9 66.2,140 110.1,156.8 153.9,140 						"/>
					</g>
					<g>
						<polyline class="st23" points="109.9,157.2 109.9,164.7 154.3,181.8 198.7,164.8 198.7,157.2 						"/>
						<line class="st5" x1="154.3" y1="181.8" x2="154.3" y2="174.1"/>
						<polygon class="st23" points="154.3,140.2 110.4,157.2 154.3,174 198.1,157.2 						"/>
					</g>
					<g>
						<polyline class="st23" points="21.1,156.9 21.1,164.4 65.5,181.5 109.9,164.5 109.9,157 						"/>
						<line class="st5" x1="65.5" y1="181.5" x2="65.5" y2="173.8"/>
						<polygon class="st23" points="65.5,139.9 21.7,156.9 65.5,173.7 109.4,156.9 						"/>
					</g>
					<g>
						<polyline class="st22" points="65.7,174.1 65.7,181.5 110.1,198.7 154.5,181.7 154.5,174.1 						"/>
						<line class="st5" x1="110.1" y1="198.7" x2="110.1" y2="191"/>
						<polygon class="st22" points="110.1,157.1 66.2,174.1 110.1,190.9 153.9,174.1 						"/>
					</g>
				</g>
				<g>
					<g>
						<polyline class="st22" points="154.7,174.3 154.7,181.8 199.1,198.9 243.5,181.9 243.5,174.4 						"/>
						<line class="st5" x1="199.1" y1="198.9" x2="199.1" y2="191.3"/>
						<polygon class="st22" points="199.1,157.3 155.2,174.3 199.1,191.1 242.9,174.3 						"/>
					</g>
					<g>
						<polyline class="st23" points="198.9,191.6 198.9,199 243.3,216.2 287.7,199.1 287.7,191.6 						"/>
						<line class="st5" x1="243.3" y1="216.2" x2="243.3" y2="208.5"/>
						<polygon class="st23" points="243.3,174.5 199.4,191.6 243.3,208.4 287.1,191.6 						"/>
					</g>
					<g>
						<polyline class="st23" points="110.1,191.3 110.1,198.7 154.5,215.9 198.9,198.9 198.9,191.3 						"/>
						<line class="st5" x1="154.5" y1="215.9" x2="154.5" y2="208.2"/>
						<polygon class="st23" points="154.5,174.2 110.7,191.3 154.5,208.1 198.4,191.3 						"/>
					</g>
					<g>
						<polyline class="st22" points="154.7,208.4 154.7,215.9 199.1,233.1 243.5,216 243.5,208.5 						"/>
						<line class="st5" x1="199.1" y1="233.1" x2="199.1" y2="225.4"/>
						<polygon class="st22" points="199.1,191.4 155.2,208.5 199.1,225.3 242.9,208.5 						"/>
					</g>
				</g>
			</g>
			<g>
				<polyline class="st22" points="243.4,208.6 243.4,216 287.8,233.2 332.2,216.1 332.2,208.6 				"/>
				<line class="st5" x1="287.8" y1="233.2" x2="287.8" y2="225.5"/>
				<polygon class="st22" points="287.8,191.5 244,208.6 287.8,225.4 331.7,208.6 				"/>
			</g>
			<g>
				<polyline class="st23" points="287.6,225.8 287.6,233.2 332,250.4 376.4,233.4 376.4,225.8 				"/>
				<line class="st5" x1="332" y1="250.4" x2="332" y2="242.7"/>
				<polygon class="st23" points="332,208.7 288.2,225.8 332,242.6 375.9,225.8 				"/>
			</g>
			<g>
				<polyline class="st23" points="198.9,225.5 198.9,232.9 243.3,250.1 287.7,233.1 287.7,225.5 				"/>
				<line class="st5" x1="243.3" y1="250.1" x2="243.3" y2="242.4"/>
				<polygon class="st23" points="243.3,208.5 199.4,225.5 243.3,242.3 287.1,225.5 				"/>
			</g>
			<g>
				<polyline class="st22" points="243.4,242.7 243.4,250.1 287.8,267.3 332.2,250.2 332.2,242.7 				"/>
				<line class="st5" x1="287.8" y1="267.3" x2="287.8" y2="259.6"/>
				<polygon class="st22" points="287.8,225.6 244,242.7 287.8,259.5 331.7,242.7 				"/>
			</g>
			<g>
				<g>
					<polyline class="st22" points="332.4,242.9 332.4,250.4 376.8,267.5 421.2,250.5 421.2,243 					"/>
					<line class="st5" x1="376.8" y1="267.5" x2="376.8" y2="259.8"/>
					<polygon class="st22" points="376.8,225.9 333,242.9 376.8,259.7 420.7,242.9 					"/>
				</g>
				<g>
					<polyline class="st23" points="376.6,260.1 376.6,267.6 421,284.7 465.4,267.7 465.4,260.2 					"/>
					<line class="st5" x1="421" y1="284.7" x2="421" y2="277.1"/>
					<polygon class="st23" points="421,243.1 377.2,260.1 421,276.9 464.9,260.1 					"/>
				</g>
				<g>
					<polyline class="st23" points="287.9,259.9 287.9,267.3 332.3,284.5 376.7,267.4 376.7,259.9 					"/>
					<line class="st5" x1="332.3" y1="284.5" x2="332.3" y2="276.8"/>
					<polygon class="st23" points="332.3,242.8 288.4,259.9 332.3,276.7 376.1,259.9 					"/>
				</g>
				<g>
					<polyline class="st22" points="332.4,277 332.4,284.5 376.8,301.6 421.2,284.6 421.2,277.1 					"/>
					<line class="st5" x1="376.8" y1="301.6" x2="376.8" y2="293.9"/>
					<polygon class="st22" points="376.8,260 333,277 376.8,293.8 420.7,277 					"/>
				</g>
			</g>
		</g>
	</g>
</g>
<g id="Figur">
	<g>
		<g>
			<g class="st24">
				<g>
					<polygon class="st25" points="422.5,61.9 400,54.2 416.6,48.2 439.1,55.9 					"/>
				</g>
				<g>
					<polygon class="st26" points="422.6,63.5 400,55.8 400,54.2 422.5,61.9 					"/>
				</g>
				<g>
					<polygon class="st27" points="422.5,61.9 439.1,55.9 439.2,57.5 422.6,63.5 					"/>
				</g>
			</g>
		</g>
	</g>
	<g>
		<g>
			<g class="st24">
				<g>
					<polygon class="st26" points="436.8,54.1 417,47.3 416.9,43.9 436.7,50.7 					"/>
				</g>
				<g>
					<polygon class="st25" points="423.2,58.9 403.5,52.1 417,47.3 436.8,54.1 					"/>
				</g>
				<g>
					<polygon class="st26" points="422.1,60.8 402.4,54.1 402.2,47.6 421.9,54.3 					"/>
				</g>
				<g>
					<polygon class="st25" points="421.9,54.3 402.2,47.6 418,42 437.8,48.8 					"/>
				</g>
				<g>
					<path class="st27" d="M421.9,54.3l15.8-5.6l0.2,6.4l-15.3,5.4l-0.6,0.2L421.9,54.3z M436.8,54.1l-0.1-3.4l-13.5,4.8l0.1,3.4
						L436.8,54.1"/>
				</g>
			</g>
		</g>
	</g>
	<g>
		<g>
			<g class="st24">
				<g>
					<polygon class="st25" points="418.7,49.8 410.2,46.9 422.7,42.8 431.2,45.7 					"/>
				</g>
				<g>
					<polygon class="st26" points="418.7,51.3 410.3,48.4 410.2,46.9 418.7,49.8 					"/>
				</g>
				<g>
					<polygon class="st27" points="418.7,49.8 431.2,45.7 431.2,47.3 418.7,51.3 					"/>
				</g>
			</g>
		</g>
	</g>
	<g>
		<g>
			<g class="st24">
				<g>
					<polygon class="st28" points="429.1,43.8 420.7,40.9 418.7,27.2 427.1,30.1 					"/>
				</g>
				<g>
					<polygon class="st25" points="420.7,46.5 412.2,43.6 420.7,40.9 429.1,43.8 					"/>
				</g>
				<g>
					<polygon class="st29" points="419.3,48.5 410.9,45.6 412.8,27.5 421.3,30.4 					"/>
				</g>
				<g>
					<polygon class="st25" points="421.3,30.4 412.8,27.5 419.6,25.4 428.1,28.3 					"/>
				</g>
				<g>
					<path class="st27" d="M421.3,30.4l6.8-2.1l2.4,16.6L420,48.3l-0.7,0.2L421.3,30.4z M429.1,43.8l-2-13.7l-4.9,1.5l-1.6,14.9
						L429.1,43.8"/>
				</g>
			</g>
		</g>
	</g>
	<g>
		<g>
			<g class="st24">
				<g>
					<polygon class="st25" points="420.1,27.6 411.6,24.7 420.4,21.8 428.8,24.7 					"/>
				</g>
				<g>
					<polygon class="st26" points="420.1,29.1 411.6,26.2 411.6,24.7 420.1,27.6 					"/>
				</g>
				<g>
					<polygon class="st27" points="420.1,27.6 428.8,24.7 428.9,26.2 420.1,29.1 					"/>
				</g>
			</g>
		</g>
	</g>
	<g>
		<g>
			<g class="st24">
				<g>
					<polygon class="st30" points="427,22.4 418.5,19.5 420.1,15 428.5,17.9 					"/>
				</g>
				<g>
					<polygon class="st31" points="424.9,17.9 416.4,15 417.6,11.9 426.1,14.8 					"/>
				</g>
				<g>
					<polygon class="st32" points="425.8,18.4 417.4,15.5 416.4,15 424.9,17.9 					"/>
				</g>
				<g>
					<polygon class="st25" points="422.1,24 413.7,21.1 418.5,19.5 427,22.4 					"/>
				</g>
				<g>
					<polygon class="st32" points="426.1,14.8 417.6,11.9 415.8,9 424.2,11.9 					"/>
				</g>
				<g>
					<polygon class="st32" points="421.5,25.7 413.1,22.8 410.7,18.5 419.2,21.4 					"/>
				</g>
				<g>
					<polygon class="st31" points="419.2,21.4 410.7,18.5 415.7,6.3 424.2,9.2 					"/>
				</g>
				<g>
					<polygon class="st27" points="424.2,9.2 427.5,14.4 425.8,18.4 424.9,17.9 426.1,14.8 424.2,11.9 420.5,21 422.1,24 427,22.4 
						428.5,17.9 429.6,18.4 427.7,23.7 421.5,25.7 419.2,21.4 					"/>
				</g>
			</g>
		</g>
	</g>
</g>
<g id="Text">
	<g>
		<path d="M637.3,233.7l-1.2-3.2h-4l-1.2,3.2h-1.2l4-10h1l3.9,10H637.3z M635.7,229.5l-1.2-3.1c-0.2-0.4-0.3-0.9-0.5-1.4
			c-0.1,0.4-0.2,0.9-0.4,1.4l-1.2,3.1H635.7z"/>
		<path d="M642.7,233.9c-1.1,0-1.9-0.3-2.5-1s-0.9-1.6-0.9-2.8c0-1.3,0.3-2.2,0.9-2.9c0.6-0.7,1.5-1,2.6-1c0.4,0,0.7,0,1.1,0.1
			s0.6,0.2,0.8,0.3l-0.3,1c-0.3-0.1-0.5-0.2-0.8-0.3s-0.6-0.1-0.8-0.1c-1.5,0-2.3,1-2.3,2.9c0,0.9,0.2,1.6,0.6,2.1
			c0.4,0.5,0.9,0.7,1.7,0.7c0.6,0,1.3-0.1,1.9-0.4v1C644.1,233.7,643.5,233.9,642.7,233.9z"/>
		<path d="M649.8,226.1c0.3,0,0.6,0,0.9,0.1l-0.2,1.1c-0.3-0.1-0.6-0.1-0.8-0.1c-0.6,0-1.1,0.2-1.6,0.7c-0.4,0.5-0.6,1.1-0.6,1.8v4
			h-1.1v-7.5h0.9l0.1,1.4h0.1c0.3-0.5,0.6-0.9,1-1.1S649.3,226.1,649.8,226.1z"/>
		<path d="M650.9,226.2h1.2l1.6,4.3c0.4,1,0.6,1.7,0.7,2.1h0.1c0.1-0.2,0.2-0.6,0.4-1.2c0.2-0.6,0.8-2.3,1.9-5.2h1.2l-3.2,8.5
			c-0.3,0.8-0.7,1.4-1.1,1.8c-0.4,0.4-0.9,0.5-1.6,0.5c-0.3,0-0.7,0-1-0.1V236c0.3,0.1,0.5,0.1,0.8,0.1c0.8,0,1.3-0.4,1.7-1.3
			l0.4-1.1L650.9,226.2z"/>
		<path d="M660.3,233.7h-1.1v-10.6h1.1V233.7z"/>
		<path d="M668.8,226.2v0.7l-1.4,0.2c0.1,0.2,0.2,0.4,0.3,0.6c0.1,0.3,0.2,0.5,0.2,0.9c0,0.7-0.3,1.3-0.8,1.8s-1.2,0.7-2.1,0.7
			c-0.2,0-0.4,0-0.6-0.1c-0.5,0.3-0.7,0.6-0.7,1c0,0.2,0.1,0.4,0.3,0.5s0.5,0.1,0.9,0.1h1.3c0.8,0,1.4,0.2,1.9,0.5
			c0.4,0.3,0.7,0.8,0.7,1.5c0,0.8-0.3,1.5-1,1.9s-1.6,0.7-2.9,0.7c-1,0-1.7-0.2-2.3-0.5c-0.5-0.4-0.8-0.9-0.8-1.5
			c0-0.5,0.1-0.8,0.4-1.2s0.7-0.6,1.2-0.7c-0.2-0.1-0.4-0.2-0.5-0.4s-0.2-0.4-0.2-0.6c0-0.3,0.1-0.5,0.2-0.7s0.4-0.4,0.7-0.6
			c-0.4-0.2-0.7-0.4-0.9-0.8c-0.2-0.4-0.4-0.8-0.4-1.3c0-0.8,0.2-1.5,0.7-1.9s1.2-0.7,2.1-0.7c0.4,0,0.7,0,1.1,0.1h2.6V226.2z
			 M662.8,235c0,0.4,0.2,0.7,0.5,0.9s0.8,0.3,1.5,0.3c1,0,1.7-0.1,2.1-0.4c0.5-0.3,0.7-0.7,0.7-1.2c0-0.4-0.1-0.7-0.4-0.8
			c-0.3-0.2-0.7-0.2-1.4-0.2h-1.4c-0.5,0-0.9,0.1-1.2,0.4S662.8,234.5,662.8,235z M663.5,228.6c0,0.5,0.1,0.9,0.4,1.2
			s0.7,0.4,1.2,0.4c1.1,0,1.7-0.5,1.7-1.6s-0.6-1.7-1.7-1.7c-0.5,0-0.9,0.1-1.2,0.4S663.5,228.1,663.5,228.6z"/>
		<path d="M671.5,233.7h-1.1v-10.6h1.1V233.7z"/>
		<path d="M678.5,233.7l-0.2-1.1h-0.1c-0.4,0.5-0.7,0.8-1.1,1c-0.4,0.2-0.8,0.3-1.4,0.3c-0.7,0-1.3-0.2-1.7-0.6
			c-0.4-0.4-0.6-0.9-0.6-1.6c0-1.5,1.2-2.3,3.6-2.4h1.3v-0.5c0-0.6-0.1-1-0.4-1.3c-0.3-0.3-0.7-0.4-1.2-0.4c-0.6,0-1.3,0.2-2.1,0.6
			l-0.3-0.9c0.4-0.2,0.8-0.4,1.2-0.5s0.9-0.2,1.3-0.2c0.9,0,1.6,0.2,2,0.6c0.4,0.4,0.6,1,0.6,1.9v5.1L678.5,233.7L678.5,233.7z
			 M675.9,232.9c0.7,0,1.3-0.2,1.7-0.6c0.4-0.4,0.6-0.9,0.6-1.6V230h-1.1c-0.9,0-1.6,0.2-2,0.4s-0.6,0.6-0.6,1.2
			c0,0.4,0.1,0.7,0.4,0.9C675.1,232.8,675.5,232.9,675.9,232.9z"/>
		<path d="M686.5,231.7c0,0.7-0.3,1.2-0.8,1.6s-1.2,0.6-2.2,0.6s-1.8-0.2-2.3-0.5v-1.1c0.4,0.2,0.7,0.3,1.2,0.4
			c0.4,0.1,0.8,0.2,1.2,0.2c0.6,0,1-0.1,1.4-0.3c0.3-0.2,0.5-0.5,0.5-0.9c0-0.3-0.1-0.5-0.4-0.7c-0.3-0.2-0.7-0.5-1.5-0.7
			c-0.7-0.3-1.2-0.5-1.5-0.7s-0.5-0.4-0.7-0.7c-0.1-0.2-0.2-0.5-0.2-0.9c0-0.6,0.2-1.1,0.7-1.4c0.5-0.4,1.2-0.5,2-0.5
			s1.6,0.2,2.4,0.5l-0.4,0.9c-0.8-0.3-1.4-0.5-2-0.5c-0.5,0-0.9,0.1-1.2,0.3s-0.4,0.4-0.4,0.7c0,0.2,0.1,0.4,0.2,0.5
			c0.1,0.1,0.3,0.3,0.5,0.4s0.7,0.3,1.3,0.6c0.9,0.3,1.5,0.6,1.8,1C686.4,230.8,686.5,231.2,686.5,231.7z"/>
		<path d="M693.3,233.7h-1.2v-10h5.6v1h-4.4v3.7h4.1v1h-4.1L693.3,233.7L693.3,233.7z"/>
		<path d="M702.4,233.9c-1.1,0-2-0.3-2.6-1s-1-1.6-1-2.8s0.3-2.2,0.9-2.9c0.6-0.7,1.4-1.1,2.4-1.1c0.9,0,1.7,0.3,2.2,0.9
			c0.5,0.6,0.8,1.4,0.8,2.4v0.7H700c0,0.9,0.2,1.5,0.7,2c0.4,0.5,1,0.7,1.8,0.7s1.6-0.2,2.4-0.5v1c-0.4,0.2-0.8,0.3-1.1,0.4
			C703.3,233.8,702.9,233.9,702.4,233.9z M702.1,227.1c-0.6,0-1.1,0.2-1.4,0.6c-0.4,0.4-0.6,0.9-0.6,1.6h3.9c0-0.7-0.2-1.3-0.5-1.6
			C703.1,227.3,702.7,227.1,702.1,227.1z"/>
		<path d="M708.2,233.7h-1.1v-10.6h1.1V233.7z"/>
		<path d="M715.7,232.7L715.7,232.7c-0.6,0.8-1.4,1.1-2.4,1.1s-1.7-0.3-2.3-1c-0.5-0.7-0.8-1.6-0.8-2.9s0.3-2.2,0.8-2.9s1.3-1,2.3-1
			s1.8,0.4,2.3,1.1h0.1v-0.5v-0.5v-3h1.1v10.6h-0.9L715.7,232.7z M713.5,232.9c0.8,0,1.3-0.2,1.7-0.6c0.3-0.4,0.5-1.1,0.5-2V230
			c0-1.1-0.2-1.8-0.5-2.3c-0.4-0.5-0.9-0.7-1.7-0.7c-0.7,0-1.2,0.3-1.5,0.8c-0.4,0.5-0.5,1.2-0.5,2.2s0.2,1.7,0.5,2.2
			S712.8,232.9,713.5,232.9z"/>
		<path d="M722.4,233.9c-1.1,0-2-0.3-2.6-1s-1-1.6-1-2.8s0.3-2.2,0.9-2.9c0.6-0.7,1.4-1.1,2.4-1.1c0.9,0,1.7,0.3,2.2,0.9
			c0.5,0.6,0.8,1.4,0.8,2.4v0.7H720c0,0.9,0.2,1.5,0.7,2c0.4,0.5,1,0.7,1.8,0.7s1.6-0.2,2.4-0.5v1c-0.4,0.2-0.8,0.3-1.1,0.4
			C723.3,233.8,722.9,233.9,722.4,233.9z M722.1,227.1c-0.6,0-1.1,0.2-1.4,0.6c-0.4,0.4-0.6,0.9-0.6,1.6h3.9c0-0.7-0.2-1.3-0.5-1.6
			C723.1,227.3,722.7,227.1,722.1,227.1z"/>
		<path d="M730.5,226.1c0.3,0,0.6,0,0.9,0.1l-0.2,1.1c-0.3-0.1-0.6-0.1-0.8-0.1c-0.6,0-1.1,0.2-1.6,0.7c-0.4,0.5-0.6,1.1-0.6,1.8v4
			h-1.1v-7.5h0.9l0.1,1.4h0.1c0.3-0.5,0.6-0.9,1-1.1S730,226.1,730.5,226.1z"/>
	</g>
	<g>
		<path d="M619.6,417h-1.2v-9h-3.2v-1h7.5v1h-3.2v9H619.6z"/>
		<path d="M627.5,409.4c0.3,0,0.6,0,0.9,0.1l-0.2,1.1c-0.3-0.1-0.6-0.1-0.8-0.1c-0.6,0-1.1,0.2-1.6,0.7c-0.4,0.5-0.6,1.1-0.6,1.8v4
			h-1.1v-7.5h0.9l0.1,1.4h0.1c0.3-0.5,0.6-0.9,1-1.1S627.1,409.4,627.5,409.4z"/>
		<path d="M634.4,417l-0.2-1.1h-0.1c-0.4,0.5-0.7,0.8-1.1,1c-0.4,0.2-0.8,0.3-1.4,0.3c-0.7,0-1.3-0.2-1.7-0.6
			c-0.4-0.4-0.6-0.9-0.6-1.6c0-1.5,1.2-2.3,3.6-2.4h1.3V412c0-0.6-0.1-1-0.4-1.3c-0.3-0.3-0.7-0.4-1.2-0.4c-0.6,0-1.3,0.2-2.1,0.6
			l-0.3-0.9c0.4-0.2,0.8-0.4,1.2-0.5s0.9-0.2,1.3-0.2c0.9,0,1.6,0.2,2,0.6c0.4,0.4,0.6,1,0.6,1.9v5.1h-0.9V417z M631.9,416.2
			c0.7,0,1.3-0.2,1.7-0.6c0.4-0.4,0.6-0.9,0.6-1.6v-0.7h-1.1c-0.9,0-1.6,0.2-2,0.4s-0.6,0.6-0.6,1.2c0,0.4,0.1,0.7,0.4,0.9
			C631.1,416.1,631.4,416.2,631.9,416.2z"/>
		<path d="M642.8,417v-4.8c0-0.6-0.1-1.1-0.4-1.4s-0.7-0.5-1.3-0.5c-0.8,0-1.4,0.2-1.7,0.6s-0.5,1.1-0.5,2.1v3.9h-1.1v-7.5h0.9
			l0.2,1h0.1c0.2-0.4,0.6-0.7,1-0.9s0.9-0.3,1.4-0.3c0.9,0,1.6,0.2,2,0.7c0.5,0.4,0.7,1.1,0.7,2.1v4.9h-1.3V417z"/>
		<path d="M651.1,415c0,0.7-0.3,1.2-0.8,1.6s-1.2,0.6-2.2,0.6s-1.8-0.2-2.3-0.5v-1.1c0.4,0.2,0.7,0.3,1.2,0.4
			c0.4,0.1,0.8,0.2,1.2,0.2c0.6,0,1-0.1,1.4-0.3c0.3-0.2,0.5-0.5,0.5-0.9c0-0.3-0.1-0.5-0.4-0.7c-0.3-0.2-0.7-0.5-1.5-0.7
			c-0.7-0.3-1.2-0.5-1.5-0.7s-0.5-0.4-0.7-0.7c-0.1-0.2-0.2-0.5-0.2-0.9c0-0.6,0.2-1.1,0.7-1.4c0.5-0.4,1.2-0.5,2-0.5
			s1.6,0.2,2.4,0.5l-0.4,0.9c-0.8-0.3-1.4-0.5-2-0.5c-0.5,0-0.9,0.1-1.2,0.3s-0.4,0.4-0.4,0.7c0,0.2,0.1,0.4,0.2,0.5
			c0.1,0.1,0.3,0.3,0.5,0.4s0.7,0.3,1.3,0.6c0.9,0.3,1.5,0.6,1.8,1C650.9,414,651.1,414.5,651.1,415z"/>
		<path d="M656.4,417.1c-0.5,0-0.9-0.1-1.3-0.3c-0.4-0.2-0.7-0.5-1-0.8H654c0.1,0.4,0.1,0.9,0.1,1.2v3.1H653v-10.9h0.9l0.2,1h0.1
			c0.3-0.4,0.6-0.7,1-0.9s0.8-0.3,1.3-0.3c1,0,1.8,0.3,2.3,1s0.8,1.6,0.8,2.9c0,1.2-0.3,2.2-0.8,2.9
			C658.1,416.8,657.4,417.1,656.4,417.1z M656.2,410.3c-0.8,0-1.3,0.2-1.7,0.6s-0.5,1.1-0.5,2v0.3c0,1.1,0.2,1.8,0.5,2.3
			c0.4,0.5,0.9,0.7,1.7,0.7c0.6,0,1.2-0.3,1.5-0.8c0.4-0.5,0.5-1.2,0.5-2.2c0-0.9-0.2-1.7-0.5-2.1
			C657.4,410.6,656.9,410.3,656.2,410.3z"/>
		<path d="M666.1,417l-0.2-1.1h-0.1c-0.4,0.5-0.7,0.8-1.1,1c-0.4,0.2-0.8,0.3-1.4,0.3c-0.7,0-1.3-0.2-1.7-0.6
			c-0.4-0.4-0.6-0.9-0.6-1.6c0-1.5,1.2-2.3,3.6-2.4h1.3V412c0-0.6-0.1-1-0.4-1.3c-0.3-0.3-0.7-0.4-1.2-0.4c-0.6,0-1.3,0.2-2.1,0.6
			l-0.3-0.9c0.4-0.2,0.8-0.4,1.2-0.5s0.9-0.2,1.3-0.2c0.9,0,1.6,0.2,2,0.6c0.4,0.4,0.6,1,0.6,1.9v5.1h-0.9V417z M663.5,416.2
			c0.7,0,1.3-0.2,1.7-0.6c0.4-0.4,0.6-0.9,0.6-1.6v-0.7h-1.1c-0.9,0-1.6,0.2-2,0.4s-0.6,0.6-0.6,1.2c0,0.4,0.1,0.7,0.4,0.9
			C662.7,416.1,663.1,416.2,663.5,416.2z"/>
		<path d="M672.7,409.4c0.3,0,0.6,0,0.9,0.1l-0.2,1.1c-0.3-0.1-0.6-0.1-0.8-0.1c-0.6,0-1.1,0.2-1.6,0.7c-0.4,0.5-0.6,1.1-0.6,1.8v4
			h-1.1v-7.5h0.9l0.1,1.4h0.1c0.3-0.5,0.6-0.9,1-1.1S672.2,409.4,672.7,409.4z"/>
		<path d="M678.1,417.1c-1.1,0-2-0.3-2.6-1s-1-1.6-1-2.8s0.3-2.2,0.9-2.9c0.6-0.7,1.4-1.1,2.4-1.1c0.9,0,1.7,0.3,2.2,0.9
			c0.5,0.6,0.8,1.4,0.8,2.4v0.7h-5.2c0,0.9,0.2,1.5,0.7,2c0.4,0.5,1,0.7,1.8,0.7s1.6-0.2,2.4-0.5v1c-0.4,0.2-0.8,0.3-1.1,0.4
			C679.1,417.1,678.6,417.1,678.1,417.1z M677.8,410.3c-0.6,0-1.1,0.2-1.4,0.6c-0.4,0.4-0.6,0.9-0.6,1.6h3.9c0-0.7-0.2-1.3-0.5-1.6
			C678.9,410.5,678.4,410.3,677.8,410.3z"/>
		<path d="M688,417v-4.8c0-0.6-0.1-1.1-0.4-1.4s-0.7-0.5-1.3-0.5c-0.8,0-1.4,0.2-1.7,0.6s-0.5,1.1-0.5,2.1v3.9H683v-7.5h0.9l0.2,1
			h0.1c0.2-0.4,0.6-0.7,1-0.9s0.9-0.3,1.4-0.3c0.9,0,1.6,0.2,2,0.7c0.5,0.4,0.7,1.1,0.7,2.1v4.9H688V417z"/>
		<path d="M693.8,416.2c0.2,0,0.4,0,0.6,0c0.2,0,0.3-0.1,0.4-0.1v0.9c-0.1,0.1-0.3,0.1-0.5,0.1s-0.5,0.1-0.6,0.1
			c-1.4,0-2.2-0.8-2.2-2.3v-4.5h-1.1v-0.5l1.1-0.5l0.5-1.6h0.7v1.7h2.2v0.9h-2.2v4.4c0,0.5,0.1,0.8,0.3,1S693.5,416.2,693.8,416.2z"
			/>
		<path d="M699.9,417.1c-0.5,0-0.9-0.1-1.3-0.3c-0.4-0.2-0.7-0.5-1-0.8h-0.1c0.1,0.4,0.1,0.9,0.1,1.2v3.1h-1.1v-10.9h0.9l0.2,1h0.1
			c0.3-0.4,0.6-0.7,1-0.9s0.8-0.3,1.3-0.3c1,0,1.8,0.3,2.3,1s0.8,1.6,0.8,2.9c0,1.2-0.3,2.2-0.8,2.9
			C701.6,416.8,700.8,417.1,699.9,417.1z M699.7,410.3c-0.8,0-1.3,0.2-1.7,0.6s-0.5,1.1-0.5,2v0.3c0,1.1,0.2,1.8,0.5,2.3
			c0.4,0.5,0.9,0.7,1.7,0.7c0.6,0,1.2-0.3,1.5-0.8c0.4-0.5,0.5-1.2,0.5-2.2c0-0.9-0.2-1.7-0.5-2.1
			C700.9,410.6,700.4,410.3,699.7,410.3z"/>
		<path d="M709.6,417l-0.2-1.1h-0.1c-0.4,0.5-0.7,0.8-1.1,1c-0.4,0.2-0.8,0.3-1.4,0.3c-0.7,0-1.3-0.2-1.7-0.6
			c-0.4-0.4-0.6-0.9-0.6-1.6c0-1.5,1.2-2.3,3.6-2.4h1.3V412c0-0.6-0.1-1-0.4-1.3c-0.3-0.3-0.7-0.4-1.2-0.4c-0.6,0-1.3,0.2-2.1,0.6
			l-0.3-0.9c0.4-0.2,0.8-0.4,1.2-0.5s0.9-0.2,1.3-0.2c0.9,0,1.6,0.2,2,0.6c0.4,0.4,0.6,1,0.6,1.9v5.1h-0.9V417z M707,416.2
			c0.7,0,1.3-0.2,1.7-0.6c0.4-0.4,0.6-0.9,0.6-1.6v-0.7h-1.1c-0.9,0-1.6,0.2-2,0.4s-0.6,0.6-0.6,1.2c0,0.4,0.1,0.7,0.4,0.9
			C706.2,416.1,706.5,416.2,707,416.2z"/>
		<path d="M716.2,417.1c-0.5,0-0.9-0.1-1.3-0.3c-0.4-0.2-0.7-0.5-1-0.8h-0.1c0.1,0.4,0.1,0.9,0.1,1.2v3.1h-1.1v-10.9h0.9l0.2,1h0.1
			c0.3-0.4,0.6-0.7,1-0.9s0.8-0.3,1.3-0.3c1,0,1.8,0.3,2.3,1s0.8,1.6,0.8,2.9c0,1.2-0.3,2.2-0.8,2.9
			C718,416.8,717.2,417.1,716.2,417.1z M716.1,410.3c-0.8,0-1.3,0.2-1.7,0.6s-0.5,1.1-0.5,2v0.3c0,1.1,0.2,1.8,0.5,2.3
			c0.4,0.5,0.9,0.7,1.7,0.7c0.6,0,1.2-0.3,1.5-0.8c0.4-0.5,0.5-1.2,0.5-2.2c0-0.9-0.2-1.7-0.5-2.1
			C717.2,410.6,716.7,410.3,716.1,410.3z"/>
		<path d="M721.2,407.5c0-0.3,0.1-0.5,0.2-0.6c0.1-0.1,0.3-0.2,0.5-0.2s0.3,0.1,0.5,0.2s0.2,0.3,0.2,0.6s-0.1,0.4-0.2,0.6
			c-0.1,0.1-0.3,0.2-0.5,0.2s-0.4-0.1-0.5-0.2C721.3,407.9,721.2,407.7,721.2,407.5z M722.4,417h-1.1v-7.5h1.1V417z"/>
		<path d="M728,417.1c-1.1,0-2-0.3-2.6-1s-1-1.6-1-2.8s0.3-2.2,0.9-2.9c0.6-0.7,1.4-1.1,2.4-1.1c0.9,0,1.7,0.3,2.2,0.9
			c0.5,0.6,0.8,1.4,0.8,2.4v0.7h-5.2c0,0.9,0.2,1.5,0.7,2c0.4,0.5,1,0.7,1.8,0.7s1.6-0.2,2.4-0.5v1c-0.4,0.2-0.8,0.3-1.1,0.4
			C729,417.1,728.5,417.1,728,417.1z M727.7,410.3c-0.6,0-1.1,0.2-1.4,0.6c-0.4,0.4-0.6,0.9-0.6,1.6h3.9c0-0.7-0.2-1.3-0.5-1.6
			C728.8,410.5,728.3,410.3,727.7,410.3z"/>
		<path d="M736.1,409.4c0.3,0,0.6,0,0.9,0.1l-0.2,1.1c-0.3-0.1-0.6-0.1-0.8-0.1c-0.6,0-1.1,0.2-1.6,0.7c-0.4,0.5-0.6,1.1-0.6,1.8v4
			h-1.1v-7.5h0.9l0.1,1.4h0.1c0.3-0.5,0.6-0.9,1-1.1S735.7,409.4,736.1,409.4z"/>
	</g>
	<g>
		<path d="M710.3,593.3h1.3l-3.6,10h-1.1l-3.6-10h1.2l2.3,6.5c0.3,0.7,0.5,1.5,0.6,2.2c0.2-0.7,0.4-1.5,0.6-2.2L710.3,593.3z"/>
		<path d="M712.6,593.8c0-0.3,0.1-0.5,0.2-0.6s0.3-0.2,0.5-0.2s0.3,0.1,0.5,0.2s0.2,0.3,0.2,0.6c0,0.3-0.1,0.4-0.2,0.6
			s-0.3,0.2-0.5,0.2s-0.4-0.1-0.5-0.2S712.6,594.1,712.6,593.8z M713.9,603.3h-1.1v-7.5h1.1V603.3z"/>
		<path d="M717.9,603.3l-2.8-7.5h1.2l1.6,4.4c0.4,1,0.6,1.7,0.6,2h0.1c0-0.2,0.2-0.7,0.5-1.5s0.9-2.4,1.8-5h1.2l-2.8,7.5
			L717.9,603.3L717.9,603.3z"/>
		<path d="M727.9,603.3l-0.2-1.1h-0.1c-0.4,0.5-0.7,0.8-1.1,1c-0.4,0.2-0.8,0.2-1.4,0.2c-0.7,0-1.3-0.2-1.7-0.6s-0.6-0.9-0.6-1.6
			c0-1.5,1.2-2.3,3.6-2.4h1.3v-0.5c0-0.6-0.1-1-0.4-1.3c-0.3-0.3-0.7-0.4-1.2-0.4c-0.6,0-1.3,0.2-2.1,0.6l-0.3-0.9
			c0.4-0.2,0.8-0.4,1.2-0.5s0.9-0.2,1.3-0.2c0.9,0,1.6,0.2,2,0.6s0.6,1,0.6,1.9v5.1h-0.9V603.3z M725.3,602.5c0.7,0,1.3-0.2,1.7-0.6
			s0.6-0.9,0.6-1.6v-0.7h-1.1c-0.9,0-1.6,0.2-2,0.4c-0.4,0.2-0.6,0.6-0.6,1.2c0,0.4,0.1,0.7,0.4,0.9
			C724.5,602.4,724.9,602.5,725.3,602.5z"/>
		<path d="M732.2,599.5c0.2-0.3,0.5-0.6,0.9-1.1l2.4-2.6h1.3l-3,3.2l3.2,4.3h-1.4l-2.6-3.5l-0.9,0.7v2.8H731v-10.6h1.1v5.6
			C732.2,598.6,732.2,599,732.2,599.5L732.2,599.5z"/>
	</g>
	<g>
		<path d="M668.2,801h-1.4l-3.6-4.8l-1,0.9v3.9H661v-10h1.2v5l4.5-5h1.4l-4,4.3L668.2,801z"/>
		<path d="M670.5,793.5v4.9c0,0.6,0.1,1.1,0.4,1.4s0.7,0.5,1.3,0.5c0.8,0,1.4-0.2,1.7-0.6c0.4-0.4,0.5-1.1,0.5-2.1v-3.9h1.1v7.5
			h-0.9l-0.2-1h-0.1c-0.2,0.4-0.6,0.7-1,0.8c-0.4,0.2-0.9,0.3-1.4,0.3c-0.9,0-1.6-0.2-2-0.7c-0.5-0.4-0.7-1.1-0.7-2.1v-4.9h1.3
			V793.5z"/>
		<path d="M681.5,801.1c-0.5,0-0.9-0.1-1.3-0.3c-0.4-0.2-0.7-0.5-1-0.8H679c0.1,0.4,0.1,0.9,0.1,1.2v3.1H678v-10.9h0.9l0.2,1h0.1
			c0.3-0.4,0.6-0.7,1-0.9c0.4-0.2,0.8-0.3,1.3-0.3c1,0,1.8,0.3,2.3,1s0.8,1.6,0.8,2.9c0,1.2-0.3,2.2-0.8,2.9
			C683.2,800.8,682.5,801.1,681.5,801.1z M681.3,794.3c-0.8,0-1.3,0.2-1.7,0.6s-0.5,1.1-0.5,2v0.3c0,1.1,0.2,1.8,0.5,2.3
			s0.9,0.7,1.7,0.7c0.6,0,1.2-0.3,1.5-0.8c0.4-0.5,0.5-1.2,0.5-2.2c0-0.9-0.2-1.7-0.5-2.1C682.5,794.6,682,794.3,681.3,794.3z"/>
		<path d="M689.9,794.4H688v6.6h-1.1v-6.6h-1.3v-0.5l1.3-0.4v-0.4c0-1.8,0.8-2.8,2.4-2.8c0.4,0,0.9,0.1,1.4,0.2l-0.3,0.9
			c-0.4-0.1-0.8-0.2-1.1-0.2c-0.4,0-0.7,0.1-1,0.4s-0.3,0.7-0.3,1.4v0.5h1.9L689.9,794.4L689.9,794.4z"/>
		<path d="M694.5,801.1c-1.1,0-2-0.3-2.6-1s-1-1.6-1-2.8c0-1.2,0.3-2.2,0.9-2.9c0.6-0.7,1.4-1.1,2.4-1.1c0.9,0,1.7,0.3,2.2,0.9
			s0.8,1.4,0.8,2.4v0.7H692c0,0.9,0.2,1.5,0.7,2c0.4,0.5,1,0.7,1.8,0.7s1.6-0.2,2.4-0.5v1c-0.4,0.2-0.8,0.3-1.1,0.4
			C695.4,801.1,695,801.1,694.5,801.1z M694.2,794.3c-0.6,0-1.1,0.2-1.4,0.6c-0.4,0.4-0.6,0.9-0.6,1.6h3.9c0-0.7-0.2-1.3-0.5-1.6
			S694.8,794.3,694.2,794.3z"/>
		<path d="M702.6,793.4c0.3,0,0.6,0,0.9,0.1l-0.2,1.1c-0.3-0.1-0.6-0.1-0.8-0.1c-0.6,0-1.1,0.2-1.6,0.7c-0.4,0.5-0.6,1.1-0.6,1.8v4
			h-1.1v-7.5h0.9l0.1,1.4h0.1c0.3-0.5,0.6-0.9,1-1.1C701.7,793.5,702.1,793.4,702.6,793.4z"/>
		<path d="M708.4,793.4c1,0,1.7,0.3,2.3,1c0.5,0.7,0.8,1.6,0.8,2.9s-0.3,2.2-0.8,2.9c-0.5,0.7-1.3,1-2.3,1c-0.5,0-0.9-0.1-1.3-0.3
			c-0.4-0.2-0.7-0.5-1-0.8H706l-0.2,1H705v-10.6h1.1v2.6c0,0.6,0,1.1-0.1,1.6h0.1C706.5,793.8,707.3,793.4,708.4,793.4z
			 M708.2,794.3c-0.8,0-1.3,0.2-1.7,0.7s-0.5,1.2-0.5,2.2s0.2,1.8,0.5,2.3s0.9,0.7,1.7,0.7c0.7,0,1.2-0.3,1.6-0.8s0.5-1.2,0.5-2.2
			s-0.2-1.7-0.5-2.2S708.9,794.3,708.2,794.3z"/>
		<path d="M718.1,801l-0.2-1.1h-0.1c-0.4,0.5-0.7,0.8-1.1,1c-0.4,0.2-0.8,0.3-1.4,0.3c-0.7,0-1.3-0.2-1.7-0.6s-0.6-0.9-0.6-1.6
			c0-1.5,1.2-2.3,3.6-2.4h1.3v-0.5c0-0.6-0.1-1-0.4-1.3c-0.3-0.3-0.7-0.4-1.2-0.4c-0.6,0-1.3,0.2-2.1,0.6l-0.3-0.9
			c0.4-0.2,0.8-0.4,1.2-0.5s0.9-0.2,1.3-0.2c0.9,0,1.6,0.2,2,0.6s0.6,1,0.6,1.9v5.1H718.1z M715.5,800.2c0.7,0,1.3-0.2,1.7-0.6
			s0.6-0.9,0.6-1.6v-0.7h-1.1c-0.9,0-1.6,0.2-2,0.4c-0.4,0.2-0.6,0.6-0.6,1.2c0,0.4,0.1,0.7,0.4,0.9
			C714.7,800.1,715.1,800.2,715.5,800.2z"/>
		<path d="M726.4,801v-4.8c0-0.6-0.1-1.1-0.4-1.4s-0.7-0.5-1.3-0.5c-0.8,0-1.4,0.2-1.7,0.6s-0.5,1.1-0.5,2.1v3.9h-1.1v-7.5h0.9
			l0.2,1h0.1c0.2-0.4,0.6-0.7,1-0.9s0.9-0.3,1.4-0.3c0.9,0,1.6,0.2,2,0.7s0.7,1.1,0.7,2.1v4.9h-1.3V801z"/>
		<path d="M734.9,800L734.9,800c-0.6,0.8-1.4,1.1-2.4,1.1s-1.7-0.3-2.3-1c-0.5-0.7-0.8-1.6-0.8-2.9c0-1.2,0.3-2.2,0.8-2.9
			s1.3-1,2.3-1s1.8,0.4,2.3,1.1h0.1v-0.5v-0.5v-3h1.1V801h-0.9L734.9,800z M732.7,800.2c0.8,0,1.3-0.2,1.7-0.6
			c0.3-0.4,0.5-1.1,0.5-2v-0.2c0-1.1-0.2-1.8-0.5-2.3c-0.4-0.5-0.9-0.7-1.7-0.7c-0.7,0-1.2,0.3-1.5,0.8c-0.4,0.5-0.5,1.2-0.5,2.2
			s0.2,1.7,0.5,2.2C731.5,799.9,732,800.2,732.7,800.2z"/>
		<path d="M704.5,817.8h-1.4l-3.6-4.8l-1,0.9v3.9h-1.2v-10h1.2v5l4.5-5h1.4l-4,4.3L704.5,817.8z"/>
		<path d="M710.3,817.8l-0.2-1.1H710c-0.4,0.5-0.7,0.8-1.1,1c-0.4,0.2-0.8,0.2-1.4,0.2c-0.7,0-1.3-0.2-1.7-0.6s-0.6-0.9-0.6-1.6
			c0-1.5,1.2-2.3,3.6-2.4h1.3v-0.5c0-0.6-0.1-1-0.4-1.3c-0.3-0.3-0.7-0.4-1.2-0.4c-0.6,0-1.3,0.2-2.1,0.6l-0.3-0.9
			c0.4-0.2,0.8-0.4,1.2-0.5s0.9-0.2,1.3-0.2c0.9,0,1.6,0.2,2,0.6s0.6,1,0.6,1.9v5.1h-0.9V817.8z M707.7,817c0.7,0,1.3-0.2,1.7-0.6
			s0.6-0.9,0.6-1.6v-0.7h-1.1c-0.9,0-1.6,0.2-2,0.4c-0.4,0.2-0.6,0.6-0.6,1.2c0,0.4,0.1,0.7,0.4,0.9
			C706.9,816.9,707.3,817,707.7,817z"/>
		<path d="M717,817.9c-0.5,0-0.9-0.1-1.3-0.3c-0.4-0.2-0.7-0.5-1-0.8h-0.1c0.1,0.4,0.1,0.9,0.1,1.2v3.1h-1.1v-10.9h0.9l0.2,1h0.1
			c0.3-0.4,0.6-0.7,1-0.9c0.4-0.2,0.8-0.3,1.3-0.3c1,0,1.8,0.3,2.3,1s0.8,1.6,0.8,2.9c0,1.2-0.3,2.2-0.8,2.9
			C718.7,817.6,717.9,817.9,717,817.9z M716.8,811.1c-0.8,0-1.3,0.2-1.7,0.6s-0.5,1.1-0.5,2v0.3c0,1.1,0.2,1.8,0.5,2.3
			s0.9,0.7,1.7,0.7c0.6,0,1.2-0.3,1.5-0.8c0.4-0.5,0.5-1.2,0.5-2.2c0-0.9-0.2-1.7-0.5-2.2C718,811.4,717.5,811.1,716.8,811.1z"/>
		<path d="M725.5,817.9c-0.5,0-0.9-0.1-1.3-0.3c-0.4-0.2-0.7-0.5-1-0.8h-0.1c0.1,0.4,0.1,0.9,0.1,1.2v3.1h-1.1v-10.9h0.9l0.2,1h0.1
			c0.3-0.4,0.6-0.7,1-0.9c0.4-0.2,0.8-0.3,1.3-0.3c1,0,1.8,0.3,2.3,1s0.8,1.6,0.8,2.9c0,1.2-0.3,2.2-0.8,2.9
			C727.3,817.6,726.5,817.9,725.5,817.9z M725.4,811.1c-0.8,0-1.3,0.2-1.7,0.6s-0.5,1.1-0.5,2v0.3c0,1.1,0.2,1.8,0.5,2.3
			s0.9,0.7,1.7,0.7c0.6,0,1.2-0.3,1.5-0.8c0.4-0.5,0.5-1.2,0.5-2.2c0-0.9-0.2-1.7-0.5-2.2C726.6,811.4,726,811.1,725.4,811.1z"/>
		<path d="M735.2,817.8l-0.2-1.1l0,0c-0.4,0.5-0.7,0.8-1.1,1c-0.4,0.2-0.8,0.2-1.4,0.2c-0.7,0-1.3-0.2-1.7-0.6s-0.6-0.9-0.6-1.6
			c0-1.5,1.2-2.3,3.6-2.4h1.3v-0.5c0-0.6-0.1-1-0.4-1.3c-0.3-0.3-0.7-0.4-1.2-0.4c-0.6,0-1.3,0.2-2.1,0.6l-0.3-0.9
			c0.4-0.2,0.8-0.4,1.2-0.5s0.9-0.2,1.3-0.2c0.9,0,1.6,0.2,2,0.6s0.6,1,0.6,1.9v5.1h-1V817.8z M732.7,817c0.7,0,1.3-0.2,1.7-0.6
			s0.6-0.9,0.6-1.6v-0.7h-1.1c-0.9,0-1.6,0.2-2,0.4c-0.4,0.2-0.6,0.6-0.6,1.2c0,0.4,0.1,0.7,0.4,0.9
			C731.9,816.9,732.2,817,732.7,817z"/>
	</g>
	<g>
		<path d="M659.5,1007.7h-1.2v-9h-3.2v-1h7.5v1h-3.2v9H659.5z"/>
		<path d="M667.4,1000c0.3,0,0.6,0,0.9,0.1l-0.2,1.1c-0.3-0.1-0.6-0.1-0.8-0.1c-0.6,0-1.1,0.2-1.6,0.7c-0.4,0.5-0.6,1.1-0.6,1.8v4
			H664v-7.5h0.9l0.1,1.4h0.1c0.3-0.5,0.6-0.9,1-1.1S666.9,1000,667.4,1000z"/>
		<path d="M672.8,1007.8c-1.1,0-2-0.3-2.6-1s-1-1.6-1-2.8c0-1.2,0.3-2.2,0.9-2.9c0.6-0.7,1.4-1.1,2.4-1.1c0.9,0,1.7,0.3,2.2,0.9
			s0.8,1.4,0.8,2.4v0.7h-5.2c0,0.9,0.2,1.5,0.7,2c0.4,0.5,1,0.7,1.8,0.7s1.6-0.2,2.4-0.5v1c-0.4,0.2-0.8,0.3-1.1,0.4
			C673.8,1007.8,673.4,1007.8,672.8,1007.8z M672.5,1001c-0.6,0-1.1,0.2-1.4,0.6c-0.4,0.4-0.6,0.9-0.6,1.6h3.9
			c0-0.7-0.2-1.3-0.5-1.6C673.6,1001.2,673.1,1001,672.5,1001z"/>
		<path d="M682.7,1007.7v-4.8c0-0.6-0.1-1.1-0.4-1.4s-0.7-0.5-1.3-0.5c-0.8,0-1.4,0.2-1.7,0.6s-0.5,1.1-0.5,2.1v3.9h-1.1v-7.5h0.9
			l0.2,1h0.1c0.2-0.4,0.6-0.7,1-0.9c0.4-0.2,0.9-0.3,1.4-0.3c0.9,0,1.6,0.2,2,0.7c0.5,0.4,0.7,1.1,0.7,2.1v4.9h-1.3V1007.7z"/>
		<path d="M691.3,1007.7v-4.8c0-0.6-0.1-1.1-0.4-1.4s-0.7-0.5-1.3-0.5c-0.8,0-1.4,0.2-1.7,0.6s-0.5,1.1-0.5,2.1v3.9h-1.1v-7.5h0.9
			l0.2,1h0.1c0.2-0.4,0.6-0.7,1-0.9c0.4-0.2,0.9-0.3,1.4-0.3c0.9,0,1.6,0.2,2,0.7c0.5,0.4,0.7,1.1,0.7,2.1v4.9h-1.3V1007.7z"/>
		<path d="M700.8,1007.7l-1.4-4.4c-0.1-0.3-0.2-0.9-0.5-1.8h-0.1c-0.2,0.8-0.3,1.4-0.5,1.8l-1.4,4.4h-1.3l-2-7.5h1.2
			c0.5,1.9,0.9,3.3,1.1,4.3c0.3,1,0.4,1.6,0.4,2h0.1c0-0.3,0.1-0.6,0.2-1c0.1-0.4,0.2-0.7,0.3-1l1.4-4.3h1.2l1.3,4.3
			c0.3,0.8,0.4,1.4,0.5,2h0.1c0-0.2,0.1-0.4,0.1-0.8c0.1-0.3,0.6-2.2,1.4-5.5h1.2l-2.1,7.5H700.8z"/>
		<path d="M710.2,1007.7l-0.2-1.1h-0.1c-0.4,0.5-0.7,0.8-1.1,1c-0.4,0.2-0.8,0.2-1.4,0.2c-0.7,0-1.3-0.2-1.7-0.6s-0.6-0.9-0.6-1.6
			c0-1.5,1.2-2.3,3.6-2.4h1.3v-0.5c0-0.6-0.1-1-0.4-1.3c-0.3-0.3-0.7-0.4-1.2-0.4c-0.6,0-1.3,0.2-2.1,0.6l-0.3-0.9
			c0.4-0.2,0.8-0.4,1.2-0.5s0.9-0.2,1.3-0.2c0.9,0,1.6,0.2,2,0.6s0.6,1,0.6,1.9v5.1h-0.9V1007.7z M707.7,1006.9
			c0.7,0,1.3-0.2,1.7-0.6s0.6-0.9,0.6-1.6v-0.7h-1.1c-0.9,0-1.6,0.2-2,0.4c-0.4,0.2-0.6,0.6-0.6,1.2c0,0.4,0.1,0.7,0.4,0.9
			C706.9,1006.7,707.2,1006.9,707.7,1006.9z M706.3,998.1c0-0.2,0.1-0.4,0.2-0.5c0.1-0.1,0.3-0.2,0.4-0.2c0.2,0,0.3,0.1,0.4,0.2
			c0.1,0.1,0.2,0.3,0.2,0.5s-0.1,0.4-0.2,0.5c-0.1,0.1-0.3,0.2-0.4,0.2c-0.2,0-0.3-0.1-0.4-0.2C706.4,998.5,706.3,998.4,706.3,998.1
			z M708.9,998.1c0-0.2,0.1-0.4,0.2-0.5c0.1-0.1,0.3-0.2,0.4-0.2s0.3,0.1,0.4,0.2c0.1,0.1,0.2,0.3,0.2,0.5s-0.1,0.4-0.2,0.5
			c-0.1,0.1-0.3,0.2-0.4,0.2s-0.3-0.1-0.4-0.2S708.9,998.4,708.9,998.1z"/>
		<path d="M718.5,1007.7v-4.8c0-0.6-0.1-1.1-0.4-1.4s-0.7-0.5-1.3-0.5c-0.8,0-1.4,0.2-1.7,0.6s-0.5,1.1-0.5,2.1v3.9h-1.1v-7.5h0.9
			l0.2,1h0.1c0.2-0.4,0.6-0.7,1-0.9c0.4-0.2,0.9-0.3,1.4-0.3c0.9,0,1.6,0.2,2,0.7c0.5,0.4,0.7,1.1,0.7,2.1v4.9h-1.3V1007.7z"/>
		<path d="M727.1,1006.6L727.1,1006.6c-0.6,0.8-1.4,1.1-2.4,1.1s-1.7-0.3-2.3-1c-0.5-0.7-0.8-1.6-0.8-2.9s0.3-2.2,0.8-2.9
			s1.3-1,2.3-1s1.8,0.4,2.3,1.1h0.1v-0.5v-0.5v-3h1.1v10.6h-0.9L727.1,1006.6z M724.8,1006.8c0.8,0,1.3-0.2,1.7-0.6
			c0.3-0.4,0.5-1.1,0.5-2v-0.2c0-1.1-0.2-1.8-0.5-2.3c-0.4-0.5-0.9-0.7-1.7-0.7c-0.7,0-1.2,0.3-1.5,0.8c-0.4,0.5-0.5,1.2-0.5,2.2
			s0.2,1.7,0.5,2.2S724.1,1006.8,724.8,1006.8z"/>
		<path d="M733.7,1007.8c-1.1,0-2-0.3-2.6-1s-1-1.6-1-2.8c0-1.2,0.3-2.2,0.9-2.9c0.6-0.7,1.4-1.1,2.4-1.1c0.9,0,1.7,0.3,2.2,0.9
			s0.8,1.4,0.8,2.4v0.7h-5.2c0,0.9,0.2,1.5,0.7,2c0.4,0.5,1,0.7,1.8,0.7s1.6-0.2,2.4-0.5v1c-0.4,0.2-0.8,0.3-1.1,0.4
			C734.7,1007.8,734.2,1007.8,733.7,1007.8z M733.4,1001c-0.6,0-1.1,0.2-1.4,0.6c-0.4,0.4-0.6,0.9-0.6,1.6h3.9
			c0-0.7-0.2-1.3-0.5-1.6C734.5,1001.2,734,1001,733.4,1001z"/>
	</g>
	<g>
		<path d="M699.7,1173.2v-10h1.2v8.9h4.4v1.1H699.7z"/>
		<path d="M712.5,1173.2h-5.6v-10h5.6v1h-4.4v3.2h4.1v1h-4.1v3.7h4.4V1173.2z"/>
		<path d="M722.7,1168.1c0,1.7-0.4,2.9-1.3,3.8c-0.9,0.9-2.2,1.3-3.9,1.3h-2.8v-10h3.1c1.6,0,2.8,0.4,3.6,1.3
			S722.7,1166.6,722.7,1168.1z M721.5,1168.2c0-1.3-0.3-2.3-1-2.9c-0.7-0.7-1.6-1-2.9-1h-1.7v8h1.4c1.4,0,2.4-0.3,3.1-1
			C721.1,1170.5,721.5,1169.5,721.5,1168.2z"/>
		<path d="M729.6,1171.2c0,0.7-0.3,1.2-0.8,1.6s-1.2,0.6-2.2,0.6s-1.8-0.2-2.3-0.5v-1.1c0.4,0.2,0.7,0.3,1.2,0.4
			c0.4,0.1,0.8,0.2,1.2,0.2c0.6,0,1-0.1,1.4-0.3c0.3-0.2,0.5-0.5,0.5-0.9c0-0.3-0.1-0.5-0.4-0.7c-0.3-0.2-0.7-0.5-1.5-0.7
			c-0.7-0.3-1.2-0.5-1.5-0.7s-0.5-0.4-0.7-0.7c-0.1-0.2-0.2-0.5-0.2-0.9c0-0.6,0.2-1.1,0.7-1.4c0.5-0.4,1.2-0.5,2-0.5
			s1.6,0.2,2.4,0.5l-0.4,0.9c-0.8-0.3-1.4-0.5-2-0.5c-0.5,0-0.9,0.1-1.2,0.3s-0.4,0.4-0.4,0.7c0,0.2,0.1,0.4,0.2,0.5
			c0.1,0.1,0.3,0.3,0.5,0.4s0.7,0.3,1.3,0.6c0.9,0.3,1.5,0.6,1.8,1C729.4,1170.3,729.6,1170.7,729.6,1171.2z"/>
	</g>
	<g>
		<path d="M667,1339.9c0,0.9-0.3,1.6-1,2.1s-1.5,0.7-2.6,0.7c-1.2,0-2.1-0.2-2.7-0.5v-1.1c0.4,0.2,0.9,0.3,1.3,0.4s1,0.2,1.4,0.2
			c0.8,0,1.4-0.1,1.8-0.4c0.4-0.3,0.6-0.7,0.6-1.2c0-0.3-0.1-0.6-0.2-0.9c-0.1-0.2-0.4-0.4-0.7-0.6s-0.8-0.4-1.5-0.6
			c-0.9-0.3-1.6-0.7-2-1.2s-0.6-1.1-0.6-1.8c0-0.8,0.3-1.4,0.9-1.8s1.3-0.7,2.3-0.7s1.9,0.2,2.7,0.5l-0.4,1
			c-0.8-0.3-1.6-0.5-2.4-0.5c-0.6,0-1.1,0.1-1.4,0.4s-0.5,0.6-0.5,1.1c0,0.3,0.1,0.6,0.2,0.9c0.1,0.2,0.3,0.4,0.6,0.6
			s0.8,0.4,1.4,0.6c1,0.4,1.8,0.8,2.2,1.2C666.8,1338.6,667,1339.2,667,1339.9z"/>
		<path d="M671.3,1341.7c0.2,0,0.4,0,0.6,0c0.2,0,0.3-0.1,0.4-0.1v0.9c-0.1,0.1-0.3,0.1-0.5,0.1s-0.5,0.1-0.6,0.1
			c-1.4,0-2.2-0.8-2.2-2.3v-4.5h-1.1v-0.5l1.1-0.5l0.5-1.6h0.7v1.7h2.2v0.9h-2.2v4.4c0,0.5,0.1,0.8,0.3,1S670.9,1341.7,671.3,1341.7
			z"/>
		<path d="M678.4,1342.5l-0.2-1.1h-0.1c-0.4,0.5-0.7,0.8-1.1,1c-0.4,0.2-0.8,0.2-1.4,0.2c-0.7,0-1.3-0.2-1.7-0.6s-0.6-0.9-0.6-1.6
			c0-1.5,1.2-2.3,3.6-2.4h1.3v-0.5c0-0.6-0.1-1-0.4-1.3c-0.3-0.3-0.7-0.4-1.2-0.4c-0.6,0-1.3,0.2-2.1,0.6l-0.3-0.9
			c0.4-0.2,0.8-0.4,1.2-0.5s0.9-0.2,1.3-0.2c0.9,0,1.6,0.2,2,0.6s0.6,1,0.6,1.9v5.1h-0.9V1342.5z M675.9,1341.7
			c0.7,0,1.3-0.2,1.7-0.6s0.6-0.9,0.6-1.6v-0.7h-1.1c-0.9,0-1.6,0.2-2,0.4c-0.4,0.2-0.6,0.6-0.6,1.2c0,0.4,0.1,0.7,0.4,0.9
			C675.1,1341.6,675.4,1341.7,675.9,1341.7z"/>
		<path d="M686.7,1342.5v-4.8c0-0.6-0.1-1.1-0.4-1.4s-0.7-0.5-1.3-0.5c-0.8,0-1.4,0.2-1.7,0.6s-0.5,1.1-0.5,2.1v3.9h-1.1v-7.5h0.9
			l0.2,1h0.1c0.2-0.4,0.6-0.7,1-0.9c0.4-0.2,0.9-0.3,1.4-0.3c0.9,0,1.6,0.2,2,0.7c0.5,0.4,0.7,1.1,0.7,2.1v4.9h-1.3V1342.5z"/>
		<path d="M695.3,1341.5L695.3,1341.5c-0.6,0.8-1.4,1.1-2.4,1.1s-1.7-0.3-2.3-1c-0.5-0.7-0.8-1.6-0.8-2.9s0.3-2.2,0.8-2.9
			s1.3-1,2.3-1s1.8,0.4,2.3,1.1h0.1v-0.5v-0.5v-3h1.1v10.6h-0.9L695.3,1341.5z M693,1341.7c0.8,0,1.3-0.2,1.7-0.6
			c0.3-0.4,0.5-1.1,0.5-2v-0.2c0-1.1-0.2-1.8-0.5-2.3c-0.4-0.5-0.9-0.7-1.7-0.7c-0.7,0-1.2,0.3-1.5,0.8c-0.4,0.5-0.5,1.2-0.5,2.2
			s0.2,1.7,0.5,2.2S692.3,1341.7,693,1341.7z"/>
		<path d="M702.3,1342.7c-0.5,0-0.9-0.1-1.3-0.3c-0.4-0.2-0.7-0.5-1-0.8h-0.1c0.1,0.4,0.1,0.9,0.1,1.2v3.1h-1.1V1335h0.9l0.2,1h0.1
			c0.3-0.4,0.6-0.7,1-0.9s0.8-0.3,1.3-0.3c1,0,1.8,0.3,2.3,1s0.8,1.6,0.8,2.9c0,1.2-0.3,2.2-0.8,2.9
			C704,1342.3,703.2,1342.7,702.3,1342.7z M702.1,1335.9c-0.8,0-1.3,0.2-1.7,0.6s-0.5,1.1-0.5,2v0.3c0,1.1,0.2,1.8,0.5,2.3
			c0.4,0.5,0.9,0.7,1.7,0.7c0.6,0,1.2-0.3,1.5-0.8c0.4-0.5,0.5-1.2,0.5-2.2c0-0.9-0.2-1.7-0.5-2.2
			C703.3,1336.1,702.8,1335.9,702.1,1335.9z"/>
		<path d="M708.5,1342.5h-1.1v-10.6h1.1V1342.5z"/>
		<path d="M715.5,1342.5l-0.2-1.1h-0.1c-0.4,0.5-0.7,0.8-1.1,1c-0.4,0.2-0.8,0.2-1.4,0.2c-0.7,0-1.3-0.2-1.7-0.6s-0.6-0.9-0.6-1.6
			c0-1.5,1.2-2.3,3.6-2.4h1.3v-0.5c0-0.6-0.1-1-0.4-1.3c-0.3-0.3-0.7-0.4-1.2-0.4c-0.6,0-1.3,0.2-2.1,0.6l-0.3-0.9
			c0.4-0.2,0.8-0.4,1.2-0.5s0.9-0.2,1.3-0.2c0.9,0,1.6,0.2,2,0.6s0.6,1,0.6,1.9v5.1h-0.9V1342.5z M712.9,1341.7
			c0.7,0,1.3-0.2,1.7-0.6s0.6-0.9,0.6-1.6v-0.7h-1.1c-0.9,0-1.6,0.2-2,0.4c-0.4,0.2-0.6,0.6-0.6,1.2c0,0.4,0.1,0.7,0.4,0.9
			C712.1,1341.6,712.5,1341.7,712.9,1341.7z"/>
		<path d="M721.1,1341.7c0.2,0,0.4,0,0.6,0c0.2,0,0.3-0.1,0.4-0.1v0.9c-0.1,0.1-0.3,0.1-0.5,0.1s-0.5,0.1-0.6,0.1
			c-1.4,0-2.2-0.8-2.2-2.3v-4.5h-1.1v-0.5l1.1-0.5l0.5-1.6h0.7v1.7h2.2v0.9H720v4.4c0,0.5,0.1,0.8,0.3,1S720.7,1341.7,721.1,1341.7z
			"/>
		<path d="M726,1341.7c0.2,0,0.4,0,0.6,0c0.2,0,0.3-0.1,0.4-0.1v0.9c-0.1,0.1-0.3,0.1-0.5,0.1s-0.5,0.1-0.6,0.1
			c-1.4,0-2.2-0.8-2.2-2.3v-4.5h-1.1v-0.5l1.1-0.5l0.5-1.6h0.7v1.7h2.2v0.9h-2.2v4.4c0,0.5,0.1,0.8,0.3,1S725.7,1341.7,726,1341.7z"
			/>
		<path d="M731.7,1342.7c-1.1,0-2-0.3-2.6-1s-1-1.6-1-2.8c0-1.2,0.3-2.2,0.9-2.9c0.6-0.7,1.4-1.1,2.4-1.1c0.9,0,1.7,0.3,2.2,0.9
			s0.8,1.4,0.8,2.4v0.7h-5.2c0,0.9,0.2,1.5,0.7,2c0.4,0.5,1,0.7,1.8,0.7s1.6-0.2,2.4-0.5v1c-0.4,0.2-0.8,0.3-1.1,0.4
			C732.7,1342.6,732.2,1342.7,731.7,1342.7z M731.4,1335.9c-0.6,0-1.1,0.2-1.4,0.6c-0.4,0.4-0.6,0.9-0.6,1.6h3.9
			c0-0.7-0.2-1.3-0.5-1.6C732.5,1336,732,1335.9,731.4,1335.9z"/>
	</g>
	<g>
		<path d="M685.3,1618.4v4.2h-1.2v-10h2.7c1.2,0,2.1,0.2,2.7,0.7c0.6,0.5,0.9,1.2,0.9,2.1c0,1.3-0.7,2.2-2,2.7l2.7,4.5h-1.4
			l-2.4-4.2H685.3z M685.3,1617.4h1.6c0.8,0,1.4-0.2,1.8-0.5c0.4-0.3,0.6-0.8,0.6-1.5s-0.2-1.1-0.6-1.4c-0.4-0.3-1-0.4-1.9-0.4h-1.5
			L685.3,1617.4L685.3,1617.4z"/>
		<path d="M697.2,1622.5l-0.2-1.1h-0.1c-0.4,0.5-0.7,0.8-1.1,1c-0.4,0.2-0.8,0.3-1.4,0.3c-0.7,0-1.3-0.2-1.7-0.6
			c-0.4-0.4-0.6-0.9-0.6-1.6c0-1.5,1.2-2.3,3.6-2.4h1.3v-0.5c0-0.6-0.1-1-0.4-1.3c-0.3-0.3-0.7-0.4-1.2-0.4c-0.6,0-1.3,0.2-2.1,0.6
			l-0.3-0.9c0.4-0.2,0.8-0.4,1.2-0.5s0.9-0.2,1.3-0.2c0.9,0,1.6,0.2,2,0.6c0.4,0.4,0.6,1,0.6,1.9v5.1L697.2,1622.5L697.2,1622.5z
			 M694.6,1621.7c0.7,0,1.3-0.2,1.7-0.6c0.4-0.4,0.6-0.9,0.6-1.6v-0.7h-1.1c-0.9,0-1.6,0.2-2,0.4s-0.6,0.6-0.6,1.2
			c0,0.4,0.1,0.7,0.4,0.9C693.8,1621.6,694.2,1621.7,694.6,1621.7z"/>
		<path d="M705.5,1622.5v-4.8c0-0.6-0.1-1.1-0.4-1.4s-0.7-0.5-1.3-0.5c-0.8,0-1.4,0.2-1.7,0.6c-0.4,0.4-0.5,1.1-0.5,2.1v3.9h-1.1
			v-10.6h1.1v3.2c0,0.4,0,0.7-0.1,1h0.1c0.2-0.4,0.5-0.6,1-0.9c0.4-0.2,0.9-0.3,1.4-0.3c0.9,0,1.6,0.2,2.1,0.7
			c0.5,0.4,0.7,1.1,0.7,2.1v4.9H705.5z"/>
		<path d="M718.5,1622.5v-4.9c0-0.6-0.1-1-0.4-1.3c-0.3-0.3-0.7-0.4-1.2-0.4c-0.7,0-1.2,0.2-1.6,0.6c-0.3,0.4-0.5,1-0.5,1.9v4.2
			h-1.1v-4.9c0-0.6-0.1-1-0.4-1.3c-0.3-0.3-0.7-0.4-1.2-0.4c-0.7,0-1.2,0.2-1.6,0.6c-0.3,0.4-0.5,1.1-0.5,2.1v3.9h-1v-7.5h0.9l0.2,1
			h0.1c0.2-0.4,0.5-0.6,0.9-0.9c0.4-0.2,0.8-0.3,1.3-0.3c1.2,0,1.9,0.4,2.3,1.3h0.1c0.2-0.4,0.5-0.7,1-0.9c0.4-0.2,0.9-0.3,1.4-0.3
			c0.8,0,1.5,0.2,1.9,0.7c0.4,0.4,0.6,1.1,0.6,2.1v4.9h-1.2V1622.5z"/>
		<path d="M725.1,1622.7c-1.1,0-2-0.3-2.6-1s-1-1.6-1-2.8s0.3-2.2,0.9-2.9c0.6-0.7,1.4-1.1,2.4-1.1c0.9,0,1.7,0.3,2.2,0.9
			c0.5,0.6,0.8,1.4,0.8,2.4v0.7h-5.2c0,0.9,0.2,1.5,0.7,2c0.4,0.5,1,0.7,1.8,0.7s1.6-0.2,2.4-0.5v1c-0.4,0.2-0.8,0.3-1.1,0.4
			C726.1,1622.6,725.6,1622.7,725.1,1622.7z M724.8,1615.9c-0.6,0-1.1,0.2-1.4,0.6c-0.4,0.4-0.6,0.9-0.6,1.6h3.9
			c0-0.7-0.2-1.3-0.5-1.6C725.9,1616.1,725.4,1615.9,724.8,1615.9z"/>
		<path d="M735,1622.5v-4.8c0-0.6-0.1-1.1-0.4-1.4s-0.7-0.5-1.3-0.5c-0.8,0-1.4,0.2-1.7,0.6s-0.5,1.1-0.5,2.1v3.9H730v-7.5h0.9
			l0.2,1h0.1c0.2-0.4,0.6-0.7,1-0.9s0.9-0.3,1.4-0.3c0.9,0,1.6,0.2,2,0.7c0.5,0.4,0.7,1.1,0.7,2.1v4.9L735,1622.5L735,1622.5z"/>
	</g>
</g>
</svg>
