<?xml version="1.0" encoding="utf-8"?>
<!-- Generator: Adobe Illustrator 23.0.1, SVG Export Plug-In . SVG Version: 6.00 Build 0)  -->
<svg version="1.1" id="Ebene_1" xmlns="http://www.w3.org/2000/svg" xmlns:xlink="http://www.w3.org/1999/xlink" x="0px" y="0px"
	 viewBox="0 0 751.2 1712" style="enable-background:new 0 0 751.2 1712;" xml:space="preserve">
<style type="text/css">
	.st0{fill:#282828;stroke:#000000;stroke-miterlimit:10;}
	.st1{fill:url(#SVGID_1_);stroke:#000000;stroke-linejoin:round;stroke-miterlimit:10;}
	.st2{fill:url(#SVGID_2_);stroke:#000000;stroke-linejoin:bevel;stroke-miterlimit:10;}
	.st3{fill:#898989;stroke:#000000;stroke-linejoin:round;stroke-miterlimit:10;}
	.st4{fill:#9E7E64;stroke:#000000;stroke-miterlimit:10;}
	.st5{fill:none;stroke:#000000;stroke-miterlimit:10;}
	.st6{fill:#D1AD86;stroke:#000000;stroke-linejoin:round;stroke-miterlimit:10;}
	.st7{fill:#FFFFFF;stroke:#000000;stroke-width:0.5;stroke-miterlimit:10;}
	.st8{fill:none;stroke:#000000;stroke-width:0.5;stroke-miterlimit:10;}
	.st9{fill:#0C0C28;stroke:#000000;stroke-width:0.5;stroke-miterlimit:10;}
	.st10{fill:#161638;stroke:#000000;stroke-width:0.5;stroke-miterlimit:10;}
	.st11{stroke:#000000;stroke-width:0.5;stroke-miterlimit:10;}
	.st12{fill:#C9A277;stroke:#000000;stroke-linejoin:round;stroke-miterlimit:10;}
	.st13{fill:#EEC591;stroke:#000000;stroke-linejoin:round;stroke-miterlimit:10;}
	.st14{opacity:0.6;}
	.st15{fill:#C9A277;}
	.st16{fill:#FFFFFF;stroke:#000000;stroke-linejoin:round;stroke-miterlimit:10;}
	.st17{fill:#C17829;stroke:#000000;stroke-linejoin:round;stroke-miterlimit:10;}
	.st18{fill:none;stroke:#E22385;stroke-miterlimit:10;}
	.st19{fill:#F4F4F4;stroke:#000000;stroke-miterlimit:10;}
	.st20{opacity:0.4;fill:#FFFFFF;stroke:#000000;stroke-miterlimit:10;enable-background:new    ;}
	.st21{opacity:0.93;fill:#F4F4F4;stroke:#000000;stroke-miterlimit:10;enable-background:new    ;}
	.st22{fill:#303030;stroke:#000000;stroke-miterlimit:10;}
	.st23{fill:#FFFFFF;stroke:#000000;stroke-miterlimit:10;}
	.st24{enable-background:new    ;}
	.st25{fill:#333333;}
	.st26{fill:#272727;}
	.st27{fill:#414141;}
	.st28{fill:#262626;}
	.st29{fill:#292929;}
	.st30{fill:#2C2C2C;}
	.st31{fill:#2D2D2D;}
	.st32{fill:#252525;}
</style>
<g id="KAsten">
	<polyline class="st0" points="728.2,1551.6 375,1407.3 375,1325.1 727.5,1462.9 	"/>
	
		<linearGradient id="SVGID_1_" gradientUnits="userSpaceOnUse" x1="576.5427" y1="1150.9146" x2="540.2244" y2="1056.3015" gradientTransform="matrix(1 0 0 1 0 478.11)">
		<stop  offset="0" style="stop-color:#000000"/>
		<stop  offset="0.8746" style="stop-color:#0D0D0D"/>
		<stop  offset="0.878" style="stop-color:#131313"/>
		<stop  offset="0.8985" style="stop-color:#313131"/>
		<stop  offset="0.92" style="stop-color:#484848"/>
		<stop  offset="0.9429" style="stop-color:#595959"/>
		<stop  offset="0.9682" style="stop-color:#636363"/>
		<stop  offset="1" style="stop-color:#666666"/>
	</linearGradient>
	<path class="st1" d="M727.5,1462.9L385,1594l-10.4,4c0,0,0,17.1,0,27.2c0,9.9-0.4,81.5-0.4,81.5L744.7,1563c0,0,1-88,1-98
		C745.7,1461.8,727.5,1462.9,727.5,1462.9z"/>
	<polyline class="st0" points="20.8,1551.6 373.9,1407.3 373.9,1325.1 21.5,1462.9 	"/>
	
		<linearGradient id="SVGID_2_" gradientUnits="userSpaceOnUse" x1="5736.0332" y1="1151.0306" x2="5699.6245" y2="1056.1838" gradientTransform="matrix(-1 0 0 1 5908.2769 478.11)">
		<stop  offset="0" style="stop-color:#000000"/>
		<stop  offset="0.8692" style="stop-color:#0D0D0D"/>
		<stop  offset="0.8728" style="stop-color:#131313"/>
		<stop  offset="0.8941" style="stop-color:#313131"/>
		<stop  offset="0.9166" style="stop-color:#484848"/>
		<stop  offset="0.9405" style="stop-color:#595959"/>
		<stop  offset="0.9668" style="stop-color:#636363"/>
		<stop  offset="1" style="stop-color:#666666"/>
	</linearGradient>
	<path class="st2" d="M21.7,1462.9L364.2,1594l10.4,4c0,0,0,17.1,0,27.2c0,9.9-0.3,81.5-0.3,81.5L5,1561.7c0,0-1.5-86.7-1.5-96.7
		C3.5,1461.8,21.7,1462.9,21.7,1462.9z"/>
	<polygon class="st3" points="744.7,1463.9 728.2,1462.8 374.3,1325.1 377.3,1322.7 	"/>
	<polygon class="st3" points="4.6,1463.7 21.1,1462.6 375,1324.9 372,1322.5 	"/>
</g>
<g id="Standplatte">
	<g>
		<polyline class="st4" points="19.3,1278.8 19.3,1287.5 375,1424.1 730.6,1287.5 730.6,1278.8 		"/>
		<line class="st5" x1="375" y1="1424.1" x2="375" y2="1415"/>
		<polygon class="st6" points="377.5,1139.5 19.3,1278.8 375,1415 730.6,1278.8 		"/>
	</g>
</g>
<g id="LEDs">
	<g>
		<polygon class="st7" points="386.6,1260.4 672,1146.9 671,1146.2 386.1,1259.5 		"/>
		<polygon class="st7" points="385.8,1258.7 671.4,1144.9 670.4,1144.2 385.4,1257.7 		"/>
		<polygon class="st7" points="384.4,1257.2 669.7,1143.4 668.7,1142.8 383.9,1256.3 		"/>
	</g>
	<g>
		<line class="st8" x1="642.3" y1="1158.8" x2="642.8" y2="1159.7"/>
		<line class="st8" x1="676" y1="1145.6" x2="675" y2="1144.9"/>
		<line class="st8" x1="641.6" y1="1157" x2="642.1" y2="1157.9"/>
		<line class="st8" x1="675.3" y1="1143.8" x2="674.3" y2="1143.1"/>
		<line class="st8" x1="640.2" y1="1155.6" x2="640.7" y2="1156.5"/>
		<line class="st8" x1="673.9" y1="1142.4" x2="672.9" y2="1141.7"/>
	</g>
	<g>
		<path class="st9" d="M368.8,1260.1c0-2.7,4-4.9,8.9-4.9s8.9,2.2,8.9,4.9s-4,4.9-8.9,4.9S368.8,1262.8,368.8,1260.1z"/>
		<path class="st10" d="M368.8,1258.7c0-2.7,4-4.9,8.9-4.9s8.9,2.2,8.9,4.9s-4,4.9-8.9,4.9S368.8,1261.4,368.8,1258.7z"/>
		<polygon class="st11" points="373.5,1258.8 377.9,1256.9 381.9,1258.9 377.4,1260.7 		"/>
		<polygon class="st11" points="373.5,1258.3 377.9,1256.4 381.9,1258.4 377.4,1260.2 		"/>
		<polygon class="st11" points="373.4,1257.9 377.8,1256 381.8,1258 377.3,1259.8 		"/>
		<path class="st5" d="M368.8,1260.1"/>
		<path class="st5" d="M368.8,1257.4"/>
		<path class="st5" d="M386.5,1260.4"/>
		<path class="st5" d="M386.5,1257.2"/>
		<polygon class="st7" points="373.4,1257.6 377.8,1255.7 381.8,1257.8 377.3,1259.5 		"/>
		<line class="st8" x1="382.2" y1="1257.7" x2="382.2" y2="1258.9"/>
		<line class="st8" x1="373.1" y1="1257.7" x2="373.1" y2="1258.8"/>
	</g>
	<g>
		<path class="st9" d="M414.8,1242.1c0-2.7,4-4.9,8.9-4.9s8.9,2.2,8.9,4.9s-4,4.9-8.9,4.9C418.8,1247.1,414.8,1244.8,414.8,1242.1z"
			/>
		<path class="st10" d="M414.8,1240.7c0-2.7,4-4.9,8.9-4.9s8.9,2.2,8.9,4.9s-4,4.9-8.9,4.9S414.8,1243.4,414.8,1240.7z"/>
		<polygon class="st11" points="419.5,1240.8 423.9,1238.9 427.9,1240.9 423.4,1242.7 		"/>
		<polygon class="st11" points="419.5,1240.3 423.9,1238.4 427.9,1240.4 423.4,1242.2 		"/>
		<polygon class="st11" points="419.4,1239.9 423.8,1238 427.8,1240 423.3,1241.8 		"/>
		<path class="st5" d="M414.8,1242.1"/>
		<path class="st5" d="M414.8,1239.4"/>
		<path class="st5" d="M432.5,1242.4"/>
		<path class="st5" d="M432.5,1239.2"/>
		<polygon class="st7" points="419.4,1239.6 423.8,1237.7 427.8,1239.8 423.3,1241.5 		"/>
		<line class="st8" x1="428.2" y1="1239.7" x2="428.2" y2="1240.9"/>
		<line class="st8" x1="419.1" y1="1239.7" x2="419.1" y2="1240.8"/>
	</g>
	<g>
		<path class="st9" d="M458.8,1224.1c0-2.7,4-4.9,8.9-4.9s8.9,2.2,8.9,4.9s-4,4.9-8.9,4.9C462.8,1229.1,458.8,1226.8,458.8,1224.1z"
			/>
		<path class="st10" d="M458.8,1222.7c0-2.7,4-4.9,8.9-4.9s8.9,2.2,8.9,4.9s-4,4.9-8.9,4.9S458.8,1225.4,458.8,1222.7z"/>
		<polygon class="st11" points="463.5,1222.8 467.9,1220.9 471.9,1222.9 467.4,1224.7 		"/>
		<polygon class="st11" points="463.5,1222.3 467.9,1220.4 471.9,1222.4 467.4,1224.2 		"/>
		<polygon class="st11" points="463.4,1221.9 467.8,1220 471.8,1222 467.3,1223.8 		"/>
		<path class="st5" d="M458.8,1224.1"/>
		<path class="st5" d="M458.8,1221.4"/>
		<path class="st5" d="M476.5,1224.4"/>
		<path class="st5" d="M476.5,1221.2"/>
		<polygon class="st7" points="463.4,1221.6 467.8,1219.7 471.8,1221.8 467.3,1223.5 		"/>
		<line class="st8" x1="472.2" y1="1221.7" x2="472.2" y2="1222.9"/>
		<line class="st8" x1="463.1" y1="1221.7" x2="463.1" y2="1222.8"/>
	</g>
	<g>
		<path class="st9" d="M500.8,1208.1c0-2.7,4-4.9,8.9-4.9c4.9,0,8.9,2.2,8.9,4.9s-4,4.9-8.9,4.9
			C504.8,1213.1,500.8,1210.8,500.8,1208.1z"/>
		<path class="st10" d="M500.8,1206.7c0-2.7,4-4.9,8.9-4.9c4.9,0,8.9,2.2,8.9,4.9s-4,4.9-8.9,4.9
			C504.8,1211.6,500.8,1209.4,500.8,1206.7z"/>
		<polygon class="st11" points="505.5,1206.8 509.9,1204.9 513.9,1206.9 509.4,1208.7 		"/>
		<polygon class="st11" points="505.5,1206.3 509.9,1204.4 513.9,1206.4 509.4,1208.2 		"/>
		<polygon class="st11" points="505.4,1205.9 509.8,1204 513.8,1206 509.3,1207.8 		"/>
		<path class="st5" d="M500.8,1208.1"/>
		<path class="st5" d="M500.8,1205.4"/>
		<path class="st5" d="M518.5,1208.4"/>
		<path class="st5" d="M518.5,1205.2"/>
		<polygon class="st7" points="505.4,1205.6 509.8,1203.7 513.8,1205.8 509.3,1207.5 		"/>
		<line class="st8" x1="514.2" y1="1205.7" x2="514.2" y2="1206.9"/>
		<line class="st8" x1="505.1" y1="1205.7" x2="505.1" y2="1206.8"/>
	</g>
	<g>
		<path class="st9" d="M544.8,1191.1c0-2.7,4-4.9,8.9-4.9s8.9,2.2,8.9,4.9s-4,4.9-8.9,4.9C548.8,1196.1,544.8,1193.8,544.8,1191.1z"
			/>
		<path class="st10" d="M544.8,1189.7c0-2.7,4-4.9,8.9-4.9s8.9,2.2,8.9,4.9s-4,4.9-8.9,4.9S544.8,1192.4,544.8,1189.7z"/>
		<polygon class="st11" points="549.5,1189.8 553.9,1187.9 557.9,1189.9 553.4,1191.7 		"/>
		<polygon class="st11" points="549.5,1189.3 553.9,1187.4 557.9,1189.4 553.4,1191.2 		"/>
		<polygon class="st11" points="549.4,1188.9 553.8,1187 557.8,1189 553.3,1190.8 		"/>
		<path class="st5" d="M544.8,1191.1"/>
		<path class="st5" d="M544.8,1188.4"/>
		<path class="st5" d="M562.5,1191.4"/>
		<path class="st5" d="M562.5,1188.2"/>
		<polygon class="st7" points="549.4,1188.6 553.8,1186.7 557.8,1188.8 553.3,1190.5 		"/>
		<line class="st8" x1="558.2" y1="1188.7" x2="558.2" y2="1189.9"/>
		<line class="st8" x1="549.1" y1="1188.7" x2="549.1" y2="1189.8"/>
	</g>
	<g>
		<path class="st9" d="M586.8,1175.1c0-2.7,4-4.9,8.9-4.9s8.9,2.2,8.9,4.9s-4,4.9-8.9,4.9S586.8,1177.8,586.8,1175.1z"/>
		<path class="st10" d="M586.8,1173.7c0-2.7,4-4.9,8.9-4.9s8.9,2.2,8.9,4.9s-4,4.9-8.9,4.9S586.8,1176.4,586.8,1173.7z"/>
		<polygon class="st11" points="591.5,1173.8 595.9,1171.9 599.9,1173.9 595.4,1175.7 		"/>
		<polygon class="st11" points="591.5,1173.3 595.9,1171.4 599.9,1173.4 595.4,1175.2 		"/>
		<polygon class="st11" points="591.4,1172.9 595.8,1171 599.8,1173 595.3,1174.8 		"/>
		<path class="st5" d="M586.8,1175.1"/>
		<path class="st5" d="M586.8,1172.4"/>
		<path class="st5" d="M604.5,1175.4"/>
		<path class="st5" d="M604.5,1172.2"/>
		<polygon class="st7" points="591.4,1172.6 595.8,1170.7 599.8,1172.8 595.3,1174.5 		"/>
		<line class="st8" x1="600.2" y1="1172.7" x2="600.2" y2="1173.9"/>
		<line class="st8" x1="591.1" y1="1172.7" x2="591.1" y2="1173.8"/>
	</g>
	<g>
		<path class="st9" d="M627.8,1158.1c0-2.7,4-4.9,8.9-4.9s8.9,2.2,8.9,4.9s-4,4.9-8.9,4.9S627.8,1160.8,627.8,1158.1z"/>
		<path class="st10" d="M627.8,1156.7c0-2.7,4-4.9,8.9-4.9s8.9,2.2,8.9,4.9s-4,4.9-8.9,4.9S627.8,1159.4,627.8,1156.7z"/>
		<polygon class="st11" points="632.5,1156.8 636.9,1154.9 640.9,1156.9 636.4,1158.7 		"/>
		<polygon class="st11" points="632.5,1156.3 636.9,1154.4 640.9,1156.4 636.4,1158.2 		"/>
		<polygon class="st11" points="632.4,1155.9 636.8,1154 640.8,1156 636.3,1157.8 		"/>
		<path class="st5" d="M627.8,1158.1"/>
		<path class="st5" d="M627.8,1155.4"/>
		<path class="st5" d="M645.5,1158.4"/>
		<path class="st5" d="M645.5,1155.2"/>
		<polygon class="st7" points="632.4,1155.6 636.8,1153.7 640.8,1155.8 636.3,1157.5 		"/>
		<line class="st8" x1="641.2" y1="1155.7" x2="641.2" y2="1156.9"/>
		<line class="st8" x1="632.1" y1="1155.7" x2="632.1" y2="1156.8"/>
	</g>
	<g>
		<path class="st9" d="M666.8,1143.1c0-2.7,4-4.9,8.9-4.9s8.9,2.2,8.9,4.9s-4,4.9-8.9,4.9C670.8,1148.1,666.8,1145.8,666.8,1143.1z"
			/>
		<path class="st10" d="M666.8,1141.7c0-2.7,4-4.9,8.9-4.9s8.9,2.2,8.9,4.9s-4,4.9-8.9,4.9S666.8,1144.4,666.8,1141.7z"/>
		<polygon class="st11" points="671.5,1141.8 675.9,1139.9 679.9,1141.9 675.4,1143.7 		"/>
		<polygon class="st11" points="671.5,1141.3 675.9,1139.4 679.9,1141.4 675.4,1143.2 		"/>
		<polygon class="st11" points="671.4,1140.9 675.8,1139 679.8,1141 675.3,1142.8 		"/>
		<path class="st5" d="M666.8,1143.1"/>
		<path class="st5" d="M666.8,1140.4"/>
		<path class="st5" d="M684.5,1143.4"/>
		<path class="st5" d="M684.5,1140.2"/>
		<polygon class="st7" points="671.4,1140.6 675.8,1138.7 679.8,1140.8 675.3,1142.5 		"/>
		<line class="st8" x1="680.2" y1="1140.7" x2="680.2" y2="1141.9"/>
		<line class="st8" x1="671.1" y1="1140.7" x2="671.1" y2="1141.8"/>
	</g>
</g>
<g id="Abgrenzung">
	<g>
		<g>
			<path class="st12" d="M340.2,1050.2"/>
			<path class="st12" d="M306.3,1065.5"/>
			<g>
				<polygon class="st12" points="318.9,1071.2 349.7,1059.2 349.7,1005.1 319.3,1016.8 				"/>
				<polygon class="st12" points="310.9,1013.5 319.6,1016.8 350,1005.1 341.9,1001.6 				"/>
				<polygon class="st12" points="310.5,1067.9 318.9,1071.2 319.3,1016.8 310.5,1013.5 				"/>
			</g>
		</g>
		<g>
			<path class="st12" d="M385.9,1032.8"/>
			<path class="st12" d="M352,1048.1"/>
			<g>
				<polygon class="st12" points="364.5,1053.8 395.4,1041.8 395.4,987.7 365,999.4 				"/>
				<polygon class="st13" points="356.5,996.1 365.3,999.4 395.7,987.7 387.6,984.2 				"/>
				<polygon class="st12" points="356.2,1050.5 364.5,1053.8 365,999.4 356.2,996.1 				"/>
			</g>
		</g>
		<g>
			<path class="st12" d="M431.6,1015.4"/>
			<path class="st12" d="M397.7,1030.7"/>
			<g>
				<polygon class="st12" points="410.2,1036.4 441.1,1024.4 441.1,970.3 410.7,982 				"/>
				<polygon class="st13" points="402.2,978.7 410.9,982 441.4,970.3 433.3,966.8 				"/>
				<polygon class="st12" points="401.9,1033.1 410.2,1036.4 410.7,982 401.9,978.7 				"/>
			</g>
		</g>
		<g>
			<path class="st12" d="M476.2,998"/>
			<path class="st12" d="M442.2,1013.3"/>
			<g>
				<polygon class="st12" points="454.8,1019 485.7,1007 485.7,952.9 455.3,964.6 				"/>
				<polygon class="st13" points="446.8,961.3 455.5,964.6 486,952.9 477.9,949.4 				"/>
				<polygon class="st12" points="446.5,1015.7 454.8,1019 455.3,964.6 446.5,961.3 				"/>
			</g>
		</g>
		<g>
			<path class="st12" d="M519.7,981.7"/>
			<path class="st12" d="M485.8,997"/>
			<g>
				<polygon class="st12" points="498.3,1002.7 529.2,990.7 529.2,936.6 498.8,948.3 				"/>
				<polygon class="st13" points="490.3,945 499,948.3 529.5,936.6 521.4,933.1 				"/>
				<polygon class="st12" points="490,999.4 498.3,1002.7 498.8,948.3 490,945 				"/>
			</g>
		</g>
		<g>
			<path class="st12" d="M564.3,964.3"/>
			<path class="st12" d="M530.4,979.6"/>
			<g>
				<polygon class="st12" points="542.9,985.3 573.8,973.3 573.8,919.2 543.4,930.9 				"/>
				<polygon class="st13" points="534.9,927.6 543.6,930.9 574.1,919.2 566,915.7 				"/>
				<polygon class="st12" points="534.6,982 542.9,985.3 543.4,930.9 534.6,927.6 				"/>
			</g>
		</g>
		<g>
			<path class="st12" d="M607.8,948"/>
			<path class="st12" d="M573.9,963.3"/>
			<g>
				<polygon class="st12" points="586.4,968.9 617.3,957 617.3,902.9 586.9,914.5 				"/>
				<polygon class="st13" points="578.4,911.3 587.1,914.5 617.6,902.9 609.5,899.4 				"/>
				<polygon class="st12" points="578.1,965.7 586.4,968.9 586.9,914.5 578.1,911.3 				"/>
			</g>
		</g>
		<g>
			<path class="st12" d="M651.3,931.6"/>
			<path class="st12" d="M617.4,946.9"/>
			<g>
				<polygon class="st12" points="629.9,952.6 660.8,940.7 660.8,886.6 630.4,898.2 				"/>
				<polygon class="st13" points="622,895 630.7,898.2 661.1,886.6 653,883.1 				"/>
				<polygon class="st12" points="621.6,949.4 629.9,952.6 630.4,898.2 621.6,895 				"/>
			</g>
		</g>
		<polygon class="st12" points="305.1,1027.3 319.4,1021.9 310.8,1018.3 302.4,1021.3 305.1,1022.6 		"/>
		<polygon class="st12" points="349.7,1010.4 364.9,1004.7 355.9,1000.9 347,1004.2 349.7,1005.4 		"/>
		<polygon class="st13" points="395.4,993 410.5,987.3 401.7,983.5 392.8,986.7 395.4,988 		"/>
		<polygon class="st13" points="441.1,975.1 455.4,969.6 446.7,966.1 438.4,969.1 441.1,970.3 		"/>
		<polygon class="st13" points="486,958.3 499,953.4 491,950.1 484.5,952.5 486,953.2 		"/>
		<polygon class="st13" points="529.2,941.3 543.5,935.9 534.9,932.3 526.5,935.4 529.2,936.6 		"/>
		<polygon class="st13" points="574.1,924.1 587.3,919.2 579,916 572.3,918.4 574.1,919.4 		"/>
		<polygon class="st13" points="617.8,907.5 630.7,902.8 622,899.2 615,901.8 617.8,902.9 		"/>
		<g>
			<path class="st12" d="M295.6,1067.6"/>
			<path class="st12" d="M261.7,1082.9"/>
			<g>
				<polygon class="st12" points="274.3,1088.6 305.1,1076.6 305.1,1022.6 274.7,1034.2 				"/>
				<polygon class="st12" points="265.9,1085.3 274.3,1088.6 274.7,1034.2 265.9,1030.9 				"/>
				<polygon class="st12" points="266.3,1030.9 275,1034.2 305.4,1022.6 297.3,1019 				"/>
			</g>
		</g>
		<polyline class="st12" points="274.7,1039.4 274.4,1088.6 661.1,940.7 660.9,891.5 		"/>
	</g>
	<g>
		<g>
			<path class="st12" d="M384.5,1066.7"/>
			<path class="st12" d="M350.6,1081.9"/>
			<g>
				<polygon class="st12" points="363.4,1087.6 394.3,1075.7 394.3,1021.9 363.9,1033.5 				"/>
				<polygon class="st12" points="355.2,1030.2 363.9,1033.5 394.3,1021.9 386.2,1018.4 				"/>
				<polygon class="st12" points="355.1,1084.3 363.3,1087.6 363.8,1033.5 355.1,1030.2 				"/>
			</g>
		</g>
		<g>
			<path class="st12" d="M430.1,1049.4"/>
			<path class="st12" d="M396.2,1064.6"/>
			<g>
				<polygon class="st12" points="409,1070.2 440,1058.3 440,1004.6 409.6,1016.2 				"/>
				<polygon class="st13" points="400.8,1012.9 409.5,1016.2 439.8,1004.6 431.8,1001.1 				"/>
				<polygon class="st12" points="400.8,1067 408.9,1070.2 409.5,1016.2 400.8,1012.9 				"/>
			</g>
		</g>
		<g>
			<path class="st12" d="M475.7,1032.1"/>
			<path class="st12" d="M441.8,1047.3"/>
			<g>
				<polygon class="st12" points="454.1,1052.9 484.6,1041 484.6,987.3 454.4,998.8 				"/>
				<polygon class="st13" points="446.4,995.6 455,998.8 485.4,987.3 477.3,983.8 				"/>
				<polygon class="st12" points="446.5,1049.7 454.6,1052.9 455.1,998.8 446.5,995.6 				"/>
			</g>
		</g>
		<g>
			<path class="st12" d="M520.2,1014.8"/>
			<path class="st12" d="M486.3,1030"/>
			<g>
				<polygon class="st12" points="498.6,1035.6 529.2,1023.7 529.2,970 499,981.5 				"/>
				<polygon class="st13" points="490.9,978.3 499.5,981.5 529.9,970 521.8,966.5 				"/>
				<polygon class="st12" points="490,1032.4 498.6,1035.6 498.9,981.5 490,978.3 				"/>
			</g>
		</g>
		<g>
			<path class="st12" d="M563.6,998.5"/>
			<path class="st12" d="M529.7,1013.8"/>
			<g>
				<polygon class="st12" points="542.1,1019.4 572.7,1007.5 572.7,953.7 542.5,965.3 				"/>
				<polygon class="st13" points="534.3,962.1 542.9,965.3 573.3,953.7 565.2,950.2 				"/>
				<polygon class="st12" points="533.5,1016.2 542,1019.4 542.4,965.3 533.5,962.1 				"/>
			</g>
		</g>
		<g>
			<path class="st12" d="M608.1,981.2"/>
			<path class="st12" d="M574.2,996.5"/>
			<g>
				<polygon class="st12" points="586.6,1002.1 617.3,990.2 617.3,936.4 587,948 				"/>
				<polygon class="st13" points="578.7,944.8 587.4,948 617.8,936.4 609.7,932.9 				"/>
				<polygon class="st12" points="578.1,998.8 586.6,1002.1 587,948 578.1,944.8 				"/>
			</g>
		</g>
		<g>
			<path class="st12" d="M651.5,965"/>
			<path class="st12" d="M617.6,980.2"/>
			<g>
				<polygon class="st12" points="630.1,985.9 660.8,974 660.8,920.2 630.5,931.8 				"/>
				<polygon class="st13" points="622.2,928.5 630.8,931.8 661.2,920.2 653.1,916.7 				"/>
				<polygon class="st12" points="621.6,982.6 630,985.9 630.4,931.8 621.6,928.5 				"/>
			</g>
		</g>
		<g>
			<path class="st12" d="M694.9,948.8"/>
			<path class="st12" d="M661,964"/>
			<g>
				<polygon class="st12" points="673.5,969.6 704.3,957.7 704.3,904 674,915.6 				"/>
				<polygon class="st13" points="665.6,912.3 674.2,915.6 704.6,904 696.5,900.5 				"/>
				<polygon class="st12" points="665.1,966.4 673.5,969.6 673.9,915.6 665.1,912.3 				"/>
			</g>
		</g>
		<polygon class="st12" points="349.7,1043.9 363.8,1038.5 355.2,1034.9 346.9,1038 349.7,1039.2 		"/>
		<polygon class="st12" points="394.3,1027.1 409.3,1021.4 400.2,1017.7 391.4,1020.9 394.3,1022.2 		"/>
		<polygon class="st13" points="440,1009.8 454.8,1004.1 445.9,1000.3 437.2,1003.5 440,1004.8 		"/>
		<polygon class="st13" points="484.6,992 499.1,986.6 490.6,983 482.1,986 484.6,987.3 		"/>
		<polygon class="st13" points="529.9,975.3 542.9,970.4 534.9,967.1 528.5,969.5 529.9,970.2 		"/>
		<polygon class="st13" points="572.7,958.4 587.1,953 578.6,949.5 570.1,952.5 572.7,953.7 		"/>
		<polygon class="st13" points="617.8,941.3 630.9,936.5 622.7,933.3 616,935.6 617.8,936.6 		"/>
		<polygon class="st13" points="661.4,924.7 674.2,920 665.6,916.5 658.6,919.1 661.5,920.2 		"/>
		<g>
			<path class="st12" d="M340,1084"/>
			<path class="st12" d="M306.2,1099.2"/>
			<g>
				<polygon class="st12" points="318.8,1104.9 349.7,1093 349.7,1039.2 319.3,1050.8 				"/>
				<polygon class="st12" points="310.5,1101.6 318.8,1104.9 319.3,1050.8 310.5,1047.5 				"/>
				<polygon class="st12" points="310.7,1047.5 319.4,1050.8 349.8,1039.2 341.7,1035.7 				"/>
			</g>
		</g>
		<polyline class="st12" points="319.2,1056 318.9,1104.9 704.6,957.7 704.4,908.9 		"/>
	</g>
	<g>
		<path class="st12" d="M414,1049.1"/>
		<path class="st12" d="M447.9,1064.4"/>
		<g>
			<polygon class="st12" points="435.1,1070.1 404.1,1058.1 404.1,1004.1 434.6,1015.7 			"/>
			<polygon class="st13" points="443.3,1012.4 434.6,1015.7 404.2,1004.1 412.3,1000.5 			"/>
			<polygon class="st12" points="443.2,1066.8 435.1,1070.1 434.6,1015.7 443.2,1012.4 			"/>
		</g>
	</g>
	<g>
		<path class="st12" d="M368.3,1031.7"/>
		<path class="st12" d="M402.2,1047"/>
		<g>
			<polygon class="st12" points="389.4,1052.7 358.4,1040.7 358.4,986.7 388.9,998.3 			"/>
			<polygon class="st13" points="397.7,995 388.9,998.3 358.5,986.7 366.6,983.1 			"/>
			<polygon class="st12" points="397.5,1049.4 389.4,1052.7 388.9,998.3 397.5,995 			"/>
		</g>
	</g>
	<g>
		<path class="st12" d="M322.6,1014.3"/>
		<path class="st12" d="M356.5,1029.6"/>
		<g>
			<polygon class="st12" points="343.8,1035.3 312.7,1023.3 312.7,969.3 343.2,980.9 			"/>
			<polygon class="st13" points="352,977.6 343.3,980.9 312.8,969.3 320.9,965.7 			"/>
			<polygon class="st12" points="351.9,1032 343.8,1035.3 343.2,980.9 351.9,977.6 			"/>
		</g>
	</g>
	<g>
		<path class="st12" d="M278,996.9"/>
		<path class="st12" d="M312,1012.2"/>
		<g>
			<polygon class="st12" points="299.2,1017.9 268.1,1005.9 268.1,951.9 298.6,963.5 			"/>
			<polygon class="st13" points="307.4,960.2 298.7,963.5 268.2,951.9 276.3,948.3 			"/>
			<polygon class="st12" points="307.3,1014.6 299.2,1017.9 298.6,963.5 307.3,960.2 			"/>
		</g>
	</g>
	<g>
		<path class="st12" d="M234.5,980.6"/>
		<path class="st12" d="M268.4,995.9"/>
		<g>
			<polygon class="st12" points="255.7,1001.6 224.6,989.6 224.6,935.5 255.1,947.2 			"/>
			<polygon class="st13" points="263.9,943.9 255.2,947.2 224.7,935.5 232.8,932 			"/>
			<polygon class="st12" points="263.8,998.3 255.7,1001.6 255.1,947.2 263.8,943.9 			"/>
		</g>
	</g>
	<g>
		<path class="st12" d="M189.9,963.2"/>
		<path class="st12" d="M223.8,978.5"/>
		<g>
			<polygon class="st12" points="211.1,984.2 180,972.2 180,918.1 210.5,929.8 			"/>
			<polygon class="st13" points="219.3,926.5 210.6,929.8 180.1,918.1 188.2,914.6 			"/>
			<polygon class="st12" points="219.2,980.9 211.1,984.2 210.5,929.8 219.2,926.5 			"/>
		</g>
	</g>
	<g>
		<path class="st12" d="M146.4,946.9"/>
		<path class="st12" d="M180.3,962.2"/>
		<g>
			<polygon class="st12" points="167.5,967.8 136.5,955.9 136.5,901.8 167,913.5 			"/>
			<polygon class="st13" points="175.8,910.2 167.1,913.5 136.6,901.8 144.7,898.3 			"/>
			<polygon class="st12" points="175.7,964.6 167.5,967.8 167,913.5 175.7,910.2 			"/>
		</g>
	</g>
	<g>
		<path class="st12" d="M102.9,930.6"/>
		<path class="st12" d="M136.8,945.9"/>
		<g>
			<polygon class="st12" points="124,951.5 93,939.6 93,885.5 123.5,897.1 			"/>
			<polygon class="st13" points="132.2,893.9 123.5,897.1 93.1,885.5 101.2,882 			"/>
			<polygon class="st12" points="132.1,948.3 124,951.5 123.5,897.1 132.1,893.9 			"/>
		</g>
	</g>
	<polygon class="st13" points="448.7,1026.2 434.6,1020.8 443.3,1017.2 451.5,1020.2 448.7,1021.5 	"/>
	<polygon class="st13" points="404.1,1009.3 389.1,1003.6 398.2,999.9 407,1003.1 404.1,1004.4 	"/>
	<polygon class="st13" points="358.4,991.9 343.5,986.2 352.4,982.4 361.2,985.6 358.4,986.9 	"/>
	<polygon class="st13" points="312.7,974 298.6,968.6 307.3,965 315.6,968 312.7,969.3 	"/>
	<polygon class="st13" points="268.2,957.2 255.2,952.3 263.2,949 269.7,951.4 268.2,952.1 	"/>
	<polygon class="st13" points="224.6,940.3 210.5,934.8 219.2,931.3 227.5,934.3 224.6,935.5 	"/>
	<polygon class="st13" points="180.1,923 166.9,918.2 175.2,914.9 181.9,917.3 180.1,918.3 	"/>
	<polygon class="st13" points="136.4,906.4 123.5,901.7 132.2,898.1 139.2,900.7 136.4,901.8 	"/>
	<path class="st12" d="M458.6,1066.5"/>
	<path class="st12" d="M490.6,1080.3"/>
	<polyline class="st12" points="479.5,1038.4 479.8,1087.5 93.1,939.6 93.3,890.4 	"/>
	<g>
		<g>
			<path class="st12" d="M387,1033.9"/>
			<path class="st12" d="M353.1,1049.2"/>
			<g>
				<polygon class="st12" points="365.6,1054.9 379.1,1049.4 379.1,995.4 366.1,1000.5 				"/>
				<polygon class="st13" points="357.6,997.2 366.3,1000.5 379.4,995 371.3,991.8 				"/>
				<polygon class="st12" points="357.3,1051.6 365.6,1054.9 366.1,1000.5 357.3,997.2 				"/>
			</g>
		</g>
		<polygon class="st13" points="351.9,1011 366.2,1005.5 357.6,1002 349.2,1005 351.9,1006.2 		"/>
		<g>
			<path class="st12" d="M340.2,1052.4"/>
			<path class="st12" d="M308.5,1066.6"/>
			<g>
				<polygon class="st12" points="338.4,1065.7 351.9,1060.3 351.9,1006.2 338.9,1011.4 				"/>
				<polygon class="st12" points="330.1,1062.5 338.4,1065.7 338.9,1011.4 330.1,1008.1 				"/>
				<polygon class="st13" points="330.4,1008.1 339.1,1011.4 352.2,1006.2 344.1,1002.7 				"/>
			</g>
		</g>
		<polyline class="st12" points="338.9,1016.6 338.6,1065.7 379.4,1049.4 379.1,1000.3 		"/>
	</g>
	<g>
		<g>
			<path class="st12" d="M431.6,1050.2"/>
			<path class="st12" d="M397.7,1065.5"/>
			<g>
				<polygon class="st12" points="410.2,1071.2 423.7,1065.7 423.7,1011.7 410.7,1016.8 				"/>
				<polygon class="st13" points="402.2,1013.5 410.9,1016.8 424,1011.7 415.6,1008.4 				"/>
				<polygon class="st12" points="401.9,1067.9 410.2,1071.2 410.7,1016.8 401.9,1013.5 				"/>
			</g>
		</g>
		<polygon class="st13" points="396.5,1027.1 410.8,1021.6 402.2,1018.4 394.1,1021.4 396.5,1022.3 		"/>
		<g>
			<path class="st12" d="M384.8,1068.7"/>
			<path class="st12" d="M353.1,1082.9"/>
			<g>
				<polygon class="st12" points="383,1082.1 396.5,1076.6 396.5,1022.6 383.5,1027.7 				"/>
				<polygon class="st12" points="374.7,1078.8 383,1082.1 383.5,1027.7 374.7,1024.4 				"/>
				<polygon class="st13" points="374.2,1024.8 382.9,1028.1 396.8,1022.6 388.7,1019 				"/>
			</g>
		</g>
		<polyline class="st12" points="383.5,1032.9 383.2,1082.1 424,1065.7 423.7,1016.6 		"/>
	</g>
	<g>
		<path class="st12" d="M362.8,1068.7"/>
		<path class="st12" d="M396.8,1084"/>
		<g>
			<polygon class="st12" points="384,1089.7 353,1077.7 353,1023.6 383.4,1035.3 			"/>
			<polygon class="st13" points="392.2,1032 383.5,1035.3 353.1,1023.6 361.2,1020.1 			"/>
			<polygon class="st12" points="392.1,1086.4 384,1089.7 383.4,1035.3 392.1,1032 			"/>
		</g>
	</g>
	<g>
		<path class="st12" d="M317.1,1051.3"/>
		<path class="st12" d="M351.1,1066.6"/>
		<g>
			<polygon class="st12" points="338.3,1072.3 307.3,1060.3 307.3,1006.2 337.8,1017.9 			"/>
			<polygon class="st13" points="346.5,1014.6 337.8,1017.9 307.4,1006.2 315.5,1002.7 			"/>
			<polygon class="st12" points="346.4,1069 338.3,1072.3 337.8,1017.9 346.4,1014.6 			"/>
		</g>
	</g>
	<g>
		<path class="st12" d="M271.5,1033.9"/>
		<path class="st12" d="M305.4,1049.2"/>
		<g>
			<polygon class="st12" points="292.6,1054.9 261.6,1042.9 261.6,988.8 292.1,1000.5 			"/>
			<polygon class="st13" points="300.8,997.2 292.1,1000.5 261.7,988.8 269.8,985.3 			"/>
			<polygon class="st12" points="300.7,1051.6 292.6,1054.9 292.1,1000.5 300.7,997.2 			"/>
		</g>
	</g>
	<g>
		<path class="st12" d="M226.9,1016.5"/>
		<path class="st12" d="M260.8,1031.8"/>
		<g>
			<polygon class="st12" points="248,1037.5 217,1025.5 217,971.4 247.5,983.1 			"/>
			<polygon class="st13" points="256.2,979.8 247.5,983.1 217.1,971.4 225.2,967.9 			"/>
			<polygon class="st12" points="256.1,1034.2 248,1037.5 247.5,983.1 256.1,979.8 			"/>
		</g>
	</g>
	<g>
		<path class="st12" d="M183.4,1000.2"/>
		<path class="st12" d="M217.3,1015.5"/>
		<g>
			<polygon class="st12" points="204.5,1021.1 173.5,1009.2 173.5,955.1 204,966.8 			"/>
			<polygon class="st13" points="212.7,963.5 204,966.8 173.6,955.1 181.7,951.6 			"/>
			<polygon class="st12" points="212.6,1017.9 204.5,1021.1 204,966.8 212.6,963.5 			"/>
		</g>
	</g>
	<g>
		<path class="st12" d="M138.8,982.8"/>
		<path class="st12" d="M172.7,998.1"/>
		<g>
			<polygon class="st12" points="159.9,1003.7 128.9,991.8 128.9,937.7 159.4,949.4 			"/>
			<polygon class="st13" points="168.1,946.1 159.4,949.4 129,937.7 137.1,934.2 			"/>
			<polygon class="st12" points="168,1000.5 159.9,1003.7 159.4,949.4 168,946.1 			"/>
		</g>
	</g>
	<g>
		<path class="st12" d="M95.3,966.5"/>
		<path class="st12" d="M129.2,981.8"/>
		<g>
			<polygon class="st12" points="116.4,987.4 85.4,975.5 85.4,921.4 115.9,933 			"/>
			<polygon class="st13" points="124.6,929.8 115.9,933 85.5,921.4 93.6,917.9 			"/>
			<polygon class="st12" points="124.5,984.2 116.4,987.4 115.9,933 124.5,929.8 			"/>
		</g>
	</g>
	<g>
		<path class="st12" d="M51.7,950.1"/>
		<path class="st12" d="M85.7,965.4"/>
		<g>
			<polygon class="st12" points="72.9,971.1 41.9,959.1 41.9,905.1 72.3,916.7 			"/>
			<polygon class="st13" points="81.1,913.5 72.4,916.7 42,905.1 50.1,901.6 			"/>
			<polygon class="st12" points="81,967.8 72.9,971.1 72.3,916.7 81,913.5 			"/>
		</g>
	</g>
	<polygon class="st13" points="397.5,1045.8 383.5,1040.4 392.2,1036.8 400.4,1039.8 397.5,1041 	"/>
	<polygon class="st13" points="353,1028.5 337.9,1022.8 347.1,1019.4 355.9,1022.6 353,1023.9 	"/>
	<polygon class="st13" points="307.3,1011.2 292.4,1005.5 301.3,1002 310,1005.2 307.3,1006.5 	"/>
	<polygon class="st13" points="261.6,993.6 247.5,988.1 256.2,984.6 264.4,987.6 261.6,988.8 	"/>
	<polygon class="st13" points="217.1,976.8 204,971.9 212.1,968.6 218.5,971 217.1,971.7 	"/>
	<polygon class="st13" points="173.5,959.8 159.4,954.4 168.1,950.8 176.3,953.9 173.5,955.1 	"/>
	<polygon class="st13" points="129,942.6 115.8,937.7 124.1,934.5 130.8,936.9 129,937.9 	"/>
	<polygon class="st13" points="85.3,926 72.4,921.2 81.1,917.7 88.1,920.2 85.2,921.4 	"/>
	<path class="st12" d="M407.1,1084.5"/>
	<path class="st12" d="M440.4,1099.5"/>
	<polygon class="st12" points="487.8,1084.2 479.7,1087.5 479.2,1033.1 487.8,1029.8 	"/>
	<polygon class="st12" points="436.7,1103.8 428.6,1107.1 428,1052.7 436.7,1049.4 	"/>
	<polyline class="st12" points="428.4,1057.9 428.7,1107.1 42,959.1 42.2,910 	"/>
	<g>
		<g>
			<path class="st12" d="M358.7,1042.6"/>
			<path class="st12" d="M305.2,1065.5"/>
			<g>
				<polygon class="st12" points="317.8,1071.2 326.8,1067.9 326.8,1013.9 318.2,1016.8 				"/>
				<polygon class="st13" points="309.8,1013.5 318.5,1016.8 327.2,1013.9 318.6,1010.6 				"/>
				<polygon class="st12" points="309.4,1067.9 317.8,1071.2 318.2,1016.8 309.4,1013.5 				"/>
			</g>
		</g>
		<polygon class="st13" points="304,1027.3 318.3,1021.9 309.7,1018.3 301.3,1021.3 304,1022.6 		"/>
		<g>
			<path class="st12" d="M294.6,1067.6"/>
			<path class="st12" d="M260.6,1082.9"/>
			<g>
				<polygon class="st12" points="273.2,1088.6 304,1076.6 304,1022.6 273.6,1034.2 				"/>
				<polygon class="st12" points="264.8,1085.3 273.2,1088.6 273.6,1034.2 264.8,1030.9 				"/>
				<polygon class="st13" points="265.2,1030.9 273.9,1034.2 303.2,1022.6 295.4,1019.2 				"/>
			</g>
		</g>
		<polyline class="st12" points="273.6,1039.4 273.3,1088.6 327.2,1067.9 326.9,1018.8 		"/>
	</g>
	<g>
		<g>
			<path class="st12" d="M404.4,1060"/>
			<path class="st12" d="M350.9,1082.9"/>
			<g>
				<polygon class="st12" points="363.5,1088.6 372.5,1085.3 372.5,1031.3 363.9,1034.2 				"/>
				<polygon class="st13" points="355.6,1030.8 364.2,1034.1 372.9,1031.3 364.9,1028.1 				"/>
				<polygon class="st12" points="355.2,1085.3 363.5,1088.6 363.9,1034.2 355.6,1031.1 				"/>
			</g>
		</g>
		<polygon class="st13" points="349.7,1044.7 364,1039.3 355.4,1035.7 347,1038.7 349.7,1040 		"/>
		<g>
			<path class="st12" d="M340.2,1085"/>
			<path class="st12" d="M306.3,1100.3"/>
			<g>
				<polygon class="st12" points="318.9,1106 349.7,1094 349.7,1040 319.3,1051.6 				"/>
				<polygon class="st12" points="310.6,1102.7 318.9,1106 319.4,1051.6 311,1048.9 				"/>
				<polygon class="st13" points="311,1048.7 319.6,1051.6 349.7,1040.2 341.7,1037 				"/>
			</g>
		</g>
		<polyline class="st12" points="319.3,1056.8 319,1106 372.9,1085.3 372.6,1036.2 		"/>
	</g>
	<g class="st14">
		<polygon class="st7" points="344.3,1061.1 329.5,1055.6 716.8,908.5 733.1,914.7 		"/>
		<polygon class="st7" points="344.3,1061.1 344.3,1064.9 329.5,1059.3 329.5,1055.6 		"/>
		<polygon class="st7" points="344.3,1064.9 733.1,918.3 733.1,914.7 344.3,1061.1 		"/>
	</g>
	<polygon class="st13" points="436.8,1049.4 428.1,1052.7 397.7,1041 405.8,1037.5 	"/>
	<polygon class="st12" points="428.6,1107.1 397.5,1095.1 397.5,1041 428,1052.7 	"/>
	<polyline class="st15" points="426.7,1064.1 427,1106 396.2,1094.1 396.8,1045.8 	"/>
	<polygon class="st12" points="479.7,1087.5 448.7,1075.5 448.7,1021.5 479.2,1033.1 	"/>
	<polygon class="st13" points="487.9,1029.8 479.2,1033.1 448.8,1021.5 456.9,1017.9 	"/>
	<polyline class="st15" points="478.2,1044.6 478.5,1086.6 447.7,1074.7 447.9,1026.2 	"/>
</g>
<g id="Sensor">
	<polygon class="st16" points="303.8,862.7 690,716.8 690,713.3 303.8,858.9 	"/>
	<polygon class="st16" points="346.6,878.9 732.8,733.1 732.8,729.5 346.6,875.1 	"/>
	<g>
		<polygon class="st16" points="402.9,876.2 402.9,880 417.3,874.4 417.3,870.9 		"/>
		<polygon class="st16" points="402.9,880 16.6,734.1 16.6,730.6 402.9,876.2 		"/>
		<polygon class="st17" points="402.9,876.2 417.3,870.9 32.4,724.6 16.6,730.6 		"/>
	</g>
	<g>
		<polygon class="st17" points="444.8,858.1 459.2,852.8 74.3,706.5 58.5,712.5 		"/>
		<polygon class="st16" points="444.8,858.1 444.8,861.9 459.2,856.3 459.2,852.8 		"/>
		<polygon class="st16" points="444.8,861.9 58.5,716 58.5,712.5 444.8,858.1 		"/>
	</g>
	<path class="st18" d="M388.9,848.3"/>
	<path class="st18" d="M388.1,1031"/>
	<path class="st18" d="M402.6,874.2"/>
	<path class="st18" d="M401.1,1036.3"/>
	<polygon class="st17" points="346.6,875.1 332.1,869.8 717,723.5 732.8,729.5 	"/>
	<polygon class="st16" points="346.6,875.1 346.6,878.9 332.1,873.4 332.1,869.8 	"/>
	<polygon class="st16" points="346.6,878.9 373.7,868.8 373.7,865.3 346.6,875.1 	"/>
	<polygon class="st16" points="303.8,862.7 330.9,852.6 330.9,849 303.8,858.9 	"/>
	<polygon class="st16" points="392.7,861.5 418.9,851.8 418.9,848.3 387.7,859.6 	"/>
	<polygon class="st16" points="350.1,845 375.5,835.6 375.5,832.1 345.1,843.1 	"/>
	<polygon class="st17" points="303.8,858.9 289.4,853.6 674.2,707.3 690,713.3 	"/>
	<polygon class="st16" points="303.8,858.9 303.8,862.7 289.4,857.1 289.4,853.6 	"/>
</g>
<g id="Vivak">
	<path class="st19" d="M486.8,257.7"/>
	<g>
		<polygon class="st20" points="375.9,417.7 14.8,558.1 375.9,696.3 736.9,558.1 		"/>
		<path d="M375.9,696.7l-0.1-0.1l-362-138.5l0.9-0.3l361.2-140.4l0.1,0.1l361.9,140.7L375.9,696.7z M15.9,558.1l360,137.9l360-137.9
			l-360-140L15.9,558.1z"/>
	</g>
	<path class="st19" d="M56.2,1072.9"/>
</g>
<g id="Transparentpapier">
	<g>
		<polygon class="st21" points="375.4,211.8 14.3,352.2 309.9,465.4 375.4,490.5 442.8,464.6 736.4,352.2 		"/>
		<path class="st5" d="M305.9,463.9c23.7,3.4,49.5,4.6,69.6-11.8c0,0,25,20.9,68.5,12.1"/>
		<path class="st5" d="M305.9,463.9c44.1,8.8,69.6-5.5,69.6-5.5s25,14.6,68.5,5.8"/>
		<path class="st5" d="M305.9,463.9c44.1,8.8,69.6,0.8,69.6,0.8s25,8.3,68.5-0.5"/>
		<path class="st5" d="M305.9,463.9c44.1,8.8,69.6,7.1,69.6,7.1s25,2,68.5-6.8"/>
		<path class="st5" d="M305.9,463.9c44.1,8.8,69.6,13.4,69.6,13.4s25-4.3,68.5-13.1"/>
		<path class="st5" d="M305.9,463.9c44.1,11.3,69.6,21,69.6,21s25.6-9.3,68.5-20.7"/>
	</g>
</g>
<g id="Plexi">
	<g>
		<g>
			<g>
				<g>
					<g>
						<polyline class="st22" points="330.1,38.2 330.1,45.6 374.5,62.8 418.9,45.7 418.9,38.2 						"/>
						<line class="st5" x1="374.5" y1="62.8" x2="374.5" y2="55.1"/>
						<polygon class="st22" points="374.5,21.1 330.6,38.2 374.5,55 418.3,38.2 						"/>
					</g>
					<g>
						<polyline class="st23" points="374.3,55.4 374.3,62.8 418.7,80 463.1,63 463.1,55.4 						"/>
						<line class="st5" x1="418.7" y1="80" x2="418.7" y2="72.3"/>
						<polygon class="st23" points="418.7,38.4 374.8,55.4 418.7,72.2 462.5,55.4 						"/>
					</g>
					<g>
						<polyline class="st23" points="285.6,55.1 285.6,62.6 329.9,79.7 374.3,62.7 374.3,55.2 						"/>
						<line class="st5" x1="329.9" y1="79.7" x2="329.9" y2="72"/>
						<polygon class="st23" points="329.9,38.1 286.1,55.1 329.9,71.9 373.8,55.1 						"/>
					</g>
					<g>
						<polyline class="st22" points="330.1,72.3 330.1,79.7 374.5,96.9 418.9,79.9 418.9,72.3 						"/>
						<line class="st5" x1="374.5" y1="96.9" x2="374.5" y2="89.2"/>
						<polygon class="st22" points="374.5,55.2 330.6,72.3 374.5,89.1 418.3,72.3 						"/>
					</g>
				</g>
				<g>
					<g>
						<polyline class="st22" points="419.1,72.5 419.1,80 463.5,97.1 507.9,80.1 507.9,72.6 						"/>
						<line class="st5" x1="463.5" y1="97.1" x2="463.5" y2="89.4"/>
						<polygon class="st22" points="463.5,55.5 419.6,72.5 463.5,89.3 507.3,72.5 						"/>
					</g>
					<g>
						<polyline class="st23" points="463.3,89.8 463.3,97.2 507.7,114.4 552.1,97.3 552.1,89.8 						"/>
						<line class="st5" x1="507.7" y1="114.4" x2="507.7" y2="106.7"/>
						<polygon class="st23" points="507.7,72.7 463.8,89.8 507.7,106.6 551.5,89.8 						"/>
					</g>
					<g>
						<polyline class="st23" points="374.6,89.5 374.6,96.9 418.9,114.1 463.3,97 463.3,89.5 						"/>
						<line class="st5" x1="418.9" y1="114.1" x2="418.9" y2="106.4"/>
						<polygon class="st23" points="418.9,72.4 375.1,89.5 418.9,106.3 462.8,89.5 						"/>
					</g>
					<g>
						<polyline class="st22" points="419.1,106.6 419.1,114.1 463.5,131.2 507.9,114.2 507.9,106.7 						"/>
						<line class="st5" x1="463.5" y1="131.2" x2="463.5" y2="123.6"/>
						<polygon class="st22" points="463.5,89.6 419.6,106.6 463.5,123.4 507.3,106.6 						"/>
					</g>
				</g>
			</g>
			<g>
				<polyline class="st22" points="507.9,106.7 507.9,114.2 552.2,131.4 596.6,114.3 596.6,106.8 				"/>
				<line class="st5" x1="552.2" y1="131.4" x2="552.2" y2="123.7"/>
				<polygon class="st22" points="552.2,89.7 508.4,106.8 552.2,123.5 596.1,106.8 				"/>
			</g>
			<g>
				<polyline class="st23" points="552.1,124 552.1,131.4 596.4,148.6 640.8,131.5 640.8,124 				"/>
				<line class="st5" x1="596.4" y1="148.6" x2="596.4" y2="140.9"/>
				<polygon class="st23" points="596.4,106.9 552.6,124 596.4,140.8 640.3,124 				"/>
			</g>
			<g>
				<polyline class="st23" points="463.3,123.7 463.3,131.1 507.7,148.3 552.1,131.3 552.1,123.7 				"/>
				<line class="st5" x1="507.7" y1="148.3" x2="507.7" y2="140.6"/>
				<polygon class="st23" points="507.7,106.7 463.8,123.7 507.7,140.5 551.5,123.7 				"/>
			</g>
			<g>
				<polyline class="st22" points="507.9,140.9 507.9,148.3 552.2,165.5 596.6,148.4 596.6,140.9 				"/>
				<line class="st5" x1="552.2" y1="165.5" x2="552.2" y2="157.8"/>
				<polygon class="st22" points="552.2,123.8 508.4,140.9 552.2,157.7 596.1,140.9 				"/>
			</g>
			<g>
				<g>
					<polyline class="st22" points="596.9,141.1 596.9,148.5 641.2,165.7 685.6,148.7 685.6,141.1 					"/>
					<line class="st5" x1="641.2" y1="165.7" x2="641.2" y2="158"/>
					<polygon class="st22" points="641.2,124.1 597.4,141.1 641.2,157.9 685.1,141.1 					"/>
				</g>
				<g>
					<polyline class="st23" points="641.1,158.3 641.1,165.8 685.4,182.9 729.8,165.9 729.8,158.4 					"/>
					<line class="st5" x1="685.4" y1="182.9" x2="685.4" y2="175.2"/>
					<polygon class="st23" points="685.4,141.3 641.6,158.3 685.4,175.1 729.3,158.3 					"/>
				</g>
				<g>
					<polyline class="st23" points="552.3,158 552.3,165.5 596.7,182.7 641.1,165.6 641.1,158.1 					"/>
					<line class="st5" x1="596.7" y1="182.7" x2="596.7" y2="175"/>
					<polygon class="st23" points="596.7,141 552.9,158.1 596.7,174.9 640.5,158.1 					"/>
				</g>
				<g>
					<polyline class="st22" points="596.9,175.2 596.9,182.7 641.2,199.8 685.6,182.8 685.6,175.3 					"/>
					<line class="st5" x1="641.2" y1="199.8" x2="641.2" y2="192.1"/>
					<polygon class="st22" points="641.2,158.2 597.4,175.2 641.2,192 685.1,175.2 					"/>
				</g>
			</g>
		</g>
		<g>
			<g>
				<g>
					<g>
						<polyline class="st22" points="241.4,72.2 241.4,79.6 285.8,96.8 330.2,79.8 330.2,72.2 						"/>
						<line class="st5" x1="285.8" y1="96.8" x2="285.8" y2="89.1"/>
						<polygon class="st22" points="285.8,55.2 241.9,72.2 285.8,89 329.6,72.2 						"/>
					</g>
					<g>
						<polyline class="st23" points="285.6,89.4 285.6,96.9 330,114 374.4,97 374.4,89.5 						"/>
						<line class="st5" x1="330" y1="114" x2="330" y2="106.3"/>
						<polygon class="st23" points="330,72.4 286.1,89.4 330,106.2 373.8,89.4 						"/>
					</g>
					<g>
						<polyline class="st23" points="196.9,89.1 196.9,96.6 241.2,113.7 285.6,96.7 285.6,89.2 						"/>
						<line class="st5" x1="241.2" y1="113.7" x2="241.2" y2="106.1"/>
						<polygon class="st23" points="241.2,72.1 197.4,89.2 241.2,105.9 285.1,89.2 						"/>
					</g>
					<g>
						<polyline class="st22" points="241.4,106.3 241.4,113.8 285.8,130.9 330.2,113.9 330.2,106.4 						"/>
						<line class="st5" x1="285.8" y1="130.9" x2="285.8" y2="123.2"/>
						<polygon class="st22" points="285.8,89.3 241.9,106.3 285.8,123.1 329.6,106.3 						"/>
					</g>
				</g>
				<g>
					<g>
						<polyline class="st22" points="330.4,106.6 330.4,114 374.8,131.2 419.2,114.1 419.2,106.6 						"/>
						<line class="st5" x1="374.8" y1="131.2" x2="374.8" y2="123.5"/>
						<polygon class="st22" points="374.8,89.5 330.9,106.6 374.8,123.4 418.6,106.6 						"/>
					</g>
					<g>
						<polyline class="st23" points="374.6,123.8 374.6,131.2 419,148.4 463.4,131.4 463.4,123.8 						"/>
						<line class="st5" x1="419" y1="148.4" x2="419" y2="140.7"/>
						<polygon class="st23" points="419,106.7 375.1,123.8 419,140.6 462.8,123.8 						"/>
					</g>
					<g>
						<polyline class="st23" points="285.9,123.5 285.9,130.9 330.2,148.1 374.6,131.1 374.6,123.5 						"/>
						<line class="st5" x1="330.2" y1="148.1" x2="330.2" y2="140.4"/>
						<polygon class="st23" points="330.2,106.5 286.4,123.5 330.2,140.3 374.1,123.5 						"/>
					</g>
					<g>
						<polyline class="st22" points="330.4,140.7 330.4,148.1 374.8,165.3 419.2,148.2 419.2,140.7 						"/>
						<line class="st5" x1="374.8" y1="165.3" x2="374.8" y2="157.6"/>
						<polygon class="st22" points="374.8,123.6 330.9,140.7 374.8,157.5 418.6,140.7 						"/>
					</g>
				</g>
			</g>
			<g>
				<polyline class="st22" points="419.2,140.8 419.2,148.2 463.5,165.4 507.9,148.3 507.9,140.8 				"/>
				<line class="st5" x1="463.5" y1="165.4" x2="463.5" y2="157.7"/>
				<polygon class="st22" points="463.5,123.7 419.7,140.8 463.5,157.6 507.4,140.8 				"/>
			</g>
			<g>
				<polyline class="st23" points="463.3,158 463.3,165.4 507.7,182.6 552.1,165.6 552.1,158 				"/>
				<line class="st5" x1="507.7" y1="182.6" x2="507.7" y2="174.9"/>
				<polygon class="st23" points="507.7,141 463.9,158 507.7,174.8 551.6,158 				"/>
			</g>
			<g>
				<polyline class="st23" points="374.6,157.7 374.6,165.2 419,182.3 463.4,165.3 463.4,157.8 				"/>
				<line class="st5" x1="419" y1="182.3" x2="419" y2="174.6"/>
				<polygon class="st23" points="419,140.7 375.1,157.7 419,174.5 462.8,157.7 				"/>
			</g>
			<g>
				<polyline class="st22" points="419.2,174.9 419.2,182.3 463.5,199.5 507.9,182.5 507.9,174.9 				"/>
				<line class="st5" x1="463.5" y1="199.5" x2="463.5" y2="191.8"/>
				<polygon class="st22" points="463.5,157.8 419.7,174.9 463.5,191.7 507.4,174.9 				"/>
			</g>
			<g>
				<g>
					<polyline class="st22" points="508.2,175.1 508.2,182.6 552.5,199.7 596.9,182.7 596.9,175.2 					"/>
					<line class="st5" x1="552.5" y1="199.7" x2="552.5" y2="192.1"/>
					<polygon class="st22" points="552.5,158.1 508.7,175.1 552.5,191.9 596.4,175.1 					"/>
				</g>
				<g>
					<polyline class="st23" points="552.3,192.4 552.3,199.8 596.7,217 641.1,199.9 641.1,192.4 					"/>
					<line class="st5" x1="596.7" y1="217" x2="596.7" y2="209.3"/>
					<polygon class="st23" points="596.7,175.3 552.9,192.4 596.7,209.2 640.6,192.4 					"/>
				</g>
				<g>
					<polyline class="st23" points="463.6,192.1 463.6,199.5 508,216.7 552.4,199.7 552.4,192.1 					"/>
					<line class="st5" x1="508" y1="216.7" x2="508" y2="209"/>
					<polygon class="st23" points="508,175 464.1,192.1 508,208.9 551.8,192.1 					"/>
				</g>
				<g>
					<polyline class="st22" points="508.2,209.2 508.2,216.7 552.5,233.9 596.9,216.8 596.9,209.3 					"/>
					<line class="st5" x1="552.5" y1="233.9" x2="552.5" y2="226.2"/>
					<polygon class="st22" points="552.5,192.2 508.7,209.3 552.5,226 596.4,209.3 					"/>
				</g>
			</g>
		</g>
	</g>
	<g>
		<g>
			<g>
				<g>
					<g>
						<polyline class="st22" points="153,105.9 153,113.4 197.4,130.6 241.8,113.5 241.8,106 						"/>
						<line class="st5" x1="197.4" y1="130.6" x2="197.4" y2="122.9"/>
						<polygon class="st22" points="197.4,88.9 153.5,106 197.4,122.8 241.2,106 						"/>
					</g>
					<g>
						<polyline class="st23" points="197.2,123.2 197.2,130.6 241.6,147.8 286,130.8 286,123.2 						"/>
						<line class="st5" x1="241.6" y1="147.8" x2="241.6" y2="140.1"/>
						<polygon class="st23" points="241.6,106.1 197.7,123.2 241.6,140 285.4,123.2 						"/>
					</g>
					<g>
						<polyline class="st23" points="108.5,122.9 108.5,130.3 152.8,147.5 197.2,130.5 197.2,122.9 						"/>
						<line class="st5" x1="152.8" y1="147.5" x2="152.8" y2="139.8"/>
						<polygon class="st23" points="152.8,105.9 109,122.9 152.8,139.7 196.7,122.9 						"/>
					</g>
					<g>
						<polyline class="st22" points="153,140.1 153,147.5 197.4,164.7 241.8,147.6 241.8,140.1 						"/>
						<line class="st5" x1="197.4" y1="164.7" x2="197.4" y2="157"/>
						<polygon class="st22" points="197.4,123 153.5,140.1 197.4,156.9 241.2,140.1 						"/>
					</g>
				</g>
				<g>
					<g>
						<polyline class="st22" points="242,140.3 242,147.8 286.4,164.9 330.8,147.9 330.8,140.3 						"/>
						<line class="st5" x1="286.4" y1="164.9" x2="286.4" y2="157.2"/>
						<polygon class="st22" points="286.4,123.3 242.5,140.3 286.4,157.1 330.2,140.3 						"/>
					</g>
					<g>
						<polyline class="st23" points="286.2,157.5 286.2,165 330.6,182.1 375,165.1 375,157.6 						"/>
						<line class="st5" x1="330.6" y1="182.1" x2="330.6" y2="174.4"/>
						<polygon class="st23" points="330.6,140.5 286.7,157.5 330.6,174.3 374.4,157.5 						"/>
					</g>
					<g>
						<polyline class="st23" points="197.5,157.3 197.5,164.7 241.8,181.9 286.2,164.8 286.2,157.3 						"/>
						<line class="st5" x1="241.8" y1="181.9" x2="241.8" y2="174.2"/>
						<polygon class="st23" points="241.8,140.2 198,157.3 241.8,174.1 285.7,157.3 						"/>
					</g>
					<g>
						<polyline class="st22" points="242,174.4 242,181.9 286.4,199 330.8,182 330.8,174.5 						"/>
						<line class="st5" x1="286.4" y1="199" x2="286.4" y2="191.3"/>
						<polygon class="st22" points="286.4,157.4 242.5,174.4 286.4,191.2 330.2,174.4 						"/>
					</g>
				</g>
			</g>
			<g>
				<polyline class="st22" points="330.7,174.5 330.7,182 375.1,199.1 419.5,182.1 419.5,174.6 				"/>
				<line class="st5" x1="375.1" y1="199.1" x2="375.1" y2="191.4"/>
				<polygon class="st22" points="375.1,157.5 331.3,174.5 375.1,191.3 419,174.5 				"/>
			</g>
			<g>
				<polyline class="st23" points="374.9,191.8 374.9,199.2 419.3,216.4 463.7,199.3 463.7,191.8 				"/>
				<line class="st5" x1="419.3" y1="216.4" x2="419.3" y2="208.7"/>
				<polygon class="st23" points="419.3,174.7 375.5,191.8 419.3,208.6 463.2,191.8 				"/>
			</g>
			<g>
				<polyline class="st23" points="286.2,191.5 286.2,198.9 330.6,216.1 375,199 375,191.5 				"/>
				<line class="st5" x1="330.6" y1="216.1" x2="330.6" y2="208.4"/>
				<polygon class="st23" points="330.6,174.4 286.7,191.5 330.6,208.3 374.4,191.5 				"/>
			</g>
			<g>
				<polyline class="st22" points="330.7,208.6 330.7,216.1 375.1,233.2 419.5,216.2 419.5,208.7 				"/>
				<line class="st5" x1="375.1" y1="233.2" x2="375.1" y2="225.6"/>
				<polygon class="st22" points="375.1,191.6 331.3,208.6 375.1,225.4 419,208.6 				"/>
			</g>
			<g>
				<g>
					<polyline class="st22" points="419.7,208.9 419.7,216.3 464.1,233.5 508.5,216.5 508.5,208.9 					"/>
					<line class="st5" x1="464.1" y1="233.5" x2="464.1" y2="225.8"/>
					<polygon class="st22" points="464.1,191.8 420.3,208.9 464.1,225.7 508,208.9 					"/>
				</g>
				<g>
					<polyline class="st23" points="463.9,226.1 463.9,233.6 508.3,250.7 552.7,233.7 552.7,226.2 					"/>
					<line class="st5" x1="508.3" y1="250.7" x2="508.3" y2="243"/>
					<polygon class="st23" points="508.3,209.1 464.5,226.1 508.3,242.9 552.2,226.1 					"/>
				</g>
				<g>
					<polyline class="st23" points="375.2,225.8 375.2,233.3 419.6,250.4 464,233.4 464,225.9 					"/>
					<line class="st5" x1="419.6" y1="250.4" x2="419.6" y2="242.7"/>
					<polygon class="st23" points="419.6,208.8 375.7,225.8 419.6,242.6 463.4,225.8 					"/>
				</g>
				<g>
					<polyline class="st22" points="419.7,243 419.7,250.4 464.1,267.6 508.5,250.6 508.5,243 					"/>
					<line class="st5" x1="464.1" y1="267.6" x2="464.1" y2="259.9"/>
					<polygon class="st22" points="464.1,226 420.3,243 464.1,259.8 508,243 					"/>
				</g>
			</g>
		</g>
		<g>
			<g>
				<g>
					<g>
						<polyline class="st22" points="64.3,140 64.3,147.4 108.7,164.6 153.1,147.6 153.1,140 						"/>
						<line class="st5" x1="108.7" y1="164.6" x2="108.7" y2="156.9"/>
						<polygon class="st22" points="108.7,122.9 64.8,140 108.7,156.8 152.5,140 						"/>
					</g>
					<g>
						<polyline class="st23" points="108.5,157.2 108.5,164.7 152.9,181.8 197.3,164.8 197.3,157.2 						"/>
						<line class="st5" x1="152.9" y1="181.8" x2="152.9" y2="174.1"/>
						<polygon class="st23" points="152.9,140.2 109,157.2 152.9,174 196.7,157.2 						"/>
					</g>
					<g>
						<polyline class="st23" points="19.7,156.9 19.7,164.4 64.1,181.5 108.5,164.5 108.5,157 						"/>
						<line class="st5" x1="64.1" y1="181.5" x2="64.1" y2="173.8"/>
						<polygon class="st23" points="64.1,139.9 20.3,156.9 64.1,173.7 108,156.9 						"/>
					</g>
					<g>
						<polyline class="st22" points="64.3,174.1 64.3,181.5 108.7,198.7 153.1,181.7 153.1,174.1 						"/>
						<line class="st5" x1="108.7" y1="198.7" x2="108.7" y2="191"/>
						<polygon class="st22" points="108.7,157.1 64.8,174.1 108.7,190.9 152.5,174.1 						"/>
					</g>
				</g>
				<g>
					<g>
						<polyline class="st22" points="153.3,174.3 153.3,181.8 197.7,198.9 242.1,181.9 242.1,174.4 						"/>
						<line class="st5" x1="197.7" y1="198.9" x2="197.7" y2="191.3"/>
						<polygon class="st22" points="197.7,157.3 153.8,174.3 197.7,191.1 241.5,174.3 						"/>
					</g>
					<g>
						<polyline class="st23" points="197.5,191.6 197.5,199 241.9,216.2 286.3,199.1 286.3,191.6 						"/>
						<line class="st5" x1="241.9" y1="216.2" x2="241.9" y2="208.5"/>
						<polygon class="st23" points="241.9,174.5 198,191.6 241.9,208.4 285.7,191.6 						"/>
					</g>
					<g>
						<polyline class="st23" points="108.7,191.3 108.7,198.7 153.1,215.9 197.5,198.9 197.5,191.3 						"/>
						<line class="st5" x1="153.1" y1="215.9" x2="153.1" y2="208.2"/>
						<polygon class="st23" points="153.1,174.2 109.3,191.3 153.1,208.1 197,191.3 						"/>
					</g>
					<g>
						<polyline class="st22" points="153.3,208.4 153.3,215.9 197.7,233.1 242.1,216 242.1,208.5 						"/>
						<line class="st5" x1="197.7" y1="233.1" x2="197.7" y2="225.4"/>
						<polygon class="st22" points="197.7,191.4 153.8,208.5 197.7,225.3 241.5,208.5 						"/>
					</g>
				</g>
			</g>
			<g>
				<polyline class="st22" points="242,208.6 242,216 286.4,233.2 330.8,216.1 330.8,208.6 				"/>
				<line class="st5" x1="286.4" y1="233.2" x2="286.4" y2="225.5"/>
				<polygon class="st22" points="286.4,191.5 242.6,208.6 286.4,225.4 330.3,208.6 				"/>
			</g>
			<g>
				<polyline class="st23" points="286.2,225.8 286.2,233.2 330.6,250.4 375,233.4 375,225.8 				"/>
				<line class="st5" x1="330.6" y1="250.4" x2="330.6" y2="242.7"/>
				<polygon class="st23" points="330.6,208.7 286.8,225.8 330.6,242.6 374.5,225.8 				"/>
			</g>
			<g>
				<polyline class="st23" points="197.5,225.5 197.5,232.9 241.9,250.1 286.3,233.1 286.3,225.5 				"/>
				<line class="st5" x1="241.9" y1="250.1" x2="241.9" y2="242.4"/>
				<polygon class="st23" points="241.9,208.5 198,225.5 241.9,242.3 285.7,225.5 				"/>
			</g>
			<g>
				<polyline class="st22" points="242,242.7 242,250.1 286.4,267.3 330.8,250.2 330.8,242.7 				"/>
				<line class="st5" x1="286.4" y1="267.3" x2="286.4" y2="259.6"/>
				<polygon class="st22" points="286.4,225.6 242.6,242.7 286.4,259.5 330.3,242.7 				"/>
			</g>
			<g>
				<g>
					<polyline class="st22" points="331,242.9 331,250.4 375.4,267.5 419.8,250.5 419.8,243 					"/>
					<line class="st5" x1="375.4" y1="267.5" x2="375.4" y2="259.8"/>
					<polygon class="st22" points="375.4,225.9 331.6,242.9 375.4,259.7 419.3,242.9 					"/>
				</g>
				<g>
					<polyline class="st23" points="375.2,260.1 375.2,267.6 419.6,284.7 464,267.7 464,260.2 					"/>
					<line class="st5" x1="419.6" y1="284.7" x2="419.6" y2="277.1"/>
					<polygon class="st23" points="419.6,243.1 375.8,260.1 419.6,276.9 463.5,260.1 					"/>
				</g>
				<g>
					<polyline class="st23" points="286.5,259.9 286.5,267.3 330.9,284.5 375.3,267.4 375.3,259.9 					"/>
					<line class="st5" x1="330.9" y1="284.5" x2="330.9" y2="276.8"/>
					<polygon class="st23" points="330.9,242.8 287,259.9 330.9,276.7 374.7,259.9 					"/>
				</g>
				<g>
					<polyline class="st22" points="331,277 331,284.5 375.4,301.6 419.8,284.6 419.8,277.1 					"/>
					<line class="st5" x1="375.4" y1="301.6" x2="375.4" y2="293.9"/>
					<polygon class="st22" points="375.4,260 331.6,277 375.4,293.8 419.3,277 					"/>
				</g>
			</g>
		</g>
	</g>
</g>
<g id="Figur">
	<g>
		<g>
			<g class="st24">
				<g>
					<polygon class="st25" points="421.1,61.9 398.6,54.2 415.2,48.2 437.7,55.9 					"/>
				</g>
				<g>
					<polygon class="st26" points="421.2,63.5 398.6,55.8 398.6,54.2 421.1,61.9 					"/>
				</g>
				<g>
					<polygon class="st27" points="421.1,61.9 437.7,55.9 437.8,57.5 421.2,63.5 					"/>
				</g>
			</g>
		</g>
	</g>
	<g>
		<g>
			<g class="st24">
				<g>
					<polygon class="st26" points="435.4,54.1 415.6,47.3 415.5,43.9 435.3,50.7 					"/>
				</g>
				<g>
					<polygon class="st25" points="421.8,58.9 402.1,52.1 415.6,47.3 435.4,54.1 					"/>
				</g>
				<g>
					<polygon class="st26" points="420.7,60.8 401,54.1 400.8,47.6 420.5,54.3 					"/>
				</g>
				<g>
					<polygon class="st25" points="420.5,54.3 400.8,47.6 416.6,42 436.4,48.8 					"/>
				</g>
				<g>
					<path class="st27" d="M420.5,54.3l15.8-5.6l0.2,6.4l-15.3,5.4l-0.6,0.2L420.5,54.3z M435.4,54.1l-0.1-3.4l-13.5,4.8l0.1,3.4
						L435.4,54.1"/>
				</g>
			</g>
		</g>
	</g>
	<g>
		<g>
			<g class="st24">
				<g>
					<polygon class="st25" points="417.3,49.8 408.8,46.9 421.3,42.8 429.8,45.7 					"/>
				</g>
				<g>
					<polygon class="st26" points="417.3,51.3 408.9,48.4 408.8,46.9 417.3,49.8 					"/>
				</g>
				<g>
					<polygon class="st27" points="417.3,49.8 429.8,45.7 429.8,47.3 417.3,51.3 					"/>
				</g>
			</g>
		</g>
	</g>
	<g>
		<g>
			<g class="st24">
				<g>
					<polygon class="st28" points="427.7,43.8 419.3,40.9 417.3,27.2 425.7,30.1 					"/>
				</g>
				<g>
					<polygon class="st25" points="419.3,46.5 410.8,43.6 419.3,40.9 427.7,43.8 					"/>
				</g>
				<g>
					<polygon class="st29" points="417.9,48.5 409.5,45.6 411.4,27.5 419.9,30.4 					"/>
				</g>
				<g>
					<polygon class="st25" points="419.9,30.4 411.4,27.5 418.2,25.4 426.7,28.3 					"/>
				</g>
				<g>
					<path class="st27" d="M419.9,30.4l6.8-2.1l2.4,16.6l-10.5,3.4l-0.7,0.2L419.9,30.4z M427.7,43.8l-2-13.7l-4.9,1.5l-1.6,14.9
						L427.7,43.8"/>
				</g>
			</g>
		</g>
	</g>
	<g>
		<g>
			<g class="st24">
				<g>
					<polygon class="st25" points="418.7,27.6 410.2,24.7 419,21.8 427.4,24.7 					"/>
				</g>
				<g>
					<polygon class="st26" points="418.7,29.1 410.2,26.2 410.2,24.7 418.7,27.6 					"/>
				</g>
				<g>
					<polygon class="st27" points="418.7,27.6 427.4,24.7 427.5,26.2 418.7,29.1 					"/>
				</g>
			</g>
		</g>
	</g>
	<g>
		<g>
			<g class="st24">
				<g>
					<polygon class="st30" points="425.6,22.4 417.1,19.5 418.7,15 427.1,17.9 					"/>
				</g>
				<g>
					<polygon class="st31" points="423.5,17.9 415,15 416.2,11.9 424.7,14.8 					"/>
				</g>
				<g>
					<polygon class="st32" points="424.4,18.4 416,15.5 415,15 423.5,17.9 					"/>
				</g>
				<g>
					<polygon class="st25" points="420.7,24 412.3,21.1 417.1,19.5 425.6,22.4 					"/>
				</g>
				<g>
					<polygon class="st32" points="424.7,14.8 416.2,11.9 414.4,9 422.8,11.9 					"/>
				</g>
				<g>
					<polygon class="st32" points="420.1,25.7 411.7,22.8 409.3,18.5 417.8,21.4 					"/>
				</g>
				<g>
					<polygon class="st31" points="417.8,21.4 409.3,18.5 414.3,6.3 422.8,9.2 					"/>
				</g>
				<g>
					<polygon class="st27" points="422.8,9.2 426.1,14.4 424.4,18.4 423.5,17.9 424.7,14.8 422.8,11.9 419.1,21 420.7,24 
						425.6,22.4 427.1,17.9 428.2,18.4 426.3,23.7 420.1,25.7 417.8,21.4 					"/>
				</g>
			</g>
		</g>
	</g>
</g>
<g>
	<path d="M656.3,234l-0.2-1.1H656c-0.4,0.5-0.7,0.8-1.1,1c-0.4,0.2-0.8,0.2-1.4,0.2c-0.7,0-1.3-0.2-1.7-0.6
		c-0.4-0.4-0.6-0.9-0.6-1.6c0-1.5,1.2-2.3,3.6-2.4l1.3,0V229c0-0.6-0.1-1-0.4-1.3c-0.3-0.3-0.7-0.4-1.2-0.4c-0.6,0-1.3,0.2-2.1,0.6
		l-0.3-0.9c0.4-0.2,0.8-0.4,1.2-0.5c0.4-0.1,0.9-0.2,1.3-0.2c0.9,0,1.6,0.2,2,0.6c0.4,0.4,0.6,1,0.6,1.9v5.1H656.3z M653.7,233.2
		c0.7,0,1.3-0.2,1.7-0.6c0.4-0.4,0.6-0.9,0.6-1.6v-0.7l-1.1,0c-0.9,0-1.6,0.2-2,0.4c-0.4,0.2-0.6,0.6-0.6,1.2c0,0.4,0.1,0.7,0.4,0.9
		C652.9,233.1,653.2,233.2,653.7,233.2z"/>
	<path d="M662.4,234.1c-1.1,0-1.9-0.3-2.5-1c-0.6-0.7-0.9-1.6-0.9-2.8c0-1.3,0.3-2.2,0.9-2.9c0.6-0.7,1.5-1,2.6-1
		c0.4,0,0.7,0,1.1,0.1s0.6,0.2,0.8,0.3l-0.3,1c-0.3-0.1-0.5-0.2-0.8-0.2s-0.6-0.1-0.8-0.1c-1.5,0-2.3,1-2.3,2.9
		c0,0.9,0.2,1.6,0.6,2.1c0.4,0.5,0.9,0.7,1.7,0.7c0.6,0,1.3-0.1,1.9-0.4v1C663.8,234,663.2,234.1,662.4,234.1z"/>
	<path d="M669.5,226.4c0.3,0,0.6,0,0.9,0.1l-0.2,1.1c-0.3-0.1-0.6-0.1-0.8-0.1c-0.6,0-1.1,0.2-1.6,0.7c-0.4,0.5-0.6,1.1-0.6,1.8v4
		h-1.1v-7.5h0.9l0.1,1.4h0.1c0.3-0.5,0.6-0.9,1-1.1S669.1,226.4,669.5,226.4z"/>
	<path d="M670.6,226.5h1.2l1.6,4.3c0.4,1,0.6,1.7,0.7,2.1h0.1c0.1-0.2,0.2-0.6,0.4-1.2c0.2-0.6,0.8-2.3,1.9-5.2h1.2l-3.2,8.5
		c-0.3,0.8-0.7,1.4-1.1,1.8c-0.4,0.4-0.9,0.5-1.6,0.5c-0.3,0-0.7,0-1-0.1v-0.9c0.3,0.1,0.5,0.1,0.8,0.1c0.8,0,1.3-0.4,1.7-1.3
		l0.4-1.1L670.6,226.5z"/>
	<path d="M680,234h-1.1v-10.6h1.1V234z"/>
	<path d="M682.3,224.5c0-0.3,0.1-0.5,0.2-0.6s0.3-0.2,0.5-0.2c0.2,0,0.3,0.1,0.5,0.2s0.2,0.3,0.2,0.6s-0.1,0.4-0.2,0.6
		s-0.3,0.2-0.5,0.2c-0.2,0-0.4-0.1-0.5-0.2S682.3,224.7,682.3,224.5z M683.5,234h-1.1v-7.5h1.1V234z"/>
	<path d="M688.9,234.1c-1.1,0-1.9-0.3-2.5-1c-0.6-0.7-0.9-1.6-0.9-2.8c0-1.3,0.3-2.2,0.9-2.9c0.6-0.7,1.5-1,2.6-1
		c0.4,0,0.7,0,1.1,0.1s0.6,0.2,0.8,0.3l-0.3,1c-0.3-0.1-0.5-0.2-0.8-0.2s-0.6-0.1-0.8-0.1c-1.5,0-2.3,1-2.3,2.9
		c0,0.9,0.2,1.6,0.6,2.1c0.4,0.5,0.9,0.7,1.7,0.7c0.6,0,1.3-0.1,1.9-0.4v1C690.3,234,689.7,234.1,688.9,234.1z"/>
	<path d="M699.6,227.4h-1.9v6.6h-1.1v-6.6h-1.3v-0.5l1.3-0.4V226c0-1.8,0.8-2.8,2.4-2.8c0.4,0,0.9,0.1,1.4,0.2l-0.3,0.9
		c-0.4-0.1-0.8-0.2-1.1-0.2c-0.4,0-0.7,0.1-1,0.4s-0.3,0.7-0.3,1.4v0.5h1.9V227.4z M700.9,224.5c0-0.3,0.1-0.5,0.2-0.6
		s0.3-0.2,0.5-0.2c0.2,0,0.3,0.1,0.5,0.2s0.2,0.3,0.2,0.6s-0.1,0.4-0.2,0.6s-0.3,0.2-0.5,0.2c-0.2,0-0.4-0.1-0.5-0.2
		S700.9,224.7,700.9,224.5z M702.1,234H701v-7.5h1.1V234z"/>
	<path d="M707.7,234.1c-1.1,0-2-0.3-2.6-1c-0.6-0.7-1-1.6-1-2.8c0-1.2,0.3-2.2,0.9-2.9c0.6-0.7,1.4-1.1,2.4-1.1
		c0.9,0,1.7,0.3,2.2,0.9s0.8,1.4,0.8,2.4v0.7h-5.2c0,0.9,0.2,1.5,0.7,2c0.4,0.5,1,0.7,1.8,0.7c0.8,0,1.6-0.2,2.4-0.5v1
		c-0.4,0.2-0.8,0.3-1.1,0.4C708.6,234.1,708.2,234.1,707.7,234.1z M707.4,227.3c-0.6,0-1.1,0.2-1.4,0.6c-0.4,0.4-0.6,0.9-0.6,1.6
		h3.9c0-0.7-0.2-1.3-0.5-1.6S708,227.3,707.4,227.3z"/>
	<path d="M713.5,234h-1.1v-10.6h1.1V234z"/>
	<path d="M721,233L721,233c-0.6,0.8-1.4,1.1-2.4,1.1c-1,0-1.7-0.3-2.3-1c-0.5-0.7-0.8-1.6-0.8-2.9s0.3-2.2,0.8-2.9s1.3-1,2.3-1
		c1,0,1.8,0.4,2.3,1.1h0.1l0-0.5l0-0.5v-3h1.1V234h-0.9L721,233z M718.8,233.2c0.8,0,1.3-0.2,1.7-0.6c0.3-0.4,0.5-1.1,0.5-2v-0.2
		c0-1.1-0.2-1.8-0.5-2.3c-0.4-0.5-0.9-0.7-1.7-0.7c-0.7,0-1.2,0.3-1.5,0.8c-0.4,0.5-0.5,1.2-0.5,2.2c0,1,0.2,1.7,0.5,2.2
		S718.1,233.2,718.8,233.2z"/>
	<path d="M729.3,231.9c0,0.7-0.3,1.2-0.8,1.6s-1.2,0.6-2.2,0.6c-1,0-1.8-0.2-2.3-0.5v-1.1c0.4,0.2,0.7,0.3,1.2,0.4
		c0.4,0.1,0.8,0.2,1.2,0.2c0.6,0,1-0.1,1.4-0.3s0.5-0.5,0.5-0.9c0-0.3-0.1-0.5-0.4-0.7c-0.3-0.2-0.7-0.5-1.5-0.7
		c-0.7-0.3-1.2-0.5-1.5-0.7c-0.3-0.2-0.5-0.4-0.7-0.7c-0.1-0.2-0.2-0.5-0.2-0.9c0-0.6,0.2-1.1,0.7-1.4s1.2-0.5,2-0.5
		c0.8,0,1.6,0.2,2.4,0.5l-0.4,0.9c-0.8-0.3-1.4-0.5-2-0.5c-0.5,0-0.9,0.1-1.2,0.3s-0.4,0.4-0.4,0.7c0,0.2,0.1,0.4,0.2,0.5
		c0.1,0.1,0.3,0.3,0.5,0.4s0.7,0.3,1.3,0.6c0.9,0.3,1.5,0.6,1.8,1C729.2,231,729.3,231.4,729.3,231.9z"/>
</g>
<g>
	<path d="M618.1,416c0.2,0,0.4,0,0.6,0s0.3-0.1,0.4-0.1v0.9c-0.1,0.1-0.3,0.1-0.5,0.1c-0.2,0-0.5,0.1-0.6,0.1
		c-1.4,0-2.2-0.8-2.2-2.3v-4.5h-1.1v-0.5l1.1-0.5l0.5-1.6h0.7v1.7h2.2v0.9h-2.2v4.4c0,0.5,0.1,0.8,0.3,1S617.7,416,618.1,416z"/>
	<path d="M624,409.2c0.3,0,0.6,0,0.9,0.1l-0.2,1.1c-0.3-0.1-0.6-0.1-0.8-0.1c-0.6,0-1.1,0.2-1.6,0.7c-0.4,0.5-0.6,1.1-0.6,1.8v4
		h-1.1v-7.5h0.9l0.1,1.4h0.1c0.3-0.5,0.6-0.9,1-1.1S623.6,409.2,624,409.2z"/>
	<path d="M630.9,416.8l-0.2-1.1h-0.1c-0.4,0.5-0.7,0.8-1.1,1c-0.4,0.2-0.8,0.2-1.4,0.2c-0.7,0-1.3-0.2-1.7-0.6
		c-0.4-0.4-0.6-0.9-0.6-1.6c0-1.5,1.2-2.3,3.6-2.4l1.3,0v-0.5c0-0.6-0.1-1-0.4-1.3c-0.3-0.3-0.7-0.4-1.2-0.4c-0.6,0-1.3,0.2-2.1,0.6
		l-0.3-0.9c0.4-0.2,0.8-0.4,1.2-0.5c0.4-0.1,0.9-0.2,1.3-0.2c0.9,0,1.6,0.2,2,0.6c0.4,0.4,0.6,1,0.6,1.9v5.1H630.9z M628.4,416
		c0.7,0,1.3-0.2,1.7-0.6c0.4-0.4,0.6-0.9,0.6-1.6v-0.7l-1.1,0c-0.9,0-1.6,0.2-2,0.4c-0.4,0.2-0.6,0.6-0.6,1.2c0,0.4,0.1,0.7,0.4,0.9
		C627.6,415.9,627.9,416,628.4,416z"/>
	<path d="M639.2,416.8V412c0-0.6-0.1-1.1-0.4-1.4s-0.7-0.5-1.3-0.5c-0.8,0-1.4,0.2-1.7,0.6s-0.5,1.1-0.5,2.1v3.9h-1.1v-7.5h0.9
		l0.2,1h0.1c0.2-0.4,0.6-0.7,1-0.9s0.9-0.3,1.4-0.3c0.9,0,1.6,0.2,2,0.7s0.7,1.1,0.7,2.1v4.9H639.2z"/>
	<path d="M647.5,414.8c0,0.7-0.3,1.2-0.8,1.6s-1.2,0.6-2.2,0.6c-1,0-1.8-0.2-2.3-0.5v-1.1c0.4,0.2,0.7,0.3,1.2,0.4
		c0.4,0.1,0.8,0.2,1.2,0.2c0.6,0,1-0.1,1.4-0.3s0.5-0.5,0.5-0.9c0-0.3-0.1-0.5-0.4-0.7c-0.3-0.2-0.7-0.5-1.5-0.7
		c-0.7-0.3-1.2-0.5-1.5-0.7c-0.3-0.2-0.5-0.4-0.7-0.7c-0.1-0.2-0.2-0.5-0.2-0.9c0-0.6,0.2-1.1,0.7-1.4s1.2-0.5,2-0.5
		c0.8,0,1.6,0.2,2.4,0.5l-0.4,0.9c-0.8-0.3-1.4-0.5-2-0.5c-0.5,0-0.9,0.1-1.2,0.3s-0.4,0.4-0.4,0.7c0,0.2,0.1,0.4,0.2,0.5
		c0.1,0.1,0.3,0.3,0.5,0.4s0.7,0.3,1.3,0.6c0.9,0.3,1.5,0.6,1.8,1C647.4,413.9,647.5,414.3,647.5,414.8z"/>
	<path d="M650.5,416.8h-1.1v-10.6h1.1V416.8z"/>
	<path d="M654,409.4v4.9c0,0.6,0.1,1.1,0.4,1.4s0.7,0.5,1.3,0.5c0.8,0,1.4-0.2,1.7-0.6c0.4-0.4,0.5-1.1,0.5-2.1v-3.9h1.1v7.5h-0.9
		l-0.2-1h-0.1c-0.2,0.4-0.6,0.7-1,0.8c-0.4,0.2-0.9,0.3-1.4,0.3c-0.9,0-1.6-0.2-2-0.6c-0.5-0.4-0.7-1.1-0.7-2.1v-4.9H654z"/>
	<path d="M664.5,417c-1.1,0-1.9-0.3-2.5-1c-0.6-0.7-0.9-1.6-0.9-2.8c0-1.3,0.3-2.2,0.9-2.9c0.6-0.7,1.5-1,2.6-1c0.4,0,0.7,0,1.1,0.1
		s0.6,0.2,0.8,0.3l-0.3,1c-0.3-0.1-0.5-0.2-0.8-0.2s-0.6-0.1-0.8-0.1c-1.5,0-2.3,1-2.3,2.9c0,0.9,0.2,1.6,0.6,2.1
		c0.4,0.5,0.9,0.7,1.7,0.7c0.6,0,1.3-0.1,1.9-0.4v1C665.9,416.9,665.3,417,664.5,417z"/>
	<path d="M671.3,417c-1.1,0-2-0.3-2.6-1c-0.6-0.7-1-1.6-1-2.8c0-1.2,0.3-2.2,0.9-2.9c0.6-0.7,1.4-1.1,2.4-1.1c0.9,0,1.7,0.3,2.2,0.9
		s0.8,1.4,0.8,2.4v0.7h-5.2c0,0.9,0.2,1.5,0.7,2c0.4,0.5,1,0.7,1.8,0.7c0.8,0,1.6-0.2,2.4-0.5v1c-0.4,0.2-0.8,0.3-1.1,0.4
		C672.3,416.9,671.9,417,671.3,417z M671,410.2c-0.6,0-1.1,0.2-1.4,0.6c-0.4,0.4-0.6,0.9-0.6,1.6h3.9c0-0.7-0.2-1.3-0.5-1.6
		S671.6,410.2,671,410.2z"/>
	<path d="M681.2,416.8V412c0-0.6-0.1-1.1-0.4-1.4s-0.7-0.5-1.3-0.5c-0.8,0-1.4,0.2-1.7,0.6s-0.5,1.1-0.5,2.1v3.9H676v-7.5h0.9l0.2,1
		h0.1c0.2-0.4,0.6-0.7,1-0.9s0.9-0.3,1.4-0.3c0.9,0,1.6,0.2,2,0.7s0.7,1.1,0.7,2.1v4.9H681.2z"/>
	<path d="M687,416c0.2,0,0.4,0,0.6,0s0.3-0.1,0.4-0.1v0.9c-0.1,0.1-0.3,0.1-0.5,0.1c-0.2,0-0.5,0.1-0.6,0.1c-1.4,0-2.2-0.8-2.2-2.3
		v-4.5h-1.1v-0.5l1.1-0.5l0.5-1.6h0.7v1.7h2.2v0.9h-2.2v4.4c0,0.5,0.1,0.8,0.3,1S686.7,416,687,416z"/>
	<path d="M696.7,417c-0.5,0-0.9-0.1-1.3-0.3c-0.4-0.2-0.7-0.5-1-0.8h-0.1c0.1,0.4,0.1,0.9,0.1,1.2v3.1h-1.1v-10.9h0.9l0.2,1h0.1
		c0.3-0.4,0.6-0.7,1-0.9s0.8-0.3,1.3-0.3c1,0,1.8,0.3,2.3,1c0.5,0.7,0.8,1.6,0.8,2.9c0,1.2-0.3,2.2-0.8,2.9
		C698.4,416.6,697.7,417,696.7,417z M696.5,410.2c-0.8,0-1.3,0.2-1.7,0.6s-0.5,1.1-0.5,2v0.3c0,1.1,0.2,1.8,0.5,2.3s0.9,0.7,1.7,0.7
		c0.6,0,1.2-0.3,1.5-0.8c0.4-0.5,0.5-1.2,0.5-2.2c0-0.9-0.2-1.7-0.5-2.1C697.7,410.4,697.2,410.2,696.5,410.2z"/>
	<path d="M706.4,416.8l-0.2-1.1h-0.1c-0.4,0.5-0.7,0.8-1.1,1c-0.4,0.2-0.8,0.2-1.4,0.2c-0.7,0-1.3-0.2-1.7-0.6
		c-0.4-0.4-0.6-0.9-0.6-1.6c0-1.5,1.2-2.3,3.6-2.4l1.3,0v-0.5c0-0.6-0.1-1-0.4-1.3c-0.3-0.3-0.7-0.4-1.2-0.4c-0.6,0-1.3,0.2-2.1,0.6
		l-0.3-0.9c0.4-0.2,0.8-0.4,1.2-0.5c0.4-0.1,0.9-0.2,1.3-0.2c0.9,0,1.6,0.2,2,0.6c0.4,0.4,0.6,1,0.6,1.9v5.1H706.4z M703.8,416
		c0.7,0,1.3-0.2,1.7-0.6c0.4-0.4,0.6-0.9,0.6-1.6v-0.7l-1.1,0c-0.9,0-1.6,0.2-2,0.4c-0.4,0.2-0.6,0.6-0.6,1.2c0,0.4,0.1,0.7,0.4,0.9
		C703,415.9,703.4,416,703.8,416z"/>
	<path d="M713.1,417c-0.5,0-0.9-0.1-1.3-0.3c-0.4-0.2-0.7-0.5-1-0.8h-0.1c0.1,0.4,0.1,0.9,0.1,1.2v3.1h-1.1v-10.9h0.9l0.2,1h0.1
		c0.3-0.4,0.6-0.7,1-0.9s0.8-0.3,1.3-0.3c1,0,1.8,0.3,2.3,1c0.5,0.7,0.8,1.6,0.8,2.9c0,1.2-0.3,2.2-0.8,2.9
		C714.8,416.6,714,417,713.1,417z M712.9,410.2c-0.8,0-1.3,0.2-1.7,0.6s-0.5,1.1-0.5,2v0.3c0,1.1,0.2,1.8,0.5,2.3s0.9,0.7,1.7,0.7
		c0.6,0,1.2-0.3,1.5-0.8c0.4-0.5,0.5-1.2,0.5-2.2c0-0.9-0.2-1.7-0.5-2.1C714.1,410.4,713.6,410.2,712.9,410.2z"/>
	<path d="M721.3,417c-1.1,0-2-0.3-2.6-1c-0.6-0.7-1-1.6-1-2.8c0-1.2,0.3-2.2,0.9-2.9c0.6-0.7,1.4-1.1,2.4-1.1c0.9,0,1.7,0.3,2.2,0.9
		s0.8,1.4,0.8,2.4v0.7h-5.2c0,0.9,0.2,1.5,0.7,2c0.4,0.5,1,0.7,1.8,0.7c0.8,0,1.6-0.2,2.4-0.5v1c-0.4,0.2-0.8,0.3-1.1,0.4
		C722.3,416.9,721.8,417,721.3,417z M721,410.2c-0.6,0-1.1,0.2-1.4,0.6c-0.4,0.4-0.6,0.9-0.6,1.6h3.9c0-0.7-0.2-1.3-0.5-1.6
		S721.6,410.2,721,410.2z"/>
	<path d="M729.4,409.2c0.3,0,0.6,0,0.9,0.1l-0.2,1.1c-0.3-0.1-0.6-0.1-0.8-0.1c-0.6,0-1.1,0.2-1.6,0.7c-0.4,0.5-0.6,1.1-0.6,1.8v4
		H726v-7.5h0.9l0.1,1.4h0.1c0.3-0.5,0.6-0.9,1-1.1S729,409.2,729.4,409.2z"/>
</g>
<g>
	<path d="M703,592.7h1.3l-3.6,10h-1.1l-3.6-10h1.2l2.3,6.5c0.3,0.7,0.5,1.5,0.6,2.2c0.2-0.7,0.4-1.5,0.6-2.2L703,592.7z"/>
	<path d="M705.4,593.1c0-0.3,0.1-0.5,0.2-0.6s0.3-0.2,0.5-0.2c0.2,0,0.3,0.1,0.5,0.2s0.2,0.3,0.2,0.6s-0.1,0.4-0.2,0.6
		s-0.3,0.2-0.5,0.2c-0.2,0-0.4-0.1-0.5-0.2S705.4,593.4,705.4,593.1z M706.6,602.7h-1.1v-7.5h1.1V602.7z"/>
	<path d="M710.7,602.7l-2.8-7.5h1.2l1.6,4.4c0.4,1,0.6,1.7,0.6,2h0.1c0-0.2,0.2-0.7,0.5-1.5c0.3-0.8,0.9-2.4,1.8-5h1.2l-2.8,7.5
		H710.7z"/>
	<path d="M720.6,602.7l-0.2-1.1h-0.1c-0.4,0.5-0.7,0.8-1.1,1c-0.4,0.2-0.8,0.2-1.4,0.2c-0.7,0-1.3-0.2-1.7-0.6
		c-0.4-0.4-0.6-0.9-0.6-1.6c0-1.5,1.2-2.3,3.6-2.4l1.3,0v-0.5c0-0.6-0.1-1-0.4-1.3c-0.3-0.3-0.7-0.4-1.2-0.4c-0.6,0-1.3,0.2-2.1,0.6
		l-0.3-0.9c0.4-0.2,0.8-0.4,1.2-0.5c0.4-0.1,0.9-0.2,1.3-0.2c0.9,0,1.6,0.2,2,0.6c0.4,0.4,0.6,1,0.6,1.9v5.1H720.6z M718.1,601.9
		c0.7,0,1.3-0.2,1.7-0.6c0.4-0.4,0.6-0.9,0.6-1.6V599l-1.1,0c-0.9,0-1.6,0.2-2,0.4c-0.4,0.2-0.6,0.6-0.6,1.2c0,0.4,0.1,0.7,0.4,0.9
		C717.3,601.7,717.6,601.9,718.1,601.9z"/>
	<path d="M724.9,598.8c0.2-0.3,0.5-0.6,0.9-1.1l2.4-2.6h1.3l-3,3.2l3.2,4.3h-1.4l-2.6-3.5l-0.9,0.7v2.8h-1.1V592h1.1v5.6
		C724.9,597.9,724.9,598.3,724.9,598.8L724.9,598.8z"/>
</g>
<g>
	<path d="M651.1,801.7c-1.1,0-1.9-0.3-2.5-1c-0.6-0.7-0.9-1.6-0.9-2.8c0-1.3,0.3-2.2,0.9-2.9c0.6-0.7,1.5-1,2.6-1
		c0.4,0,0.7,0,1.1,0.1s0.6,0.2,0.8,0.3l-0.3,1c-0.3-0.1-0.5-0.2-0.8-0.2s-0.6-0.1-0.8-0.1c-1.5,0-2.3,1-2.3,2.9
		c0,0.9,0.2,1.6,0.6,2.1c0.4,0.5,0.9,0.7,1.7,0.7c0.6,0,1.3-0.1,1.9-0.4v1C652.5,801.5,651.9,801.7,651.1,801.7z"/>
	<path d="M661.3,797.8c0,1.2-0.3,2.2-0.9,2.9s-1.5,1-2.5,1c-0.7,0-1.3-0.2-1.8-0.5s-0.9-0.8-1.2-1.4s-0.4-1.3-0.4-2.1
		c0-1.2,0.3-2.2,0.9-2.9s1.5-1,2.5-1c1,0,1.9,0.3,2.5,1C661,795.6,661.3,796.6,661.3,797.8z M655.6,797.8c0,1,0.2,1.7,0.6,2.2
		s0.9,0.8,1.7,0.8s1.3-0.2,1.7-0.7c0.4-0.5,0.6-1.2,0.6-2.2c0-1-0.2-1.7-0.6-2.2c-0.4-0.5-1-0.7-1.7-0.7c-0.7,0-1.3,0.2-1.7,0.7
		S655.6,796.8,655.6,797.8z"/>
	<path d="M666.8,801.7c-0.5,0-0.9-0.1-1.3-0.3c-0.4-0.2-0.7-0.5-1-0.8h-0.1c0.1,0.4,0.1,0.9,0.1,1.2v3.1h-1.1V794h0.9l0.2,1h0.1
		c0.3-0.4,0.6-0.7,1-0.9s0.8-0.3,1.3-0.3c1,0,1.8,0.3,2.3,1c0.5,0.7,0.8,1.6,0.8,2.9c0,1.2-0.3,2.2-0.8,2.9
		C668.5,801.3,667.7,801.7,666.8,801.7z M666.6,794.9c-0.8,0-1.3,0.2-1.7,0.6s-0.5,1.1-0.5,2v0.3c0,1.1,0.2,1.8,0.5,2.3
		s0.9,0.7,1.7,0.7c0.6,0,1.2-0.3,1.5-0.8c0.4-0.5,0.5-1.2,0.5-2.2c0-0.9-0.2-1.7-0.5-2.1C667.8,795.1,667.3,794.9,666.6,794.9z"/>
	<path d="M675.3,801.7c-0.5,0-0.9-0.1-1.3-0.3c-0.4-0.2-0.7-0.5-1-0.8h-0.1c0.1,0.4,0.1,0.9,0.1,1.2v3.1h-1.1V794h0.9l0.2,1h0.1
		c0.3-0.4,0.6-0.7,1-0.9s0.8-0.3,1.3-0.3c1,0,1.8,0.3,2.3,1c0.5,0.7,0.8,1.6,0.8,2.9c0,1.2-0.3,2.2-0.8,2.9
		C677.1,801.3,676.3,801.7,675.3,801.7z M675.2,794.9c-0.8,0-1.3,0.2-1.7,0.6s-0.5,1.1-0.5,2v0.3c0,1.1,0.2,1.8,0.5,2.3
		s0.9,0.7,1.7,0.7c0.6,0,1.2-0.3,1.5-0.8c0.4-0.5,0.5-1.2,0.5-2.2c0-0.9-0.2-1.7-0.5-2.1C676.4,795.1,675.8,794.9,675.2,794.9z"/>
	<path d="M683.6,801.7c-1.1,0-2-0.3-2.6-1c-0.6-0.7-1-1.6-1-2.8c0-1.2,0.3-2.2,0.9-2.9c0.6-0.7,1.4-1.1,2.4-1.1
		c0.9,0,1.7,0.3,2.2,0.9s0.8,1.4,0.8,2.4v0.7h-5.2c0,0.9,0.2,1.5,0.7,2c0.4,0.5,1,0.7,1.8,0.7c0.8,0,1.6-0.2,2.4-0.5v1
		c-0.4,0.2-0.8,0.3-1.1,0.4C684.5,801.6,684.1,801.7,683.6,801.7z M683.3,794.8c-0.6,0-1.1,0.2-1.4,0.6c-0.4,0.4-0.6,0.9-0.6,1.6
		h3.9c0-0.7-0.2-1.3-0.5-1.6S683.9,794.8,683.3,794.8z"/>
	<path d="M691.7,793.9c0.3,0,0.6,0,0.9,0.1l-0.2,1.1c-0.3-0.1-0.6-0.1-0.8-0.1c-0.6,0-1.1,0.2-1.6,0.7c-0.4,0.5-0.6,1.1-0.6,1.8v4
		h-1.1V794h0.9l0.1,1.4h0.1c0.3-0.5,0.6-0.9,1-1.1S691.2,793.9,691.7,793.9z"/>
	<path d="M701.1,793.9c1,0,1.7,0.3,2.3,1c0.5,0.7,0.8,1.6,0.8,2.9s-0.3,2.2-0.8,2.9c-0.5,0.7-1.3,1-2.3,1c-0.5,0-0.9-0.1-1.3-0.3
		c-0.4-0.2-0.7-0.5-1-0.8h-0.1l-0.2,1h-0.8v-10.6h1.1v2.6c0,0.6,0,1.1-0.1,1.6h0.1C699.3,794.3,700.1,793.9,701.1,793.9z M701,794.9
		c-0.8,0-1.3,0.2-1.7,0.7s-0.5,1.2-0.5,2.2s0.2,1.8,0.5,2.3s0.9,0.7,1.7,0.7c0.7,0,1.2-0.3,1.6-0.8s0.5-1.2,0.5-2.2
		c0-1-0.2-1.7-0.5-2.2S701.7,794.9,701,794.9z"/>
	<path d="M710.8,801.5l-0.2-1.1h-0.1c-0.4,0.5-0.7,0.8-1.1,1c-0.4,0.2-0.8,0.2-1.4,0.2c-0.7,0-1.3-0.2-1.7-0.6
		c-0.4-0.4-0.6-0.9-0.6-1.6c0-1.5,1.2-2.3,3.6-2.4l1.3,0v-0.5c0-0.6-0.1-1-0.4-1.3c-0.3-0.3-0.7-0.4-1.2-0.4c-0.6,0-1.3,0.2-2.1,0.6
		l-0.3-0.9c0.4-0.2,0.8-0.4,1.2-0.5c0.4-0.1,0.9-0.2,1.3-0.2c0.9,0,1.6,0.2,2,0.6c0.4,0.4,0.6,1,0.6,1.9v5.1H710.8z M708.3,800.7
		c0.7,0,1.3-0.2,1.7-0.6c0.4-0.4,0.6-0.9,0.6-1.6v-0.7l-1.1,0c-0.9,0-1.6,0.2-2,0.4c-0.4,0.2-0.6,0.6-0.6,1.2c0,0.4,0.1,0.7,0.4,0.9
		C707.5,800.6,707.8,800.7,708.3,800.7z"/>
	<path d="M719.1,801.5v-4.8c0-0.6-0.1-1.1-0.4-1.4s-0.7-0.5-1.3-0.5c-0.8,0-1.4,0.2-1.7,0.6s-0.5,1.1-0.5,2.1v3.9H714V794h0.9l0.2,1
		h0.1c0.2-0.4,0.6-0.7,1-0.9s0.9-0.3,1.4-0.3c0.9,0,1.6,0.2,2,0.7s0.7,1.1,0.7,2.1v4.9H719.1z"/>
	<path d="M727.7,800.5L727.7,800.5c-0.6,0.8-1.4,1.1-2.4,1.1c-1,0-1.7-0.3-2.3-1c-0.5-0.7-0.8-1.6-0.8-2.9s0.3-2.2,0.8-2.9
		s1.3-1,2.3-1c1,0,1.8,0.4,2.3,1.1h0.1l0-0.5l0-0.5v-3h1.1v10.6h-0.9L727.7,800.5z M725.4,800.7c0.8,0,1.3-0.2,1.7-0.6
		c0.3-0.4,0.5-1.1,0.5-2v-0.2c0-1.1-0.2-1.8-0.5-2.3c-0.4-0.5-0.9-0.7-1.7-0.7c-0.7,0-1.2,0.3-1.5,0.8c-0.4,0.5-0.5,1.2-0.5,2.2
		c0,1,0.2,1.7,0.5,2.2S724.7,800.7,725.4,800.7z"/>
	<path d="M705.8,818.3h-1.4l-3.6-4.8l-1,0.9v3.9h-1.2v-10h1.2v5l4.5-5h1.4l-4,4.3L705.8,818.3z"/>
	<path d="M711.6,818.3l-0.2-1.1h-0.1c-0.4,0.5-0.7,0.8-1.1,1c-0.4,0.2-0.8,0.2-1.4,0.2c-0.7,0-1.3-0.2-1.7-0.6
		c-0.4-0.4-0.6-0.9-0.6-1.6c0-1.5,1.2-2.3,3.6-2.4l1.3,0v-0.5c0-0.6-0.1-1-0.4-1.3c-0.3-0.3-0.7-0.4-1.2-0.4c-0.6,0-1.3,0.2-2.1,0.6
		l-0.3-0.9c0.4-0.2,0.8-0.4,1.2-0.5c0.4-0.1,0.9-0.2,1.3-0.2c0.9,0,1.6,0.2,2,0.6c0.4,0.4,0.6,1,0.6,1.9v5.1H711.6z M709.1,817.5
		c0.7,0,1.3-0.2,1.7-0.6c0.4-0.4,0.6-0.9,0.6-1.6v-0.7l-1.1,0c-0.9,0-1.6,0.2-2,0.4c-0.4,0.2-0.6,0.6-0.6,1.2c0,0.4,0.1,0.7,0.4,0.9
		C708.3,817.4,708.6,817.5,709.1,817.5z"/>
	<path d="M718.3,818.5c-0.5,0-0.9-0.1-1.3-0.3c-0.4-0.2-0.7-0.5-1-0.8h-0.1c0.1,0.4,0.1,0.9,0.1,1.2v3.1h-1.1v-10.9h0.9l0.2,1h0.1
		c0.3-0.4,0.6-0.7,1-0.9s0.8-0.3,1.3-0.3c1,0,1.8,0.3,2.3,1c0.5,0.7,0.8,1.6,0.8,2.9c0,1.2-0.3,2.2-0.8,2.9
		C720,818.1,719.3,818.5,718.3,818.5z M718.1,811.7c-0.8,0-1.3,0.2-1.7,0.6s-0.5,1.1-0.5,2v0.3c0,1.1,0.2,1.8,0.5,2.3
		s0.9,0.7,1.7,0.7c0.6,0,1.2-0.3,1.5-0.8c0.4-0.5,0.5-1.2,0.5-2.2c0-0.9-0.2-1.7-0.5-2.1C719.3,811.9,718.8,811.7,718.1,811.7z"/>
	<path d="M728,818.3l-0.2-1.1h-0.1c-0.4,0.5-0.7,0.8-1.1,1c-0.4,0.2-0.8,0.2-1.4,0.2c-0.7,0-1.3-0.2-1.7-0.6
		c-0.4-0.4-0.6-0.9-0.6-1.6c0-1.5,1.2-2.3,3.6-2.4l1.3,0v-0.5c0-0.6-0.1-1-0.4-1.3c-0.3-0.3-0.7-0.4-1.2-0.4c-0.6,0-1.3,0.2-2.1,0.6
		l-0.3-0.9c0.4-0.2,0.8-0.4,1.2-0.5c0.4-0.1,0.9-0.2,1.3-0.2c0.9,0,1.6,0.2,2,0.6c0.4,0.4,0.6,1,0.6,1.9v5.1H728z M725.4,817.5
		c0.7,0,1.3-0.2,1.7-0.6c0.4-0.4,0.6-0.9,0.6-1.6v-0.7l-1.1,0c-0.9,0-1.6,0.2-2,0.4c-0.4,0.2-0.6,0.6-0.6,1.2c0,0.4,0.1,0.7,0.4,0.9
		C724.6,817.4,725,817.5,725.4,817.5z"/>
</g>
<g>
	<path d="M684.8,1006.6L684.8,1006.6c-0.6,0.8-1.4,1.1-2.4,1.1c-1,0-1.7-0.3-2.3-1c-0.5-0.7-0.8-1.6-0.8-2.9s0.3-2.2,0.8-2.9
		s1.3-1,2.3-1c1,0,1.8,0.4,2.3,1.1h0.1l0-0.5l0-0.5v-3h1.1v10.6h-0.9L684.8,1006.6z M682.5,1006.8c0.8,0,1.3-0.2,1.7-0.6
		c0.3-0.4,0.5-1.1,0.5-2v-0.2c0-1.1-0.2-1.8-0.5-2.3c-0.4-0.5-0.9-0.7-1.7-0.7c-0.7,0-1.2,0.3-1.5,0.8c-0.4,0.5-0.5,1.2-0.5,2.2
		c0,1,0.2,1.7,0.5,2.2S681.8,1006.8,682.5,1006.8z"/>
	<path d="M688.2,998.1c0-0.3,0.1-0.5,0.2-0.6c0.1-0.1,0.3-0.2,0.5-0.2c0.2,0,0.3,0.1,0.5,0.2s0.2,0.3,0.2,0.6s-0.1,0.4-0.2,0.6
		c-0.1,0.1-0.3,0.2-0.5,0.2c-0.2,0-0.4-0.1-0.5-0.2C688.2,998.6,688.2,998.4,688.2,998.1z M689.4,1007.6h-1.1v-7.5h1.1V1007.6z"/>
	<path d="M693.4,1007.6l-2.8-7.5h1.2l1.6,4.4c0.4,1,0.6,1.7,0.6,2h0.1c0-0.2,0.2-0.7,0.5-1.5c0.3-0.8,0.9-2.4,1.8-5h1.2l-2.8,7.5
		H693.4z"/>
	<path d="M698.7,998.1c0-0.3,0.1-0.5,0.2-0.6c0.1-0.1,0.3-0.2,0.5-0.2c0.2,0,0.3,0.1,0.5,0.2s0.2,0.3,0.2,0.6s-0.1,0.4-0.2,0.6
		c-0.1,0.1-0.3,0.2-0.5,0.2c-0.2,0-0.4-0.1-0.5-0.2C698.8,998.6,698.7,998.4,698.7,998.1z M699.9,1007.6h-1.1v-7.5h1.1V1007.6z"/>
	<path d="M707.4,1006.6L707.4,1006.6c-0.6,0.8-1.4,1.1-2.4,1.1c-1,0-1.7-0.3-2.3-1c-0.5-0.7-0.8-1.6-0.8-2.9s0.3-2.2,0.8-2.9
		s1.3-1,2.3-1c1,0,1.8,0.4,2.3,1.1h0.1l0-0.5l0-0.5v-3h1.1v10.6h-0.9L707.4,1006.6z M705.2,1006.8c0.8,0,1.3-0.2,1.7-0.6
		c0.3-0.4,0.5-1.1,0.5-2v-0.2c0-1.1-0.2-1.8-0.5-2.3c-0.4-0.5-0.9-0.7-1.7-0.7c-0.7,0-1.2,0.3-1.5,0.8c-0.4,0.5-0.5,1.2-0.5,2.2
		c0,1,0.2,1.7,0.5,2.2S704.5,1006.8,705.2,1006.8z"/>
	<path d="M714.1,1007.8c-1.1,0-2-0.3-2.6-1c-0.6-0.7-1-1.6-1-2.8c0-1.2,0.3-2.2,0.9-2.9c0.6-0.7,1.4-1.1,2.4-1.1
		c0.9,0,1.7,0.3,2.2,0.9c0.5,0.6,0.8,1.4,0.8,2.4v0.7h-5.2c0,0.9,0.2,1.5,0.7,2c0.4,0.5,1,0.7,1.8,0.7c0.8,0,1.6-0.2,2.4-0.5v1
		c-0.4,0.2-0.8,0.3-1.1,0.4C715,1007.7,714.6,1007.8,714.1,1007.8z M713.8,1001c-0.6,0-1.1,0.2-1.4,0.6c-0.4,0.4-0.6,0.9-0.6,1.6
		h3.9c0-0.7-0.2-1.3-0.5-1.6C714.8,1001.1,714.4,1001,713.8,1001z"/>
	<path d="M722.2,1000c0.3,0,0.6,0,0.9,0.1l-0.2,1.1c-0.3-0.1-0.6-0.1-0.8-0.1c-0.6,0-1.1,0.2-1.6,0.7c-0.4,0.5-0.6,1.1-0.6,1.8v4
		h-1.1v-7.5h0.9l0.1,1.4h0.1c0.3-0.5,0.6-0.9,1-1.1S721.7,1000,722.2,1000z"/>
	<path d="M729.3,1005.6c0,0.7-0.3,1.2-0.8,1.6s-1.2,0.6-2.2,0.6c-1,0-1.8-0.2-2.3-0.5v-1.1c0.4,0.2,0.7,0.3,1.2,0.4
		c0.4,0.1,0.8,0.2,1.2,0.2c0.6,0,1-0.1,1.4-0.3c0.3-0.2,0.5-0.5,0.5-0.9c0-0.3-0.1-0.5-0.4-0.7c-0.3-0.2-0.7-0.5-1.5-0.7
		c-0.7-0.3-1.2-0.5-1.5-0.7c-0.3-0.2-0.5-0.4-0.7-0.7c-0.1-0.2-0.2-0.5-0.2-0.9c0-0.6,0.2-1.1,0.7-1.4c0.5-0.4,1.2-0.5,2-0.5
		c0.8,0,1.6,0.2,2.4,0.5l-0.4,0.9c-0.8-0.3-1.4-0.5-2-0.5c-0.5,0-0.9,0.1-1.2,0.3s-0.4,0.4-0.4,0.7c0,0.2,0.1,0.4,0.2,0.5
		c0.1,0.1,0.3,0.3,0.5,0.4s0.7,0.3,1.3,0.6c0.9,0.3,1.5,0.6,1.8,1C729.2,1004.7,729.3,1005.1,729.3,1005.6z"/>
</g>
<g>
	<path d="M699,1173.1v-10h1.2v8.9h4.4v1.1H699z"/>
	<path d="M711.8,1173.1h-5.6v-10h5.6v1h-4.4v3.2h4.1v1h-4.1v3.7h4.4V1173.1z"/>
	<path d="M722,1168c0,1.7-0.4,2.9-1.3,3.8c-0.9,0.9-2.2,1.3-3.9,1.3H714v-10h3.1c1.6,0,2.8,0.4,3.6,1.3S722,1166.5,722,1168z
		 M720.8,1168.1c0-1.3-0.3-2.3-1-2.9c-0.7-0.7-1.6-1-2.9-1h-1.7v8h1.4c1.4,0,2.4-0.3,3.1-1C720.4,1170.4,720.8,1169.4,720.8,1168.1z
		"/>
	<path d="M728.9,1171.1c0,0.7-0.3,1.2-0.8,1.6c-0.5,0.4-1.2,0.6-2.2,0.6c-1,0-1.8-0.2-2.3-0.5v-1.1c0.4,0.2,0.7,0.3,1.2,0.4
		c0.4,0.1,0.8,0.2,1.2,0.2c0.6,0,1-0.1,1.4-0.3c0.3-0.2,0.5-0.5,0.5-0.9c0-0.3-0.1-0.5-0.4-0.7c-0.3-0.2-0.7-0.5-1.5-0.7
		c-0.7-0.3-1.2-0.5-1.5-0.7c-0.3-0.2-0.5-0.4-0.7-0.7c-0.1-0.2-0.2-0.5-0.2-0.9c0-0.6,0.2-1.1,0.7-1.4c0.5-0.4,1.2-0.5,2-0.5
		c0.8,0,1.6,0.2,2.4,0.5l-0.4,0.9c-0.8-0.3-1.4-0.5-2-0.5c-0.5,0-0.9,0.1-1.2,0.3c-0.3,0.2-0.4,0.4-0.4,0.7c0,0.2,0.1,0.4,0.2,0.5
		c0.1,0.1,0.3,0.3,0.5,0.4c0.2,0.1,0.7,0.3,1.3,0.6c0.9,0.3,1.5,0.6,1.8,1C728.7,1170.2,728.9,1170.6,728.9,1171.1z"/>
</g>
<g>
	<path d="M698.6,1341.2c0,0.7-0.3,1.2-0.8,1.6c-0.5,0.4-1.2,0.6-2.2,0.6c-1,0-1.8-0.2-2.3-0.5v-1.1c0.4,0.2,0.7,0.3,1.2,0.4
		c0.4,0.1,0.8,0.2,1.2,0.2c0.6,0,1-0.1,1.4-0.3c0.3-0.2,0.5-0.5,0.5-0.9c0-0.3-0.1-0.5-0.4-0.7c-0.3-0.2-0.7-0.5-1.5-0.7
		c-0.7-0.3-1.2-0.5-1.5-0.7c-0.3-0.2-0.5-0.4-0.7-0.7c-0.1-0.2-0.2-0.5-0.2-0.9c0-0.6,0.2-1.1,0.7-1.4c0.5-0.4,1.2-0.5,2-0.5
		c0.8,0,1.6,0.2,2.4,0.5l-0.4,0.9c-0.8-0.3-1.4-0.5-2-0.5c-0.5,0-0.9,0.1-1.2,0.3c-0.3,0.2-0.4,0.4-0.4,0.7c0,0.2,0.1,0.4,0.2,0.5
		c0.1,0.1,0.3,0.3,0.5,0.4c0.2,0.1,0.7,0.3,1.3,0.6c0.9,0.3,1.5,0.6,1.8,1C698.5,1340.3,698.6,1340.7,698.6,1341.2z"/>
	<path d="M702.9,1342.4c0.2,0,0.4,0,0.6,0c0.2,0,0.3-0.1,0.4-0.1v0.9c-0.1,0.1-0.3,0.1-0.5,0.1c-0.2,0-0.5,0.1-0.6,0.1
		c-1.4,0-2.2-0.8-2.2-2.3v-4.5h-1.1v-0.5l1.1-0.5l0.5-1.6h0.7v1.7h2.2v0.9h-2.2v4.4c0,0.5,0.1,0.8,0.3,1
		C702.2,1342.3,702.5,1342.4,702.9,1342.4z"/>
	<path d="M710,1343.2l-0.2-1.1h-0.1c-0.4,0.5-0.7,0.8-1.1,1c-0.4,0.2-0.8,0.3-1.4,0.3c-0.7,0-1.3-0.2-1.7-0.6
		c-0.4-0.4-0.6-0.9-0.6-1.6c0-1.5,1.2-2.3,3.6-2.4l1.3,0v-0.5c0-0.6-0.1-1-0.4-1.3c-0.3-0.3-0.7-0.4-1.2-0.4c-0.6,0-1.3,0.2-2.1,0.6
		l-0.3-0.9c0.4-0.2,0.8-0.4,1.2-0.5c0.4-0.1,0.9-0.2,1.3-0.2c0.9,0,1.6,0.2,2,0.6c0.4,0.4,0.6,1,0.6,1.9v5.1H710z M707.5,1342.4
		c0.7,0,1.3-0.2,1.7-0.6c0.4-0.4,0.6-0.9,0.6-1.6v-0.7l-1.1,0c-0.9,0-1.6,0.2-2,0.4c-0.4,0.2-0.6,0.6-0.6,1.2c0,0.4,0.1,0.7,0.4,0.9
		C706.7,1342.3,707,1342.4,707.5,1342.4z"/>
	<path d="M718.3,1343.2v-4.8c0-0.6-0.1-1.1-0.4-1.4s-0.7-0.5-1.3-0.5c-0.8,0-1.4,0.2-1.7,0.6s-0.5,1.1-0.5,2.1v3.9h-1.1v-7.5h0.9
		l0.2,1h0.1c0.2-0.4,0.6-0.7,1-0.9c0.4-0.2,0.9-0.3,1.4-0.3c0.9,0,1.6,0.2,2,0.7c0.5,0.4,0.7,1.1,0.7,2.1v4.9H718.3z"/>
	<path d="M726.9,1342.2L726.9,1342.2c-0.6,0.8-1.4,1.1-2.4,1.1c-1,0-1.7-0.3-2.3-1c-0.5-0.7-0.8-1.6-0.8-2.9c0-1.2,0.3-2.2,0.8-2.9
		s1.3-1,2.3-1c1,0,1.8,0.4,2.3,1.1h0.1l0-0.5l0-0.5v-3h1.1v10.6H727L726.9,1342.2z M724.6,1342.4c0.8,0,1.3-0.2,1.7-0.6
		c0.3-0.4,0.5-1.1,0.5-2v-0.2c0-1.1-0.2-1.8-0.5-2.3c-0.4-0.5-0.9-0.7-1.7-0.7c-0.7,0-1.2,0.3-1.5,0.8c-0.4,0.5-0.5,1.2-0.5,2.2
		c0,1,0.2,1.7,0.5,2.2C723.4,1342.2,723.9,1342.4,724.6,1342.4z"/>
</g>
<g>
	<path d="M694.6,1615.9h-1.9v6.6h-1.1v-6.6h-1.3v-0.5l1.3-0.4v-0.4c0-1.8,0.8-2.8,2.4-2.8c0.4,0,0.9,0.1,1.4,0.2l-0.3,0.9
		c-0.4-0.1-0.8-0.2-1.1-0.2c-0.4,0-0.7,0.1-1,0.4c-0.2,0.3-0.3,0.7-0.3,1.4v0.5h1.9V1615.9z"/>
	<path d="M699.4,1614.9c0.3,0,0.6,0,0.9,0.1l-0.2,1.1c-0.3-0.1-0.6-0.1-0.8-0.1c-0.6,0-1.1,0.2-1.6,0.7c-0.4,0.5-0.6,1.1-0.6,1.8v4
		H696v-7.5h0.9l0.1,1.4h0.1c0.3-0.5,0.6-0.9,1-1.1C698.5,1615,698.9,1614.9,699.4,1614.9z"/>
	<path d="M706.3,1622.5l-0.2-1.1H706c-0.4,0.5-0.7,0.8-1.1,1c-0.4,0.2-0.8,0.2-1.4,0.2c-0.7,0-1.3-0.2-1.7-0.6
		c-0.4-0.4-0.6-0.9-0.6-1.6c0-1.5,1.2-2.3,3.6-2.4l1.3,0v-0.5c0-0.6-0.1-1-0.4-1.3c-0.3-0.3-0.7-0.4-1.2-0.4c-0.6,0-1.3,0.2-2.1,0.6
		l-0.3-0.9c0.4-0.2,0.8-0.4,1.2-0.5c0.4-0.1,0.9-0.2,1.3-0.2c0.9,0,1.6,0.2,2,0.6c0.4,0.4,0.6,1,0.6,1.9v5.1H706.3z M703.8,1621.7
		c0.7,0,1.3-0.2,1.7-0.6c0.4-0.4,0.6-0.9,0.6-1.6v-0.7l-1.1,0c-0.9,0-1.6,0.2-2,0.4c-0.4,0.2-0.6,0.6-0.6,1.2c0,0.4,0.1,0.7,0.4,0.9
		C703,1621.6,703.3,1621.7,703.8,1621.7z"/>
	<path d="M719,1622.5v-4.9c0-0.6-0.1-1-0.4-1.3c-0.3-0.3-0.7-0.4-1.2-0.4c-0.7,0-1.2,0.2-1.6,0.6c-0.3,0.4-0.5,1-0.5,1.9v4.2h-1.1
		v-4.9c0-0.6-0.1-1-0.4-1.3c-0.3-0.3-0.7-0.4-1.2-0.4c-0.7,0-1.2,0.2-1.6,0.6c-0.3,0.4-0.5,1.1-0.5,2.1v3.9h-1.1v-7.5h0.9l0.2,1h0.1
		c0.2-0.4,0.5-0.6,0.9-0.9c0.4-0.2,0.8-0.3,1.3-0.3c1.2,0,1.9,0.4,2.3,1.3h0.1c0.2-0.4,0.5-0.7,1-0.9c0.4-0.2,0.9-0.3,1.4-0.3
		c0.8,0,1.5,0.2,1.9,0.7c0.4,0.4,0.6,1.1,0.6,2.1v4.9H719z"/>
	<path d="M725.7,1622.6c-1.1,0-2-0.3-2.6-1c-0.6-0.7-1-1.6-1-2.8c0-1.2,0.3-2.2,0.9-2.9c0.6-0.7,1.4-1.1,2.4-1.1
		c0.9,0,1.7,0.3,2.2,0.9c0.5,0.6,0.8,1.4,0.8,2.4v0.7h-5.2c0,0.9,0.2,1.5,0.7,2c0.4,0.5,1,0.7,1.8,0.7c0.8,0,1.6-0.2,2.4-0.5v1
		c-0.4,0.2-0.8,0.3-1.1,0.4C726.6,1622.6,726.2,1622.6,725.7,1622.6z M725.4,1615.8c-0.6,0-1.1,0.2-1.4,0.6
		c-0.4,0.4-0.6,0.9-0.6,1.6h3.9c0-0.7-0.2-1.3-0.5-1.6C726.4,1616,726,1615.8,725.4,1615.8z"/>
</g>
</svg>
