<svg version="1.0" xmlns="http://www.w3.org/2000/svg"
 width="1024pt" height="1024pt" viewBox="0 0 1024 1024">

<g transform="translate(0.000000,1024.000000) scale(0.100000,-0.100000)"
fill="#000000" stroke="none">
<path d="M4925 9529 c-983 -39 -1938 -420 -2692 -1072 -150 -131 -419 -408
-538 -557 -519 -646 -841 -1398 -945 -2205 -134 -1044 105 -2093 677 -2969 96
-147 219 -316 230 -316 5 0 514 506 1132 1124 l1123 1124 -25 78 c-47 144 -60
228 -60 394 0 221 38 390 130 575 124 248 340 464 588 588 186 92 355 130 575
130 220 0 389 -38 575 -130 248 -124 464 -340 588 -588 92 -185 130 -354 130
-575 0 -166 -13 -250 -60 -394 l-25 -78 1123 -1124 c618 -618 1127 -1124 1131
-1124 11 0 143 181 232 318 564 865 804 1901 680 2937 -104 869 -478 1705
-1059 2365 -115 130 -360 370 -480 471 -435 363 -937 643 -1463 815 -502 164
-1021 235 -1567 213z"/>
<path d="M4915 5127 c-213 -344 -463 -739 -546 -865 -40 -60 -292 -318 -1171
-1198 l-1120 -1121 54 -50 c159 -151 376 -320 586 -457 1117 -731 2514 -912
3791 -489 583 192 1167 538 1599 946 l54 50 -1120 1121 -1120 1121 -114 175
c-102 156 -425 670 -614 978 -38 61 -71 112 -74 112 -3 0 -95 -145 -205 -323z"/>
</g>
</svg>
