<svg xmlns="http://www.w3.org/2000/svg" xmlns:xlink="http://www.w3.org/1999/xlink" viewBox="0 0 10000 5000" width="5000" height="10000" style="float:right">
  <defs>
    <style>
      .cls-1 {
        clip-path: url(#clip-custom_3);
      }

      .cls-2 {
        fill: #4a4848;
      }

      .cls-3, .cls-7 {
        fill: none;
      }

      .cls-3 {
        stroke: #4a4848;
        stroke-width: 19px;
      }

      .cls-4 {
        opacity: 0.8;
      }

      .cls-5 {
        fill: #d8d8d8;
      }

      .cls-6 {
        fill: #fff;
      }

      .cls-7 {
        stroke: #fff;
        stroke-width: 7px;
      }
    </style>
    <clipPath id="clip-custom_3">
      <rect width="10000" height="5000"/>
    </clipPath>
  </defs>
  <g id="custom_3" data-name="custom – 3" class="cls-1">
    <rect width="10000" height="5000"/>
    <g id="real_world" data-name="real world" transform="translate(0.19 148.968)">
      <g id="forest" transform="translate(1106.811 2880.994)">
        <g id="tree" transform="matrix(0.999, 0.035, -0.035, 0.999, 35.465, 0)">
          <circle id="Ellipse_3" data-name="Ellipse 3" class="cls-2" cx="202.191" cy="202.191" r="202.191"/>
          <line id="Linie_1" data-name="Linie 1" class="cls-3" y2="814.017" transform="translate(202.191 202.191)"/>
        </g>
        <g id="tree-2" data-name="tree" transform="matrix(0.998, -0.07, 0.07, 0.998, 458.431, 327.002)">
          <circle id="Ellipse_3-2" data-name="Ellipse 3" class="cls-2" cx="137.42" cy="137.42" r="137.42"/>
          <line id="Linie_1-2" data-name="Linie 1" class="cls-3" y2="547.93" transform="translate(137.42 123.416)"/>
        </g>
        <g id="tree-3" data-name="tree" transform="translate(1110.579 77.387) rotate(3)">
          <circle id="Ellipse_3-3" data-name="Ellipse 3" class="cls-2" cx="202.191" cy="202.191" r="202.191"/>
          <line id="Linie_1-3" data-name="Linie 1" class="cls-3" y2="814.017" transform="translate(202.191 202.191)"/>
        </g>
      </g>
      <circle id="sun_moon" data-name="sun/moon" class="cls-2" cx="282.718" cy="282.718" r="282.718" transform="translate(3294.318 36)"/>
      <g id="windmillDT" class="cls-4" transform="translate(6400.462 112.321)">
        <path id="Pfad_1" data-name="Pfad 1" class="cls-5" d="M11.675,0h97.943l11.675,2216.962H0Z" transform="translate(1213.999 1096.875)"/>
        <g id="rotor" transform="translate(0 0)">
          <path id="Pfad_2" data-name="Pfad 2" class="cls-5" d="M160.57,0V1279.67H58.348L0,982.086Z" transform="translate(0 1175.629) rotate(-90)"/>
          <path id="Pfad_3" data-name="Pfad 3" class="cls-5" d="M160.57,0V1279.67H58.348L0,982.086Z" transform="matrix(0.819, 0.574, -0.574, 0.819, 1874.12, 0)"/>
          <path id="Pfad_4" data-name="Pfad 4" class="cls-5" d="M160.57,0V1279.67H58.348L0,982.086Z" transform="matrix(-0.755, 0.656, -0.656, -0.755, 2146.033, 1914.189)"/>
          <circle id="Ellipse_1" data-name="Ellipse 1" class="cls-5" cx="62.145" cy="62.145" r="62.145" transform="translate(1216.923 999.577)"/>
        </g>
      </g>
      <path id="hill" class="cls-2" d="M1705.19,5824.817s622.38-999.345,1761.388-991.686S4593.1,5250.088,5712.863,5241.249,6844.182,4139.443,9112.381,4110.994C11380.55,4082.544,11705,5824.817,11705,5824.817" transform="translate(-1705.19 -973.532)"/>
      <g id="cloud" transform="translate(400.638 1473.138)">
        <circle id="sun_moon-2" data-name="sun/moon" class="cls-2" cx="202.898" cy="202.898" r="202.898" transform="translate(0 238.509)"/>
        <circle id="sun_moon-3" data-name="sun/moon" class="cls-2" cx="322.153" cy="322.153" r="322.153" transform="translate(268.323)"/>
        <circle id="sun_moon-4" data-name="sun/moon" class="cls-2" cx="268.323" cy="268.323" r="268.323" transform="translate(644.306 109.317)"/>
        <rect id="Rechteck_1" data-name="Rechteck 1" class="cls-2" width="708.902" height="203.726" transform="translate(203.727 442.235)"/>
      </g>
      <g id="cloud-2" data-name="cloud" transform="translate(2795.929 1473.244)">
        <circle id="sun_moon-5" data-name="sun/moon" class="cls-2" cx="147.362" cy="147.362" r="147.362" transform="translate(0 173.226)"/>
        <circle id="sun_moon-6" data-name="sun/moon" class="cls-2" cx="233.976" cy="233.976" r="233.976" transform="translate(194.88)"/>
        <circle id="sun_moon-7" data-name="sun/moon" class="cls-2" cx="194.879" cy="194.879" r="194.879" transform="translate(467.951 79.395)"/>
        <rect id="Rechteck_1-2" data-name="Rechteck 1" class="cls-2" width="514.866" height="147.964" transform="translate(147.964 321.19)"/>
      </g>
      <g id="cloud-3" data-name="cloud" transform="translate(3960.838 678)">
        <circle id="sun_moon-8" data-name="sun/moon" class="cls-2" cx="214.445" cy="214.445" r="214.445" transform="translate(0 252.083)"/>
        <circle id="sun_moon-9" data-name="sun/moon" class="cls-2" cx="340.487" cy="340.487" r="340.487" transform="translate(283.593)"/>
        <circle id="sun_moon-10" data-name="sun/moon" class="cls-2" cx="283.593" cy="283.593" r="283.593" transform="translate(680.974 115.538)"/>
        <rect id="Rechteck_1-3" data-name="Rechteck 1" class="cls-2" width="749.246" height="215.321" transform="translate(215.321 467.403)"/>
      </g>
    </g>
    <g id="Gruppe_5" data-name="Gruppe 5" transform="translate(3538 324)">
      <rect id="Rechteck_3" data-name="Rechteck 3" class="cls-6" width="1675.3" height="66.522" transform="translate(1065.957 2107.861)"/>
      <rect id="Rechteck_4" data-name="Rechteck 4" class="cls-6" width="1451.226" height="66.522" transform="translate(1065.957 2226.9)"/>
      <rect id="Rechteck_5" data-name="Rechteck 5" class="cls-6" width="1533.503" height="66.522" transform="translate(1065.957 2345.939)"/>
      <rect id="Rechteck_6" data-name="Rechteck 6" class="cls-6" width="896.294" height="66.522" transform="translate(1065.957 2464.979)"/>
    </g>
    <g id="Gruppe_4" data-name="Gruppe 4" transform="translate(3910 -103)">
      <g id="Gruppe_1" data-name="Gruppe 1" transform="translate(2039.277 952.481)">
        <line id="Linie_2" data-name="Linie 2" class="cls-7" x1="334.36" y1="341.362" transform="translate(589.944 91.03)"/>
        <line id="Linie_3" data-name="Linie 3" class="cls-7" x1="131.293" transform="translate(460.401 91.905)"/>
        <rect id="Rechteck_7" data-name="Rechteck 7" class="cls-6" width="593.445" height="66.522" transform="translate(0 0)"/>
      </g>
      <g id="Gruppe_2" data-name="Gruppe 2" transform="translate(3821.362 2836.1)">
        <line id="Linie_2-2" data-name="Linie 2" class="cls-7" y1="190.813" x2="190.813" transform="translate(0 91.03)"/>
        <path id="Pfad_5" data-name="Pfad 5" class="cls-7" d="M131.293,0H0" transform="translate(189.062 91.905)"/>
        <rect id="Rechteck_7-2" data-name="Rechteck 7" class="cls-6" width="733.491" height="66.522" transform="translate(187.311 0)"/>
      </g>
      <g id="Gruppe_3" data-name="Gruppe 3" transform="translate(3861.625 211.989)">
        <line id="Linie_2-3" data-name="Linie 2" class="cls-7" x1="164.554" y1="164.554" transform="translate(458.651 91.03)"/>
        <line id="Linie_3-2" data-name="Linie 3" class="cls-7" x1="131.293" transform="translate(329.108 91.905)"/>
        <rect id="Rechteck_7-3" data-name="Rechteck 7" class="cls-6" width="462.152" height="66.522" transform="translate(0 0)"/>
      </g>
    </g>
  </g>
</svg>
