<svg xmlns="http://www.w3.org/2000/svg" xmlns:xlink="http://www.w3.org/1999/xlink" viewBox="0 0 2000 1000">
  <defs>
    <style>
      .cls-1 {
        clip-path: url(#clip-portfolio);
      }

      .cls-2 {
        fill: url(#linear-gradient-2);
      }

      .cls-3 {
        fill: url(#linear-gradient-3);
      }

      .cls-4 {
        fill: #737373;
      }

      .cls-14, .cls-16, .cls-5 {
        fill: #3c3c3c;
      }

      .cls-6 {
        fill: #7e7e7e;
      }

      .cls-7 {
        fill: #8d8d8d;
      }

      .cls-8 {
        fill: #9d9d9d;
      }

      .cls-9 {
        fill: #fff;
      }

      .cls-10 {
        fill: none;
        stroke: red;
      }

      .cls-11 {
        fill: #4f4f4f;
      }

      .cls-12 {
        fill: url(#linear-gradient-4);
      }

      .cls-13 {
        fill: url(#linear-gradient-5);
      }

      .cls-15, .cls-16 {
        stroke: none;
      }

      .cls-17 {
        fill: url(#linear-gradient);
      }
    </style>
    <linearGradient id="linear-gradient" x1="0.5" x2="0.5" y2="1" gradientUnits="objectBoundingBox">
      <stop offset="0" stop-color="#d9d9d9"/>
      <stop offset="1" stop-color="#adadad"/>
    </linearGradient>
    <linearGradient id="linear-gradient-2" x1="1" y1="0.36" x2="0" y2="1" gradientUnits="objectBoundingBox">
      <stop offset="0" stop-color="#3c3c3c"/>
      <stop offset="1" stop-color="#464646"/>
    </linearGradient>
    <linearGradient id="linear-gradient-3" x1="1.479" y1="0.504" x2="0.062" y2="0.676" gradientUnits="objectBoundingBox">
      <stop offset="0" stop-color="#3b3b3b"/>
      <stop offset="1" stop-color="#525252"/>
    </linearGradient>
    <linearGradient id="linear-gradient-4" x1="1" y1="0.36" x2="0" y2="1" gradientUnits="objectBoundingBox">
      <stop offset="0" stop-color="#4c4c4c"/>
      <stop offset="1" stop-color="#464646"/>
    </linearGradient>
    <linearGradient id="linear-gradient-5" x1="1.479" y1="0.504" x2="0.062" y2="0.676" gradientUnits="objectBoundingBox">
      <stop offset="0" stop-color="#424242"/>
      <stop offset="1" stop-color="#3c3c3c"/>
    </linearGradient>
    <clipPath id="clip-portfolio">
      <rect width="2000" height="1000"/>
    </clipPath>
  </defs>
  <g id="portfolio" class="cls-1">
    <rect class="cls-17" width="2000" height="1000"/>
    <g id="Gruppe_1" data-name="Gruppe 1" transform="translate(94 69.891)">
      <g id="table" transform="translate(999.973 39.984)">
        <path id="Pfad_13" data-name="Pfad 13" class="cls-2" d="M617.974,465.219l.014,360.02,314.138,203.207.016-359.236Z" transform="translate(-617.974 -151.232)"/>
        <path id="Pfad_14" data-name="Pfad 14" class="cls-3" d="M0,0,19.644,373.77,330.826,553.444l-18.979-373.43Z" transform="translate(628.004 313.993) rotate(60)"/>
        <path id="Pfad_4" data-name="Pfad 4" class="cls-4" d="M0,0,366.218,77.853l77.853,366.219L77.853,366.218Z" transform="translate(0.024 314.006) rotate(-45)"/>
      </g>
      <g id="e1" transform="translate(1071.028 177.121)">
        <path id="Pfad_7" data-name="Pfad 7" class="cls-5" d="M1018.453,495.243s-51.91,54.1-121.823,25.926c-67.745-27.3-200-125.045-201.2-167.308-.033-1.122,0-3.545,0-3.545V335.043l.3-3.221s206.945-136.1,265.307-127.906c55.722,7.824,222.3,150.121,222.3,150.121v16.5s-.042,1.133,0,1.527c1.47,13.951-18.594,29.46-30.78,37.619l-8.484-12.931-32.041-52.1L971.877,433.032l45.262,45.183Z" transform="translate(-695.417 -185.125)"/>
        <path id="Pfad_6" data-name="Pfad 6" class="cls-6" d="M1017.14,496.81s-50.6,52.522-120.509,24.352S688.1,389.788,695.732,350.216s205.2-154.747,265.307-146.308,220.226,148.406,222.3,168.111-39.292,43.054-39.292,43.054l-32.415-49.365L985.4,447.775Z" transform="translate(-695.418 -203.468)"/>
        <path id="Pfad_8" data-name="Pfad 8" class="cls-5" d="M1047.124,540.5l14.9,7.918-15.993-24.654Z" transform="translate(-724.342 -229.892)"/>
      </g>
      <g id="e2" transform="translate(1115.41 197.862)">
        <path id="Pfad_9" data-name="Pfad 9" class="cls-5" d="M1023.675,498.78s-68.55,7.3-138.463-20.867c-65.718-26.48-123.99-95.819-124.411-137.167-.025-2.37,0-18.543,0-18.543s124.748-71.447,194.529-70.1,169.261,94.139,185.457,114.857a101.29,101.29,0,0,1,10.395,16.758s.046,16.831,0,19.963l-1.853-3.193-16.877-27.028-134.6,80.579,25.008,28.843Z" transform="translate(-760.79 -233.725)"/>
        <path id="Pfad_6-2" data-name="Pfad 6" class="cls-7" d="M1022.533,500.82s-67.408,5.263-137.321-22.908-131.4-104.847-123.769-144.419S885.55,250.755,955.33,252.1s169.261,94.139,185.458,114.857,8.654,52.121,8.654,52.121l-16.818-25.51L1006.388,475.64Z" transform="translate(-760.791 -252.074)"/>
        <path id="Pfad_10" data-name="Pfad 10" class="cls-5" d="M1047.132,540.525l14.637,7.626-15.631-24.085Z" transform="translate(-784.33 -275.43)"/>
      </g>
      <g id="e3" transform="translate(1190.479 224.152)">
        <path id="Pfad_15" data-name="Pfad 15" class="cls-5" d="M1032.823,505.472s-30.681-13.044-38.537-42.453-14.912-36.87-42.007-59.844c-25.794-21.871-91.959-24.2-91.666-58.776.011-1.466,0-17.89,0-17.89s65.361-21.551,121.413-3.488,74.248,52.268,94.288,69.2,81.083,32.262,81.083,32.262Z" transform="translate(-860.609 -290.961)"/>
        <path id="Pfad_6-3" data-name="Pfad 6" class="cls-8" d="M1031.143,506.009s-29-14.165-36.857-43.575-14.912-36.87-42.007-59.844-98.735-24.381-91.1-63.954,64.8-34.263,120.852-16.2,74.248,52.268,94.288,69.2S1157.4,423.9,1157.4,423.9Z" transform="translate(-860.609 -308.727)"/>
        <path id="Pfad_10-2" data-name="Pfad 10" class="cls-5" d="M1047.176,540.5l15,7.493-15.5-24.182Z" transform="translate(-875.958 -326.471)"/>
      </g>
      <g id="windmillDT" transform="translate(1140.232 -4.679)">
        <path id="Pfad_1" data-name="Pfad 1" class="cls-9" d="M.911,0H8.549L9.46,172.9A10.2,10.2,0,0,1,4.7,174.47,9.821,9.821,0,0,1,0,172.9Z" transform="translate(94.678 85.544)"/>
        <g id="rotor" transform="translate(0 0)">
          <path id="Pfad_2" data-name="Pfad 2" class="cls-9" d="M12.523,0V99.8H4.55L0,76.591Z" transform="translate(0 91.685) rotate(-90)"/>
          <path id="Pfad_3" data-name="Pfad 3" class="cls-9" d="M12.523,0V99.8H4.55L0,76.591Z" transform="matrix(0.819, 0.574, -0.574, 0.819, 146.16, 0)"/>
          <path id="Pfad_4-2" data-name="Pfad 4" class="cls-9" d="M12.523,0V99.8H4.55L0,76.591Z" transform="matrix(-0.755, 0.656, -0.656, -0.755, 167.366, 149.285)"/>
          <circle id="Ellipse_1" data-name="Ellipse 1" class="cls-9" cx="4.847" cy="4.847" r="4.847" transform="translate(94.906 77.955)"/>
        </g>
      </g>
      <path id="LED" class="cls-10" d="M2861.478,166.958l-.245,174.995,187.624,124.59" transform="translate(-1621.553 -86.642)"/>
      <g id="digital" transform="translate(1360.521 339.013)">
        <g id="tablet" class="cls-11" transform="matrix(0.839, -0.545, 0.545, 0.839, 0, 82.452)">
          <path class="cls-15" d="M 149.3879089355469 86.99774932861328 L 1.999996185302734 86.99774932861328 L 1.999996185302734 1.999995827674866 L 149.3879089355469 1.999995827674866 L 149.3879089355469 86.99774932861328 Z"/>
          <path class="cls-16" d="M 4 4.000007629394531 L 4 84.99773406982422 L 147.3879089355469 84.99773406982422 L 147.3879089355469 4.000007629394531 L 4 4.000007629394531 M 0 7.62939453125e-06 L 151.3879089355469 7.62939453125e-06 L 151.3879089355469 88.99773406982422 L 0 88.99773406982422 L 0 7.62939453125e-06 Z"/>
        </g>
        <g id="windmillDT-2" data-name="windmillDT" transform="translate(45.68 57.634) rotate(-30)">
          <path id="Pfad_1-2" data-name="Pfad 1" class="cls-9" d="M.258,0H2.424l.258,49.033a2.892,2.892,0,0,1-1.35.446A2.785,2.785,0,0,1,0,49.033Z" transform="translate(26.85 24.26)"/>
          <g id="rotor-2" data-name="rotor">
            <path id="Pfad_2-2" data-name="Pfad 2" class="cls-9" d="M3.551,0V28.3H1.291L0,21.721Z" transform="translate(0 26.002) rotate(-90)"/>
            <path id="Pfad_3-2" data-name="Pfad 3" class="cls-9" d="M3.551,0V28.3H1.291L0,21.721Z" transform="matrix(0.819, 0.574, -0.574, 0.819, 41.45, 0)"/>
            <path id="Pfad_4-3" data-name="Pfad 4" class="cls-9" d="M3.551,0V28.3H1.291L0,21.721Z" transform="matrix(-0.755, 0.656, -0.656, -0.755, 47.464, 42.337)"/>
            <circle id="Ellipse_1-2" data-name="Ellipse 1" class="cls-9" cx="1.374" cy="1.374" r="1.374" transform="translate(26.915 22.108)"/>
          </g>
        </g>
        <g id="text" transform="translate(99.09 22.274)">
          <path id="tablet-2" data-name="tablet" class="cls-9" d="M0,0H36.369V1.956H0Z" transform="matrix(0.839, -0.545, 0.545, 0.839, 0, 19.808)"/>
          <path id="tablet-3" data-name="tablet" class="cls-9" d="M0,0H36.369V1.956H0Z" transform="matrix(0.839, -0.545, 0.545, 0.839, 1.835, 22.56)"/>
          <path id="tablet-4" data-name="tablet" class="cls-9" d="M0,0H33.316V1.956H0Z" transform="matrix(0.839, -0.545, 0.545, 0.839, 3.67, 25.313)"/>
          <path id="tablet-5" data-name="tablet" class="cls-9" d="M0,0H12.6V1.956H0Z" transform="matrix(0.839, -0.545, 0.545, 0.839, 5.505, 28.065)"/>
        </g>
        <g id="text-2" data-name="text" transform="translate(119.275 54.386)">
          <path id="tablet-6" data-name="tablet" class="cls-9" d="M0,0H36.369V1.956H0Z" transform="matrix(0.839, -0.545, 0.545, 0.839, 0, 19.808)"/>
          <path id="tablet-7" data-name="tablet" class="cls-9" d="M0,0H34.242V1.956H0Z" transform="matrix(0.839, -0.545, 0.545, 0.839, 1.835, 22.56)"/>
          <path id="tablet-8" data-name="tablet" class="cls-9" d="M0,0H33.316V1.956H0Z" transform="matrix(0.839, -0.545, 0.545, 0.839, 3.67, 25.313)"/>
          <path id="tablet-9" data-name="tablet" class="cls-9" d="M0,0H34.376V1.956H0Z" transform="matrix(0.839, -0.545, 0.545, 0.839, 5.505, 28.065)"/>
          <path id="tablet-10" data-name="tablet" class="cls-9" d="M0,0H9.554V1.956H0Z" transform="matrix(0.839, -0.545, 0.545, 0.839, 7.34, 30.818)"/>
        </g>
        <g id="text-3" data-name="text" transform="translate(21.103 84.551)">
          <path id="tablet-11" data-name="tablet" class="cls-9" d="M0,0H14.676V1.956H0Z" transform="matrix(0.839, -0.545, 0.545, 0.839, 0, 7.993)"/>
          <path id="tablet-12" data-name="tablet" class="cls-9" d="M0,0H13.2V1.956H0Z" transform="matrix(0.839, -0.545, 0.545, 0.839, 1.835, 10.746)"/>
          <path id="tablet-13" data-name="tablet" class="cls-9" d="M0,0H16.255V1.956H0Z" transform="matrix(0.839, -0.545, 0.545, 0.839, 3.67, 13.498)"/>
          <path id="tablet-14" data-name="tablet" class="cls-9" d="M0,0H13.727V1.956H0Z" transform="matrix(0.839, -0.545, 0.545, 0.839, 5.505, 16.251)"/>
          <path id="tablet-15" data-name="tablet" class="cls-9" d="M0,0H9.554V1.956H0Z" transform="matrix(0.839, -0.545, 0.545, 0.839, 7.34, 19.003)"/>
        </g>
      </g>
    </g>
    <g id="Gruppe_2" data-name="Gruppe 2" transform="translate(-1221.293 46.226)">
      <g id="table-2" data-name="table" transform="translate(999.973 73.518)">
        <path id="Pfad_13-2" data-name="Pfad 13" class="cls-12" d="M1168.025,465.219,1168,1095.548,618,1451.326l-.028-628.957Z" transform="translate(221.103 84.515)"/>
        <path id="Pfad_14-2" data-name="Pfad 14" class="cls-13" d="M0,968.98l34.393-654.4L579.216,0,545.988,653.808Z" transform="translate(1128.77 1034.234) rotate(120)"/>
        <path id="Pfad_4-4" data-name="Pfad 4" class="cls-4" d="M0,777.488,641.182,641.182,777.488,0,136.306,136.306Z" transform="translate(839.319 1099.534) rotate(-135)"/>
      </g>
      <g id="e1-2" data-name="e1" transform="translate(1410.3 313.62)">
        <path id="Pfad_7-2" data-name="Pfad 7" class="cls-5" d="M984.237,714.244s90.885,94.714,213.29,45.392C1316.137,711.844,1547.69,540.7,1549.789,466.71c.058-1.965,0-6.207,0-6.207V433.762l-.524-5.639s-362.323-238.288-464.5-223.94c-97.56,13.7-389.21,262.835-389.21,262.835v28.891s.073,1.984,0,2.674c-2.574,24.425,32.555,51.579,53.891,65.865l14.854-22.64,56.1-91.213,245.391,154.729-79.246,79.108Z" transform="translate(-695.417 -171.284)"/>
        <path id="Pfad_6-4" data-name="Pfad 6" class="cls-6" d="M986.549,717.057s88.584,91.957,210.989,42.636,365.1-230.011,351.738-299.3S1190,189.463,1084.772,204.239,699.2,464.071,695.562,498.57s68.794,75.379,68.794,75.379l56.753-86.429L1042.124,631.2Z" transform="translate(-695.428 -203.468)"/>
        <path id="Pfad_8-2" data-name="Pfad 8" class="cls-5" d="M1072.116,553.065l-26.086,13.863,28-43.164Z" transform="translate(-782.85 -9.247)"/>
      </g>
      <g id="e2-2" data-name="e2" transform="translate(1503.453 349.934)">
        <path id="Pfad_9-2" data-name="Pfad 9" class="cls-5" d="M984.066,684s120.019,12.787,242.424-36.535c115.06-46.361,217.084-167.762,217.821-240.154.043-4.149,0-32.466,0-32.466S1225.9,249.757,1103.727,252.12s-296.345,164.82-324.7,201.094a177.346,177.346,0,0,0-18.2,29.341s-.08,29.469,0,34.951l3.243-5.591,29.549-47.321,235.664,141.08-43.784,50.5Z" transform="translate(-760.79 -219.938)"/>
        <path id="Pfad_6-5" data-name="Pfad 6" class="cls-7" d="M986.066,687.583s118.018,9.214,240.423-40.108,230.057-183.568,216.7-252.852-217.287-144.858-339.46-142.5-296.345,164.82-324.7,201.094-15.151,91.254-15.151,91.254l29.445-44.663L1014.333,643.5Z" transform="translate(-760.788 -252.074)"/>
        <path id="Pfad_10-3" data-name="Pfad 10" class="cls-5" d="M1071.765,552.882l-25.626,13.352,27.367-42.168Z" transform="translate(-848.343 -88.749)"/>
      </g>
      <g id="e3-2" data-name="e3" transform="translate(1535.937 395.962)">
        <path id="Pfad_15-2" data-name="Pfad 15" class="cls-5" d="M1078.721,647.875s53.716-22.837,67.471-74.328,26.109-64.553,73.546-104.775c45.16-38.292,161-42.363,160.49-102.907-.019-2.566,0-31.322,0-31.322s-114.436-37.732-212.572-6.107-129.995,91.512-165.081,121.16-141.962,56.485-141.962,56.485Z" transform="translate(-860.612 -272.306)"/>
        <path id="Pfad_6-6" data-name="Pfad 6" class="cls-8" d="M1081.658,654.132s50.776-24.8,64.531-76.291,26.109-64.553,73.546-104.775,172.868-42.687,159.507-111.971-113.454-59.988-211.59-28.363-129.995,91.512-165.081,121.16-141.962,56.485-141.962,56.485Z" transform="translate(-860.609 -308.727)"/>
        <path id="Pfad_10-4" data-name="Pfad 10" class="cls-5" d="M1072.924,553.035l-26.254,13.118,27.141-42.338Z" transform="translate(-853.072 -178.302)"/>
      </g>
      <g id="windmillDT-3" data-name="windmillDT" transform="translate(1793.534 -7.703)">
        <path id="Pfad_1-3" data-name="Pfad 1" class="cls-9" d="M1.6,0H15.067l1.6,304.722s-4.224,2.772-8.391,2.772S0,304.722,0,304.722Z" transform="translate(166.865 150.766)"/>
        <g id="rotor-3" data-name="rotor" transform="translate(0 0)">
          <path id="Pfad_2-3" data-name="Pfad 2" class="cls-9" d="M22.07,0V175.891H8.02L0,134.988Z" transform="translate(0 161.591) rotate(-90)"/>
          <path id="Pfad_3-3" data-name="Pfad 3" class="cls-9" d="M22.07,0V175.891H8.02L0,134.988Z" transform="matrix(0.819, 0.574, -0.574, 0.819, 257.599, 0)"/>
          <path id="Pfad_4-5" data-name="Pfad 4" class="cls-9" d="M22.07,0V175.891H8.02L0,134.988Z" transform="translate(294.973 263.106) rotate(139)"/>
          <circle id="Ellipse_1-3" data-name="Ellipse 1" class="cls-9" cx="8.542" cy="8.542" r="8.542" transform="translate(167.267 137.392)"/>
        </g>
      </g>
      <path id="LED-2" data-name="LED" class="cls-10" d="M3189.3,166.958l.428,306.384-328.5,218.134" transform="translate(-1220.309 -22.827)"/>
      <g id="digital-2" data-name="digital" transform="translate(1450.692 597.063)">
        <g id="tablet-16" data-name="tablet" class="cls-14" transform="matrix(-0.839, -0.545, 0.545, -0.839, 222.292, 275.039)">
          <path class="cls-15" d="M 263.0526428222656 153.8188629150391 L 2 153.8188629150391 L 2 2.00001049041748 L 263.0526428222656 2.00001049041748 L 263.0526428222656 153.8188629150391 Z"/>
          <path class="cls-16" d="M 261.0526428222656 151.8188629150391 L 261.0526428222656 4.000016212463379 L 4.000013828277588 4.000016212463379 L 4.000013828277588 151.8188629150391 L 261.0526428222656 151.8188629150391 M 265.0526428222656 155.8188629150391 L 1.371882535750046e-05 155.8188629150391 L 1.371882535750046e-05 1.600999166839756e-05 L 265.0526428222656 1.600999166839756e-05 L 265.0526428222656 155.8188629150391 Z"/>
        </g>
        <g id="windmillDT-4" data-name="windmillDT" transform="translate(148.695 208.32) rotate(-150)">
          <path id="Pfad_1-4" data-name="Pfad 1" class="cls-9" d="M4.251,86.747H.453L0,.782A5.071,5.071,0,0,1,2.367,0,4.883,4.883,0,0,1,4.7.782Z" transform="translate(31.437 0)"/>
          <g id="rotor-4" data-name="rotor" transform="translate(0 50.97)">
            <path id="Pfad_2-4" data-name="Pfad 2" class="cls-9" d="M6.226,0V49.621H2.263L0,38.081Z" transform="translate(83.215 32.723) rotate(90)"/>
            <path id="Pfad_3-4" data-name="Pfad 3" class="cls-9" d="M6.226,0V49.621H2.263L0,38.081Z" transform="matrix(-0.819, -0.574, 0.574, -0.819, 10.544, 78.31)"/>
            <path id="Pfad_4-6" data-name="Pfad 4" class="cls-9" d="M6.226,0V49.621H2.263L0,38.081Z" transform="translate(0 4.085) rotate(-41)"/>
            <circle id="Ellipse_1-4" data-name="Ellipse 1" class="cls-9" cx="2.41" cy="2.41" r="2.41" transform="translate(31.208 34.73)"/>
          </g>
        </g>
        <g id="Gruppe_3" data-name="Gruppe 3" transform="translate(37.744 -1369.279) rotate(66)">
          <g id="text-4" data-name="text" transform="translate(1436.224 411.953)">
            <path id="tablet-17" data-name="tablet" class="cls-9" d="M0,0H63.1V3.394H0Z" transform="matrix(0.839, -0.545, 0.545, 0.839, 0, 34.366)"/>
            <path id="tablet-18" data-name="tablet" class="cls-9" d="M0,0H63.1V3.394H0Z" transform="matrix(0.839, -0.545, 0.545, 0.839, 3.184, 39.142)"/>
            <path id="tablet-19" data-name="tablet" class="cls-9" d="M0,0H57.8V3.394H0Z" transform="matrix(0.839, -0.545, 0.545, 0.839, 6.367, 43.917)"/>
            <path id="tablet-20" data-name="tablet" class="cls-9" d="M0,0H21.854V3.394H0Z" transform="matrix(0.839, -0.545, 0.545, 0.839, 9.551, 48.693)"/>
          </g>
          <g id="text-5" data-name="text" transform="translate(1471.244 467.667)">
            <path id="tablet-21" data-name="tablet" class="cls-9" d="M0,0H63.1V3.394H0Z" transform="matrix(0.839, -0.545, 0.545, 0.839, 0, 34.366)"/>
            <path id="tablet-22" data-name="tablet" class="cls-9" d="M0,0H59.409V3.394H0Z" transform="matrix(0.839, -0.545, 0.545, 0.839, 3.184, 39.142)"/>
            <path id="tablet-23" data-name="tablet" class="cls-9" d="M0,0H57.8V3.394H0Z" transform="matrix(0.839, -0.545, 0.545, 0.839, 6.367, 43.917)"/>
            <path id="tablet-24" data-name="tablet" class="cls-9" d="M0,0H59.642V3.394H0Z" transform="matrix(0.839, -0.545, 0.545, 0.839, 9.551, 48.693)"/>
            <path id="tablet-25" data-name="tablet" class="cls-9" d="M0,0H16.575V3.394H0Z" transform="matrix(0.839, -0.545, 0.545, 0.839, 12.735, 53.468)"/>
          </g>
          <g id="text-6" data-name="text" transform="translate(1300.917 520.002)">
            <path id="tablet-26" data-name="tablet" class="cls-9" d="M0,0H25.462V3.394H0Z" transform="matrix(0.839, -0.545, 0.545, 0.839, 0, 13.868)"/>
            <path id="tablet-27" data-name="tablet" class="cls-9" d="M0,0H22.9V3.394H0Z" transform="matrix(0.839, -0.545, 0.545, 0.839, 3.184, 18.643)"/>
            <path id="tablet-28" data-name="tablet" class="cls-9" d="M0,0H28.2V3.394H0Z" transform="matrix(0.839, -0.545, 0.545, 0.839, 6.367, 23.419)"/>
            <path id="tablet-29" data-name="tablet" class="cls-9" d="M0,0H23.815V3.394H0Z" transform="matrix(0.839, -0.545, 0.545, 0.839, 9.551, 28.194)"/>
            <path id="tablet-30" data-name="tablet" class="cls-9" d="M0,0H16.575V3.394H0Z" transform="matrix(0.839, -0.545, 0.545, 0.839, 12.735, 32.97)"/>
          </g>
        </g>
      </g>
    </g>
  </g>
</svg>
