<?xml version="1.0" encoding="utf-8"?>
<!-- Generator: Adobe Illustrator 16.0.0, SVG Export Plug-In . SVG Version: 6.00 Build 0)  -->
<!DOCTYPE svg PUBLIC "-//W3C//DTD SVG 1.1//EN" "http://www.w3.org/Graphics/SVG/1.1/DTD/svg11.dtd">
<svg version="1.1" id="emoji" xmlns="http://www.w3.org/2000/svg" xmlns:xlink="http://www.w3.org/1999/xlink" x="0px" y="0px"
	 width="619px" height="619px" viewBox="101.444 277.774 619 619" enable-background="new 101.444 277.774 619 619"
	 xml:space="preserve">
<g id="_xD83D__xDC34__1_">
	<path fill="none" stroke="#000000" stroke-width="24" stroke-linecap="round" stroke-linejoin="round" stroke-miterlimit="10" d="
		M738.99,791.224"/>
	<path fill="none" stroke="#000000" stroke-width="24" stroke-linecap="round" stroke-linejoin="round" stroke-miterlimit="10" d="
		M668.834,601.798"/>
	<path fill="none" stroke="#000000" stroke-width="24" stroke-linecap="round" stroke-linejoin="round" stroke-miterlimit="10" d="
		M364.819,649.74c0,0,99.391,79.513,0,219.826"/>
	<path fill="none" stroke="#000000" stroke-width="24" stroke-linecap="round" stroke-linejoin="round" stroke-miterlimit="10" d="
		M396.39,521.116c5.847,98.222-108.744,113.421-140.313,120.438c-3.509,1.17-7.017,3.508-10.523,5.848l-24.555,25.725
		c-3.509,3.509-9.354,5.848-15.201,5.848H164.87c-14.032,0-26.895-9.354-31.571-22.217l-5.847-18.709
		c-3.509-9.354-2.339-18.708,3.508-26.895l102.897-170.717l54.956-54.957l-24.555-80.682c0,0,91.204-8.186,98.221,61.973
		c0,0,238.159-11.635,266.965,263.004c11.326,108,13.229,177.818,60,239.791"/>
	<path fill="none" stroke="#000000" stroke-width="24" stroke-linecap="round" stroke-linejoin="round" stroke-miterlimit="10" d="
		M581.138,557.365"/>
	<path fill="none" stroke="#000000" stroke-width="24" stroke-linecap="round" stroke-linejoin="round" stroke-miterlimit="10" d="
		M347.28,323.507"/>
	<path fill="none" stroke="#000000" stroke-width="24" stroke-linecap="round" stroke-linejoin="round" stroke-miterlimit="10" d="
		M640.771,848.519"/>
	<path fill="none" stroke="#000000" stroke-width="24" stroke-linecap="round" stroke-linejoin="round" stroke-miterlimit="10" d="
		M569.445,429.911"/>
	<circle cx="271.276" cy="497.732" r="23.386"/>
</g>
<path fill="none" stroke="#000000" stroke-width="23" stroke-linecap="round" stroke-linejoin="round" stroke-miterlimit="10" d="
	M370.366,366.741c0,0,365.077-20.967,319.077,402.033"/>
<path fill="none" stroke="#000000" stroke-width="23" stroke-linecap="round" stroke-linejoin="round" stroke-miterlimit="10" d="
	M364.819,869.566c0,0,167.091-55.791,266.626-8.791"/>
</svg>
