<?xml version="1.0" encoding="utf-8"?>
<!-- Generator: Adobe Illustrator 16.0.0, SVG Export Plug-In . SVG Version: 6.00 Build 0)  -->
<!DOCTYPE svg PUBLIC "-//W3C//DTD SVG 1.1//EN" "http://www.w3.org/Graphics/SVG/1.1/DTD/svg11.dtd">
<svg version="1.1" id="Layer_1" xmlns="http://www.w3.org/2000/svg" xmlns:xlink="http://www.w3.org/1999/xlink" x="0px" y="0px"
	 width="1000px" height="1000px" viewBox="0 0 1000 1000" enable-background="new 0 0 1000 1000" xml:space="preserve">
<g>
	<path fill="#B3B3B3" d="M145.836,717.113c46.8,28.801,115.199,52.801,187.199,52.801c106.8,0,169.201-56.4,169.201-138
		c0-75.6-43.202-118.802-152.4-160.802c-132-46.799-213.6-115.2-213.6-229.199c0-126,104.4-219.6,261.6-219.6
		c82.8,0,142.798,19.2,178.798,39.6l-28.799,85.2c-26.4-14.4-80.401-38.4-153.599-38.4c-110.4,0-152.4,66-152.4,121.2
		c0,75.6,49.199,112.8,160.799,155.999c136.8,52.801,206.4,118.799,206.4,237.601c0,124.799-92.4,232.799-283.199,232.799
		c-78,0-163.2-22.799-206.4-51.6L145.836,717.113z"/>
</g>
<g>
	<path fill="#B3B3B3" d="M647.201,280.001h-246v-88.8H1000v88.8H752.801V1000h-105.6V280.001z"/>
</g>
</svg>
