<?xml version="1.0" encoding="utf-8"?>
<!-- Generator: Adobe Illustrator 16.0.0, SVG Export Plug-In . SVG Version: 6.00 Build 0)  -->
<!DOCTYPE svg PUBLIC "-//W3C//DTD SVG 1.1//EN" "http://www.w3.org/Graphics/SVG/1.1/DTD/svg11.dtd">
<svg version="1.1" id="Layer_1" xmlns="http://www.w3.org/2000/svg" xmlns:xlink="http://www.w3.org/1999/xlink" x="0px" y="0px"
	 width="1000px" height="1000px" viewBox="0 0 1000 1000" enable-background="new 0 0 1000 1000" xml:space="preserve">
<g>
	<path d="M916.141,500.283c-41.881-31.77-60.827-36.306-232.353-86.234c-87.754-23.825-142.956-49.009-142.956-121.628
		c0-81.683,73.153-132.512,172.882-132.512c70.79,0,146.598,22.691,151.57,124.79h103.704
		c-1.992-34.031-3.985-89.619-43.872-139.546c-57.831-71.47-154.561-80.557-202.444-80.557
		c-135.621,0-283.262,75.686-283.262,242.469v359.538c0,18.465,0.008,39.279,0,64.273c-7.997,72.799-77.727,117.9-171.094,118.613
		c-70.795,0.533-146.766-21.584-152.529-123.656l-103.704,0.791c2.254,34.02,4.664,89.6,44.93,139.211
		c58.38,71.031,155.183,79.379,203.045,79.02c87.836-0.67,180.43-33.182,234.459-101.291l0.73,1.133
		c59.493,67.158,156.206,85.117,206.605,85.117c184.502,0,286.067-120.949,286.067-266.184
		C987.944,629.627,982.954,550.203,916.141,500.283z M713.671,831.863c-165.537,0-170.854-116.236-172.839-172.965h-0.85
		l-4.123-185.01c35.723,22.736,85.118,36.538,182.845,63.834c100.706,28.361,165.536,46.52,165.536,138.422
		C884.24,716.984,863.267,831.863,713.671,831.863z"/>
</g>
</svg>
