<?xml version="1.0" encoding="utf-8"?>
<!-- Generator: Adobe Illustrator 16.0.0, SVG Export Plug-In . SVG Version: 6.00 Build 0)  -->
<!DOCTYPE svg PUBLIC "-//W3C//DTD SVG 1.1//EN" "http://www.w3.org/Graphics/SVG/1.1/DTD/svg11.dtd">
<svg version="1.1" id="Layer_1" xmlns="http://www.w3.org/2000/svg" xmlns:xlink="http://www.w3.org/1999/xlink" x="0px" y="0px"
	 width="1158.426px" height="1118px" viewBox="0 0 1158.426 1118" enable-background="new 0 0 1158.426 1118" xml:space="preserve">
<g>
	<path fill-rule="evenodd" clip-rule="evenodd" fill="#181616" d="M583.125,25.686c-303.792,0-550.139,246.294-550.139,550.135
		c0,243.073,157.63,449.278,376.219,522.035c27.491,5.089,37.589-11.939,37.589-26.477c0-13.113-0.508-56.458-0.748-102.418
		c-153.048,33.273-185.343-64.909-185.343-64.909c-25.026-63.593-61.084-80.496-61.084-80.496
		c-49.919-34.146,3.764-33.452,3.764-33.452c55.238,3.879,84.331,56.707,84.331,56.707c49.064,84.091,128.698,59.785,160.094,45.729
		c4.938-35.551,19.19-59.838,34.929-73.574c-122.195-13.896-250.653-61.084-250.653-271.876c0-60.062,21.494-109.14,56.689-147.666
		c-5.712-13.86-24.546-69.812,5.329-145.593c0,0,46.199-14.777,151.322,56.4c43.887-12.193,90.949-18.306,137.701-18.519
		c46.747,0.213,93.846,6.325,137.813,18.519c105.015-71.178,151.135-56.4,151.135-56.4c29.946,75.781,11.121,131.732,5.409,145.593
		c35.267,38.526,56.618,87.604,56.618,147.666c0,211.308-128.698,257.819-251.204,271.448
		c19.732,17.064,37.312,50.551,37.312,101.866c0,73.61-0.64,132.862-0.64,150.976c0,14.644,9.91,31.797,37.792,26.405
		c218.466-72.828,375.899-278.979,375.899-521.964C1133.26,271.98,886.949,25.686,583.125,25.686z"/>
	<path fill="#181616" d="M241.354,815.567c-1.21,2.74-5.517,3.559-9.431,1.672c-3.994-1.797-6.228-5.516-4.938-8.256
		c1.183-2.812,5.489-3.594,9.475-1.726C240.456,809.054,242.733,812.827,241.354,815.567L241.354,815.567z M234.583,810.549"/>
	<path fill="#181616" d="M263.64,840.423c-2.625,2.42-7.758,1.299-11.237-2.544c-3.603-3.844-4.27-8.968-1.609-11.441
		c2.704-2.42,7.678-1.281,11.28,2.545C265.677,832.862,266.379,837.951,263.64,840.423L263.64,840.423z M258.391,834.783"/>
	<path fill="#181616" d="M285.33,872.095c-3.372,2.349-8.888,0.16-12.295-4.732c-3.372-4.894-3.372-10.765,0.08-13.114
		c3.407-2.349,8.843-0.23,12.295,4.608C288.773,863.839,288.773,869.711,285.33,872.095L285.33,872.095z M285.33,872.095"/>
	<path fill="#181616" d="M315.044,902.717c-3.016,3.328-9.439,2.42-14.137-2.117c-4.813-4.431-6.147-10.729-3.132-14.057
		c3.061-3.327,9.52-2.384,14.253,2.117C316.806,893.091,318.256,899.426,315.044,902.717L315.044,902.717z M315.044,902.717"/>
	<path fill="#181616" d="M356.04,920.493c-1.334,4.307-7.518,6.264-13.745,4.431c-6.228-1.886-10.293-6.939-9.039-11.28
		c1.29-4.342,7.509-6.388,13.781-4.431C353.255,911.098,357.33,916.098,356.04,920.493L356.04,920.493z M356.04,920.493"/>
	<path fill="#181616" d="M401.066,923.785c0.15,4.537-5.134,8.292-11.673,8.381c-6.574,0.143-11.903-3.523-11.975-7.989
		c0-4.591,5.169-8.31,11.743-8.416C395.701,915.635,401.066,919.283,401.066,923.785L401.066,923.785z M401.066,923.785"/>
	<path fill="#181616" d="M442.959,916.65c0.783,4.431-3.763,8.968-10.258,10.178c-6.388,1.174-12.295-1.566-13.113-5.943
		c-0.792-4.537,3.834-9.092,10.213-10.267C436.305,909.497,442.132,912.148,442.959,916.65L442.959,916.65z M442.959,916.65"/>
</g>
</svg>
