<?xml version="1.0" encoding="utf-8"?>
<!-- Generator: Adobe Illustrator 16.0.0, SVG Export Plug-In . SVG Version: 6.00 Build 0)  -->
<!DOCTYPE svg PUBLIC "-//W3C//DTD SVG 1.1//EN" "http://www.w3.org/Graphics/SVG/1.1/DTD/svg11.dtd">
<svg version="1.1"
	 id="Layer_1" xmlns:inkscape="http://www.inkscape.org/namespaces/inkscape" xmlns:dc="http://purl.org/dc/elements/1.1/" xmlns:rdf="http://www.w3.org/1999/02/22-rdf-syntax-ns#" xmlns:cc="http://creativecommons.org/ns#" xmlns:sodipodi="http://sodipodi.sourceforge.net/DTD/sodipodi-0.dtd" xmlns:svg="http://www.w3.org/2000/svg"
	 xmlns="http://www.w3.org/2000/svg" xmlns:xlink="http://www.w3.org/1999/xlink" x="0px" y="0px" width="6978.297px"
	 height="3925.292px" viewBox="-1594.797 -999.75 6978.297 3925.292" enable-background="new -1594.797 -999.75 6978.297 3925.292"
	 xml:space="preserve">
<rect x="-1594.797" y="-999.75" width="6978.297" height="3925.292"/>
<g transform="translate(0,-952.36216)">
	<path fill="#636363" d="M3038.883,2071.907l0.633,64.614l-60.457,34.402l-132.973,148.095l63.539,71.326l188.844-80.236v45.045
		l-181.193,199.396c0.176,63.469,0.449,21.034,0.449,84.834l319.105,1l65.527-379.729l-112.885-156.772l-36.605,20.151h-23.711
		L3038.883,2071.907z M3068.461,2121.678l47.895,31.111h47.832l19.168-10.952l90.227,126.918l-61.594,343.591l-265.912-0.328v-46.06
		l181.193-199.375v-99.225l-209.633,88.672l-32.4-36.359l111.754-125.819l72.73-40.814L3068.461,2121.678z"/>
</g>
<g transform="translate(0,-952.36216)">
	<path fill="#636363" d="M4542.477,2222.872l-43.537,414.721h15.996h215.032l-42.592-414.721H4542.477L4542.477,2222.872z
		 M4568.418,2251.672h92.948l36.674,357.12h-167.106L4568.418,2251.672z"/>
	<path fill="#636363" d="M4450.293,2712.473v120.96h14.4h313.92v-120.96H4450.293z M4479.093,2741.272h270.722v63.359h-270.722
		V2741.272z"/>
	<path fill="#636363" d="M4438.534,2856.473v28.8h347.84v-28.8H4438.534z"/>
	<path fill="#636363" d="M4498.624,1923.353l45.067,224.641h11.813h129.713l45.067-224.641H4498.624z M4533.77,1952.152h161.369
		l-33.524,167.04h-94.32L4533.77,1952.152z"/>
	<path fill="#636363" d="M4535.051,1871.513v28.801h158.805v-28.801H4535.051z"/>
	<path fill="#636363" d="M4600.055,1733.272v138.24h28.799v-138.24H4600.055z"/>
	<path fill="#636363" d="M4545.333,1787.992v28.8h138.24v-28.8H4545.333z"/>
	<path fill="#636363" d="M4487.734,2660.632v28.801h253.438v-28.801H4487.734z"/>
	<path fill="#636363" d="M4525.173,2171.032v28.8h178.562v-28.8H4525.173z"/>
</g>
<g transform="translate(0,-952.36216)">
	<path fill="#636363" d="M3623.715,1944.452l-132.166,198.271l54.631,95.625h154.957l50.222-87.885l-24.998-14.288l-41.939,73.373
		h-121.524l-37.508-65.655l98.213-147.33l43.649,66.127l-32.58,49.681l24.075,15.796l42.997-65.521L3623.715,1944.452z"/>
	<path fill="#636363" d="M3458.294,2661.47v28.801h312.3v-28.801H3458.294z"/>
	<path fill="#636363" d="M3417.098,2713.31v120.861h14.399h380.386V2713.31H3417.098L3417.098,2713.31z M3445.896,2742.11h337.186
		v63.26h-337.186V2742.11z"/>
	<path fill="#636363" d="M3407.106,2857.21v28.802h414.766v-28.802H3407.106z"/>
	<path fill="#636363" d="M3534.344,2312.923l-54.72,325.508h17.011h262.035l-53.527-325.508H3534.344z M3558.712,2341.724h121.974
		l44.076,267.906h-211.117L3558.712,2341.724z"/>
	<path fill="#636363" d="M3511.664,2261.082v28.802h219.578v-28.802H3511.664z"/>
</g>
<g transform="translate(0,-952.36216)">
	<path fill="#636363" d="M2422.624,2369.331l-16.357,326.5c121.111,0,151.222,0,272.33,0l-16.356-326.5H2422.624z
		 M2450.231,2398.132h184.4l13.928,268.897h-212.256L2450.231,2398.132z"/>
	<path fill="#636363" d="M2346.013,2715.71v122.039c161.279,0,231.56,0,392.84,0V2715.71H2346.013z M2374.812,2744.51h335.24v64.438
		h-335.24V2744.51z"/>
	<path fill="#636363" d="M2335.731,2860.79v28.801h414.4v-28.801H2335.731z"/>
	<path fill="#636363" d="M2376.568,2177.433v170.02c140.909,0,190.819,0,331.729,0v-170.02h-88.724v70.64h-31.793v-70.64h-89.701
		v70.64h-31.791v-70.64H2376.568z M2405.365,2206.231h32.123v70.64h89.394v-70.64h32.1v70.64h89.394v-70.64h31.123v112.42h-274.133
		V2206.231z"/>
</g>
<g transform="translate(0,-952.36216)">
	<path fill="#636363" d="M3986.488,2660.11v28.799h296.641v-28.799H3986.488z"/>
	<path fill="#636363" d="M3946.595,2711.95v121.48h14.399h362.025v-121.48H3946.595L3946.595,2711.95z M3975.396,2740.751h318.826
		v63.879h-318.826V2740.751z"/>
	<path fill="#636363" d="M3937.822,2856.47v28.803h393.975v-28.803H3937.822z"/>
	<path fill="#636363" d="M4052.863,2159.981l-50.423,477.088h15.998h248.738l-49.32-477.09L4052.863,2159.981L4052.863,2159.981z
		 M4078.761,2188.78h113.131l43.356,419.492h-200.813L4078.761,2188.78z"/>
	<path fill="#636363" d="M3994.272,1903.391l11.004,32.964l49.636,148.746h159.795l60.637-181.71l-71.031,35.481l-69.076-34.178
		l-69.885,34.201L3994.272,1903.391z M4135.169,1936.802l69.188,34.225l21.666-10.822l-32.063,96.098h-118.305l-32.063-96.074
		l21.623,10.799L4135.169,1936.802z"/>
	<path fill="#636363" d="M4132.378,1847.569c-14.748,0.59-29.294,6.498-40.433,17.571c-22.277,22.149-23.879,58.009-3.668,82.058
		l22.051-18.539c-10.752-12.793-9.918-31.326,1.935-43.111c11.854-11.783,30.438-12.53,43.201-1.731
		c12.76,10.8,15.065,29.208,5.377,42.817l23.467,16.695c18.219-25.59,13.744-61.201-10.236-81.496
		C4162.08,1851.686,4147.125,1846.978,4132.378,1847.569z"/>
	<path fill="#636363" d="M4030.521,2108.14v28.801h208.576v-28.801H4030.521z"/>
</g>
<path fill="#636363" d="M2872.506,1906.284v28.801h416.4v-28.801H2872.506z"/>
<path fill="#636363" d="M2882.82,1761.473v122.04c161.279,0,231.561,0,392.84,0v-122.04H2882.82z M2911.619,1790.273h335.24v64.438
	h-335.24V1790.273L2911.619,1790.273z"/>
<g transform="translate(0,-952.36216)">
	<path fill="#636363" d="M2023.988,2446.453l-58.957,270.338h0.336l-5,28.859h229.785l-6-32.859l0.451,4l-58.193-269.937
		 M2047.324,2473.523h54.974l53.076,242.906h-161.117L2047.324,2473.523z"/>
</g>
<path fill="#636363" d="M1911.588,1815.703v122.04c161.279,0,168.559,0,329.84,0v-122.04H1911.588z M1940.387,1844.503h272.24
	v64.439h-272.24V1844.503z"/>
<path fill="#636363" d="M2120.089,1472.76l32-150.64h-153.66l31,150.64 M2031.574,1348.92h87.369l-20.769,96.04h-48
	L2031.574,1348.92z"/>
<path fill="#636363" d="M2917.793,1709.134v28.801h318.855v-28.801H2917.793z"/>
</svg>
