<?xml version="1.0" encoding="UTF-8"?>
<svg width="200px" height="200px" viewBox="0 0 200 200" version="1.1" xmlns="http://www.w3.org/2000/svg" xmlns:xlink="http://www.w3.org/1999/xlink">
    <title>Artboard</title>
    <g id="Artboard" stroke="none" stroke-width="1" fill="none" fill-rule="evenodd">
        <path d="M35.74,144.68 C52.3,144.68 60.58,134.96 60.58,121.28 L60.58,57.2 L49.78,57.2 L49.78,120.56 C49.78,131.36 44.74,135.8 36.1,135.8 C26.02,135.8 21.22,131.24 21.22,116 L21.22,115.16 L10.54,115.16 L10.54,116.36 C10.54,136.28 20.26,144.68 35.74,144.68 Z M91.42,144.2 C101.98,144.2 108.34,139.16 112.06,134.36 L112.18,134.36 C113.14,140.72 116.5,143.6 122.86,143.6 C125.38,143.6 126.94,143.12 128.14,142.64 L128.14,135.56 L127.78,135.56 C122.38,136.76 121.18,134 121.18,128.96 L121.18,99.44 C121.18,84.68 111.46,79.76 98.26,79.76 C81.82,79.76 73.9,88.76 73.54,100.76 L82.9,100.76 C83.26,91.4 88.3,87.08 98.38,87.08 C107.26,87.08 112.3,91.04 112.3,98 C112.3,104.72 106.18,105.56 97.42,106.88 C81.94,109.28 70.42,112.28 70.42,126.92 C70.42,138.68 79.66,144.2 91.42,144.2 Z M93.58,136.76 C87.22,136.76 80.74,134.96 80.74,126.68 C80.74,117.56 88.54,115.88 98.26,114.08 C103.54,113.12 109.18,111.56 112.42,109.52 L112.42,120.08 C112.42,127.28 106.54,136.76 93.58,136.76 Z M145.06,143 L145.06,104.84 C145.06,94.64 152.26,87.68 162.1,87.68 C170.86,87.68 176.14,92.24 176.14,100.28 L176.14,143 L185.86,143 L185.86,99.44 C185.86,86.6 177.94,79.52 164.98,79.52 C155.98,79.52 149.74,83.24 145.3,89.12 L145.06,89.12 L145.06,80.96 L135.34,80.96 L135.34,143 L145.06,143 Z" id="Jan" fill="#000000" fill-rule="nonzero"></path>
    </g>
</svg>