<svg xmlns="http://www.w3.org/2000/svg" xmlns:xlink="http://www.w3.org/1999/xlink" viewBox="0 0 1920 1080">
  <defs>
    <style>
      .cls-1 {
        clip-path: url(#clip-Notizen);
      }

      .cls-2 {
        fill: url(#linear-gradient-2);
      }

      .cls-14, .cls-3, .cls-6 {
        fill: #707070;
      }

      .cls-11, .cls-14, .cls-3, .cls-6 {
        font-size: 20px;
      }

      .cls-11, .cls-3, .cls-6 {
        font-family: Lato-Regular, Lato;
      }

      .cls-14, .cls-4 {
        font-family: Lato-Bold, Lato;
        font-weight: 700;
      }

      .cls-17, .cls-5, .cls-8, .cls-9 {
        fill: none;
      }

      .cls-5 {
        stroke: #0d55ff;
        opacity: 0;
      }

      .cls-6 {
        opacity: 0.25;
      }

      .cls-7 {
        fill: url(#linear-gradient-3);
      }

      .cls-8, .cls-9 {
        stroke: #d2d2d2;
        stroke-width: 0.7px;
      }

      .cls-9 {
        stroke-dasharray: 3;
      }

      .cls-10 {
        fill: #fefefe;
      }

      .cls-11 {
        fill: #484848;
      }

      .cls-12 {
        fill: #fff;
        opacity: 0.2;
      }

      .cls-13 {
        fill: #e8e8e8;
      }

      .cls-15 {
        font-family: Lato-BoldItalic, Lato;
      }

      .cls-15, .cls-16 {
        font-style: italic;
      }

      .cls-16 {
        font-family: Lato-Italic, Lato;
        font-weight: 400;
      }

      .cls-17 {
        stroke: #707070;
        stroke-linecap: round;
        stroke-width: 2.3px;
      }

      .cls-18 {
        fill: url(#linear-gradient);
      }
    </style>
    <linearGradient id="linear-gradient" x1="0.5" x2="0.5" y2="1" gradientUnits="objectBoundingBox">
      <stop offset="0" stop-color="#dedede"/>
      <stop offset="1" stop-color="#d3d3d3"/>
    </linearGradient>
    <linearGradient id="linear-gradient-2" x1="0.5" x2="0.5" y2="1" gradientUnits="objectBoundingBox">
      <stop offset="0" stop-color="#fff"/>
      <stop offset="1" stop-color="#f8f8f8"/>
    </linearGradient>
    <linearGradient id="linear-gradient-3" x1="0.5" x2="0.5" y2="1" gradientUnits="objectBoundingBox">
      <stop offset="0" stop-color="#f1f1f1"/>
      <stop offset="1" stop-color="#dcdcdc"/>
    </linearGradient>
    <clipPath id="clip-Notizen">
      <rect width="1920" height="1080"/>
    </clipPath>
  </defs>
  <g id="Notizen" class="cls-1">
    <rect class="cls-18" width="1920" height="1080"/>
    <g id="Dokument" transform="translate(-11)">
      <rect id="background" class="cls-2" width="747" height="1080" transform="translate(1184)"/>
      <text id="Knauf_Fertigungstechnik_GmbH_Knaufstraße_1_12345_Großstadt_Herrn_Otto_Wetzl_Liebkind_Straße_41_12343_Kleinstadt_Abmahnung_Sehr_geehrter_Herr_Wetzl_Ihr_Verhalten_veranlasst_uns_Sie_auf_die_ordnungsgemäße_Erfüllung_Ihrer_arbeitsvertraglichen_Verpflic" data-name="Knauf Fertigungstechnik GmbH
Knaufstraße 1
12345 Großstadt

Herrn Otto Wetzl
Liebkind Straße 41
12343 Kleinstadt



Abmahnung

Sehr geehrter Herr Wetzl,

Ihr Verhalten veranlasst uns, Sie auf die ordnungsgemäße Erfüllung Ihrer arbeitsvertraglichen Verpflic" class="cls-3" transform="translate(1244 97)"><tspan x="0" y="20">Knauf Fertigungstechnik GmbH</tspan><tspan x="0" y="44">Knaufstraße 1</tspan><tspan x="0" y="68">12345 Großstadt</tspan><tspan x="0" y="92"></tspan><tspan x="0" y="116">Herrn Otto Wetzl</tspan><tspan x="0" y="140">Liebkind Straße 41</tspan><tspan x="0" y="164">12343 Kleinstadt</tspan><tspan x="0" y="188"></tspan><tspan x="0" y="212"></tspan><tspan x="0" y="236"></tspan><tspan class="cls-4"><tspan x="0" y="260">Abmahnung</tspan></tspan><tspan x="0" y="284"></tspan><tspan x="0" y="308">Sehr geehrter Herr Wetzl,</tspan><tspan x="0" y="332"></tspan><tspan x="0" y="356">Ihr Verhalten veranlasst uns, Sie auf die ordnungsgemäße Erfüllung </tspan><tspan x="0" y="380">Ihrer arbeitsvertraglichen Verpflichtungen hinzuweisen.</tspan><tspan x="0" y="404" xml:space="preserve"> Wir müssen Sie leider wegen des folgenden Vorfalls abmahnen:</tspan><tspan x="0" y="428">Ihr wiederholt auffälliges Benehmen am 11.07.18, sowie Ihr </tspan><tspan x="0" y="452">Nichterscheinen in der darauffolgenden Woche ohne Angabe von </tspan><tspan x="0" y="476">Gründen.</tspan><tspan x="0" y="500"></tspan><tspan x="0" y="524">Dieses Verhalten stellt eine Verletzung Ihrer arbeitsvertraglichen </tspan><tspan x="0" y="548">Pflichten dar. Wir fordern Sie daher hiermit auf, sich zukünftig </tspan><tspan x="0" y="572">vertragsgemäß zu verhalten und weisen Sie daraufhin, dass wir ein </tspan><tspan x="0" y="596">derartiges Verhalten in Zukunft nicht mehr dulden werden.</tspan><tspan x="0" y="620"></tspan><tspan x="0" y="644">Sollte sich eine derartige oder gleichartige Pflichtverletzung </tspan><tspan x="0" y="668">wiederholen, müssen Sie mit weiteren arbeitsrechtlichen </tspan><tspan x="0" y="692">Konsequenzen rechnen, bis hin zu einer Kündigung des </tspan><tspan x="0" y="716">Arbeitsverhältnisses.</tspan><tspan x="0" y="740"></tspan><tspan x="0" y="764">Mit freundlichen Grüßen</tspan><tspan x="0" y="788"></tspan><tspan x="0" y="812"></tspan><tspan x="0" y="836"></tspan><tspan x="0" y="860">Frau Maria Knauf</tspan><tspan x="0" y="884">Geschäftsführerin</tspan></text>
      <path id="Pfad_4" data-name="Pfad 4" class="cls-5" d="M1244,2063.1c18.076-29.833,9-40.648,9-40.648l14.047,22.375s-13.3-24.861,0-22.375,9.945,40.648,9.945,40.648,13.3-23.245,15.787-13.3,5.718,6.588,5.718,6.588-32.444-14.792,0-11.56,56.559,29.957,37.416,18.273-14.917-16.533-5.842-18.273,38.162-7.458,37.292,0,16.533,11.56,16.533,11.56h19.889" transform="translate(0 -1136)"/>
      <text id="Abmahnung_Poststempel_12.07.18_eingereicht_von_Klägerseite" data-name="Abmahnung | Poststempel 12.07.18 | eingereicht von Klägerseite" class="cls-6" transform="translate(1244 13)"><tspan x="0" y="20">Abmahnung | Poststempel 12.07.18 | eingereicht von Klägerseite</tspan></text>
    </g>
    <g id="Notizen-2" data-name="Notizen">
      <rect id="background-2" data-name="background" class="cls-7" width="747" height="1080" transform="translate(426)"/>
      <g id="Links" transform="translate(498.5 121)">
        <g id="Personen" transform="translate(37)">
          <line id="Linie_7" data-name="Linie 7" class="cls-8" x2="94"/>
          <line id="Linie_8" data-name="Linie 8" class="cls-8" x2="109" transform="translate(270 72)"/>
        </g>
        <g id="Unterlagen">
          <line id="Linie_7-2" data-name="Linie 7" class="cls-9" x2="93" transform="translate(168)"/>
          <line id="Linie_8-2" data-name="Linie 8" class="cls-9" x2="82" transform="translate(160 72)"/>
          <line id="Linie_9" data-name="Linie 9" class="cls-9" x2="100" transform="translate(0 24)"/>
          <line id="Linie_10" data-name="Linie 10" class="cls-9" x2="179" transform="translate(339 120)"/>
        </g>
      </g>
      <rect id="Rechteck_8" data-name="Rechteck 8" class="cls-10" width="693" height="75" transform="translate(480 86)"/>
      <text id="Hat_Frau_Schön_die_Abmahnung_auch_sicher_nicht_ununterschrieben_abgesendet_Wann_erfolgte_die_Mahnung_an_den_Angeklagten_Wie_genau_war_der_zeitliche_Ablauf_der_Auseinandersetzung_Stimmt_ihr_persönlicher_Eindruck_mit_den_Eindrücken_von_Frau_Schön_dahin" data-name="Hat Frau Schön die Abmahnung auch sicher nicht ununterschrieben abgesendet?

Wann erfolgte die Mahnung an den Angeklagten?

Wie genau war der zeitliche Ablauf der Auseinandersetzung?

Stimmt ihr persönlicher Eindruck mit den Eindrücken von Frau Schön dahin" class="cls-11" transform="translate(497 99)"><tspan x="0" y="20">Hat Frau Schön die Abmahnung auch sicher nicht ununterschrieben </tspan><tspan x="0" y="44">abgesendet?</tspan><tspan x="0" y="68"></tspan><tspan x="0" y="92">Wann erfolgte die Mahnung an den Angeklagten?</tspan><tspan x="0" y="116"></tspan><tspan x="0" y="140">Wie genau war der zeitliche Ablauf der Auseinandersetzung?</tspan><tspan x="0" y="164"></tspan><tspan x="0" y="188">Stimmt ihr persönlicher Eindruck mit den Eindrücken von Frau Schön </tspan><tspan x="0" y="212">dahingehend überein, dass der Angeklagte sein Verhalten nicht ins </tspan><tspan x="0" y="236">Positive zu wenden versucht hat?sein Verhalten nicht ins Positive zu </tspan><tspan x="0" y="260">wenden versucht hat?	</tspan><tspan x="0" y="284"></tspan></text>
      <text id="gespeichert_zul._bearbeitet_von_Richterin_Slomka_gestern_16:35_Uhr" data-name="gespeichert | zul. bearbeitet von Richterin Slomka gestern 16:35 Uhr" class="cls-6" transform="translate(497 13)"><tspan x="0" y="20">gespeichert | zul. bearbeitet von Richterin Slomka gestern 16:35 Uhr</tspan></text>
    </g>
    <g id="Seitenleiste">
      <g id="background-3" data-name="background">
        <rect id="Rechteck_7" data-name="Rechteck 7" class="cls-12" width="399" height="354" transform="translate(27 159)"/>
        <rect id="Rechteck_5" data-name="Rechteck 5" class="cls-13" width="392" height="96" transform="translate(45 400)"/>
      </g>
      <g id="Links-2" data-name="Links">
        <line id="Linie_1" data-name="Linie 1" class="cls-8" x2="128" transform="translate(168.5 265.5)"/>
        <line id="Linie_2" data-name="Linie 2" class="cls-8" x2="146" transform="translate(144.5 289.5)"/>
        <line id="Linie_3" data-name="Linie 3" class="cls-8" x2="142" transform="translate(146.5 361.5)"/>
        <line id="Linie_4" data-name="Linie 4" class="cls-8" x2="175" transform="translate(129.5 385.5)"/>
        <line id="Linie_5" data-name="Linie 5" class="cls-8" x2="170" transform="translate(62.5 456.5)"/>
        <line id="Linie_6" data-name="Linie 6" class="cls-8" x2="208" transform="translate(62.5 480.5)"/>
      </g>
      <text id="Notizen_zu_AG_Schwäbisch_Gmünd_3_34_18" data-name="Notizen zu AG Schwäbisch Gmünd 3 34/18" class="cls-14" transform="translate(44 13)"><tspan x="0" y="20">Notizen zu </tspan><tspan class="cls-15" y="20">AG Schwäbisch Gmünd 3 34/18</tspan></text>
      <g id="Übersicht" transform="translate(-6 -5)">
        <text id="Allgemeines_Fragen_Wichtiges_Gesetzesänderungen_Gerichtsurteile_Privates_" data-name="Allgemeines


Fragen














Wichtiges


Gesetzesänderungen







Gerichtsurteile


Privates

" class="cls-14" transform="translate(50 104)"><tspan x="0" y="20">Allgemeines</tspan><tspan x="0" y="44"></tspan><tspan x="0" y="68"></tspan><tspan x="0" y="92">Fragen</tspan><tspan x="0" y="116"></tspan><tspan x="0" y="140"></tspan><tspan x="0" y="164"></tspan><tspan x="0" y="188"></tspan><tspan x="0" y="212"></tspan><tspan x="0" y="236"></tspan><tspan x="0" y="260"></tspan><tspan x="0" y="284"></tspan><tspan x="0" y="308"></tspan><tspan x="0" y="332"></tspan><tspan x="0" y="356"></tspan><tspan x="0" y="380"></tspan><tspan x="0" y="404"></tspan><tspan x="0" y="428"></tspan><tspan x="0" y="452">Wichtiges</tspan><tspan x="0" y="476"></tspan><tspan x="0" y="500"></tspan><tspan x="0" y="524">Gesetzesänderungen</tspan><tspan x="0" y="548"></tspan><tspan x="0" y="572"></tspan><tspan x="0" y="596"></tspan><tspan x="0" y="620"></tspan><tspan x="0" y="644"></tspan><tspan x="0" y="668"></tspan><tspan x="0" y="692"></tspan><tspan x="0" y="716">Gerichtsurteile</tspan><tspan x="0" y="740"></tspan><tspan x="0" y="764"></tspan><tspan x="0" y="788">Privates</tspan><tspan x="0" y="812"></tspan><tspan x="0" y="836"></tspan></text>
        <text id="Anklage_Angeklagter:_Herr_Otto_Wetzl_Anwältin:_Frau_Simone_Bolte_Klage_Klagende:_Frau_Maria_Knauf_Anwalt:_Herr_Dr._Dietmar_Burg_Zeugen_Herr_Simon_Zwengler_Herr_Prof._Günther_Grimm_1600_d_Gesetz_zur_Regelung_des_Rechts_auf_Kenntnis_der_Abstammung_" data-name="Anklage
Angeklagter: Herr Otto Wetzl
Anwältin: Frau Simone Bolte

Klage
Klagende: Frau Maria Knauf
Anwalt: Herr Dr. Dietmar Burg

Zeugen
Herr Simon Zwengler
Herr Prof. Günther Grimm







§1600 d
Gesetz zur Regelung des Rechts auf Kenntnis der Abstammung " class="cls-14" transform="translate(68 224)"><tspan x="0" y="20">Anklage</tspan><tspan class="cls-16"><tspan x="0" y="44">Angeklagter: Herr Otto Wetzl</tspan><tspan x="0" y="68">Anwältin: Frau Simone Bolte</tspan><tspan x="0" y="92"></tspan></tspan><tspan x="0" y="116">Klage</tspan><tspan class="cls-16"><tspan x="0" y="140">Klagende: Frau Maria Knauf</tspan><tspan x="0" y="164">Anwalt: Herr Dr. Dietmar Burg</tspan><tspan x="0" y="188"></tspan></tspan><tspan x="0" y="212">Zeugen</tspan><tspan class="cls-16"><tspan x="0" y="236">Herr Simon Zwengler</tspan><tspan x="0" y="260">Herr Prof. Günther Grimm</tspan><tspan x="0" y="284"></tspan><tspan x="0" y="308"></tspan><tspan x="0" y="332"></tspan><tspan x="0" y="356"></tspan><tspan x="0" y="380"></tspan><tspan x="0" y="404"></tspan><tspan x="0" y="428"></tspan></tspan><tspan x="0" y="452">§1600 d</tspan><tspan class="cls-16"><tspan x="0" y="476">Gesetz zur Regelung des Rechts auf </tspan><tspan x="0" y="500">Kenntnis der Abstammung bei </tspan><tspan x="0" y="524">heterologer Verwendung von Samen</tspan></tspan></text>
      </g>
      <path id="back" class="cls-17" d="M46.966,1267.271l-6.766-6.766,6.766-6.766" transform="translate(-21 -1234.719)"/>
      <g id="Plus" transform="translate(2 120)">
        <path id="Pfad_2" data-name="Pfad 2" class="cls-17" d="M25.966,1177.373v-13.532" transform="translate(25 -338.821)"/>
        <path id="Pfad_3" data-name="Pfad 3" class="cls-17" d="M25.966,1177.373v-13.532" transform="translate(1221.573 805.82) rotate(90)"/>
      </g>
    </g>
  </g>
</svg>
