<?xml version="1.0" encoding="utf-8"?>
<!-- Generator: Adobe Illustrator 23.0.0, SVG Export Plug-In . SVG Version: 6.00 Build 0)  -->
<svg version="1.1" id="Ebene_1" xmlns="http://www.w3.org/2000/svg" xmlns:xlink="http://www.w3.org/1999/xlink" x="0px" y="0px"
	 viewBox="0 0 2160 2160" style="enable-background:new 0 0 2160 2160;" xml:space="preserve">
<style type="text/css">
	.st0{clip-path:url(#SVGID_2_);}
	.st1{fill:#6C6C6C;}
	.st2{fill:none;stroke:#6C6C6C;stroke-width:5;}
	.st3{opacity:0.8;}
	.st4{fill:#FFFFFF;}
	.st5{fill:#7B7878;}
	.st6{font-family:'Roboto-Regular';}
	.st7{font-size:13.1944px;}
	.st8{font-size:21.1111px;}
</style>
<g>
	<defs>
		<rect id="SVGID_1_" x="4.7" width="3840" height="2160"/>
	</defs>
	<clipPath id="SVGID_2_">
		<use xlink:href="#SVGID_1_"  style="overflow:visible;"/>
	</clipPath>
	<g id="idea2-v1_-_1_2" class="st0">
		<rect x="4.7" width="2155.3" height="2160"/>
		<g id="Gruppe_1">
			<rect id="ground" x="4.7" y="2055" class="st1" width="2156.1" height="105"/>
			<g id="windmill" transform="translate(6 -105)">
				<path id="Pfad_1" class="st1" d="M903.7,894.6h55.9l6.7,1266.4H897L903.7,894.6z"/>
				<g id="rotor">
					<path id="Pfad_2" class="st1" d="M203.5,847.8h731v58.4l-170,33.3L203.5,847.8z"/>
					<path id="Pfad_3" class="st1" d="M1349.2,320.7L929.6,919.4l-47.8-33.5L952,727.6L1349.2,320.7z"/>
					<path id="Pfad_4" class="st1" d="M1360.1,1421.6L880.6,869.7l44.1-38.3l136.7,106.5L1360.1,1421.6z"/>
					<circle id="Ellipse_1" class="st1" cx="934.2" cy="874.5" r="35.5"/>
				</g>
			</g>
			<g id="car">
				<path id="Pfad_5" class="st1" d="M207.7,1965h12.7l33.8-62h108.5l44,62c11,0,58,9,58,20v28c0,11-9,20-20,20h-237
					c-11,0-20-9-20-20v-28C187.7,1974,196.6,1965,207.7,1965z"/>
				<circle id="Ellipse_2" class="st1" cx="254.7" cy="2033" r="22"/>
				<circle id="Ellipse_3" class="st1" cx="406.7" cy="2033" r="22"/>
			</g>
			<rect id="etank" x="577.7" y="1878" class="st1" width="101" height="177"/>
			<path id="cable" class="st2" d="M579.1,1929.5c0,0-39.3-4.1-38.7,26.8s3.1,84.7-19.9,84.7s-16.6-33.2-28.1-48s-31.1-9.9-31.1-9.9
				"/>
			<g id="windmillDT" transform="translate(148 -176)" class="st3">
				<path id="Pfad_1-2" class="st4" d="M903.7,894.6h55.9l6.7,1266.4H897L903.7,894.6z"/>
				<g id="rotor-2">
					<path id="Pfad_2-2" class="st4" d="M203.5,847.8h731v58.4l-170,33.3L203.5,847.8z"/>
					<path id="Pfad_3-2" class="st4" d="M1349.2,320.7L929.6,919.4l-47.8-33.5L952,727.6L1349.2,320.7z"/>
					<path id="Pfad_4-2" class="st4" d="M1360.1,1421.6L880.6,869.7l44.1-38.3l136.7,106.5L1360.1,1421.6z"/>
					<circle id="Ellipse_1-2" class="st4" cx="934.2" cy="874.5" r="35.5"/>
				</g>
			</g>
		</g>
		<g id="Text">
			<g id="PT" transform="translate(216 583)">
				<text transform="matrix(1 0 0 1 1166.7358 1093.6605)" class="st5 st6 st7">Etwas, was (aus bestimmten Stoffen hergestellt) das </text>
				<text transform="matrix(1 0 0 1 1166.7358 1109.4945)" class="st5 st6 st7">Ergebnis menschlicher Arbeit ist. Ein Erzeugnis ist dem </text>
				<text transform="matrix(1 0 0 1 1166.7358 1125.3275)" class="st5 st6 st7">gleichzusetzen, denn Produkt kommt aus dem </text>
				<text transform="matrix(1 0 0 1 1166.7358 1141.1605)" class="st5 st6 st7">lateinischen productum = das Hervorgebrachte, </text>
				<text transform="matrix(1 0 0 1 1166.7358 1156.9935)" class="st5 st6 st7">substantiviertes Neutrum des 2. Partizip von: producere, </text>
				<text transform="matrix(1 0 0 1 1166.7358 1172.8275)" class="st5 st6 st7">produzieren.</text>
				<text transform="matrix(1 0 0 1 1166.7358 1050.9105)" class="st5 st6 st8">physisches Produkt</text>
			</g>
			<g id="DT" transform="translate(216 523)">
				<text transform="matrix(1 0 0 1 1506.0972 1121.9945)" class="st4 st6 st7">Ist die digitale Repräsentanz eines physischen Produkts </text>
				<text transform="matrix(1 0 0 1 1506.0972 1137.8275)" class="st4 st6 st7">oder Prozesses. Dabei sind beide durch Daten- und </text>
				<text transform="matrix(1 0 0 1 1506.0972 1153.6605)" class="st4 st6 st7">Informationsaustausch verknüpft.</text>
				<text transform="matrix(1 0 0 1 1506.0972 1169.4945)" class="st4 st6 st7">Der digitale Zwilling ist im Idealfall von seinem </text>
				<text transform="matrix(1 0 0 1 1506.0972 1185.3275)" class="st4 st6 st7">physischen Gegenstück nicht zu unterscheiden.</text>
				<text transform="matrix(1 0 0 1 1506.0972 1079.2445)" class="st4 st6 st8">digitaler Zwilling</text>
			</g>
		</g>
	</g>
</g>
</svg>
