<?xml version="1.0" encoding="utf-8"?>
<!-- Generator: Adobe Illustrator 23.0.0, SVG Export Plug-In . SVG Version: 6.00 Build 0)  -->
<svg version="1.1" id="Ebene_1" xmlns="http://www.w3.org/2000/svg" xmlns:xlink="http://www.w3.org/1999/xlink" x="0px" y="0px"
	 viewBox="0 0 3840 2160" style="enable-background:new 0 0 3840 2160;" xml:space="preserve">
<style type="text/css">
	.st0{clip-path:url(#SVGID_2_);}
	.st1{fill:#6C6C6C;}
	.st2{opacity:0.8;}
	.st3{fill:#FFFFFF;}
	.st4{fill:none;stroke:#6C6C6C;stroke-width:5;}
	.st5{opacity:0.79;}
	.st6{opacity:0.79;fill:#FFFFFF;enable-background:new    ;}
	.st7{opacity:0.8;fill:none;stroke:#FFFFFF;stroke-width:5;enable-background:new    ;}
</style>
<g>
	<defs>
		<rect id="SVGID_1_" width="3840" height="2160"/>
	</defs>
	<clipPath id="SVGID_2_">
		<use xlink:href="#SVGID_1_"  style="overflow:visible;"/>
	</clipPath>
	<g id="idea2-v1_-_1_10" class="st0">
		<rect width="3840" height="2160"/>
		<g id="windmill" transform="translate(205.073 66.76)">
			<path id="Pfad_1" class="st1" d="M737.2,659.8h58.9l7,1333.5h-73L737.2,659.8z"/>
			<g id="rotor" transform="translate(0 0)">
				<path id="Pfad_2" class="st1" d="M0,610.5h769.7V672l-179,35.1L0,610.5z"/>
				<path id="Pfad_3" class="st1" d="M1206.4,55.4L764.6,685.8l-50.4-35.3l74-166.7L1206.4,55.4z"/>
				<path id="Pfad_4" class="st1" d="M1217.9,1214.7L713,633.6l46.4-40.3l143.9,112.1L1217.9,1214.7z"/>
				<ellipse id="Ellipse_1" class="st1" cx="769.3" cy="638.6" rx="37.4" ry="37.4"/>
			</g>
		</g>
		<g id="windmillDT" transform="translate(346.592 -8)" class="st2">
			<path id="Pfad_1-2" class="st3" d="M737.2,659.8h58.9l7,1333.5h-73L737.2,659.8z"/>
			<g id="rotor-2" transform="translate(0 0)">
				<path id="Pfad_2-2" class="st3" d="M0,610.5h769.7V672l-179,35.1L0,610.5z"/>
				<path id="Pfad_3-2" class="st3" d="M1206.4,55.4L764.6,685.8l-50.4-35.3l74-166.7L1206.4,55.4z"/>
				<path id="Pfad_4-2" class="st3" d="M1217.9,1214.7L713,633.6l46.4-40.3l143.9,112.1L1217.9,1214.7z"/>
				<ellipse id="Ellipse_1-2" class="st3" cx="769.3" cy="638.6" rx="37.4" ry="37.4"/>
			</g>
		</g>
		<g id="Gruppe_6" transform="translate(-15087 -12088)">
			<rect id="ground" x="15087" y="14143" class="st1" width="3840" height="105"/>
			<g id="car" transform="translate(15087 12088)">
				<path id="Pfad_5" class="st1" d="M203,1965h12.7l33.8-62H358l44,62c11,0,58,9,58,20v28c0,11-9,20-20,20H203c-11,0-20-9-20-20
					v-28C183,1974,192,1965,203,1965z"/>
				<circle id="Ellipse_2" class="st1" cx="250" cy="2033" r="22"/>
				<circle id="Ellipse_3" class="st1" cx="402" cy="2033" r="22"/>
			</g>
			<rect id="etank" x="15660" y="13966" class="st1" width="101" height="177"/>
			<path id="cable" class="st4" d="M15661.5,14017.5c0,0-39.3-4.1-38.7,26.8c0.5,31,3.1,84.7-19.9,84.7s-16.6-33.2-28.1-48
				c-11.5-14.8-31.1-9.9-31.1-9.9"/>
			<g id="car-2" transform="translate(15147 12022)" class="st5">
				<path id="Pfad_5-2" class="st3" d="M203,1965h12.7l33.8-62H358l44,62c11,0,58,9,58,20v28c0,11-9,20-20,20H203c-11,0-20-9-20-20
					v-28C183,1974,192,1965,203,1965z"/>
				<circle id="Ellipse_2-2" class="st3" cx="250" cy="2033" r="22"/>
				<circle id="Ellipse_3-2" class="st3" cx="402" cy="2033" r="22"/>
			</g>
			<rect id="etank-2" x="15720" y="13900" class="st6" width="101" height="177"/>
			<path id="cable-2" class="st7" d="M15721.5,13952.5c0,0-39.3-4.1-38.7,26.8c0.5,31,3.1,84.7-19.9,84.7s-16.6-33.2-28.1-48
				c-11.5-14.8-31.1-9.9-31.1-9.9"/>
		</g>
	</g>
</g>
</svg>
